<svg width="20" height="20" viewBox="0 0 20 20" fill="none" xmlns="http://www.w3.org/2000/svg">
<g id="tabler-icon-browser">
<path id="Vector" d="M3.33325 4.16665C3.33325 3.94563 3.42105 3.73367 3.57733 3.57739C3.73361 3.42111 3.94557 3.33331 4.16659 3.33331H15.8333C16.0543 3.33331 16.2662 3.42111 16.4225 3.57739C16.5788 3.73367 16.6666 3.94563 16.6666 4.16665V15.8333C16.6666 16.0543 16.5788 16.2663 16.4225 16.4226C16.2662 16.5788 16.0543 16.6666 15.8333 16.6666H4.16659C3.94557 16.6666 3.73361 16.5788 3.57733 16.4226C3.42105 16.2663 3.33325 16.0543 3.33325 15.8333V4.16665Z" stroke="white" stroke-width="2" stroke-linecap="round" stroke-linejoin="round"/>
<path id="Vector_2" d="M3.33325 6.66669H16.6666" stroke="white" stroke-width="2" stroke-linecap="round" stroke-linejoin="round"/>
<path id="Vector_3" d="M6.66675 3.33331V6.66665" stroke="white" stroke-width="2" stroke-linecap="round" stroke-linejoin="round"/>
</g>
</svg>
