<svg width="120" height="87" viewBox="0 0 120 87" fill="none" xmlns="http://www.w3.org/2000/svg">
<g id="Group 183">
<path id="Vector (Stroke)" fill-rule="evenodd" clip-rule="evenodd" d="M27.5187 20.8881C26.7873 22.32 26.1086 24.4029 25.6528 27.0866C25.0373 30.7117 24.9049 34.9855 25.3604 39.2297C25.8172 43.4863 26.846 47.5359 28.4269 50.7883C28.7815 51.5176 29.1563 52.1925 29.5497 52.8126C29.5509 52.4351 29.554 52.0551 29.5571 51.6747C29.5581 51.5517 29.5591 51.4287 29.56 51.3057C29.5642 50.7653 29.5678 50.2858 29.5678 49.8641C29.5678 48.0184 29.7671 44.8641 31.7915 42.1523C33.9881 39.2098 37.6109 37.6847 42.5048 37.6847H48.4262C45.835 34.4285 41.6807 29.8689 37.2606 26.2667C34.939 24.3746 32.6651 22.8467 30.6045 21.889C29.3682 21.3145 28.3451 21.0083 27.5187 20.8881ZM68.1651 37.6847H74.0865C78.9804 37.6847 82.6032 39.2098 84.7998 42.1523C86.8242 44.8641 87.0235 48.0184 87.0235 49.8641C87.0235 50.2858 87.0271 50.7653 87.0312 51.3057C87.0322 51.4287 87.0332 51.5517 87.0342 51.6746C87.0373 52.0551 87.0404 52.4351 87.0415 52.8126C87.435 52.1925 87.8098 51.5176 88.1643 50.7883C89.7452 47.5359 90.7741 43.4863 91.2309 39.2297C91.6863 34.9855 91.554 30.7117 90.9384 27.0866C90.4827 24.4029 89.804 22.32 89.0726 20.8881C88.2462 21.0083 87.2231 21.3145 85.9868 21.889C83.9262 22.8467 81.6523 24.3746 79.3306 26.2667C74.9106 29.8689 70.7562 34.4285 68.1651 37.6847ZM80.851 64.8813C80.3802 65.0579 79.8984 65.2116 79.418 65.3456C77.5364 65.87 75.3486 66.1806 73.198 66.2584C71.0571 66.3359 68.7633 66.1897 66.702 65.6856C64.7884 65.2177 62.3388 64.2638 60.8174 62.1445C60.0912 61.133 59.421 60.6938 59.022 60.5053C58.8471 60.4227 58.7143 60.3834 58.6366 60.3657L58.2956 60.4125L57.9547 60.3657C57.877 60.3834 57.7441 60.4227 57.5692 60.5053C57.1703 60.6938 56.5001 61.133 55.7739 62.1445C54.2525 64.2638 51.8029 65.2177 49.8892 65.6856C47.828 66.1897 45.5342 66.3359 43.3933 66.2584C41.2427 66.1806 39.0549 65.87 37.1733 65.3456C36.6929 65.2117 36.2111 65.0579 35.7403 64.8813C35.3176 66.6178 34.9353 67.9282 34.5955 68.9058L34.5949 68.9077C38.2024 73.0795 46.3983 79.3096 58.1892 78.9926L58.2956 78.9898L58.4021 78.9926C70.193 79.3096 78.3889 73.0795 81.9964 68.9077L81.9958 68.9058C81.656 67.9282 81.2737 66.6178 80.851 64.8813ZM28.0853 62.7983C25.1148 60.6183 22.9011 57.5607 21.2956 54.2578C19.2129 49.9731 18.0022 44.9816 17.4759 40.0766C16.9481 35.1593 17.0889 30.1512 17.835 25.7579C18.5608 21.4835 19.9412 17.3035 22.2709 14.4648L23.192 13.3425L24.6196 13.0804C27.8648 12.4846 31.1249 13.3833 33.9455 14.6941C36.8188 16.0296 39.6622 17.9914 42.269 20.1158C46.4676 23.5376 50.3667 27.6409 53.1963 30.9954C53.7074 30.8733 54.19 30.7856 54.6154 30.7202C56.0186 30.5043 57.3718 30.4502 58.2957 30.4706C59.2195 30.4502 60.5727 30.5043 61.9759 30.7202C62.4013 30.7856 62.8839 30.8733 63.395 30.9954C66.2246 27.6409 70.1236 23.5376 74.3223 20.1158C76.9291 17.9914 79.7724 16.0296 82.6458 14.6941C85.4664 13.3833 88.7265 12.4846 91.9716 13.0804L93.3993 13.3425L94.3204 14.4648C96.6501 17.3035 98.0304 21.4835 98.7563 25.7579C99.5023 30.1512 99.6432 35.1593 99.1154 40.0766C98.589 44.9816 97.3784 49.9731 95.2957 54.2577C93.6902 57.5607 91.4765 60.6183 88.506 62.7983C88.8134 64.0779 89.0795 65.0345 89.2991 65.7338L93.3534 66.3293L89.9539 71.5245C86.3257 77.0693 75.2172 87.3365 58.2956 86.9259C41.3741 87.3365 30.2656 77.0693 26.6374 71.5245L23.2379 66.3293L27.2922 65.7338C27.5118 65.0345 27.7779 64.0779 28.0853 62.7983ZM38.145 46.8995C37.7171 47.4727 37.4977 48.4248 37.4977 49.8641C37.4977 50.3191 37.4938 50.8274 37.4898 51.3558L37.4897 51.3663C37.473 53.5499 37.4637 54.8698 37.5959 55.905C37.6856 56.6075 37.8192 56.9668 37.9637 57.2049C37.9828 57.2152 38.0044 57.2267 38.0289 57.2392C38.2873 57.3709 38.7073 57.5376 39.3016 57.7033C40.4892 58.0343 42.0473 58.2712 43.6799 58.3303C45.3222 58.3897 46.849 58.2622 48.0065 57.9791C49.0555 57.7226 49.3694 57.4485 49.3765 57.4562C52.1062 53.6917 55.6774 52.2996 58.2956 52.429C60.9139 52.2996 64.485 53.6918 67.2147 57.4563C67.2218 57.4486 67.5357 57.7226 68.5848 57.9791C69.7423 58.2622 71.2691 58.3897 72.9114 58.3303C74.544 58.2712 76.1021 58.0343 77.2897 57.7033C77.884 57.5376 78.304 57.3709 78.5624 57.2392C78.5868 57.2267 78.6085 57.2152 78.6276 57.2049C78.7721 56.9668 78.9057 56.6075 78.9954 55.905C79.1276 54.8698 79.1183 53.5499 79.1016 51.3663L79.1015 51.3549C79.0975 50.8268 79.0936 50.3189 79.0936 49.8641C79.0936 48.4248 78.8742 47.4727 78.4463 46.8995C78.1905 46.5568 77.3273 45.6181 74.0865 45.6181H42.5048C39.264 45.6181 38.4008 46.5568 38.145 46.8995Z" fill="url(#paint0_linear_22069_26218)"/>
<path id="Star 1" d="M10.5445 17.4003C10.9536 18.1069 12.034 17.8174 12.035 17.001L12.0407 12.2796C12.041 11.9949 12.1929 11.7318 12.4393 11.5891L16.5253 9.2235C17.2318 8.81444 16.9423 7.73407 16.1259 7.73308L11.4046 7.72736C11.1198 7.72701 10.8568 7.57514 10.7141 7.32871L8.34845 3.24274C7.93939 2.53621 6.85902 2.82569 6.85803 3.6421L6.85231 8.36347C6.85197 8.64822 6.70009 8.91127 6.45366 9.05395L2.3677 11.4196C1.66116 11.8286 1.95065 12.909 2.76705 12.91L7.48842 12.9157C7.77318 12.9161 8.03623 13.0679 8.1789 13.3144L10.5445 17.4003Z" fill="url(#paint1_linear_22069_26218)"/>
<path id="Star 2" d="M104.905 69.7944C104.906 70.3387 105.626 70.5316 105.899 70.0606L107.476 67.3366C107.571 67.1724 107.746 67.0711 107.936 67.0709L111.084 67.0671C111.628 67.0664 111.821 66.3462 111.35 66.0735L108.626 64.4964C108.462 64.4012 108.361 64.2259 108.36 64.036L108.357 60.8885C108.356 60.3442 107.636 60.1512 107.363 60.6222L105.786 63.3462C105.691 63.5105 105.515 63.6117 105.326 63.612L102.178 63.6158C101.634 63.6164 101.441 64.3367 101.912 64.6094L104.636 66.1865C104.8 66.2816 104.901 66.457 104.901 66.6468L104.905 69.7944Z" fill="url(#paint2_linear_22069_26218)"/>
<g id="BETA">
<path id="Rectangle 187" d="M75.65 27.7402C75.65 23.4804 79.1033 20.0272 83.3631 20.0272H112.287C116.547 20.0272 120 23.4804 120 27.7402C120 32 116.547 35.4533 112.287 35.4533H83.3631C79.1033 35.4533 75.65 32 75.65 27.7402Z" fill="white"/>
<path id="Rectangle 187 (Stroke)" fill-rule="evenodd" clip-rule="evenodd" d="M112.287 21.0556H83.3631C79.6712 21.0556 76.6784 24.0484 76.6784 27.7402C76.6784 31.432 79.6712 34.4249 83.3631 34.4249H112.287C115.979 34.4249 118.972 31.432 118.972 27.7402C118.972 24.0484 115.979 21.0556 112.287 21.0556ZM83.3631 20.0272C79.1033 20.0272 75.65 23.4804 75.65 27.7402C75.65 32 79.1033 35.4533 83.3631 35.4533H112.287C116.547 35.4533 120 32 120 27.7402C120 23.4804 116.547 20.0272 112.287 20.0272H83.3631Z" fill="#1C1D23" fill-opacity="0.08"/>
<path id="Vector" d="M105.143 31.3631H103.697L106.33 23.8838H108.002L110.639 31.3631H109.193L107.195 25.4176H107.137L105.143 31.3631ZM105.19 28.4305H109.134V29.5188H105.19V28.4305Z" fill="url(#paint3_linear_22069_26218)"/>
<path id="Vector_2" d="M97.9684 25.0195V23.8838H103.936V25.0195H101.624V31.3631H100.28V25.0195H97.9684Z" fill="url(#paint4_linear_22069_26218)"/>
<path id="Vector_3" d="M92.0503 31.3631V23.8838H96.9148V25.0195H93.4052V27.0501H96.6628V28.1858H93.4052V30.2273H96.944V31.3631H92.0503Z" fill="url(#paint5_linear_22069_26218)"/>
<path id="Vector_4" d="M85.2913 31.363V23.8837H88.1545C88.695 23.8837 89.1442 23.9689 89.5021 24.1394C89.8624 24.3074 90.1314 24.5374 90.3092 24.8296C90.4893 25.1218 90.5794 25.4529 90.5794 25.8229C90.5794 26.1273 90.521 26.3878 90.4041 26.6045C90.2873 26.8187 90.1302 26.9928 89.933 27.1267C89.7358 27.2606 89.5155 27.3568 89.272 27.4152V27.4883C89.5374 27.5029 89.7918 27.5844 90.0353 27.7329C90.2812 27.879 90.482 28.086 90.6379 28.3538C90.7937 28.6216 90.8716 28.9454 90.8716 29.3252C90.8716 29.7123 90.7779 30.0605 90.5904 30.3697C90.4029 30.6765 90.1205 30.9187 89.7431 31.0964C89.3657 31.2742 88.891 31.363 88.3188 31.363H85.2913ZM86.6462 30.2309H88.1034C88.5952 30.2309 88.9494 30.1372 89.1661 29.9497C89.3852 29.7598 89.4948 29.5163 89.4948 29.2193C89.4948 28.9978 89.44 28.7981 89.3304 28.6204C89.2209 28.4402 89.0651 28.299 88.863 28.1967C88.6609 28.0921 88.4199 28.0397 88.1399 28.0397H86.6462V30.2309ZM86.6462 27.0646H87.9865C88.2202 27.0646 88.4308 27.022 88.6183 26.9368C88.8058 26.8492 88.9531 26.7262 89.0602 26.568C89.1698 26.4073 89.2245 26.2174 89.2245 25.9982C89.2245 25.7085 89.1223 25.4699 88.9178 25.2824C88.7157 25.095 88.415 25.0012 88.0157 25.0012H86.6462V27.0646Z" fill="url(#paint6_linear_22069_26218)"/>
</g>
</g>
<defs>
<linearGradient id="paint0_linear_22069_26218" x1="21.62" y1="17.1902" x2="95.9911" y2="82.608" gradientUnits="userSpaceOnUse">
<stop stop-color="#3F8FFF"/>
<stop offset="1" stop-color="#EF2FDF"/>
</linearGradient>
<linearGradient id="paint1_linear_22069_26218" x1="4.07193" y1="19.6669" x2="17.0368" y2="2.44108" gradientUnits="userSpaceOnUse">
<stop stop-color="#3F8FFF"/>
<stop offset="1" stop-color="#EF2FDF"/>
</linearGradient>
<linearGradient id="paint2_linear_22069_26218" x1="100.413" y1="68.9455" x2="113.64" y2="63.3218" gradientUnits="userSpaceOnUse">
<stop stop-color="#3F8FFF"/>
<stop offset="1" stop-color="#EF2FDF"/>
</linearGradient>
<linearGradient id="paint3_linear_22069_26218" x1="85.9911" y1="22.8753" x2="95.8974" y2="40.8474" gradientUnits="userSpaceOnUse">
<stop stop-color="#3F8FFF"/>
<stop offset="1" stop-color="#EF2FDF"/>
</linearGradient>
<linearGradient id="paint4_linear_22069_26218" x1="85.9911" y1="22.8753" x2="95.8974" y2="40.8474" gradientUnits="userSpaceOnUse">
<stop stop-color="#3F8FFF"/>
<stop offset="1" stop-color="#EF2FDF"/>
</linearGradient>
<linearGradient id="paint5_linear_22069_26218" x1="85.9911" y1="22.8753" x2="95.8974" y2="40.8474" gradientUnits="userSpaceOnUse">
<stop stop-color="#3F8FFF"/>
<stop offset="1" stop-color="#EF2FDF"/>
</linearGradient>
<linearGradient id="paint6_linear_22069_26218" x1="85.9911" y1="22.8753" x2="95.8974" y2="40.8473" gradientUnits="userSpaceOnUse">
<stop stop-color="#3F8FFF"/>
<stop offset="1" stop-color="#EF2FDF"/>
</linearGradient>
</defs>
</svg>
