<svg width="24" height="24" viewBox="0 0 24 24" fill="none" xmlns="http://www.w3.org/2000/svg">
<g id="EditorPanel">
<rect width="24" height="24" rx="4" fill="#FF7D00"/>
<g id="Group 1">
<path id="Vector" opacity="0.7" d="M18.248 18.944H6.152C5.5152 18.944 5 18.4288 5 17.792V9.152C5 8.5152 5.5152 8 6.152 8H18.248C18.8848 8 19.4 8.5152 19.4 9.152V17.792C19.4 18.4288 18.8848 18.944 18.248 18.944Z" fill="white"/>
<path id="Vector_2" opacity="0.7" d="M18.248 13.184H6.152C5.5152 13.184 5 12.6688 5 12.032V9.152C5 8.5152 5.5152 8 6.152 8H18.248C18.8848 8 19.4 8.5152 19.4 9.152V12.032C19.4 12.6688 18.8848 13.184 18.248 13.184Z" fill="white"/>
<path id="Vector_3" d="M8.7439 12.032H10.4719V14.336H8.7439V12.032ZM13.9279 12.032H15.6559V14.336H13.9279V12.032Z" fill="white"/>
<path id="Subtract" fill-rule="evenodd" clip-rule="evenodd" d="M15.9441 9V7.32923C15.9441 6.59446 15.4289 6 14.7921 6H9.60805C8.97125 6 8.45605 6.59446 8.45605 7.32923V9H9.60805V7.32923H14.7921L14.7904 9H15.9441Z" fill="white"/>
</g>
</g>
</svg>
