<svg width="82" height="78" viewBox="0 0 82 78" fill="none" xmlns="http://www.w3.org/2000/svg">
<g id="freepik--Folder--inject-67">
<path id="Vector" d="M28.2488 25.9778L27.7688 24.6298C27.4386 23.7033 26.8038 22.9162 25.9682 22.3974C25.1325 21.8786 24.1456 21.6587 23.1688 21.7738L4.05277 24.0098C2.90762 24.1441 1.8627 24.7278 1.14784 25.6324C0.432969 26.5371 0.106694 27.6886 0.24077 28.8338L5.68077 75.3538C5.72594 75.7429 5.84737 76.1192 6.03812 76.4614C6.22887 76.8035 6.48519 77.1046 6.79243 77.3476C7.09967 77.5905 7.45179 77.7706 7.82866 77.8773C8.20553 77.9841 8.59975 78.0155 8.98877 77.9698L77.3888 69.9698C77.7786 69.9256 78.1558 69.8049 78.4988 69.6145C78.8419 69.4242 79.1439 69.168 79.3877 68.8607C79.6315 68.5533 79.8122 68.2009 79.9195 67.8236C80.0267 67.4462 80.0584 67.0514 80.0128 66.6618L75.2928 26.4458C75.2015 25.6607 74.8022 24.9441 74.1825 24.4535C73.5629 23.9629 72.7738 23.7386 71.9888 23.8298L32.2688 28.4778C31.4148 28.5766 30.5525 28.3833 29.8225 27.9293C29.0925 27.4753 28.5378 26.7874 28.2488 25.9778Z" fill="#CCCCCC"/>
<path id="Vector_2" opacity="0.5" d="M28.2487 25.9778L27.7687 24.6298C27.4386 23.7033 26.8037 22.9162 25.9681 22.3974C25.1325 21.8786 24.1456 21.6587 23.1687 21.7738L4.05272 24.0098C2.90757 24.1441 1.86266 24.7278 1.14779 25.6324C0.432924 26.5371 0.106649 27.6886 0.240725 28.8338L5.68072 75.3538C5.72589 75.7429 5.84732 76.1192 6.03807 76.4614C6.22882 76.8035 6.48514 77.1046 6.79238 77.3476C7.09962 77.5905 7.45175 77.7706 7.82861 77.8773C8.20548 77.9841 8.5997 78.0155 8.98873 77.9698L77.3887 69.9698C77.7785 69.9256 78.1558 69.8049 78.4988 69.6145C78.8418 69.4242 79.1439 69.168 79.3877 68.8607C79.6315 68.5533 79.8122 68.2009 79.9194 67.8236C80.0267 67.4462 80.0584 67.0514 80.0127 66.6618L75.2927 26.4458C75.2015 25.6607 74.8021 24.9441 74.1825 24.4535C73.5629 23.9629 72.7738 23.7386 71.9887 23.8298L32.2687 28.4778C31.4148 28.5766 30.5525 28.3833 29.8225 27.9293C29.0924 27.4753 28.5377 26.7874 28.2487 25.9778Z" fill="white"/>
<path id="Vector_3" d="M30.1575 5.74789L8.54645 10.0544L14.4798 39.829L36.0909 35.5225L30.1575 5.74789Z" fill="#CCCCCC"/>
<path id="Vector_4" opacity="0.7" d="M30.1575 5.74789L8.54645 10.0544L14.4798 39.829L36.0909 35.5225L30.1575 5.74789Z" fill="white"/>
<g id="Group" opacity="0.4">
<path id="Vector_5" d="M27.2728 12.9018L13.9608 15.5578C13.6507 15.618 13.3293 15.5535 13.0665 15.3783C12.8036 15.203 12.6205 14.9312 12.5568 14.6218C12.4966 14.3117 12.5611 13.9904 12.7363 13.7275C12.9115 13.4647 13.1834 13.2815 13.4928 13.2178L26.8128 10.5738C27.1229 10.5136 27.4442 10.5781 27.7071 10.7534C27.9699 10.9286 28.1531 11.2004 28.2168 11.5098C28.2733 11.8193 28.206 12.1385 28.0294 12.3989C27.8529 12.6592 27.5812 12.8398 27.2728 12.9018Z" fill="#CCCCCC"/>
<path id="Vector_6" d="M28.2528 17.8338L14.9408 20.5018C14.6313 20.5608 14.3109 20.4958 14.049 20.3206C13.7871 20.1455 13.6045 19.8744 13.5408 19.5658C13.4817 19.2563 13.5468 18.936 13.7219 18.674C13.8971 18.4121 14.1682 18.2295 14.4768 18.1658L27.7888 15.5138C28.0983 15.4548 28.4186 15.5198 28.6805 15.695C28.9425 15.8701 29.125 16.1412 29.1888 16.4498C29.2432 16.7569 29.1759 17.0731 29.0012 17.3315C28.8265 17.5898 28.558 17.77 28.2528 17.8338Z" fill="#CCCCCC"/>
<path id="Vector_7" d="M29.2328 22.7578L15.9208 25.4098C15.6112 25.4688 15.2909 25.4038 15.029 25.2286C14.7671 25.0535 14.5845 24.7824 14.5208 24.4738C14.4617 24.1643 14.5268 23.844 14.7019 23.582C14.8771 23.3201 15.1482 23.1375 15.4568 23.0738L28.7688 20.4178C29.0783 20.3588 29.3986 20.4238 29.6605 20.599C29.9225 20.7741 30.105 21.0452 30.1688 21.3538C30.229 21.6639 30.1644 21.9852 29.9892 22.2481C29.814 22.5109 29.5422 22.6941 29.2328 22.7578Z" fill="#CCCCCC"/>
<path id="Vector_8" d="M30.2168 27.7018L16.9048 30.3538C16.5947 30.414 16.2733 30.3495 16.0105 30.1743C15.7476 29.9991 15.5645 29.7272 15.5008 29.4178C15.4406 29.1077 15.5051 28.7864 15.6803 28.5235C15.8555 28.2607 16.1274 28.0775 16.4368 28.0138L29.7488 25.3618C30.0589 25.3016 30.3802 25.3662 30.6431 25.5414C30.9059 25.7166 31.0891 25.9884 31.1528 26.2978C31.213 26.608 31.1484 26.9293 30.9732 27.1921C30.798 27.455 30.5262 27.6381 30.2168 27.7018Z" fill="#CCCCCC"/>
<path id="Vector_9" d="M27.5568 33.3298L17.8848 35.2578C17.5752 35.3169 17.2549 35.2518 16.993 35.0766C16.7311 34.9015 16.5485 34.6304 16.4848 34.3218C16.4246 34.0117 16.4891 33.6904 16.6643 33.4275C16.8395 33.1647 17.1113 32.9815 17.4208 32.9178L27.0928 30.9898C27.4023 30.9308 27.7226 30.9959 27.9845 31.171C28.2465 31.3461 28.429 31.6172 28.4928 31.9258C28.553 32.2359 28.4884 32.5573 28.3132 32.8201C28.138 33.083 27.8662 33.2661 27.5568 33.3298Z" fill="#CCCCCC"/>
</g>
<path id="Vector_10" d="M60.9507 0.00988645L39.118 2.9967L43.2331 33.0765L65.0657 30.0897L60.9507 0.00988645Z" fill="#CCCCCC"/>
<path id="Vector_11" opacity="0.7" d="M60.9507 0.00988645L39.118 2.9967L43.2331 33.0765L65.0657 30.0897L60.9507 0.00988645Z" fill="white"/>
<g id="Group_2" opacity="0.4">
<path id="Vector_12" d="M57.6368 6.9818L44.1888 8.82181C43.8756 8.86289 43.5588 8.77883 43.3072 8.58788C43.0556 8.39693 42.8895 8.11449 42.8448 7.80181C42.8037 7.48863 42.8877 7.17189 43.0787 6.92028C43.2696 6.66868 43.5521 6.5025 43.8648 6.4578L57.3128 4.6178C57.6259 4.57672 57.9427 4.66078 58.1943 4.85173C58.4459 5.04268 58.6121 5.32512 58.6568 5.6378C58.6978 5.95098 58.6138 6.26772 58.4228 6.51933C58.2319 6.77093 57.9494 6.93711 57.6368 6.9818Z" fill="#CCCCCC"/>
<path id="Vector_13" d="M58.3168 11.9538L44.8688 13.7938C44.5556 13.8349 44.2388 13.7509 43.9872 13.5599C43.7356 13.369 43.5695 13.0865 43.5248 12.7738C43.4848 12.4613 43.5694 12.1456 43.7602 11.8949C43.9511 11.6441 44.2329 11.4786 44.5448 11.4338L57.9928 9.59383C58.3053 9.55267 58.6216 9.63619 58.873 9.82631C59.1245 10.0164 59.2911 10.2979 59.3368 10.6098C59.3778 10.923 59.2938 11.2398 59.1028 11.4914C58.9119 11.743 58.6294 11.9091 58.3168 11.9538Z" fill="#CCCCCC"/>
<path id="Vector_14" d="M49.2528 18.2618L45.5487 18.7698C45.2356 18.8109 44.9188 18.7268 44.6672 18.5359C44.4156 18.3449 44.2494 18.0625 44.2047 17.7498C44.1637 17.4366 44.2477 17.1199 44.4387 16.8683C44.6296 16.6167 44.9121 16.4505 45.2247 16.4058L48.9327 15.8978C49.2453 15.8579 49.561 15.9424 49.8117 16.1333C50.0624 16.3241 50.228 16.6059 50.2727 16.9178C50.3138 17.231 50.2298 17.5477 50.0388 17.7993C49.8479 18.0509 49.5654 18.2171 49.2528 18.2618Z" fill="#CCCCCC"/>
<path id="Vector_15" d="M56.4408 17.2778L52.7328 17.7858C52.4202 17.8258 52.1045 17.7412 51.8538 17.5503C51.6031 17.3595 51.4375 17.0777 51.3928 16.7658C51.3517 16.4526 51.4357 16.1359 51.6267 15.8843C51.8176 15.6327 52.1001 15.4665 52.4128 15.4218L56.1168 14.9178C56.4293 14.8766 56.7456 14.9602 56.9971 15.1503C57.2485 15.3404 57.4151 15.6219 57.4608 15.9338C57.5018 16.247 57.4178 16.5637 57.2268 16.8153C57.0359 17.0669 56.7535 17.2331 56.4408 17.2778Z" fill="#CCCCCC"/>
<path id="Vector_16" d="M59.6768 21.9018L46.2287 23.7418C45.9156 23.7829 45.5988 23.6988 45.3472 23.5079C45.0956 23.3169 44.9294 23.0345 44.8847 22.7218C44.8448 22.4092 44.9294 22.0935 45.1202 21.8428C45.3111 21.5921 45.5929 21.4265 45.9048 21.3818L59.3528 19.5378C59.6659 19.4967 59.9827 19.5808 60.2343 19.7717C60.4859 19.9627 60.6521 20.2451 60.6968 20.5578C60.7378 20.871 60.6538 21.1877 60.4628 21.4393C60.2719 21.6909 59.9894 21.8571 59.6768 21.9018Z" fill="#CCCCCC"/>
<path id="Vector_17" d="M56.6848 27.3778L46.9088 28.7138C46.5968 28.7538 46.2816 28.6698 46.031 28.4798C45.7804 28.2898 45.6144 28.009 45.5688 27.6978C45.5276 27.3852 45.6111 27.069 45.8013 26.8175C45.9914 26.566 46.2728 26.3995 46.5848 26.3538L56.3608 25.0178C56.6727 24.9778 56.9879 25.0618 57.2385 25.2518C57.4891 25.4419 57.6551 25.7227 57.7008 26.0338C57.7419 26.3464 57.6584 26.6626 57.4683 26.9141C57.2782 27.1656 56.9967 27.3322 56.6848 27.3778Z" fill="#CCCCCC"/>
</g>
<path id="Vector_18" d="M40.3491 4.39862L18.3963 6.31152L21.0317 36.5569L42.9846 34.644L40.3491 4.39862Z" fill="#CCCCCC"/>
<path id="Vector_19" opacity="0.8" d="M40.3491 4.39862L18.3963 6.31152L21.0317 36.5569L42.9846 34.644L40.3491 4.39862Z" fill="white"/>
<g id="Group_3" opacity="0.4">
<path id="Vector_20" d="M36.6968 11.2058L23.1728 12.3818C22.8581 12.4074 22.5461 12.3079 22.3042 12.105C22.0624 11.9021 21.9102 11.6121 21.8808 11.2978C21.8563 10.9838 21.9562 10.6728 22.159 10.4318C22.3618 10.1909 22.6512 10.0393 22.9648 10.0098L36.4888 8.8098C36.8034 8.78421 37.1155 8.88365 37.3573 9.08655C37.5991 9.28946 37.7513 9.57949 37.7808 9.89379C37.7962 10.0512 37.7804 10.2101 37.7342 10.3614C37.688 10.5126 37.6123 10.6533 37.5116 10.7752C37.4108 10.8971 37.287 10.9979 37.1472 11.0718C37.0073 11.1457 36.8543 11.1913 36.6968 11.2058Z" fill="#CCCCCC"/>
<path id="Vector_21" d="M37.1328 16.2058L23.6088 17.4058C23.2941 17.4314 22.9821 17.332 22.7402 17.1291C22.4984 16.9261 22.3462 16.6361 22.3168 16.3218C22.2912 16.0072 22.3906 15.6951 22.5935 15.4533C22.7964 15.2114 23.0865 15.0593 23.4008 15.0298L36.9248 13.8298C37.2394 13.8042 37.5515 13.9037 37.7933 14.1066C38.0351 14.3095 38.1873 14.5995 38.2168 14.9138C38.2423 15.2285 38.1429 15.5405 37.94 15.7824C37.7371 16.0242 37.4471 16.1763 37.1328 16.2058Z" fill="#CCCCCC"/>
<path id="Vector_22" d="M37.5688 21.2058L24.0448 22.4058C23.7301 22.4314 23.4181 22.332 23.1762 22.1291C22.9344 21.9261 22.7823 21.6361 22.7528 21.3218C22.7272 21.0072 22.8266 20.6951 23.0295 20.4533C23.2324 20.2114 23.5225 20.0593 23.8368 20.0298L37.3608 18.8298C37.6754 18.8042 37.9875 18.9037 38.2293 19.1066C38.4712 19.3095 38.6233 19.5995 38.6528 19.9138C38.6784 20.2285 38.5789 20.5405 38.376 20.7824C38.1731 21.0242 37.8831 21.1763 37.5688 21.2058Z" fill="#CCCCCC"/>
<path id="Vector_23" d="M38.0128 26.2058L24.4888 27.4058C24.1741 27.4314 23.8621 27.3319 23.6202 27.129C23.3784 26.9261 23.2263 26.6361 23.1968 26.3218C23.1712 26.0072 23.2706 25.6951 23.4735 25.4533C23.6764 25.2114 23.9665 25.0593 24.2808 25.0298L37.8048 23.8538C38.1194 23.8282 38.4315 23.9277 38.6733 24.1306C38.9152 24.3335 39.0673 24.6235 39.0968 24.9378C39.1158 25.2485 39.0134 25.5544 38.8111 25.791C38.6089 26.0276 38.3226 26.1763 38.0128 26.2058Z" fill="#CCCCCC"/>
<path id="Vector_24" d="M34.7448 31.5298L24.9168 32.3858C24.6002 32.4147 24.285 32.3168 24.0405 32.1136C23.796 31.9103 23.6422 31.6184 23.6128 31.3018C23.5872 30.9871 23.6866 30.6751 23.8895 30.4332C24.0924 30.1914 24.3825 30.0393 24.6968 30.0098L34.5248 29.1538C34.8394 29.1282 35.1515 29.2276 35.3933 29.4305C35.6352 29.6335 35.7873 29.9235 35.8168 30.2378C35.8425 30.5505 35.7447 30.8609 35.5443 31.1025C35.3439 31.344 35.0569 31.4974 34.7448 31.5298Z" fill="#CCCCCC"/>
</g>
<path id="Vector_25" d="M67.0989 2.92909L45.0885 3.99017L46.5504 34.3149L68.5608 33.2539L67.0989 2.92909Z" fill="#CCCCCC"/>
<path id="Vector_26" opacity="0.8" d="M67.0989 2.92909L45.0885 3.99017L46.5504 34.3149L68.5608 33.2539L67.0989 2.92909Z" fill="white"/>
<g id="Group_4" opacity="0.4">
<path id="Vector_27" d="M63.1888 9.58178L49.6328 10.2378C49.3177 10.2509 49.0102 10.1395 48.7767 9.92765C48.5431 9.71582 48.4024 9.42058 48.3848 9.10578C48.3717 8.79076 48.4831 8.48324 48.6949 8.2497C48.9067 8.01616 49.202 7.87538 49.5168 7.85778L63.0768 7.20178C63.3918 7.18868 63.6993 7.30008 63.9329 7.51191C64.1664 7.72374 64.3072 8.01898 64.3248 8.33378C64.3378 8.64946 64.2259 8.95756 64.0132 9.19121C63.8005 9.42486 63.5043 9.5652 63.1888 9.58178Z" fill="#CCCCCC"/>
<path id="Vector_28" d="M63.4328 14.5978L49.8728 15.2498C49.5578 15.2629 49.2502 15.1515 49.0167 14.9397C48.7832 14.7278 48.6424 14.4326 48.6248 14.1178C48.6117 13.8021 48.7237 13.494 48.9363 13.2604C49.149 13.0267 49.4453 12.8864 49.7608 12.8698L63.3168 12.2138C63.6325 12.2007 63.9406 12.3127 64.1742 12.5254C64.4079 12.738 64.5482 13.0343 64.5648 13.3498C64.5779 13.6648 64.4665 13.9723 64.2546 14.2059C64.0428 14.4394 63.7476 14.5802 63.4328 14.5978Z" fill="#CCCCCC"/>
<path id="Vector_29" d="M53.8528 20.1018L50.1168 20.2818C49.8017 20.2949 49.4942 20.1835 49.2607 19.9716C49.0272 19.7598 48.8864 19.4646 48.8688 19.1498C48.8557 18.8347 48.9671 18.5272 49.1789 18.2937C49.3907 18.0601 49.686 17.9194 50.0008 17.9018L53.7368 17.7178C54.0525 17.7047 54.3606 17.8166 54.5942 18.0293C54.8279 18.242 54.9682 18.5383 54.9848 18.8538C54.9979 19.1688 54.8865 19.4763 54.6746 19.7098C54.4628 19.9434 54.1676 20.0842 53.8528 20.1018Z" fill="#CCCCCC"/>
<path id="Vector_30" d="M61.0968 19.7338L57.3608 19.9138C57.0457 19.9269 56.7382 19.8155 56.5047 19.6036C56.2711 19.3918 56.1304 19.0966 56.1128 18.7818C56.0997 18.4667 56.2111 18.1592 56.4229 17.9257C56.6347 17.6921 56.93 17.5514 57.2448 17.5338L60.9808 17.3538C61.2958 17.3407 61.6033 17.4521 61.8368 17.6639C62.0704 17.8757 62.2112 18.171 62.2288 18.4858C62.2419 18.8008 62.1305 19.1083 61.9186 19.3418C61.7068 19.5754 61.4116 19.7162 61.0968 19.7338Z" fill="#CCCCCC"/>
<path id="Vector_31" d="M63.9168 24.6257L50.3568 25.2778C50.0417 25.2909 49.7342 25.1794 49.5007 24.9676C49.2671 24.7558 49.1264 24.4606 49.1088 24.1457C49.0957 23.8301 49.2076 23.522 49.4203 23.2883C49.633 23.0547 49.9292 22.9143 50.2448 22.8978L63.8008 22.2418C64.1164 22.2287 64.4245 22.3406 64.6582 22.5533C64.8918 22.766 65.0322 23.0622 65.0488 23.3778C65.0619 23.6928 64.9504 24.0003 64.7386 24.2338C64.5268 24.4674 64.2316 24.6082 63.9168 24.6257Z" fill="#CCCCCC"/>
<path id="Vector_32" d="M60.4528 29.8178L50.6008 30.2938C50.2858 30.3069 49.9782 30.1955 49.7447 29.9837C49.5112 29.7718 49.3704 29.4766 49.3528 29.1618C49.3397 28.8468 49.4511 28.5393 49.6629 28.3057C49.8747 28.0722 50.17 27.9314 50.4848 27.9138L60.3368 27.4378C60.6518 27.4247 60.9593 27.5361 61.1929 27.7479C61.4264 27.9598 61.5672 28.255 61.5848 28.5698C61.5979 28.8848 61.4865 29.1924 61.2746 29.4259C61.0628 29.6594 60.7676 29.8002 60.4528 29.8178Z" fill="#CCCCCC"/>
</g>
<path id="Vector_33" d="M34.3528 26.8378L34.0008 25.5218C33.7542 24.611 33.1816 23.8226 32.3917 23.3064C31.6019 22.7901 30.6499 22.5821 29.7168 22.7218L10.6008 24.9578C9.44104 25.0999 8.37298 25.6602 7.59682 26.5336C6.82067 27.4069 6.38972 28.5334 6.38477 29.7018L7.46877 75.2418C7.47523 75.6169 7.56193 75.9862 7.72304 76.325C7.88414 76.6638 8.11591 76.9642 8.40277 77.206C8.68962 77.4477 9.02492 77.6253 9.3861 77.7267C9.74729 77.8281 10.126 77.851 10.4968 77.7938L78.8968 69.7938C79.6909 69.6975 80.4228 69.3149 80.9551 68.7177C81.4875 68.1206 81.7839 67.3498 81.7888 66.5498L80.8528 27.1818C80.8457 26.8065 80.7585 26.4371 80.597 26.0983C80.4354 25.7595 80.2033 25.4592 79.9161 25.2175C79.6289 24.9758 79.2934 24.7983 78.932 24.6969C78.5706 24.5956 78.1917 24.5727 77.8208 24.6298L38.1048 29.2738C37.2895 29.3983 36.4569 29.2189 35.7652 28.7698C35.0735 28.3207 34.5708 27.6332 34.3528 26.8378Z" fill="#EEEEEE"/>
</g>
</svg>
