<svg width="18" height="18" viewBox="0 0 18 18" fill="none" xmlns="http://www.w3.org/2000/svg">
<g clip-path="url(#clip0_23222_42099)">
<path fill-rule="evenodd" clip-rule="evenodd" d="M1.5 0.75H5.01525C5.34169 0.749888 5.65925 0.85627 5.91975 1.053L7.2375 2.049C7.4977 2.24584 7.81498 2.35248 8.14125 2.35275H16.5C16.8978 2.35275 17.2794 2.51079 17.5607 2.79209C17.842 3.07339 18 3.45493 18 3.85275V15.75C18 16.1478 17.842 16.5294 17.5607 16.8107C17.2794 17.092 16.8978 17.25 16.5 17.25H1.5C1.10218 17.25 0.720644 17.092 0.43934 16.8107C0.158035 16.5294 0 16.1478 0 15.75V2.25C0 1.85218 0.158035 1.47064 0.43934 1.18934C0.720644 0.908035 1.10218 0.75 1.5 0.75Z" fill="#FFA200"/>
<path fill-rule="evenodd" clip-rule="evenodd" d="M0 5.32495H18V15.75C18 16.1478 17.842 16.5293 17.5607 16.8106C17.2794 17.0919 16.8978 17.25 16.5 17.25H1.5C1.10218 17.25 0.720644 17.0919 0.43934 16.8106C0.158035 16.5293 0 16.1478 0 15.75V5.32495Z" fill="#FFC154"/>
</g>
<defs>
<clipPath id="clip0_23222_42099">
<rect width="18" height="18" fill="white"/>
</clipPath>
</defs>
</svg>
