<svg width="32" height="32" viewBox="0 0 32 32" fill="none" xmlns="http://www.w3.org/2000/svg">
<rect width="32" height="32" rx="8" fill="#FFF8EB"/>
<g clip-path="url(#clip0_21647_210885)">
<path d="M24.508 10.4991C24.8421 10.8365 25.0304 11.2917 25.0323 11.7666V24.1769C25.0595 24.6895 24.8829 25.1921 24.541 25.575C24.1991 25.9579 23.7197 26.1901 23.2072 26.2209H9.19096C8.67909 26.1901 8.20029 25.9577 7.85945 25.5746C7.51862 25.1915 7.34353 24.6889 7.37256 24.1769V8.44175C7.34353 7.92978 7.51862 7.42717 7.85945 7.04404C8.20029 6.66091 8.67909 6.42849 9.19096 6.39771H19.5174C20.0646 6.39884 20.5893 6.61586 20.9774 7.00163L24.508 10.4991Z" fill="#FF7D00"/>
<path d="M10.2793 10.5059H15.708C16.0354 10.5059 16.1991 10.6696 16.1991 10.997V11.6739C16.1991 12.0013 16.0354 12.165 15.708 12.165H10.2793C9.95194 12.165 9.78824 12.0013 9.78824 11.6739V10.997C9.78824 10.6696 9.95194 10.5059 10.2793 10.5059Z" fill="#FFF8EB"/>
</g>
<defs>
<clipPath id="clip0_21647_210885">
<rect width="18.3333" height="20.4487" fill="white" transform="translate(6.83333 5.77563)"/>
</clipPath>
</defs>
</svg>
