<svg width="32" height="32" viewBox="0 0 32 32" fill="none" xmlns="http://www.w3.org/2000/svg">
<rect width="32" height="32" rx="8" fill="#EEF3FD"/>
<path opacity="0.6" d="M24.4 24.9891H7.6C6.71556 24.9891 6 24.2735 6 23.3891V11.3891C6 10.5046 6.71556 9.78906 7.6 9.78906H24.4C25.2844 9.78906 26 10.5046 26 11.3891V23.3891C26 24.2735 25.2844 24.9891 24.4 24.9891Z" fill="#315CEC"/>
<path d="M24.4 16.9891H7.6C6.71556 16.9891 6 16.2735 6 15.3891V11.3891C6 10.5046 6.71556 9.78906 7.6 9.78906H24.4C25.2844 9.78906 26 10.5046 26 11.3891V15.3891C26 16.2735 25.2844 16.9891 24.4 16.9891Z" fill="#315CEC"/>
<path d="M11.2 15.3889H13.6V18.5889H11.2V15.3889ZM18.4 15.3889H20.8V18.5889H18.4V15.3889Z" fill="#EEF3FD"/>
<path fill-rule="evenodd" clip-rule="evenodd" d="M21.2 11.1779V8.85738C21.2 7.83687 20.4844 7.01123 19.6 7.01123H12.4C11.5155 7.01123 10.8 7.83687 10.8 8.85738V11.1779H12.4V8.85738H19.6L19.5978 11.1779H21.2Z" fill="#A9BFF7"/>
</svg>
