<svg width="120" height="120" viewBox="0 0 120 120" fill="none" xmlns="http://www.w3.org/2000/svg">
<g clip-path="url(#clip0_24374_72383)">
<path fill-rule="evenodd" clip-rule="evenodd" d="M29.2418 35.3288C28.4647 36.8502 27.7434 39.0637 27.2592 41.9154C26.605 45.7675 26.4644 50.3089 26.9484 54.8189C27.4338 59.342 28.5271 63.6452 30.207 67.1012C30.5837 67.8762 30.982 68.5933 31.4001 69.2523C31.4013 68.8511 31.4046 68.4474 31.4079 68.0431C31.4089 67.9125 31.41 67.7818 31.411 67.6511C31.4154 67.0768 31.4192 66.5673 31.4192 66.1192C31.4192 64.1578 31.631 60.806 33.7822 57.9244C36.1163 54.7978 39.966 53.1772 45.1663 53.1772H51.4585C48.7051 49.717 44.2906 44.8718 39.5938 41.0441C37.1268 39.0335 34.7105 37.41 32.5209 36.3924C31.2072 35.7818 30.12 35.4565 29.2418 35.3288ZM72.4335 53.1772H78.7256C83.926 53.1772 87.7757 54.7978 90.1098 57.9244C92.2609 60.806 92.4727 64.1578 92.4727 66.1192C92.4727 66.5673 92.4766 67.0768 92.481 67.6511C92.482 67.7817 92.483 67.9124 92.4841 68.0431C92.4874 68.4473 92.4907 68.8511 92.4919 69.2523C92.91 68.5933 93.3083 67.8762 93.685 67.1012C95.3649 63.6452 96.4582 59.342 96.9436 54.8189C97.4276 50.3089 97.287 45.7675 96.6328 41.9154C96.1486 39.0637 95.4273 36.8502 94.6502 35.3288C93.772 35.4565 92.6848 35.7818 91.3711 36.3924C89.1815 37.41 86.7652 39.0335 84.2982 41.0441C79.6014 44.8718 75.1869 49.717 72.4335 53.1772ZM85.9137 82.0767C85.4135 82.2644 84.9015 82.4277 84.391 82.57C82.3916 83.1273 80.0668 83.4574 77.7815 83.5401C75.5065 83.6224 73.0691 83.467 70.8788 82.9314C68.8453 82.4342 66.2423 81.4205 64.6256 79.1686C63.8539 78.0937 63.1418 77.627 62.7179 77.4267C62.532 77.3389 62.3909 77.2971 62.3083 77.2783L61.946 77.3281L61.5837 77.2783C61.5011 77.2971 61.36 77.3389 61.1741 77.4267C60.7502 77.627 60.038 78.0937 59.2664 79.1686C57.6497 81.4205 55.0467 82.4342 53.0132 82.9314C50.8229 83.467 48.3855 83.6224 46.1105 83.5401C43.8252 83.4574 41.5004 83.1273 39.501 82.57C38.9905 82.4278 38.4785 82.2644 37.9783 82.0767C37.5291 83.922 37.1229 85.3144 36.7618 86.3532L36.7611 86.3553C40.5945 90.7883 49.3037 97.4084 61.8328 97.0717L61.946 97.0686L62.0591 97.0717C74.5883 97.4084 83.2975 90.7883 87.1309 86.3553L87.1302 86.3532C86.7691 85.3144 86.3629 83.9219 85.9137 82.0767ZM29.8439 79.8633C26.6875 77.5468 24.3351 74.2978 22.629 70.7879C20.416 66.235 19.1295 60.9309 18.5701 55.7188C18.0094 50.4935 18.159 45.1719 18.9518 40.5035C19.7231 35.9614 21.1899 31.5197 23.6655 28.5032L24.6442 27.3107L26.1613 27.0321C29.6096 26.3991 33.0739 27.354 36.071 28.7469C39.1243 30.166 42.1457 32.2506 44.9158 34.5081C49.3773 38.1442 53.5205 42.5044 56.5274 46.0689C57.0704 45.9392 57.5833 45.846 58.0353 45.7765C59.5264 45.5471 60.9643 45.4896 61.946 45.5113C62.9277 45.4896 64.3656 45.5471 65.8567 45.7765C66.3087 45.846 66.8216 45.9392 67.3646 46.0689C70.3715 42.5044 74.5146 38.1442 78.9762 34.5081C81.7462 32.2506 84.7676 30.166 87.8209 28.7469C90.8181 27.354 94.2823 26.3991 97.7307 27.0321L99.2478 27.3107L100.227 28.5032C102.702 31.5197 104.169 35.9614 104.94 40.5035C105.733 45.1719 105.883 50.4935 105.322 55.7188C104.762 60.9309 103.476 66.235 101.263 70.7879C99.5569 74.2978 97.2045 77.5468 94.048 79.8633C94.3747 81.223 94.6575 82.2395 94.8909 82.9826L99.199 83.6154L95.5866 89.1359C91.7313 95.0279 79.9272 105.938 61.946 105.502C43.9648 105.938 32.1607 95.0279 28.3054 89.1359L24.693 83.6154L29.0011 82.9826C29.2345 82.2395 29.5173 81.223 29.8439 79.8633ZM40.5336 62.9689C40.0788 63.578 39.8457 64.5897 39.8457 66.1192C39.8457 66.6026 39.8416 67.1427 39.8373 67.7042L39.8372 67.7154C39.8195 70.0358 39.8096 71.4383 39.95 72.5383C40.0453 73.2848 40.1873 73.6666 40.3409 73.9196C40.3611 73.9306 40.3842 73.9428 40.4102 73.956C40.6848 74.096 41.131 74.2732 41.7626 74.4492C43.0246 74.801 44.6802 75.0527 46.415 75.1155C48.1602 75.1786 49.7826 75.0431 51.0126 74.7423C52.1273 74.4698 52.4608 74.1785 52.4684 74.1867C55.369 70.1864 59.1638 68.7071 61.946 68.8446C64.7282 68.7071 68.5229 70.1865 71.4235 74.1868C71.4311 74.1786 71.7647 74.4698 72.8794 74.7423C74.1094 75.0431 75.7318 75.1786 77.477 75.1155C79.2118 75.0527 80.8674 74.801 82.1294 74.4492C82.761 74.2732 83.2072 74.096 83.4818 73.956C83.5078 73.9428 83.5308 73.9306 83.5511 73.9196C83.7047 73.6666 83.8466 73.2848 83.942 72.5383C84.0824 71.4383 84.0725 70.0358 84.0548 67.7154L84.0547 67.7033C84.0504 67.1422 84.0463 66.6024 84.0463 66.1192C84.0463 64.5897 83.8132 63.578 83.3584 62.9689C83.0866 62.6048 82.1693 61.6073 78.7256 61.6073H45.1663C41.7226 61.6073 40.8054 62.6048 40.5336 62.9689Z" fill="url(#paint0_linear_24374_72383)"/>
<path d="M11.2049 31.6226C11.6396 32.3734 12.7876 32.0658 12.7887 31.1983L12.7948 26.1813C12.7951 25.8787 12.9565 25.5992 13.2184 25.4475L17.5602 22.9338C18.311 22.4991 18.0034 21.3511 17.1358 21.35L12.1188 21.3439C11.8162 21.3436 11.5367 21.1822 11.3851 20.9203L8.87133 16.5785C8.43666 15.8277 7.28864 16.1353 7.28758 17.0029L7.28151 22.0199C7.28114 22.3225 7.11976 22.602 6.8579 22.7536L2.51607 25.2674C1.7653 25.7021 2.07291 26.8501 2.94044 26.8511L7.95745 26.8572C8.26004 26.8576 8.53956 27.019 8.69117 27.2808L11.2049 31.6226Z" fill="url(#paint1_linear_24374_72383)"/>
<path d="M111.474 87.2975C111.475 87.8759 112.24 88.081 112.53 87.5805L114.206 84.6859C114.307 84.5113 114.493 84.4037 114.695 84.4035L118.04 84.3994C118.618 84.3987 118.823 83.6334 118.323 83.3436L115.428 81.6678C115.254 81.5667 115.146 81.3803 115.146 81.1786L115.142 77.8339C115.141 77.2556 114.376 77.0505 114.086 77.551L112.41 80.4456C112.309 80.6202 112.123 80.7277 111.921 80.728L108.576 80.732C107.998 80.7327 107.793 81.4981 108.293 81.7879L111.188 83.4637C111.362 83.5648 111.47 83.7511 111.47 83.9529L111.474 87.2975Z" fill="url(#paint2_linear_24374_72383)"/>
</g>
<defs>
<linearGradient id="paint0_linear_24374_72383" x1="22.9737" y1="31.3993" x2="102.002" y2="100.913" gradientUnits="userSpaceOnUse">
<stop stop-color="#3F8FFF"/>
<stop offset="1" stop-color="#EF2FDF"/>
</linearGradient>
<linearGradient id="paint1_linear_24374_72383" x1="4.85488" y1="32.9896" x2="17.1508" y2="16.4531" gradientUnits="userSpaceOnUse">
<stop stop-color="#3F8FFF"/>
<stop offset="1" stop-color="#EF2FDF"/>
</linearGradient>
<linearGradient id="paint2_linear_24374_72383" x1="107.352" y1="85.9701" x2="119.964" y2="80.5214" gradientUnits="userSpaceOnUse">
<stop stop-color="#3F8FFF"/>
<stop offset="1" stop-color="#EF2FDF"/>
</linearGradient>
<clipPath id="clip0_24374_72383">
<rect width="120" height="120" rx="4.74074" fill="white"/>
</clipPath>
</defs>
</svg>
