<svg width="16" height="17" viewBox="0 0 16 17" fill="none" xmlns="http://www.w3.org/2000/svg">
<path d="M6.40998 13.8334H4.66665C4.31302 13.8334 3.97389 13.6929 3.72384 13.4428C3.47379 13.1928 3.33331 12.8536 3.33331 12.5V4.50002C3.33331 4.1464 3.47379 3.80726 3.72384 3.55721C3.97389 3.30716 4.31302 3.16669 4.66665 3.16669H9.99998C10.3536 3.16669 10.6927 3.30716 10.9428 3.55721C11.1928 3.80726 11.3333 4.1464 11.3333 4.50002V5.50006" stroke="black" stroke-width="1.5" stroke-linecap="round" stroke-linejoin="round"/>
<path d="M11.3 14.5C11.476 13.7725 11.8491 13.1076 12.3783 12.5784C12.9076 12.0491 13.5725 11.676 14.3 11.5C13.5725 11.324 12.9076 10.9509 12.3783 10.4216C11.8491 9.89239 11.476 9.22749 11.3 8.5C11.124 9.22749 10.7509 9.89239 10.2216 10.4216C9.69238 10.9509 9.02748 11.324 8.29999 11.5C9.02748 11.676 9.69238 12.0491 10.2216 12.5784C10.7509 13.1076 11.124 13.7725 11.3 14.5Z" stroke="black" stroke-width="1.5" stroke-linecap="round" stroke-linejoin="round"/>
<path d="M6 5.83331H8.66667" stroke="black" stroke-width="1.5" stroke-linecap="round" stroke-linejoin="round"/>
<path d="M6 8.5H7.33333" stroke="black" stroke-width="1.5" stroke-linecap="round" stroke-linejoin="round"/>
</svg>
