<svg width="24" height="24" viewBox="0 0 24 24" fill="none" xmlns="http://www.w3.org/2000/svg">
<g clip-path="url(#clip0_21647_332933)">
<path fill-rule="evenodd" clip-rule="evenodd" d="M15.763 0L23 7.237V22C23 22.5304 22.7893 23.0391 22.4142 23.4142C22.0391 23.7893 21.5304 24 21 24H3C2.46957 24 1.96086 23.7893 1.58579 23.4142C1.21071 23.0391 1 22.5304 1 22V2C1 1.46957 1.21071 0.960859 1.58579 0.585786C1.96086 0.210714 2.46957 0 3 0L15.763 0Z" fill="#FF414C"/>
<path d="M11.448 9.184C12.021 9.207 12.476 9.583 12.591 10.225C12.652 10.523 12.671 10.845 12.654 11.193C12.63 11.654 12.55 12.112 12.401 12.739C12.3868 12.799 12.3725 12.859 12.358 12.919L12.321 13.069C12.723 14.116 13.289 14.829 14.129 15.346C14.6981 15.2674 15.2725 15.2333 15.847 15.244C16.585 15.268 17.13 15.407 17.426 15.698C17.712 15.983 17.818 16.5 17.684 16.946C17.532 17.453 17.112 17.776 16.491 17.776C15.737 17.776 14.619 17.436 13.651 16.918C13.094 17.012 12.481 17.178 11.672 17.442C11.486 17.502 11.297 17.566 11.037 17.654L10.625 17.793L10.486 17.84L10.244 17.92C9.10999 19.866 8.08399 20.727 7.24899 20.662C7.08966 20.6489 6.9355 20.5992 6.79849 20.5168C6.66148 20.4344 6.5453 20.3216 6.45899 20.187C6.29699 19.947 6.22599 19.653 6.27299 19.429C6.36999 18.944 6.72199 18.483 7.28599 18.035C7.71299 17.695 8.22199 17.389 8.87599 17.052C9.36499 16.192 10.094 14.649 10.646 13.332C10.213 11.654 10.093 10.67 10.297 9.922C10.423 9.46 10.914 9.162 11.448 9.184ZM9.21799 17.504L8.83199 17.864L8.51399 18.148C8.34899 18.298 8.20799 18.431 8.07199 18.568C7.84715 18.7876 7.64481 19.0292 7.46799 19.289C7.38299 19.419 7.31799 19.543 7.27399 19.661L7.26999 19.673V19.686C7.26999 19.714 7.28699 19.74 7.31399 19.752C7.32602 19.7569 7.3391 19.7586 7.35199 19.757C7.36574 19.7556 7.37921 19.7523 7.39199 19.747C7.42344 19.7331 7.45356 19.7164 7.48199 19.697C7.56799 19.642 7.67499 19.555 7.79599 19.437C8.12599 19.119 8.51199 18.63 8.93799 17.951L9.21799 17.504ZM11.478 14.018L11.424 14.158C10.999 15.281 10.604 16.174 10.177 16.918L10.081 17.086L10.262 17.016C10.47 16.936 11.293 16.6 11.218 16.63C11.938 16.34 12.464 16.164 13.028 16.048L13.18 16.016L13.056 15.924C12.479 15.497 11.954 14.884 11.55 14.15L11.478 14.018ZM16.72 16.342C16.388 16.22 15.817 16.175 15.01 16.235L14.727 16.256L14.989 16.368C16.019 16.808 16.604 16.903 16.876 16.796C16.9035 16.7862 16.929 16.7713 16.951 16.752C16.9857 16.7289 17.01 16.6932 17.0187 16.6525C17.0275 16.6118 17.0201 16.5693 16.998 16.534C16.956 16.459 16.862 16.394 16.72 16.342ZM11.474 9.968C11.308 9.968 11.266 10.284 11.291 10.809C11.313 11.271 11.391 11.783 11.499 12.123L11.547 12.275L11.625 12.136C11.752 11.911 11.83 11.397 11.822 10.904C11.814 10.342 11.707 9.968 11.474 9.968Z" fill="white"/>
<path fill-rule="evenodd" clip-rule="evenodd" d="M17.763 7.237C17.2326 7.237 16.7239 7.02629 16.3488 6.65121C15.9737 6.27614 15.763 5.76743 15.763 5.237V0L23 7.237H17.763Z" fill="white" fill-opacity="0.401"/>
</g>
<defs>
<clipPath id="clip0_21647_332933">
<rect width="24" height="24" fill="white"/>
</clipPath>
</defs>
</svg>
