<svg width="24" height="24" viewBox="0 0 24 24" fill="none" xmlns="http://www.w3.org/2000/svg">
<g clip-path="url(#clip0_1764_870)">
<path fill-rule="evenodd" clip-rule="evenodd" d="M15.763 0L23 7.237V22C23 22.5304 22.7893 23.0391 22.4142 23.4142C22.0391 23.7893 21.5304 24 21 24H3C2.46957 24 1.96086 23.7893 1.58579 23.4142C1.21071 23.0391 1 22.5304 1 22V2C1 1.46957 1.21071 0.960859 1.58579 0.585786C1.96086 0.210714 2.46957 0 3 0L15.763 0Z" fill="#2CC7EA"/>
<path fill-rule="evenodd" clip-rule="evenodd" d="M17.763 7.237C17.2326 7.237 16.7239 7.02629 16.3488 6.65121C15.9737 6.27614 15.763 5.76743 15.763 5.237V0L23 7.237H17.763Z" fill="white" fill-opacity="0.401"/>
<path d="M10.818 16.77C10.818 18.35 9.85797 19.22 8.21797 19.22C6.77797 19.22 5.72797 18.5 5.57797 16.97C5.49797 16.11 5.50797 15.08 5.54797 14.26C5.61797 12.67 6.67797 11.78 8.31797 11.78C9.21797 11.78 9.94797 12.04 10.518 12.62L9.75797 13.62C9.43797 13.14 8.86797 12.97 8.31797 12.97C7.41797 12.97 6.93797 13.4 6.87797 14.43C6.84797 15 6.82797 16.04 6.90797 16.78C7.00797 17.72 7.53797 18.02 8.21797 18.02C8.91797 18.02 9.50797 17.64 9.50797 16.71V16.26H8.12797V15.13H10.818V16.77ZM14.7121 19.22C13.2721 19.22 12.1921 18.35 12.0721 17.02C11.9921 16.16 12.0021 15.08 12.0421 14.26C12.1121 12.67 13.1521 11.78 14.7121 11.78C16.2721 11.78 17.3821 12.66 17.4521 14.26C17.4921 15.08 17.5021 16.16 17.4221 17.02C17.3021 18.36 16.3421 19.22 14.7121 19.22ZM14.7121 18.02C15.4221 17.99 15.9921 17.65 16.0921 16.78C16.1721 16.04 16.1621 15 16.1221 14.43C16.0521 13.35 15.6021 12.97 14.7121 12.97C13.9221 13 13.4321 13.4 13.3721 14.43C13.3421 15 13.3221 16.04 13.4021 16.78C13.5021 17.72 14.0321 18.02 14.7121 18.02Z" fill="white"/>
</g>
<defs>
<clipPath id="clip0_1764_870">
<rect width="24" height="24" fill="white"/>
</clipPath>
</defs>
</svg>
