<svg width="24" height="24" viewBox="0 0 24 24" fill="none" xmlns="http://www.w3.org/2000/svg">
<g clip-path="url(#clip0_1906_665)">
<path fill-rule="evenodd" clip-rule="evenodd" d="M15.763 0L23 7.237V22C23 22.5304 22.7893 23.0391 22.4142 23.4142C22.0391 23.7893 21.5304 24 21 24H3C2.46957 24 1.96086 23.7893 1.58579 23.4142C1.21071 23.0391 1 22.5304 1 22V2C1 1.46957 1.21071 0.960859 1.58579 0.585786C1.96086 0.210714 2.46957 0 3 0L15.763 0Z" fill="#3C78AA"/>
<path fill-rule="evenodd" clip-rule="evenodd" d="M17.763 7.237C17.2326 7.237 16.7239 7.02629 16.3488 6.65121C15.9737 6.27614 15.763 5.76743 15.763 5.237V0L23 7.237H17.763Z" fill="white" fill-opacity="0.401"/>
<path d="M10.5956 7.4375C9.55875 7.4375 8.71875 8.2775 8.71875 9.31437V10.4169H11.5341C11.79 10.4169 12 10.7909 12 11.0469H7.31437C6.2775 11.0469 5.4375 11.8869 5.4375 12.9237V15.405C5.4375 16.4419 6.2775 17.2819 7.31437 17.2819H8.08875V15.5232C8.08875 14.4863 8.92219 13.6463 9.95906 13.6463H13.4044C14.4412 13.6463 15.2813 12.8122 15.2812 11.7753V9.31437C15.2812 8.2775 14.4412 7.4375 13.4044 7.4375H10.5956ZM10.1231 8.49406C10.3856 8.49406 10.5956 8.57281 10.5956 8.96C10.5956 9.34719 10.3856 9.54472 10.1231 9.54472C9.86719 9.54472 9.65719 9.34784 9.65719 8.96066C9.65719 8.57347 9.86719 8.49406 10.1231 8.49406Z" fill="white"/>
<path d="M15.9106 10.7188V12.4775C15.9114 12.7236 15.8636 12.9675 15.7699 13.1951C15.6763 13.4227 15.5386 13.6295 15.3649 13.8038C15.1911 13.9781 14.9847 14.1164 14.7574 14.2108C14.5301 14.3051 14.2864 14.3537 14.0403 14.3537H10.5956C10.3495 14.3529 10.1055 14.4006 9.87787 14.4942C9.6502 14.5878 9.44324 14.7254 9.26887 14.8992C9.0945 15.073 8.95615 15.2794 8.86174 15.5068C8.76734 15.7341 8.71875 15.9779 8.71875 16.224V18.685C8.71875 19.1827 8.91649 19.6601 9.26847 20.0121C9.62046 20.3641 10.0978 20.5618 10.5956 20.5618H13.4044C13.902 20.5618 14.3793 20.3642 14.7313 20.0124C15.0833 19.6605 15.2811 19.1833 15.2813 18.6856V17.5831H12.4653C12.2093 17.5831 12 17.2091 12 16.9531H16.6856C17.1834 16.9531 17.6608 16.7554 18.0128 16.4034C18.3648 16.0514 18.5625 15.574 18.5625 15.0763V12.5956C18.5625 12.0978 18.3648 11.6205 18.0128 11.2685C17.6608 10.9165 17.1834 10.7188 16.6856 10.7188H15.9106ZM9.585 13.6804L9.58238 13.683C9.59025 13.6817 9.59878 13.6824 9.60731 13.6804H9.585ZM13.8769 18.4553C14.1328 18.4553 14.3428 18.6522 14.3428 19.0393C14.3428 19.1005 14.3308 19.1611 14.3073 19.2177C14.2839 19.2742 14.2496 19.3255 14.2063 19.3688C14.1631 19.4121 14.1117 19.4464 14.0552 19.4698C13.9987 19.4932 13.9381 19.5053 13.8769 19.5053C13.6144 19.5053 13.4044 19.4265 13.4044 19.0393C13.4044 18.6522 13.6144 18.4553 13.8769 18.4553Z" fill="#FDD835"/>
</g>
<defs>
<clipPath id="clip0_1906_665">
<rect width="24" height="24" fill="white"/>
</clipPath>
</defs>
</svg>
