<svg width="24" height="24" viewBox="0 0 24 24" fill="none" xmlns="http://www.w3.org/2000/svg">
<g clip-path="url(#clip0_1764_876)">
<path fill-rule="evenodd" clip-rule="evenodd" d="M15.763 0L23 7.237V22C23 22.5304 22.7893 23.0391 22.4142 23.4142C22.0391 23.7893 21.5304 24 21 24H3C2.46957 24 1.96086 23.7893 1.58579 23.4142C1.21071 23.0391 1 22.5304 1 22V2C1 1.46957 1.21071 0.960859 1.58579 0.585786C1.96086 0.210714 2.46957 0 3 0L15.763 0Z" fill="#F47520"/>
<path fill-rule="evenodd" clip-rule="evenodd" d="M17.763 7.237C17.2326 7.237 16.7239 7.02629 16.3488 6.65121C15.9737 6.27614 15.763 5.76743 15.763 5.237V0L23 7.237H17.763Z" fill="white" fill-opacity="0.401"/>
<path d="M8.64407 18.07H7.74807V15.956H5.58507V18.07H4.69607V13.03H5.58507V15.088H7.74807V13.03H8.64407V18.07ZM11.5237 17.335V18.07H11.0197C10.3197 18.07 9.9417 17.741 9.9417 17.006V15.144H9.4657L9.3957 14.43H9.9417V13.338H10.8027V14.43H11.5237V15.144H10.8027V16.971C10.8027 17.223 10.9007 17.335 11.1737 17.335H11.5237ZM17.5118 18.07H16.6508V15.802C16.6508 15.305 16.3988 15.095 15.9858 15.095C15.5798 15.095 15.3208 15.326 15.3208 15.809V18.07H14.4528V15.802C14.4528 15.319 14.1938 15.095 13.7878 15.095C13.3818 15.095 13.1228 15.326 13.1228 15.809V18.07H12.2618V14.43H13.0668L13.1298 14.899C13.3048 14.521 13.6338 14.346 14.0748 14.346C14.5648 14.346 14.9498 14.556 15.1388 14.92C15.3418 14.549 15.7268 14.346 16.2518 14.346C17.0078 14.346 17.5118 14.815 17.5118 15.669V18.07ZM19.3709 18.07H18.5099V12.89H19.3709V18.07Z" fill="white"/>
</g>
<defs>
<clipPath id="clip0_1764_876">
<rect width="24" height="24" fill="white"/>
</clipPath>
</defs>
</svg>
