<svg width="25" height="24" viewBox="0 0 25 24" fill="none" xmlns="http://www.w3.org/2000/svg">
<g id="Group">
<path id="Vector" fill-rule="evenodd" clip-rule="evenodd" d="M16.263 0L23.5 7.237V22C23.5 22.5304 23.2893 23.0391 22.9142 23.4142C22.5391 23.7893 22.0304 24 21.5 24H3.5C2.96957 24 2.46086 23.7893 2.08579 23.4142C1.71071 23.0391 1.5 22.5304 1.5 22V2C1.5 1.46957 1.71071 0.960859 2.08579 0.585786C2.46086 0.210714 2.96957 0 3.5 0L16.263 0Z" fill="#79878F"/>
<path id="Vector_2" fill-rule="evenodd" clip-rule="evenodd" d="M18.263 7.237C17.7326 7.237 17.2239 7.02629 16.8488 6.65121C16.4737 6.27614 16.263 5.76743 16.263 5.237V0L23.5 7.237H18.263Z" fill="white" fill-opacity="0.401"/>
<path id="Vector_3" d="M13.12 8.603C14.657 8.603 15.888 9.894 15.888 11.469C15.888 12.986 14.747 14.239 13.29 14.329L13.12 14.335H12.375C12.0655 14.3349 11.767 14.4495 11.5372 14.6568C11.3074 14.864 11.1627 15.1492 11.131 15.457L11.125 15.585V17.065C11.1247 17.2549 11.0523 17.4377 10.9225 17.5763C10.7927 17.715 10.6151 17.7992 10.4256 17.8121C10.2361 17.8249 10.0488 17.7653 9.90151 17.6454C9.75421 17.5255 9.65789 17.3542 9.632 17.166L9.625 17.064V15.585C9.62497 14.8847 9.89209 14.2108 10.3719 13.7007C10.8517 13.1906 11.508 12.8828 12.207 12.84L12.375 12.835H13.121C13.812 12.835 14.388 12.231 14.388 11.469C14.388 10.755 13.882 10.179 13.249 10.11L13.121 10.103H10.375C10.185 10.1029 10.0021 10.0308 9.86321 9.90103C9.72436 9.7713 9.63993 9.5937 9.62697 9.40412C9.61402 9.21454 9.67352 9.02711 9.79343 8.8797C9.91335 8.73229 10.0847 8.6359 10.273 8.61L10.375 8.603H13.121H13.12ZM10.376 18.65C10.5572 18.65 10.7323 18.7156 10.8689 18.8348C11.0055 18.9539 11.0944 19.1184 11.119 19.298L11.126 19.4V19.441C11.1259 19.631 11.0538 19.8139 10.924 19.9528C10.7943 20.0916 10.6167 20.1761 10.4271 20.189C10.2375 20.202 10.0501 20.1425 9.9027 20.0226C9.75529 19.9027 9.6589 19.7312 9.633 19.543L9.626 19.441V19.401C9.626 19.2021 9.70502 19.0113 9.84567 18.8707C9.98632 18.73 10.1771 18.65 10.376 18.65Z" fill="white"/>
</g>
</svg>
