<svg width="25" height="24" viewBox="0 0 25 24" fill="none" xmlns="http://www.w3.org/2000/svg">
<g id="Group">
<path id="Vector" fill-rule="evenodd" clip-rule="evenodd" d="M2.5 1H7.187C7.62225 0.999851 8.04567 1.14169 8.393 1.404L10.15 2.732C10.4969 2.99446 10.92 3.13664 11.355 3.137H22.5C23.0304 3.137 23.5391 3.34771 23.9142 3.72279C24.2893 4.09786 24.5 4.60657 24.5 5.137V21C24.5 21.5304 24.2893 22.0391 23.9142 22.4142C23.5391 22.7893 23.0304 23 22.5 23H2.5C1.96957 23 1.46086 22.7893 1.08579 22.4142C0.710714 22.0391 0.5 21.5304 0.5 21V3C0.5 2.46957 0.710714 1.96086 1.08579 1.58579C1.46086 1.21071 1.96957 1 2.5 1Z" fill="#2996F7"/>
<path id="Vector_2" fill-rule="evenodd" clip-rule="evenodd" d="M0.5 7H24.5V20.9C24.5 21.4304 24.2893 21.9391 23.9142 22.3142C23.5391 22.6893 23.0304 22.9 22.5 22.9H2.5C1.96957 22.9 1.46086 22.6893 1.08579 22.3142C0.710714 21.9391 0.5 21.4304 0.5 20.9V7Z" fill="#52ADFF"/>
<path id="Vector_3" d="M12.247 16.792C11.839 17.582 10.982 18.128 9.98899 18.128C8.60399 18.128 7.47699 17.072 7.47699 15.768C7.47699 14.463 8.59999 13.407 9.98899 13.407C10.747 13.407 11.431 13.726 11.892 14.227L13.325 13.216C13.1482 12.9638 13.0539 12.663 13.055 12.355C13.055 11.485 13.805 10.78 14.727 10.78C15.65 10.78 16.4 11.485 16.4 12.355C16.4 13.225 15.65 13.93 14.727 13.93C14.3608 13.9314 14.0037 13.8165 13.707 13.602L12.207 14.662C12.4905 15.1584 12.5728 15.7447 12.437 16.3L13.933 16.863C14.283 16.362 14.883 16.029 15.571 16.029C16.649 16.029 17.523 16.849 17.523 17.866C17.523 18.882 16.649 19.703 15.571 19.703C14.492 19.703 13.618 18.882 13.618 17.866C13.618 17.684 13.645 17.506 13.698 17.338L12.248 16.792H12.247Z" fill="white"/>
</g>
</svg>
