<svg width="113" height="32" viewBox="0 0 113 32" fill="none" xmlns="http://www.w3.org/2000/svg">
<path fill-rule="evenodd" clip-rule="evenodd" d="M7.33839 9.83673C7.14336 10.2185 6.96237 10.774 6.84084 11.4897C6.67668 12.4563 6.6414 13.596 6.76286 14.7278C6.88467 15.8629 7.15903 16.9428 7.5806 17.8101C7.67514 18.0046 7.77509 18.1846 7.88001 18.3499C7.88032 18.2493 7.88114 18.1479 7.88197 18.0465C7.88224 18.0137 7.88251 17.9809 7.88276 17.9481C7.88386 17.804 7.88483 17.6761 7.88483 17.5637C7.88483 17.0715 7.93797 16.2303 8.47782 15.5072C9.06357 14.7225 10.0297 14.3158 11.3347 14.3158H12.9137C12.2228 13.4475 11.1149 12.2316 9.93625 11.271C9.31715 10.7665 8.71077 10.359 8.16129 10.1036C7.83161 9.95042 7.55877 9.86878 7.33839 9.83673ZM18.1774 14.3158H19.7565C21.0615 14.3158 22.0276 14.7225 22.6134 15.5072C23.1532 16.2303 23.2063 17.0715 23.2063 17.5637C23.2063 17.6761 23.2073 17.804 23.2084 17.9481C23.2087 17.9809 23.2089 18.0137 23.2092 18.0465C23.21 18.1479 23.2109 18.2492 23.2112 18.3499C23.3161 18.1845 23.416 18.0046 23.5106 17.8101C23.9321 16.9428 24.2065 15.8629 24.3283 14.7278C24.4498 13.596 24.4145 12.4563 24.2503 11.4897C24.1288 10.774 23.9478 10.2185 23.7528 9.83673C23.5324 9.86878 23.2596 9.95042 22.9299 10.1036C22.3804 10.359 21.774 10.7665 21.1549 11.271C19.9762 12.2316 18.8684 13.4475 18.1774 14.3158ZM21.5603 21.5682C21.4348 21.6153 21.3063 21.6563 21.1782 21.692C20.6765 21.8319 20.093 21.9147 19.5195 21.9355C18.9486 21.9561 18.337 21.9171 17.7873 21.7827C17.277 21.658 16.6238 21.4036 16.218 20.8384C16.0244 20.5687 15.8457 20.4516 15.7393 20.4013C15.6927 20.3793 15.6572 20.3688 15.6365 20.3641L15.5456 20.3766L15.4547 20.3641C15.4339 20.3688 15.3985 20.3793 15.3519 20.4013C15.2455 20.4516 15.0668 20.5687 14.8731 20.8384C14.4674 21.4036 13.8142 21.658 13.3039 21.7827C12.7542 21.9171 12.1425 21.9561 11.5716 21.9355C10.9981 21.9147 10.4147 21.8319 9.91297 21.692C9.78485 21.6563 9.65637 21.6153 9.53083 21.5682C9.41811 22.0313 9.31617 22.3807 9.22556 22.6414L9.22538 22.642C10.1874 23.7544 12.373 25.4158 15.5172 25.3313L15.5456 25.3305L15.574 25.3313C18.7182 25.4158 20.9038 23.7544 21.8658 22.642L21.8656 22.6414C21.775 22.3807 21.6731 22.0313 21.5603 21.5682ZM7.4895 21.0128C6.69737 20.4314 6.10704 19.6161 5.6789 18.7353C5.12352 17.5927 4.80068 16.2616 4.66031 14.9537C4.51959 13.6424 4.55713 12.3069 4.75608 11.1353C4.94964 9.9955 5.31774 8.88083 5.93899 8.12385L6.18461 7.82456L6.56532 7.75467C7.4307 7.5958 8.30006 7.83544 9.0522 8.185C9.81844 8.54111 10.5767 9.06426 11.2718 9.63078C12.3915 10.5433 13.4312 11.6375 14.1858 12.532C14.322 12.4995 14.4507 12.4761 14.5642 12.4586C14.9384 12.401 15.2992 12.3866 15.5456 12.3921C15.7919 12.3866 16.1528 12.401 16.527 12.4586C16.6404 12.4761 16.7691 12.4995 16.9054 12.532C17.66 11.6375 18.6997 10.5433 19.8194 9.63078C20.5145 9.06426 21.2727 8.54111 22.039 8.185C22.7911 7.83544 23.6605 7.5958 24.5259 7.75467L24.9066 7.82456L25.1522 8.12385C25.7734 8.88083 26.1415 9.9955 26.3351 11.1353C26.534 12.3069 26.5716 13.6424 26.4309 14.9537C26.2905 16.2616 25.9676 17.5927 25.4123 18.7353C24.9841 19.6161 24.3938 20.4314 23.6017 21.0128C23.6837 21.354 23.7546 21.6091 23.8132 21.7956L24.8943 21.9544L23.9878 23.3398C23.0203 24.8184 20.058 27.5563 15.5456 27.4468C11.0332 27.5563 8.0709 24.8184 7.10339 23.3398L6.19686 21.9544L7.27799 21.7956C7.33656 21.6091 7.40752 21.354 7.4895 21.0128ZM10.1721 16.7731C10.058 16.926 9.99946 17.1798 9.99946 17.5637C9.99946 17.685 9.99843 17.8205 9.99735 17.9614L9.99733 17.9642C9.99289 18.5465 9.9904 18.8985 10.0256 19.1746C10.0496 19.3619 10.0852 19.4577 10.1237 19.5212C10.1288 19.524 10.1346 19.527 10.1411 19.5303C10.21 19.5655 10.322 19.6099 10.4805 19.6541C10.7972 19.7424 11.2127 19.8055 11.6481 19.8213C12.086 19.8371 12.4931 19.8031 12.8018 19.7277C13.0816 19.6593 13.1653 19.5862 13.1672 19.5882C13.8951 18.5843 14.8474 18.2131 15.5456 18.2476C16.2438 18.2131 17.1961 18.5844 17.924 19.5882C17.9259 19.5862 18.0096 19.6593 18.2894 19.7277C18.598 19.8031 19.0052 19.8371 19.4431 19.8213C19.8785 19.8055 20.294 19.7424 20.6107 19.6541C20.7692 19.6099 20.8811 19.5655 20.9501 19.5303C20.9566 19.527 20.9624 19.524 20.9674 19.5212C21.006 19.4577 21.0416 19.3619 21.0655 19.1746C21.1008 18.8985 21.0983 18.5465 21.0938 17.9642L21.0938 17.9612C21.0927 17.8204 21.0917 17.6849 21.0917 17.5637C21.0917 17.1798 21.0332 16.926 20.9191 16.7731C20.8509 16.6817 20.6207 16.4314 19.7565 16.4314H11.3347C10.4705 16.4314 10.2403 16.6817 10.1721 16.7731Z" fill="url(#paint0_linear_23249_163477)"/>
<path d="M2.81189 8.9067C2.92098 9.09511 3.20908 9.01791 3.20934 8.8002L3.21087 7.54117C3.21096 7.46524 3.25146 7.39509 3.31717 7.35704L4.40676 6.72621C4.59517 6.61712 4.51798 6.32902 4.30027 6.32876L3.04124 6.32723C2.9653 6.32714 2.89515 6.28664 2.85711 6.22093L2.22627 5.13134C2.11719 4.94293 1.82909 5.02012 1.82882 5.23783L1.8273 6.49686C1.82721 6.5728 1.78671 6.64295 1.72099 6.68099L0.631402 7.31183C0.442993 7.42091 0.520188 7.70901 0.737897 7.70927L1.99693 7.7108C2.07286 7.71089 2.14301 7.75139 2.18106 7.81711L2.81189 8.9067Z" fill="url(#paint1_linear_23249_163477)"/>
<path d="M27.9748 22.8785C27.975 23.0236 28.1671 23.0751 28.2398 22.9495L28.6603 22.2231C28.6857 22.1793 28.7325 22.1523 28.7831 22.1522L29.6225 22.1512C29.7676 22.1511 29.8191 21.959 29.6934 21.8863L28.9671 21.4657C28.9232 21.4403 28.8962 21.3936 28.8962 21.343L28.8952 20.5036C28.895 20.3585 28.7029 20.307 28.6302 20.4326L28.2096 21.159C28.1843 21.2028 28.1375 21.2298 28.0869 21.2299L27.2475 21.2309C27.1024 21.2311 27.0509 21.4231 27.1765 21.4958L27.9029 21.9164C27.9467 21.9418 27.9737 21.9885 27.9738 22.0392L27.9748 22.8785Z" fill="url(#paint2_linear_23249_163477)"/>
<path d="M20.1733 11.664C20.1733 10.528 21.0942 9.60718 22.2302 9.60718H29.9432C31.0791 9.60718 32 10.528 32 11.664V11.664C32 12.7999 31.0791 13.7208 29.9432 13.7208H22.2302C21.0942 13.7208 20.1733 12.7999 20.1733 11.664V11.664Z" fill="white"/>
<path fill-rule="evenodd" clip-rule="evenodd" d="M29.9432 9.88142H22.2302C21.2457 9.88142 20.4476 10.6795 20.4476 11.664C20.4476 12.6485 21.2457 13.4466 22.2302 13.4466H29.9432C30.9277 13.4466 31.7258 12.6485 31.7258 11.664C31.7258 10.6795 30.9277 9.88142 29.9432 9.88142ZM22.2302 9.60718C21.0942 9.60718 20.1733 10.528 20.1733 11.664C20.1733 12.7999 21.0942 13.7208 22.2302 13.7208H29.9432C31.0791 13.7208 32 12.7999 32 11.664C32 10.528 31.0791 9.60718 29.9432 9.60718H22.2302Z" fill="#1C1D23" fill-opacity="0.08"/>
<path d="M28.038 12.6302H27.6523L28.3545 10.6357H28.8005L29.5037 12.6302H29.118L28.5853 11.0448H28.5697L28.038 12.6302ZM28.0507 11.8482H29.1024V12.1384H28.0507V11.8482Z" fill="url(#paint3_linear_23249_163477)"/>
<path d="M26.125 10.9386V10.6357H27.7163V10.9386H27.0998V12.6302H26.7415V10.9386H26.125Z" fill="url(#paint4_linear_23249_163477)"/>
<path d="M24.5469 12.6302V10.6357H25.8441V10.9386H24.9082V11.4801H25.7769V11.783H24.9082V12.3274H25.8519V12.6302H24.5469Z" fill="url(#paint5_linear_23249_163477)"/>
<path d="M22.7444 12.6302V10.6357H23.5079C23.652 10.6357 23.7718 10.6585 23.8673 10.7039C23.9633 10.7487 24.0351 10.8101 24.0825 10.888C24.1305 10.9659 24.1545 11.0542 24.1545 11.1529C24.1545 11.234 24.139 11.3035 24.1078 11.3613C24.0766 11.4184 24.0348 11.4648 23.9822 11.5005C23.9296 11.5362 23.8708 11.5619 23.8059 11.5775V11.597C23.8767 11.6008 23.9445 11.6226 24.0094 11.6622C24.075 11.7012 24.1286 11.7563 24.1701 11.8278C24.2117 11.8992 24.2325 11.9855 24.2325 12.0868C24.2325 12.19 24.2075 12.2829 24.1575 12.3653C24.1075 12.4471 24.0322 12.5117 23.9315 12.5591C23.8309 12.6065 23.7043 12.6302 23.5517 12.6302H22.7444ZM23.1057 12.3283H23.4943C23.6254 12.3283 23.7199 12.3033 23.7777 12.2533C23.8361 12.2027 23.8653 12.1378 23.8653 12.0586C23.8653 11.9995 23.8507 11.9462 23.8215 11.8989C23.7923 11.8508 23.7507 11.8131 23.6968 11.7859C23.6429 11.758 23.5787 11.744 23.504 11.744H23.1057V12.3283ZM23.1057 11.484H23.4631C23.5254 11.484 23.5816 11.4726 23.6316 11.4499C23.6816 11.4265 23.7208 11.3937 23.7494 11.3515C23.7786 11.3087 23.7932 11.258 23.7932 11.1996C23.7932 11.1224 23.766 11.0587 23.7114 11.0087C23.6575 10.9587 23.5774 10.9337 23.4709 10.9337H23.1057V11.484Z" fill="url(#paint6_linear_23249_163477)"/>
<path d="M101.521 17.6512C102.339 17.6512 102.885 18.197 102.885 19.0158V22.8025C102.885 23.6213 102.339 24.1672 101.521 24.1672H92.1731C91.3543 24.1672 90.8085 23.6213 90.8085 22.8025V19.0158C90.8085 18.197 91.3543 17.6512 92.1731 17.6512H101.521ZM100.617 22.4273C100.77 22.4273 100.872 22.3249 100.872 22.1714V19.6469C100.872 19.4934 100.77 19.391 100.617 19.391H93.0772C92.9236 19.391 92.8213 19.4934 92.8213 19.6469V22.1714C92.8213 22.3249 92.9236 22.4273 93.0772 22.4273H100.617ZM97.8874 14.5467H103.243V16.2866H90.6209L90.4674 14.5467H95.8064V12.6362H89.4951L89.3416 10.8623H95.8064V9.15649H97.8874V10.8623H104.369V12.6362H97.8874V14.5467Z" fill="url(#paint7_linear_23249_163477)"/>
<path d="M82.6209 22.2225C84.0537 22.5125 85.7424 22.7001 87.8064 22.7854L87.2946 24.5594C84.3437 24.423 82.0239 24.0647 80.0452 23.3313C78.1006 23.9453 75.6784 24.3547 72.7104 24.5935L72.1987 22.8537C74.2968 22.7001 76.0708 22.4443 77.5718 22.0861C76.7701 21.5743 76.0196 20.9603 75.3032 20.2268C74.5185 20.7044 73.6656 21.1308 72.7104 21.5402L72.1816 19.681C73.9897 19.0157 75.5079 18.0605 76.5825 16.7982H72.3863L72.2158 15.1607H78.8341V14.4272H73.7339L73.5633 12.8238H78.8341V12.0221H72.9833L72.8128 10.4187H78.8341V9.12231H80.8469V10.4187H86.6635V12.0221H80.8469V12.8238H86.1518V14.4272H80.8469V15.1607H87.3629V16.7982H78.9706C78.7659 17.1053 78.5441 17.3952 78.3053 17.6852H84.6507C85.7083 17.6852 86.2712 18.5893 85.623 19.5445C84.8895 20.6191 83.9002 21.5061 82.6209 22.2225ZM79.8746 21.4038C81.3416 20.8579 82.4844 20.1586 83.4226 19.3057H76.6337C76.429 19.4592 76.2243 19.6127 76.0025 19.7662H77.1966C77.9983 20.4315 78.8682 20.9773 79.8746 21.4038Z" fill="url(#paint8_linear_23249_163477)"/>
<path d="M68.0367 21.0626C68.719 21.6937 69.5718 22.2396 70.6123 22.7343L69.9812 24.8323C68.6166 24.2353 67.4908 23.536 66.5868 22.666C65.6145 23.5018 64.4034 24.2183 62.8853 24.8494L62.3053 23.0413C62.1006 23.4848 61.8618 23.9283 61.606 24.3718H59.3032C59.5761 23.9283 59.832 23.4848 60.0537 23.0583L55.2947 23.8089L55.0729 21.9837L60.2755 21.165L60.2584 22.6319C61.5036 20.0562 61.913 17.6511 61.9812 14.3078L62.0324 11.5104H61.0089L60.7872 9.71933H67.849C68.8554 9.71933 69.4183 10.521 68.9066 11.408L67.4396 13.9667H68.7701C69.7254 13.9667 70.1518 14.5637 70.0153 15.5189C69.6912 17.7534 69.0942 19.5615 68.0367 21.0626ZM66.6209 19.3398C67.2179 18.3334 67.6273 17.1394 67.8831 15.7577H65.6486L65.3416 14.0008L66.6379 11.5104H64.1134L64.0622 14.2737C64.0452 14.956 64.0281 15.6042 63.977 16.2183H65.3757C65.6998 17.4123 66.075 18.4357 66.6209 19.3398ZM65.2392 21.0456C64.6422 20.1244 64.1816 19.0669 63.8234 17.8387C63.5846 19.6127 63.1582 21.1991 62.4077 22.8195C63.5505 22.3249 64.4887 21.7449 65.2392 21.0456ZM58.7403 13.9325C59.0132 13.3014 59.2349 12.6362 59.4396 11.9368H61.316C60.8554 14.3078 59.7808 16.3036 58.1433 17.907L60.5996 17.6682V19.4933L55.4141 19.9368L55.1752 18.1799L55.6187 18.1458C56.5057 17.4123 57.2051 16.6106 57.7851 15.7065L55.2435 15.843L55.0217 14.0861L55.2435 14.069C56.4375 12.4827 57.0686 10.9816 57.5804 9.12231H59.3885C58.962 10.9475 58.2115 12.6021 57.2733 14.0008L58.7403 13.9325Z" fill="url(#paint9_linear_23249_163477)"/>
<path d="M51.4397 15.9454C52.2073 15.9454 52.6337 16.3719 52.6337 17.1395V20.3804C52.6337 21.148 52.2073 21.5744 51.4397 21.5744H47.073C46.3054 21.5744 45.8789 21.148 45.8789 20.3804V17.1395C45.8789 16.3719 46.3054 15.9454 47.073 15.9454H51.4397ZM48.0282 17.583C47.8747 17.583 47.7894 17.6683 47.7894 17.8218V19.6981C47.7894 19.8516 47.8747 19.9369 48.0282 19.9369H50.4845C50.638 19.9369 50.7233 19.8516 50.7233 19.6981V17.8218C50.7233 17.6683 50.638 17.583 50.4845 17.583H48.0282ZM48.9322 11.3228C48.9152 13.1651 48.1476 14.4444 45.9983 15.7407L45.3501 13.9838C46.5271 13.3015 47.0388 12.5851 47.0559 11.3228H45.6572L45.5037 9.68531H51.6785C52.4461 9.68531 52.8043 10.0435 52.9066 10.8282C53.026 11.7663 53.026 12.9604 52.8384 13.8303C52.6508 14.7002 52.2243 15.1949 51.4738 15.2802C50.7574 15.3655 50.0239 15.2973 49.3928 15.1608L48.9663 13.5233C49.4781 13.6597 50.0069 13.6938 50.4674 13.6427C50.7915 13.6086 50.8427 13.438 50.9109 13.1309C51.0133 12.6192 51.0303 12.0904 50.9791 11.5787C50.9621 11.4252 50.8768 11.3228 50.7233 11.3228H48.9322ZM43.7297 22.1885C44.2585 22.3079 44.8384 22.3591 45.4695 22.3591H53.5207L53.1113 24.2184H45.4695C42.9109 24.2184 41.2393 23.5872 40.284 21.745C39.9258 22.7344 39.397 23.6896 38.5442 24.6277L37.7595 22.4273C38.9194 20.9945 39.0218 19.4081 38.9877 16.7642H40.8299C40.8469 17.3271 40.8469 17.89 40.8299 18.4529C40.9152 19.681 41.2563 20.568 41.8192 21.1651V16.099H38.1518L37.9813 14.4614H41.1199V12.8921H38.6977L38.5271 11.2546H41.1199V9.17358H43.0303V11.2546H45.009V12.8921H43.0303V14.4614H45.3501V16.099H43.7297V18.18H45.2137V19.8175H43.7297V22.1885Z" fill="url(#paint10_linear_23249_163477)"/>
<path d="M108.037 11.2285C108.038 11.577 108.499 11.7005 108.673 11.3989L109.683 9.65474C109.744 9.54955 109.856 9.48472 109.978 9.48457L111.993 9.48213C112.342 9.48171 112.465 9.02053 112.164 8.84591L110.42 7.83609C110.314 7.77518 110.25 7.66289 110.249 7.54134L110.247 5.52592C110.247 5.17742 109.785 5.05385 109.611 5.35545L108.601 7.09963C108.54 7.20482 108.428 7.26966 108.306 7.2698L106.291 7.27224C105.942 7.27267 105.819 7.73385 106.12 7.90846L107.865 8.91829C107.97 8.97919 108.035 9.09148 108.035 9.21303L108.037 11.2285Z" fill="url(#paint11_linear_23249_163477)"/>
<defs>
<linearGradient id="paint0_linear_23249_163477" x1="5.76541" y1="8.85062" x2="25.5977" y2="26.2954" gradientUnits="userSpaceOnUse">
<stop stop-color="#3F8FFF"/>
<stop offset="1" stop-color="#EF2FDF"/>
</linearGradient>
<linearGradient id="paint1_linear_23249_163477" x1="1.21833" y1="9.24974" x2="4.30401" y2="5.09987" gradientUnits="userSpaceOnUse">
<stop stop-color="#3F8FFF"/>
<stop offset="1" stop-color="#EF2FDF"/>
</linearGradient>
<linearGradient id="paint2_linear_23249_163477" x1="26.9404" y1="22.5454" x2="30.1052" y2="21.178" gradientUnits="userSpaceOnUse">
<stop stop-color="#3F8FFF"/>
<stop offset="1" stop-color="#EF2FDF"/>
</linearGradient>
<linearGradient id="paint3_linear_23249_163477" x1="27.7527" y1="10.7515" x2="29.6803" y2="12.1679" gradientUnits="userSpaceOnUse">
<stop stop-color="#3F8FFF"/>
<stop offset="1" stop-color="#EF2FDF"/>
</linearGradient>
<linearGradient id="paint4_linear_23249_163477" x1="26.2113" y1="10.7515" x2="28.0351" y2="11.9035" gradientUnits="userSpaceOnUse">
<stop stop-color="#3F8FFF"/>
<stop offset="1" stop-color="#EF2FDF"/>
</linearGradient>
<linearGradient id="paint5_linear_23249_163477" x1="24.6176" y1="10.7515" x2="26.2674" y2="11.606" gradientUnits="userSpaceOnUse">
<stop stop-color="#3F8FFF"/>
<stop offset="1" stop-color="#EF2FDF"/>
</linearGradient>
<linearGradient id="paint6_linear_23249_163477" x1="22.8251" y1="10.7515" x2="24.5939" y2="11.7963" gradientUnits="userSpaceOnUse">
<stop stop-color="#3F8FFF"/>
<stop offset="1" stop-color="#EF2FDF"/>
</linearGradient>
<linearGradient id="paint7_linear_23249_163477" x1="90.2332" y1="5.20633" x2="106.354" y2="6.76635" gradientUnits="userSpaceOnUse">
<stop stop-color="#443855"/>
<stop offset="1"/>
</linearGradient>
<linearGradient id="paint8_linear_23249_163477" x1="73.1088" y1="5.05095" x2="89.8671" y2="6.68692" gradientUnits="userSpaceOnUse">
<stop stop-color="#443855"/>
<stop offset="1"/>
</linearGradient>
<linearGradient id="paint9_linear_23249_163477" x1="55.9468" y1="4.98362" x2="72.6743" y2="6.5865" gradientUnits="userSpaceOnUse">
<stop stop-color="#443855"/>
<stop offset="1"/>
</linearGradient>
<linearGradient id="paint10_linear_23249_163477" x1="38.6947" y1="5.10671" x2="55.5963" y2="6.7729" gradientUnits="userSpaceOnUse">
<stop stop-color="#443855"/>
<stop offset="1"/>
</linearGradient>
<linearGradient id="paint11_linear_23249_163477" x1="105.553" y1="10.4286" x2="113.153" y2="7.14529" gradientUnits="userSpaceOnUse">
<stop stop-color="#3F8FFF"/>
<stop offset="1" stop-color="#EF2FDF"/>
</linearGradient>
</defs>
</svg>
