<svg xmlns="http://www.w3.org/2000/svg" viewBox="0 0 36 36" fill="none">
                  <path d="M15.3367 23.9499L24.7218 18.5157C25.151 18.2622 25.151 17.654 24.7218 17.4073L15.3367 11.9731C14.9076 11.7197 14.3774 12.0363 14.3774 12.5303V23.3985C14.39 23.8863 14.9201 24.1904 15.3367 23.9499V23.9499ZM18.1327 3.23291C13.9293 3.23291 10.1299 5.02532 7.46639 7.88162C7.27697 8.07776 7.08769 8.28697 6.91095 8.5086L4.00775 5.59537V13.5755H11.9601L8.99379 10.5986C11.1333 7.90715 14.4404 6.14427 18.1453 6.14427C24.6144 6.14427 29.8529 11.4348 29.8529 17.9263C29.8529 24.4182 24.6143 29.6563 18.1453 29.6563C13.0015 29.6563 8.64033 26.3374 7.06237 21.7074H4.01394C5.68657 27.9715 11.3731 32.6013 18.1452 32.6013C26.2427 32.6013 32.8002 26.0269 32.8002 17.9201C32.8002 9.81321 26.2301 3.23291 18.1325 3.23291H18.1327Z" fill="white"></path>
                </svg>