<svg width="60" height="60" viewBox="0 0 60 60" fill="none" xmlns="http://www.w3.org/2000/svg">
<rect width="60" height="60" rx="30" fill="url(#paint0_linear_22034_276934)"/>
<path d="M27.3368 35.9499L36.7218 30.5157C37.151 30.2622 37.151 29.654 36.7218 29.4073L27.3368 23.9731C26.9077 23.7197 26.3774 24.0363 26.3774 24.5303V35.3985C26.3901 35.8863 26.9202 36.1904 27.3368 35.9499V35.9499ZM30.1327 15.2329C25.9294 15.2329 22.13 17.0253 19.4664 19.8816C19.277 20.0778 19.0877 20.287 18.911 20.5086L16.0078 17.5954V25.5755H23.9601L20.9938 22.5986C23.1334 19.9071 26.4405 18.1443 30.1453 18.1443C36.6145 18.1443 41.853 23.4348 41.853 29.9263C41.853 36.4182 36.6143 41.6563 30.1453 41.6563C25.0016 41.6563 20.6404 38.3374 19.0624 33.7074H16.014C17.6866 39.9715 23.3732 44.6013 30.1453 44.6013C38.2428 44.6013 44.8002 38.0269 44.8002 29.9201C44.8003 21.8132 38.2302 15.2329 30.1326 15.2329H30.1327Z" fill="white"/>
<defs>
<linearGradient id="paint0_linear_22034_276934" x1="0" y1="30" x2="60" y2="30" gradientUnits="userSpaceOnUse">
<stop stop-color="#FFAFC8"/>
<stop offset="0.5" stop-color="#E08AFF"/>
<stop offset="1" stop-color="#9FC3FF"/>
</linearGradient>
</defs>
</svg>
