<svg width="18" height="18" viewBox="0 0 18 18" fill="none" xmlns="http://www.w3.org/2000/svg">
<path id="Vector" d="M0 1.99509C0 0.89323 0.89262 0 1.99509 0H16.0049C17.1068 0 18 0.89262 18 1.99509V16.0049C18 17.1068 17.1074 18 16.0049 18H1.99509C0.89323 18 0 17.1074 0 16.0049V1.99509ZM3.35687 15H14.8475C13.5825 13.1865 11.4809 12 9.1022 12C6.72344 12 4.62182 13.1865 3.35687 15ZM9 10C10.933 10 12.5 8.433 12.5 6.5C12.5 4.567 10.933 3 9 3C7.067 3 5.5 4.567 5.5 6.5C5.5 8.433 7.067 10 9 10Z" fill="white"/>
</svg>
