<svg width="24" height="24" viewBox="0 0 24 24" fill="none" xmlns="http://www.w3.org/2000/svg">
<g id="Frame">
<g id="Group 175">
<path id="Vector" d="M16.8054 7.74991H20.9508C19.6536 4.9932 17.1339 2.92369 14.0887 2.24341C15.3122 3.31899 16.281 5.28312 16.8054 7.74991ZM14.0868 21.7561C17.1314 21.0758 19.6516 19.0063 20.9489 16.2496H16.8049C16.2805 18.7164 15.3118 20.6805 14.0863 21.7561H14.0868ZM7.68974 16.2496C8.45065 19.6139 10.0709 22 11.897 22C13.7226 22 15.3434 19.6139 16.1048 16.2496H7.68924H7.68974ZM16.1048 7.74991C15.3434 4.38565 13.7226 2 11.897 2C10.0714 2 8.45065 4.38615 7.68924 7.74991H16.1048ZM9.7073 2.24341C6.66265 2.92319 4.14243 4.9927 2.8457 7.74991H6.99066C7.51311 5.28312 8.48182 3.31899 9.7073 2.24341ZM6.98868 16.2496H2.8457C4.14243 19.0063 6.66265 21.0758 9.7073 21.7561C8.48182 20.6805 7.51311 18.7164 6.98868 16.2496Z" fill="white"/>
<path id="Vector_2" d="M4.54694 14.6516L5.01101 12.3411C5.08918 11.9354 5.15448 11.5065 5.2188 11.1067H5.25442C5.3039 11.5065 5.37514 11.9349 5.46221 12.3411L5.93717 14.6516H7.54261L8.46184 9.34595H7.24972L6.90835 11.7633C6.84403 12.3124 6.77229 12.875 6.70996 13.4464H6.67434C6.56698 12.875 6.47545 12.3055 6.36809 11.7633L5.81249 9.34595H4.74335L4.19666 11.7652C4.0893 12.3144 3.98194 12.8858 3.88151 13.4484H3.85281L3.63859 11.7652L3.30365 9.34793H2L2.97118 14.6536H4.54694V14.6516ZM13.3727 13.4484H13.337C13.2302 12.8769 13.1387 12.308 13.0313 11.7652L12.4757 9.34793H11.4061L10.8638 11.7652C10.757 12.3144 10.6496 12.8858 10.5492 13.4484H10.52L10.3058 11.7652L9.97081 9.34793H8.66518L9.63636 14.6536H11.2121L11.6762 12.3431C11.7544 11.9374 11.8197 11.5085 11.884 11.1092H11.9196C11.9691 11.5085 12.0403 11.9374 12.1274 12.3436L12.6048 14.654H14.2098L15.1295 9.34793H13.9174L13.576 11.7652C13.5087 12.3144 13.4375 12.8769 13.3732 13.4484H13.3727ZM20.2387 11.7652C20.1744 12.3144 20.1027 12.8769 20.0403 13.4484H20.0047C19.8973 12.8769 19.8058 12.308 19.6989 11.7652L19.1429 9.34793H18.0737L17.5315 11.7652C17.4241 12.3144 17.3168 12.8858 17.2163 13.4484H17.1876L16.9734 11.7652L16.6385 9.34793H15.3323L16.3035 14.6536H17.8793L18.3438 12.3431C18.422 11.9374 18.4868 11.5085 18.5516 11.1092H18.5873C18.6362 11.5085 18.7075 11.9374 18.7951 12.3436L19.2725 14.654H20.8774L21.7972 9.34793H20.585L20.2387 11.7652Z" fill="white"/>
</g>
</g>
</svg>
