<svg xmlns="http://www.w3.org/2000/svg" width="46" height="46" viewBox="0 0 46 46" fill="none">
  <path fill-rule="evenodd" clip-rule="evenodd"
    d="M13.6624 24.4416C13.8297 22.6043 16.0479 22.2935 17.0881 23.8172C17.4001 24.2742 17.5294 24.8278 17.5028 25.3805C17.4921 25.6034 17.4867 25.829 17.4867 26.0572C17.4867 28.2254 17.9697 30.1574 18.9357 31.8532C19.9232 33.5276 21.2756 34.8371 22.9929 35.7816C24.7317 36.7047 26.7066 37.1662 28.9177 37.1662C30.657 37.1662 32.2091 36.893 33.5739 36.3464C34.5715 35.9469 35.7825 36.2108 36.324 37.1391C36.7872 37.9332 36.6086 38.9638 35.7966 39.3949C35.1505 39.738 34.4246 40.0255 33.6189 40.2574C32.2021 40.6653 30.635 40.8692 28.9177 40.8692C25.9553 40.8692 23.3042 40.2467 20.9643 39.0016C18.6459 37.7566 16.832 36.007 15.5225 33.753C14.2345 31.499 13.5905 28.9338 13.5905 26.0572C13.5905 25.5071 13.6145 24.9686 13.6624 24.4416ZM26.1896 15.0991C25.6811 15.2254 25.1436 15.2311 24.6551 15.0416C22.9628 14.3851 22.9348 12.3939 24.6309 11.7471C24.8634 11.6585 25.0455 11.591 25.1517 11.5549C25.1688 11.5491 25.1862 11.5432 25.2039 11.5371C25.6536 11.3829 26.3367 11.1486 29.2075 11.1486C32.0196 11.1486 34.5312 11.739 36.7423 12.9196C38.9534 14.1003 40.6814 15.7962 41.9265 18.0072C43.193 20.1968 43.8263 22.7836 43.8263 25.7674C43.8263 28.3649 43.3004 30.415 42.2485 31.9176C41.1966 33.4203 39.5759 34.1716 37.3863 34.1716C36.2486 34.1716 35.2504 33.9677 34.3917 33.5598C33.533 33.1305 32.889 32.465 32.4597 31.5634C31.4078 33.2808 29.873 34.1394 27.8551 34.1394C26.61 34.1394 25.4723 33.8282 24.4419 33.2056C23.433 32.5831 22.6172 31.6708 21.9947 30.4686C21.3936 29.245 21.0931 27.8068 21.0931 26.1538C21.0931 24.5009 21.3936 23.0734 21.9947 21.8712C22.6172 20.6476 23.4437 19.7246 24.4741 19.102C25.5045 18.458 26.6315 18.136 27.8551 18.136C29.6368 18.136 31.0536 18.8337 32.1055 20.229C32.2476 19.2701 33.0623 18.5224 34.0316 18.5224C35.075 18.5224 35.9373 19.3682 35.9373 20.4116V27.7638C35.9373 28.7298 36.0768 29.4275 36.3559 29.8568C36.635 30.2647 37.0428 30.4686 37.5795 30.4686C38.3952 30.4686 38.9856 30.0608 39.3505 29.245C39.7154 28.4078 39.8979 27.3023 39.8979 25.9284C39.8979 23.5886 39.4471 21.5922 38.5455 19.9392C37.6439 18.2648 36.3774 16.9983 34.7459 16.1396C33.1359 15.281 31.2576 14.8516 29.1109 14.8516C28.0575 14.8516 27.1864 14.8516 26.1896 15.0991ZM28.5957 29.8568C29.4758 29.8568 30.2164 29.567 30.8175 28.9874C31.44 28.3864 31.7513 27.4418 31.7513 26.1538C31.7513 24.8658 31.44 23.932 30.8175 23.3524C30.2164 22.7514 29.4758 22.4508 28.5957 22.4508C27.6726 22.4508 26.932 22.7728 26.3739 23.4168C25.8158 24.0608 25.5367 24.9732 25.5367 26.1538C25.5367 27.3345 25.8158 28.2468 26.3739 28.8908C26.932 29.5348 27.6726 29.8568 28.5957 29.8568Z"
    fill="url(#paint0_linear_1070_4249)" />
  <path
    d="M11.6595 13.3421L17.5227 21.8436C17.9423 22.452 18.8933 22.3509 19.2239 21.6899C19.6775 20.7829 20.3088 19.691 21.0022 18.9963C21.4911 18.5065 22.1877 18.037 22.8556 17.6465C23.5684 17.2298 23.529 16.1031 22.7582 15.807L12.7468 11.961C11.9025 11.6367 11.146 12.5976 11.6595 13.3421Z"
    fill="url(#paint1_linear_1070_4249)" />
  <path
    d="M5.41463 13.7632C5.63691 13.1624 6.48657 13.1624 6.70886 13.7632L7.38042 15.578C7.4503 15.7669 7.59921 15.9158 7.78808 15.9857L9.60293 16.6572C10.2037 16.8795 10.2037 17.7292 9.60293 17.9515L7.78808 18.623C7.59921 18.6929 7.4503 18.8418 7.38042 19.0307L6.70886 20.8455C6.48657 21.4463 5.63691 21.4463 5.41463 20.8455L4.74307 19.0307C4.67318 18.8418 4.52427 18.6929 4.33541 18.623L2.52055 17.9515C1.91983 17.7292 1.91983 16.8795 2.52055 16.6572L4.33541 15.9857C4.52427 15.9158 4.67318 15.7669 4.74307 15.578L5.41463 13.7632Z"
    fill="url(#paint2_linear_1070_4249)" />
  <path
    d="M15.0603 5.36048C15.2085 4.96 15.775 4.96 15.9232 5.36048L16.288 6.34655C16.3346 6.47246 16.4339 6.57173 16.5598 6.61832L17.5459 6.9832C17.9464 7.13139 17.9464 7.69783 17.5459 7.84602L16.5598 8.2109C16.4339 8.25749 16.3346 8.35676 16.288 8.48267L15.9232 9.46874C15.775 9.86922 15.2085 9.86922 15.0603 9.46874L14.6955 8.48267C14.6489 8.35676 14.5496 8.25749 14.4237 8.2109L13.4376 7.84602C13.0371 7.69783 13.0371 7.13139 13.4376 6.9832L14.4237 6.61832C14.5496 6.57173 14.6489 6.47246 14.6955 6.34655L15.0603 5.36048Z"
    fill="url(#paint3_linear_1070_4249)" />
  <defs>
    <linearGradient id="paint0_linear_1070_4249" x1="35.017" y1="32.438" x2="23.811" y2="10.8276"
      gradientUnits="userSpaceOnUse">
      <stop stop-color="#00D8FF" />
      <stop offset="1" stop-color="#0046FF" />
    </linearGradient>
    <linearGradient id="paint1_linear_1070_4249" x1="18.7017" y1="23.2505" x2="16.9103" y2="9.95975"
      gradientUnits="userSpaceOnUse">
      <stop stop-color="#FFF73F" />
      <stop offset="1" stop-color="#FF5F5F" />
    </linearGradient>
    <linearGradient id="paint2_linear_1070_4249" x1="8.26922" y1="19.593" x2="4.24078" y2="11.9567"
      gradientUnits="userSpaceOnUse">
      <stop stop-color="#00D8FF" />
      <stop offset="1" stop-color="#0046FF" />
    </linearGradient>
    <linearGradient id="paint3_linear_1070_4249" x1="18.7118" y1="7.41461" x2="12.2718" y2="7.41461"
      gradientUnits="userSpaceOnUse">
      <stop stop-color="#FFF73F" />
      <stop offset="1" stop-color="#FF5F5F" />
    </linearGradient>
  </defs>
</svg>