<svg xmlns="http://www.w3.org/2000/svg" width="18" height="19" viewBox="0 0 18 19" fill="none">
  <g clip-path="url(#clip0_43_73162)">
    <path
      d="M15.9693 6.83835C15.9382 6.96966 15.8616 7.16213 15.754 7.39424H15.7564L15.744 7.41574C15.1166 8.76033 13.4783 11.3974 13.4783 11.3974C13.4783 11.3974 13.4762 11.3912 13.4698 11.3809L12.991 12.2156H15.2982L10.8916 18.0846L11.8919 14.0921H10.0764L10.7072 11.452C10.1969 11.5753 9.59367 11.7448 8.87925 11.9748C8.87925 11.9748 7.91277 12.5417 6.09519 10.8843C6.09519 10.8843 4.86936 9.80266 5.58008 9.53238C5.88235 9.41745 7.04768 9.27166 7.96446 9.14752C9.20349 8.97977 9.9657 8.89095 9.9657 8.89095C9.9657 8.89095 6.14569 8.94817 5.23947 8.80542C4.33319 8.66268 3.18355 7.14824 2.93867 5.8168C2.93867 5.8168 2.55991 5.0859 3.75313 5.43195C4.94635 5.77799 9.88535 6.77899 9.88535 6.77899C9.88535 6.77899 3.4619 4.80666 3.03445 4.32547C2.60709 3.84429 1.77661 1.6989 1.88466 0.380589C1.88466 0.380589 1.93151 0.0519137 2.26794 0.139998C2.26794 0.139998 7.01665 2.31336 10.2638 3.5031C13.5109 4.69284 16.334 5.29797 15.9693 6.83835Z"
      fill="#3296FA" />
  </g>
  <defs>
    <clipPath id="clip0_43_73162">
      <rect width="18" height="18" fill="white" transform="translate(0 0.125)" />
    </clipPath>
  </defs>
</svg>