<svg width="100" height="100" viewBox="0 0 100 100" fill="none" xmlns="http://www.w3.org/2000/svg">
	<path fill-rule="evenodd" clip-rule="evenodd" d="M9.2375 14.3027H32.82C33.1466 14.3027 33.4693 14.3738 33.7657 14.5111C34.0621 14.6484 34.325 14.8486 34.5363 15.0977L43.9012 26.1577C44.1125 26.4073 44.3756 26.6078 44.6722 26.7453C44.9688 26.8828 45.2918 26.954 45.6187 26.954H86.4875C87.2831 26.954 88.0462 27.2701 88.6088 27.8327C89.1714 28.3953 89.4875 29.1583 89.4875 29.954V82.8027C89.4875 83.5984 89.1714 84.3615 88.6088 84.9241C88.0462 85.4867 87.2831 85.8027 86.4875 85.8027H9.2375C8.44185 85.8027 7.67879 85.4867 7.11618 84.9241C6.55357 84.3615 6.2375 83.5984 6.2375 82.8027V17.3027C6.2375 16.5071 6.55357 15.744 7.11618 15.1814C7.67879 14.6188 8.44185 14.3027 9.2375 14.3027Z" fill="#E6E7EA"/>
	<path d="M87.375 35.4375H8.375C7.13236 35.4375 6.125 36.4449 6.125 37.6875V83.6875C6.125 84.9301 7.13236 85.9375 8.375 85.9375H87.375C88.6176 85.9375 89.625 84.9301 89.625 83.6875V37.6875C89.625 36.4449 88.6176 35.4375 87.375 35.4375Z" fill="white" stroke="#7A7C83" stroke-width="0.2"/>
	<path d="M81.75 42.6973H18.25C17.0074 42.6973 16 43.7046 16 44.9473V45.4473C16 46.6899 17.0074 47.6973 18.25 47.6973H81.75C82.9926 47.6973 84 46.6899 84 45.4473V44.9473C84 43.7046 82.9926 42.6973 81.75 42.6973Z" fill="#EDEDF1"/>
	<path d="M45.625 54.1973H18.25C17.0074 54.1973 16 55.2046 16 56.4473V56.9473C16 58.1899 17.0074 59.1973 18.25 59.1973H45.625C46.8676 59.1973 47.875 58.1899 47.875 56.9473V56.4473C47.875 55.2046 46.8676 54.1973 45.625 54.1973Z" fill="#EDEDF1"/>
	<path fill-rule="evenodd" clip-rule="evenodd" d="M76.6187 86.9873C77.589 87.4139 78.6848 87.458 79.6862 87.1108C80.6877 86.7635 81.5209 86.0505 82.0187 85.1148L87.8587 74.1423L89.7337 71.136C88.0412 69.7973 86.8512 68.9398 86.1637 68.5635C85.6952 68.3073 85.1798 68.1479 84.6484 68.0949C84.1169 68.0418 83.5803 68.0963 83.0703 68.2549C82.5603 68.4135 82.0874 68.673 81.6798 69.0181C81.2722 69.3632 80.9381 69.7867 80.6975 70.2635L74.8062 81.9385C74.5828 82.3818 74.4508 82.8654 74.4183 83.3608C74.3859 83.8561 74.4535 84.3529 74.6171 84.8215C74.7808 85.2901 75.0372 85.7209 75.371 86.0883C75.7048 86.4557 76.1092 86.7521 76.56 86.9598L76.6187 86.9873Z" fill="#FAE3E3"/>
	<path fill-rule="evenodd" clip-rule="evenodd" d="M68.1562 65.09C67.2556 65.6102 66.5921 66.4599 66.3057 67.4598C66.0194 68.4598 66.1325 69.5318 66.6212 70.45L74.6 85.4325C74.8364 85.876 75.1596 86.2675 75.5505 86.5835C75.9413 86.8995 76.3918 87.1337 76.875 87.272C77.3582 87.4103 77.8643 87.45 78.3632 87.3887C78.862 87.3273 79.3434 87.1662 79.7787 86.915C80.6794 86.3947 81.3429 85.5451 81.6293 84.5451C81.9156 83.5452 81.8025 82.4731 81.3137 81.555L73.335 66.575C73.0988 66.1312 72.7757 65.7395 72.385 65.4232C71.9942 65.107 71.5438 64.8726 71.0606 64.734C70.5774 64.5954 70.0712 64.5555 69.5722 64.6167C69.0733 64.6779 68.5917 64.8388 68.1562 65.09Z" fill="#FAE3E3"/>
	<path d="M94.6612 68.0752H84.0987C83.4429 68.0752 82.9112 68.6069 82.9112 69.2627C82.9112 69.9185 83.4429 70.4502 84.0987 70.4502H94.6612C95.3171 70.4502 95.8487 69.9185 95.8487 69.2627C95.8487 68.6069 95.3171 68.0752 94.6612 68.0752Z" fill="#FAE3E3"/>
	<path fill-rule="evenodd" clip-rule="evenodd" d="M86.97 68.9414H93.2575C93.5724 68.9414 93.8745 69.0665 94.0972 69.2892C94.3199 69.5119 94.445 69.814 94.445 70.1289C94.445 70.4439 94.3199 70.7459 94.0972 70.9686C93.8745 71.1913 93.5724 71.3164 93.2575 71.3164H86.97V68.9414Z" fill="#FAE3E3"/>
	<path fill-rule="evenodd" clip-rule="evenodd" d="M86.97 68.0751L89.9325 66.5651C90.0715 66.4943 90.223 66.4515 90.3785 66.4392C90.534 66.427 90.6903 66.4454 90.8387 66.4936C90.987 66.5418 91.1244 66.6187 91.243 66.72C91.3617 66.8212 91.4592 66.9449 91.53 67.0838C91.6008 67.2228 91.6436 67.3743 91.6559 67.5298C91.6681 67.6853 91.6496 67.8417 91.6015 67.99C91.5533 68.1384 91.4764 68.2758 91.3751 68.3944C91.2738 68.513 91.1502 68.6105 91.0112 68.6813L88.0487 70.1913L86.97 68.0751Z" fill="#FAE3E3"/>
	<path fill-rule="evenodd" clip-rule="evenodd" d="M93.2575 68.9414C93.5724 68.9414 93.8745 69.0665 94.0972 69.2892C94.3199 69.5119 94.445 69.814 94.445 70.1289L94.4438 70.1914C94.4277 69.8876 94.2958 69.6016 94.075 69.3923C93.8543 69.1829 93.5617 69.0663 93.2575 69.0664H86.97V68.9414H93.2575Z" fill="#F9C2C2"/>
	<path fill-rule="evenodd" clip-rule="evenodd" d="M94.6612 68.0752C94.9762 68.0752 95.2782 68.2003 95.5009 68.423C95.7236 68.6457 95.8487 68.9478 95.8487 69.2627L95.8462 69.3252C95.8302 69.0216 95.6984 68.7358 95.478 68.5265C95.2575 68.3172 94.9652 68.2004 94.6612 68.2002H86.97V68.0752H94.6612Z" fill="#F9C2C2"/>
	<path fill-rule="evenodd" clip-rule="evenodd" d="M47.3812 86.9873C46.4109 87.4139 45.3152 87.458 44.3138 87.1108C43.3123 86.7635 42.4791 86.0505 41.9812 85.1148L36.1412 74.1423L34.2662 71.136C35.9587 69.7973 37.1487 68.9398 37.8362 68.5635C38.3048 68.3073 38.8202 68.1479 39.3516 68.0949C39.8831 68.0418 40.4197 68.0963 40.9297 68.2549C41.4397 68.4135 41.9126 68.673 42.3202 69.0181C42.7278 69.3632 43.0619 69.7867 43.3025 70.2635L49.1937 81.9385C49.4172 82.3818 49.5492 82.8654 49.5816 83.3608C49.6141 83.8561 49.5465 84.3529 49.3829 84.8215C49.2192 85.2901 48.9628 85.7209 48.629 86.0883C48.2952 86.4557 47.8908 86.7521 47.44 86.9598L47.3812 86.9873Z" fill="#FAE3E3"/>
	<path fill-rule="evenodd" clip-rule="evenodd" d="M55.8437 65.09C56.7444 65.6102 57.4079 66.4599 57.6943 67.4598C57.9806 68.4598 57.8675 69.5318 57.3787 70.45L49.4 85.4325C49.1636 85.876 48.8403 86.2675 48.4495 86.5835C48.0587 86.8995 47.6082 87.1337 47.125 87.272C46.6418 87.4103 46.1357 87.45 45.6368 87.3887C45.138 87.3273 44.6566 87.1662 44.2212 86.915C43.3206 86.3947 42.6571 85.5451 42.3707 84.5451C42.0844 83.5452 42.1975 82.4731 42.6862 81.555L50.665 66.575C50.9012 66.1312 51.2243 65.7395 51.615 65.4232C52.0058 65.107 52.4562 64.8726 52.9394 64.734C53.4226 64.5954 53.9288 64.5555 54.4278 64.6167C54.9267 64.6779 55.4083 64.8388 55.8437 65.09Z" fill="#FAE3E3"/>
	<path d="M29.3387 68.0752H39.9012C40.5571 68.0752 41.0887 68.6069 41.0887 69.2627C41.0887 69.9185 40.5571 70.4502 39.9012 70.4502H29.3387C28.6829 70.4502 28.1512 69.9185 28.1512 69.2627C28.1512 68.6069 28.6829 68.0752 29.3387 68.0752Z" fill="#FAE3E3"/>
	<path fill-rule="evenodd" clip-rule="evenodd" d="M37.03 68.9414H30.7425C30.4276 68.9414 30.1255 69.0665 29.9028 69.2892C29.6801 69.5119 29.555 69.814 29.555 70.1289C29.555 70.4439 29.6801 70.7459 29.9028 70.9686C30.1255 71.1913 30.4276 71.3164 30.7425 71.3164H37.03V68.9414Z" fill="#FAE3E3"/>
	<path fill-rule="evenodd" clip-rule="evenodd" d="M37.03 68.0751L34.0675 66.5651C33.9285 66.4943 33.777 66.4515 33.6215 66.4392C33.466 66.427 33.3097 66.4454 33.1613 66.4936C33.013 66.5418 32.8756 66.6187 32.757 66.72C32.6383 66.8212 32.5408 66.9449 32.47 67.0838C32.3992 67.2228 32.3564 67.3743 32.3441 67.5298C32.3319 67.6853 32.3504 67.8417 32.3985 67.99C32.4467 68.1384 32.5236 68.2758 32.6249 68.3944C32.7262 68.513 32.8498 68.6105 32.9887 68.6813L35.9513 70.1913L37.03 68.0751Z" fill="#FAE3E3"/>
	<path fill-rule="evenodd" clip-rule="evenodd" d="M30.7425 68.9414C30.4276 68.9414 30.1255 69.0665 29.9028 69.2892C29.6801 69.5119 29.555 69.814 29.555 70.1289L29.5562 70.1914C29.5723 69.8876 29.7042 69.6016 29.925 69.3923C30.1457 69.1829 30.4383 69.0663 30.7425 69.0664H37.03V68.9414H30.7425Z" fill="#F9C2C2"/>
	<path fill-rule="evenodd" clip-rule="evenodd" d="M29.3387 68.0752C29.0238 68.0752 28.7218 68.2003 28.4991 68.423C28.2764 68.6457 28.1512 68.9478 28.1512 69.2627L28.1537 69.3252C28.1697 69.0216 28.3015 68.7358 28.522 68.5265C28.7425 68.3172 29.0348 68.2004 29.3387 68.2002H37.03V68.0752H29.3387Z" fill="#F9C2C2"/>
	<path fill-rule="evenodd" clip-rule="evenodd" d="M50.5275 88.7026L51.5163 78.6514L45.8337 74.7964C45.6696 74.6848 45.5563 74.5127 45.5188 74.3177C45.4813 74.1228 45.5227 73.9209 45.6337 73.7564L52.5725 63.4601C52.7556 63.1884 53.0026 62.9659 53.2918 62.812C53.581 62.6581 53.9036 62.5776 54.2312 62.5776H69.7687C70.0962 62.5778 70.4185 62.6584 70.7075 62.8123C70.9965 62.9661 71.2433 63.1886 71.4262 63.4601L78.3675 73.7564C78.4785 73.9211 78.5196 74.123 78.4819 74.318C78.4441 74.513 78.3306 74.685 78.1663 74.7964L72.4837 78.6514L73.4725 88.7026H50.5275Z" fill="#315CEC"/>
	<path d="M63.8525 60.6401C63.8525 59.6046 63.013 58.7651 61.9775 58.7651C60.942 58.7651 60.1025 59.6046 60.1025 60.6401V62.5151C60.1025 63.5507 60.942 64.3901 61.9775 64.3901C63.013 64.3901 63.8525 63.5507 63.8525 62.5151V60.6401Z" fill="#F9C2C2"/>
	<path d="M61.9775 61.3798C63.5798 61.3798 64.8787 59.9768 64.8787 58.2461C64.8787 56.5153 63.5798 55.1123 61.9775 55.1123C60.3752 55.1123 59.0762 56.5153 59.0762 58.2461C59.0762 59.9768 60.3752 61.3798 61.9775 61.3798Z" fill="#FAE3E3"/>
	<path fill-rule="evenodd" clip-rule="evenodd" d="M62.7937 52.34C62.7937 52.34 61.5437 50.5337 59.6262 51.8775C57.0737 53.665 58.8737 55.4275 58.8737 55.4275C58.8737 55.4275 56.97 55.0775 57.4275 57.395C57.9062 59.83 62.3162 57.935 63.3062 56.0775C63.3062 56.0775 63.3662 57.1187 64.8787 58.1C64.8787 58.1 67.0612 58.2825 66.9912 55.94C66.9225 53.5987 64.8787 54.5225 64.8787 54.5225C64.8787 54.5225 66.2687 53.5762 64.7375 52.21C63.4212 51.0375 62.7925 52.3412 62.7925 52.3412" fill="#04092D"/>
	<path d="M60.7 22.0325L79.0588 14.3575C79.1567 14.3178 79.2637 14.3059 79.368 14.323C79.4723 14.3402 79.5699 14.3858 79.65 14.4548C79.7301 14.5237 79.7896 14.6135 79.822 14.7141C79.8544 14.8147 79.8585 14.9223 79.8337 15.025L75.2587 33.3788C75.2355 33.4726 75.1887 33.5589 75.1229 33.6297C75.0571 33.7004 74.9743 33.7533 74.8825 33.7833C74.7906 33.8133 74.6926 33.8194 74.5977 33.8011C74.5028 33.7829 74.4141 33.7408 74.34 33.6788L70.3687 30.36C70.2594 30.2688 70.1199 30.2217 69.9776 30.2282C69.8353 30.2347 69.7006 30.2942 69.6 30.395L67.5625 32.4375C67.4827 32.5171 67.3811 32.5712 67.2706 32.5931C67.1601 32.615 67.0455 32.6036 66.9414 32.5604C66.8374 32.5172 66.7484 32.4441 66.6859 32.3504C66.6233 32.2566 66.59 32.1465 66.59 32.0338V27.7175C66.5898 27.5659 66.6496 27.4203 66.7562 27.3125L75.0387 19.0025L65.2612 26.3613C65.1585 26.4383 65.0327 26.4784 64.9042 26.475C64.7758 26.4716 64.6523 26.4249 64.5538 26.3425L60.5538 23C60.4787 22.9366 60.4212 22.8549 60.3866 22.7629C60.3521 22.6709 60.3418 22.5716 60.3566 22.4744C60.3714 22.3772 60.4108 22.2855 60.4712 22.2079C60.5315 22.1303 60.6107 22.0695 60.7013 22.0313L60.7 22.0325Z" fill="#315CEC"/>
	<path d="M59.285 34.6326L59.1075 34.1651L60.67 33.5776L60.8438 34.0464C60.3175 34.2439 59.7975 34.4389 59.285 34.6339V34.6326ZM56.1775 35.8301L55.995 35.3651C56.505 35.1651 57.0225 34.9639 57.5487 34.7614L57.7287 35.2276C57.2037 35.4301 56.685 35.6314 56.1775 35.8301ZM53.0863 37.0676L52.8975 36.6051C53.4037 36.3976 53.9187 36.1889 54.4437 35.9801L54.63 36.4426C54.105 36.6526 53.5925 36.8614 53.0863 37.0676ZM50.0125 38.3526L49.815 37.8926C50.3175 37.6776 50.83 37.4614 51.3525 37.2426L51.5462 37.7039C51.0237 37.9214 50.5137 38.1376 50.0125 38.3526ZM46.9687 39.6939L46.7612 39.2389C47.2575 39.0139 47.7662 38.7864 48.2862 38.5576L48.4875 39.0151C47.9687 39.2439 47.4625 39.4701 46.9687 39.6939ZM43.9562 41.1101L43.7375 40.6601C44.225 40.4226 44.7275 40.1814 45.245 39.9389L45.4575 40.3914C44.9425 40.6339 44.4412 40.8726 43.9562 41.1101ZM40.9962 42.6226L40.76 42.1826C41.235 41.9264 41.73 41.6689 42.2412 41.4076L42.4687 41.8526C41.96 42.1126 41.4687 42.3689 40.9962 42.6226ZM38.1137 44.2726L37.8512 43.8476C38.3075 43.5676 38.7887 43.2826 39.2925 42.9939L39.5412 43.4289C39.0412 43.7139 38.565 43.9951 38.1137 44.2726ZM27.625 47.0039L27.4337 46.5414C27.9627 46.3233 28.5012 46.1289 29.0475 45.9589L29.195 46.4364C28.6635 46.6021 28.1396 46.7914 27.625 47.0039ZM32.4787 45.7414C31.9412 45.8039 31.3987 45.8914 30.8562 46.0039L30.7537 45.5151C31.3055 45.3991 31.8623 45.309 32.4225 45.2451L32.4787 45.7414ZM24.7437 48.5664L24.4612 48.1539C24.9275 47.8351 25.4087 47.5414 25.905 47.2714L26.1425 47.7114C25.6625 47.9726 25.195 48.2576 24.7425 48.5676L24.7437 48.5664ZM35.3837 46.1326L35.08 45.7364L35.1875 45.6564L34.6562 45.6364H34.1025L34.0937 45.1364C34.6687 45.1264 35.2337 45.1476 35.7862 45.1976V45.2164L35.9662 45.0864L36.445 44.7551L36.725 45.1701C36.2412 45.4964 35.795 45.8176 35.3837 46.1326ZM22.2212 50.7014L21.8625 50.3539C22.26 49.9451 22.6712 49.5589 23.0975 49.1976L23.42 49.5789C23.0075 49.9289 22.6062 50.3039 22.2212 50.7014ZM38.8875 46.3626C38.3736 46.1808 37.8478 46.0347 37.3137 45.9251L37.415 45.4364C37.99 45.5551 38.5375 45.7076 39.055 45.8914L38.8875 46.3626ZM32.9962 48.3726L32.6062 48.0601C32.9287 47.6576 33.3187 47.2451 33.7787 46.8226L34.1162 47.1914C33.7139 47.5566 33.3395 47.9514 32.9962 48.3726ZM20.1087 53.3226L19.6937 53.0439C20.0137 52.5689 20.3475 52.1164 20.6937 51.6839L21.0837 51.9964C20.7462 52.4176 20.4212 52.8589 20.1087 53.3226ZM41.7675 48.0839C41.387 47.7058 40.9598 47.3777 40.4962 47.1076L40.7512 46.6776C41.28 46.9914 41.7412 47.3451 42.1225 47.7326L41.7675 48.0839ZM31.9487 51.3414L31.45 51.3726C31.4311 51.0431 31.4424 50.7126 31.4837 50.3851C31.5187 50.1251 31.5875 49.8589 31.6912 49.5889L32.1575 49.7676C32.0675 50.0014 32.0087 50.2301 31.98 50.4476C31.9424 50.744 31.9319 51.0431 31.9487 51.3414ZM18.4875 56.1376L18.0387 55.9164C18.2912 55.4039 18.5537 54.9076 18.8287 54.4301L19.2625 54.6801C18.9882 55.1573 18.7298 55.6434 18.4875 56.1376ZM43.3437 51.0026L42.8475 50.9351C42.9196 50.4179 42.8549 49.8909 42.66 49.4064L43.1237 49.2226C43.3512 49.7951 43.4262 50.3939 43.3437 51.0026ZM33.1412 54.4214C32.6487 54.0792 32.2395 53.6306 31.9437 53.1089L32.38 52.8639C32.63 53.3139 32.985 53.6976 33.43 54.0139L33.1412 54.4214ZM17.19 59.2251L16.7187 59.0564C16.9112 58.5189 17.1137 57.9964 17.3262 57.4901L17.7875 57.6826C17.5787 58.1826 17.38 58.6951 17.19 59.2251ZM41.4212 54.0364L41.1225 53.6351C41.5675 53.3051 41.94 52.9239 42.2262 52.5001L42.64 52.7814C42.3072 53.2653 41.8952 53.6896 41.4212 54.0364ZM36.49 55.4551C35.9131 55.4341 35.3408 55.3448 34.785 55.1889L34.9225 54.7076C35.4187 54.8501 35.955 54.9326 36.51 54.9564L36.49 55.4564V55.4551ZM16.415 61.6501L15.9337 61.5139C16.0112 61.2414 16.0912 60.9714 16.1712 60.7051L16.65 60.8514C16.57 61.1139 16.4912 61.3801 16.415 61.6501ZM39.8837 54.8839C39.3493 55.0947 38.7942 55.2489 38.2275 55.3439L38.1437 54.8514C38.6837 54.7601 39.2075 54.6139 39.6987 54.4189L39.8837 54.8839Z" fill="#04092D"/>
</svg>
