<svg width="200" height="200" viewBox="0 0 200 200" fill="none" xmlns="http://www.w3.org/2000/svg">
<g id="Code snippets-rafiki 1">
<g id="freepik--Shadow--inject-238">
<path id="freepik--path--inject-238" opacity="0.1" d="M100 171.025C142.833 171.025 177.556 168.997 177.556 166.497C177.556 163.996 142.833 161.969 100 161.969C57.167 161.969 22.444 163.996 22.444 166.497C22.444 168.997 57.167 171.025 100 171.025Z" fill="black"/>
</g>
<g id="freepik--Window--inject-238">
<path id="Vector" d="M168.1 75.5709C168.074 75.5694 168.048 75.5627 168.025 75.5512C168.001 75.5396 167.98 75.5235 167.963 75.5037C167.946 75.484 167.933 75.461 167.925 75.4361C167.917 75.4113 167.914 75.385 167.916 75.3589L168.088 72.651C168.093 72.5986 168.118 72.5501 168.157 72.5153C168.196 72.4804 168.247 72.4617 168.3 72.4629C168.327 72.4645 168.353 72.4713 168.377 72.483C168.401 72.4948 168.422 72.5112 168.44 72.5313C168.457 72.5515 168.47 72.5749 168.479 72.6002C168.487 72.6256 168.49 72.6524 168.488 72.6789L168.312 75.3869C168.311 75.4131 168.304 75.4386 168.292 75.4621C168.281 75.4856 168.265 75.5065 168.245 75.5237C168.225 75.5408 168.202 75.5538 168.177 75.5619C168.152 75.5701 168.126 75.5731 168.1 75.5709Z" fill="#315CEC"/>
<path id="Vector_2" d="M168.464 69.9362C168.438 69.9347 168.412 69.928 168.388 69.9165C168.365 69.905 168.343 69.889 168.326 69.8693C168.309 69.8496 168.295 69.8266 168.287 69.8017C168.278 69.7769 168.274 69.7505 168.276 69.7242L168.868 60.5242C168.872 60.4719 168.897 60.4232 168.936 60.3888C168.976 60.3544 169.028 60.3369 169.08 60.3402C169.106 60.3418 169.132 60.3485 169.156 60.36C169.179 60.3715 169.201 60.3875 169.218 60.4072C169.235 60.4269 169.249 60.4499 169.257 60.4747C169.266 60.4996 169.27 60.526 169.268 60.5522L168.676 69.7522C168.672 69.8046 168.647 69.8533 168.608 69.8877C168.568 69.9221 168.516 69.9395 168.464 69.9362Z" fill="#315CEC"/>
<path id="Vector_3" d="M157.252 130.688H87.076C86.3303 130.695 85.5912 130.547 84.9056 130.253C84.22 129.96 83.6029 129.527 83.0933 128.983C82.5837 128.438 82.1928 127.794 81.9454 127.09C81.698 126.387 81.5995 125.639 81.656 124.896L86.948 42.5677C87.0703 41.0073 87.7702 39.5485 88.9108 38.4766C90.0515 37.4047 91.5509 36.7968 93.116 36.7717H163.292C164.038 36.7646 164.778 36.9125 165.463 37.2063C166.149 37.5 166.767 37.9331 167.276 38.4781C167.786 39.0231 168.177 39.6681 168.424 40.3721C168.671 41.0761 168.769 41.8238 168.712 42.5677L163.42 124.896C163.297 126.455 162.596 127.913 161.456 128.984C160.315 130.055 158.816 130.663 157.252 130.688Z" fill="white"/>
<path id="Vector_4" d="M157.252 131.087H87.076C86.2753 131.095 85.4818 130.936 84.7458 130.62C84.0097 130.305 83.3472 129.84 82.8001 129.255C82.253 128.671 81.8332 127.979 81.5675 127.223C81.3017 126.468 81.1956 125.666 81.256 124.867L86.548 42.5433C86.6756 40.8807 87.42 39.3257 88.6352 38.1838C89.8504 37.0418 91.4486 36.3954 93.116 36.3713H163.292C164.093 36.3641 164.886 36.5231 165.622 36.8385C166.358 37.1538 167.021 37.6185 167.568 38.2032C168.115 38.7879 168.535 39.4799 168.801 40.2352C169.066 40.9906 169.172 41.7929 169.112 42.5913L163.82 124.919C163.691 126.581 162.947 128.135 161.731 129.276C160.516 130.417 158.919 131.063 157.252 131.087ZM93.116 37.1713C91.6519 37.1929 90.2487 37.7608 89.1816 38.7635C88.1145 39.7662 87.4606 41.1314 87.348 42.5913L82.056 124.919C82.0027 125.608 82.0933 126.301 82.3221 126.953C82.5509 127.606 82.9128 128.203 83.3849 128.708C83.857 129.213 84.429 129.614 85.0644 129.886C85.6998 130.158 86.3849 130.294 87.076 130.287H157.252C158.716 130.266 160.119 129.698 161.186 128.695C162.254 127.692 162.907 126.327 163.02 124.867L168.312 42.5433C168.366 41.8539 168.276 41.1608 168.047 40.5081C167.819 39.8554 167.457 39.2574 166.985 38.7522C166.513 38.2469 165.94 37.8454 165.305 37.5733C164.669 37.3011 163.984 37.1642 163.292 37.1713H93.116Z" fill="#315CEC"/>
<path id="Vector_5" d="M163.292 36.7717H93.116C91.5509 36.7968 90.0515 37.4047 88.9108 38.4766C87.7702 39.5485 87.0703 41.0073 86.948 42.5677H168.712C168.769 41.8238 168.671 41.0761 168.424 40.3721C168.177 39.6681 167.786 39.0231 167.276 38.4781C166.767 37.9331 166.149 37.5 165.463 37.2063C164.778 36.9125 164.038 36.7646 163.292 36.7717Z" fill="#315CEC"/>
<path id="Vector_6" d="M107.232 52.3072H96.472C96.3579 52.3086 96.2447 52.2863 96.1397 52.2417C96.0346 52.197 95.94 52.1311 95.8618 52.048C95.7836 51.9649 95.7235 51.8664 95.6853 51.7589C95.6471 51.6513 95.6317 51.537 95.64 51.4232C95.6589 51.1843 95.766 50.961 95.9405 50.7969C96.115 50.6327 96.3444 50.5394 96.584 50.5352H107.348C107.462 50.5343 107.575 50.5571 107.68 50.6022C107.785 50.6473 107.879 50.7137 107.957 50.7972C108.035 50.8807 108.095 50.9795 108.132 51.0872C108.17 51.195 108.185 51.3094 108.176 51.4232C108.157 51.6617 108.05 51.8845 107.875 52.048C107.701 52.2115 107.471 52.3039 107.232 52.3072Z" fill="#263238"/>
<path id="Vector_7" d="M135.304 57.6315H101.452C101.338 57.633 101.224 57.6105 101.119 57.5657C101.013 57.5208 100.918 57.4545 100.84 57.3709C100.762 57.2874 100.702 57.1885 100.664 57.0804C100.626 56.9724 100.611 56.8576 100.62 56.7435C100.639 56.5046 100.746 56.2814 100.921 56.1172C101.095 55.953 101.324 55.8597 101.564 55.8555H135.42C135.534 55.8546 135.647 55.8774 135.752 55.9225C135.857 55.9676 135.951 56.034 136.029 56.1175C136.107 56.201 136.167 56.2998 136.204 56.4075C136.242 56.5153 136.257 56.6297 136.248 56.7435C136.23 56.9827 136.123 57.2065 135.948 57.3708C135.774 57.5352 135.544 57.6282 135.304 57.6315Z" fill="#315CEC"/>
<path id="Vector_8" d="M118.82 62.9517H101.108C100.993 62.9564 100.879 62.9362 100.772 62.8927C100.666 62.8491 100.57 62.7831 100.492 62.6993C100.413 62.6154 100.353 62.5155 100.317 62.4066C100.28 62.2976 100.268 62.182 100.28 62.0677C100.299 61.8289 100.406 61.6056 100.581 61.4414C100.755 61.2772 100.984 61.1839 101.224 61.1797H118.936C119.05 61.1788 119.163 61.2016 119.268 61.2467C119.373 61.2919 119.467 61.3583 119.545 61.4417C119.623 61.5252 119.683 61.624 119.72 61.7317C119.758 61.8395 119.773 61.9539 119.764 62.0677C119.745 62.3062 119.638 62.529 119.463 62.6925C119.289 62.856 119.059 62.9485 118.82 62.9517Z" fill="#315CEC"/>
<path id="Vector_9" d="M150.648 68.2761H100.768C100.654 68.2775 100.54 68.2551 100.435 68.2102C100.329 68.1654 100.234 68.0991 100.156 68.0155C100.078 67.932 100.018 67.833 99.98 67.725C99.9421 67.617 99.9271 67.5022 99.936 67.3881C99.9548 67.1492 100.062 66.9259 100.237 66.7618C100.411 66.5976 100.64 66.5043 100.88 66.5001H150.76C150.874 66.4986 150.988 66.521 151.093 66.5659C151.199 66.6107 151.294 66.6771 151.372 66.7606C151.45 66.8442 151.51 66.9431 151.548 67.0511C151.586 67.1592 151.601 67.2739 151.592 67.3881C151.573 67.6269 151.466 67.8502 151.291 68.0144C151.117 68.1785 150.888 68.2718 150.648 68.2761Z" fill="#315CEC"/>
<path id="Vector_10" d="M143.392 62.9517H125.68C125.566 62.9531 125.453 62.9308 125.348 62.8862C125.243 62.8416 125.148 62.7756 125.07 62.6925C124.992 62.6094 124.931 62.511 124.893 62.4034C124.855 62.2959 124.84 62.1815 124.848 62.0677C124.867 61.8289 124.974 61.6056 125.149 61.4414C125.323 61.2772 125.552 61.1839 125.792 61.1797H143.504C143.618 61.1789 143.732 61.2017 143.837 61.2468C143.942 61.2918 144.036 61.3581 144.114 61.4416C144.193 61.525 144.253 61.6237 144.291 61.7314C144.329 61.8392 144.344 61.9537 144.336 62.0677C144.317 62.3062 144.21 62.529 144.035 62.6925C143.861 62.856 143.631 62.9485 143.392 62.9517Z" fill="#315CEC"/>
<path id="Vector_11" d="M103.812 105.532H93.048C92.9339 105.533 92.8208 105.51 92.7159 105.465C92.6111 105.42 92.5167 105.353 92.4389 105.27C92.361 105.186 92.3014 105.088 92.2637 104.98C92.226 104.872 92.2112 104.758 92.22 104.644C92.2389 104.405 92.346 104.182 92.5205 104.018C92.695 103.853 92.9245 103.76 93.164 103.756H103.928C104.042 103.755 104.155 103.778 104.26 103.823C104.365 103.868 104.459 103.934 104.537 104.018C104.615 104.101 104.675 104.2 104.712 104.308C104.75 104.416 104.765 104.53 104.756 104.644C104.737 104.883 104.63 105.106 104.456 105.27C104.281 105.434 104.052 105.528 103.812 105.532Z" fill="#263238"/>
<path id="Vector_12" d="M131.544 116.174H97.688C97.5737 116.175 97.4604 116.152 97.3554 116.107C97.2503 116.062 97.1558 115.996 97.0776 115.913C96.9994 115.829 96.9394 115.73 96.9013 115.623C96.8631 115.515 96.8477 115.4 96.856 115.286C96.8757 115.048 96.9831 114.825 97.1575 114.661C97.3318 114.497 97.5607 114.404 97.8 114.398H131.656C131.77 114.398 131.884 114.42 131.989 114.466C132.094 114.511 132.188 114.577 132.266 114.66C132.345 114.744 132.405 114.842 132.443 114.95C132.481 115.058 132.496 115.172 132.488 115.286C132.469 115.525 132.362 115.749 132.188 115.913C132.013 116.077 131.784 116.17 131.544 116.174Z" fill="#315CEC"/>
<path id="Vector_13" d="M115.056 121.495H97.344C97.2299 121.496 97.1168 121.473 97.0119 121.428C96.9071 121.383 96.8127 121.316 96.7349 121.233C96.657 121.149 96.5974 121.05 96.5597 120.943C96.522 120.835 96.5071 120.721 96.516 120.607C96.5358 120.369 96.6434 120.146 96.8178 119.983C96.9922 119.82 97.2211 119.727 97.46 119.723H115.172C115.286 119.721 115.399 119.744 115.504 119.788C115.609 119.833 115.703 119.899 115.781 119.982C115.859 120.065 115.919 120.164 115.956 120.271C115.994 120.379 116.009 120.493 116 120.607C115.981 120.846 115.874 121.069 115.7 121.233C115.525 121.397 115.296 121.49 115.056 121.495Z" fill="#315CEC"/>
<path id="Vector_14" d="M148.024 109.08H98.144C97.9048 109.083 97.6754 109.176 97.5008 109.339C97.3262 109.503 97.2189 109.726 97.2 109.964C97.1911 110.078 97.206 110.192 97.2437 110.3C97.2814 110.408 97.341 110.507 97.4188 110.59C97.4967 110.674 97.591 110.74 97.6959 110.785C97.8008 110.83 97.9139 110.853 98.028 110.852H147.912C148.152 110.848 148.381 110.755 148.555 110.59C148.73 110.426 148.837 110.203 148.856 109.964C148.864 109.85 148.849 109.736 148.811 109.628C148.773 109.521 148.712 109.422 148.634 109.339C148.556 109.256 148.461 109.19 148.356 109.146C148.251 109.101 148.138 109.079 148.024 109.08Z" fill="#315CEC"/>
<path id="Vector_15" d="M139.628 121.495H121.916C121.802 121.496 121.689 121.473 121.584 121.428C121.479 121.383 121.385 121.316 121.307 121.233C121.229 121.149 121.169 121.05 121.132 120.943C121.094 120.835 121.079 120.721 121.088 120.607C121.107 120.368 121.214 120.145 121.389 119.982C121.563 119.818 121.793 119.726 122.032 119.723H139.74C139.854 119.721 139.967 119.744 140.072 119.788C140.177 119.833 140.272 119.899 140.35 119.982C140.428 120.065 140.489 120.163 140.527 120.271C140.565 120.379 140.58 120.493 140.572 120.607C140.553 120.846 140.446 121.069 140.271 121.233C140.097 121.397 139.868 121.49 139.628 121.495Z" fill="#315CEC"/>
<path id="Vector_16" d="M110.844 78.9186H94.76C94.6458 78.9195 94.5328 78.8967 94.4279 78.8516C94.323 78.8065 94.2287 78.7401 94.1508 78.6566C94.073 78.5731 94.0133 78.4743 93.9757 78.3666C93.938 78.2588 93.9231 78.1444 93.932 78.0306C93.95 77.7914 94.0568 77.5676 94.2315 77.4033C94.4062 77.2389 94.6362 77.1459 94.876 77.1426H110.96C111.074 77.1417 111.187 77.1645 111.292 77.2096C111.397 77.2547 111.491 77.3212 111.569 77.4046C111.647 77.4881 111.707 77.5869 111.744 77.6946C111.782 77.8024 111.797 77.9168 111.788 78.0306C111.769 78.2695 111.662 78.4927 111.487 78.6569C111.313 78.8211 111.084 78.9144 110.844 78.9186Z" fill="#263238"/>
<path id="Vector_17" d="M133.024 93.1114H99.172C98.9322 93.1147 98.7023 93.2077 98.5276 93.3721C98.3528 93.5364 98.246 93.7602 98.228 93.9994C98.2191 94.1132 98.234 94.2276 98.2717 94.3354C98.3094 94.4431 98.369 94.5419 98.4469 94.6254C98.5247 94.7088 98.6191 94.7753 98.7239 94.8204C98.8288 94.8655 98.9419 94.8883 99.056 94.8874H132.912C133.152 94.8832 133.381 94.7899 133.556 94.6257C133.73 94.4615 133.837 94.2383 133.856 93.9994C133.865 93.8853 133.85 93.7705 133.812 93.6625C133.774 93.5544 133.714 93.4555 133.636 93.3719C133.558 93.2884 133.463 93.2221 133.357 93.1772C133.252 93.1324 133.138 93.1099 133.024 93.1114Z" fill="#315CEC"/>
<path id="Vector_18" d="M111.9 87.7911H99.5C99.2608 87.7943 99.0314 87.8867 98.8568 88.0503C98.6822 88.2138 98.5749 88.4366 98.556 88.6751C98.5471 88.7892 98.5621 88.904 98.6 89.012C98.6379 89.12 98.6979 89.219 98.7762 89.3025C98.8545 89.3861 98.9493 89.4524 99.0546 89.4973C99.16 89.5421 99.2735 89.5645 99.388 89.5631H111.788C112.028 89.5589 112.257 89.4656 112.431 89.3014C112.606 89.1372 112.713 88.9139 112.732 88.6751C112.74 88.5613 112.725 88.4469 112.687 88.3394C112.649 88.2318 112.588 88.1334 112.51 88.0503C112.432 87.9672 112.337 87.9012 112.232 87.8566C112.127 87.812 112.014 87.7897 111.9 87.7911Z" fill="#315CEC"/>
<path id="Vector_19" d="M123.124 82.4668H99.856C99.6162 82.4701 99.3862 82.5631 99.2115 82.7275C99.0368 82.8918 98.93 83.1156 98.912 83.3548C98.8998 83.4691 98.9124 83.5847 98.949 83.6937C98.9855 83.8027 99.0451 83.9025 99.1236 83.9864C99.2022 84.0703 99.2979 84.1362 99.4043 84.1798C99.5106 84.2234 99.6252 84.2435 99.74 84.2388H123.012C123.251 84.2356 123.481 84.1432 123.655 83.9796C123.83 83.8161 123.937 83.5933 123.956 83.3548C123.964 83.2408 123.949 83.1263 123.911 83.0186C123.873 82.9108 123.813 82.8121 123.734 82.7287C123.656 82.6453 123.562 82.5789 123.457 82.5339C123.352 82.4888 123.238 82.466 123.124 82.4668Z" fill="#315CEC"/>
<path id="Vector_20" d="M152.928 82.4668H129.66C129.42 82.4701 129.19 82.5631 129.016 82.7275C128.841 82.8918 128.734 83.1156 128.716 83.3548C128.704 83.4691 128.716 83.5847 128.753 83.6936C128.789 83.8026 128.849 83.9025 128.928 83.9863C129.006 84.0702 129.102 84.1362 129.208 84.1798C129.315 84.2233 129.429 84.2435 129.544 84.2388H152.8C153.039 84.2347 153.268 84.1419 153.442 83.9786C153.617 83.8152 153.724 83.5929 153.744 83.3548C153.752 83.2421 153.737 83.129 153.7 83.0223C153.663 82.9156 153.604 82.8177 153.528 82.7345C153.451 82.6513 153.359 82.5847 153.256 82.5386C153.152 82.4926 153.041 82.4681 152.928 82.4668Z" fill="#315CEC"/>
<path id="Vector_21" d="M141.792 87.7911H118.76C118.521 87.7943 118.291 87.8867 118.117 88.0503C117.942 88.2138 117.835 88.4366 117.816 88.6751C117.807 88.7892 117.822 88.904 117.86 89.012C117.898 89.12 117.958 89.219 118.036 89.3025C118.115 89.3861 118.209 89.4524 118.315 89.4973C118.42 89.5421 118.534 89.5645 118.648 89.5631H141.68C141.92 89.5589 142.149 89.4656 142.324 89.3014C142.498 89.1372 142.605 88.9139 142.624 88.6751C142.632 88.5613 142.617 88.4469 142.579 88.3394C142.541 88.2318 142.48 88.1334 142.402 88.0503C142.324 87.9672 142.229 87.9012 142.124 87.8566C142.019 87.812 141.906 87.7897 141.792 87.7911Z" fill="#315CEC"/>
<path id="Vector_22" d="M94.636 39.3755C94.6012 39.8075 94.4064 40.211 94.0897 40.5069C93.7731 40.8028 93.3574 40.97 92.924 40.9755C92.7173 40.9783 92.5123 40.9381 92.3219 40.8574C92.1316 40.7768 91.9601 40.6574 91.8183 40.507C91.6765 40.3566 91.5676 40.1783 91.4983 39.9835C91.4291 39.7887 91.401 39.5817 91.416 39.3755C91.4509 38.9428 91.6463 38.5388 91.9638 38.2428C92.2813 37.9468 92.6979 37.7801 93.132 37.7755C93.3385 37.7727 93.5434 37.8129 93.7336 37.8936C93.9237 37.9743 94.095 38.0937 94.2364 38.2442C94.3779 38.3947 94.4865 38.5731 94.5553 38.7678C94.6241 38.9626 94.6516 39.1696 94.636 39.3755Z" fill="white"/>
<path id="Vector_23" d="M97.96 38.0638C98.126 38.0617 98.2906 38.094 98.4434 38.1587C98.5963 38.2234 98.734 38.3191 98.848 38.4398C98.9622 38.5618 99.0496 38.7063 99.1047 38.864C99.1598 39.0218 99.1814 39.1893 99.168 39.3558C99.1401 39.7139 98.9794 40.0486 98.7174 40.2943C98.4555 40.54 98.1111 40.6789 97.752 40.6838C97.5867 40.6843 97.4231 40.6506 97.2715 40.5848C97.1199 40.5191 96.9834 40.4227 96.8708 40.3018C96.7581 40.1809 96.6716 40.038 96.6168 39.8821C96.5619 39.7262 96.5399 39.5606 96.552 39.3958C96.579 39.037 96.7392 38.7013 97.0013 38.4548C97.2634 38.2083 97.6082 38.0688 97.968 38.0638M97.968 37.7638C97.5339 37.7684 97.1173 37.9351 96.7998 38.2311C96.4823 38.5271 96.2869 38.9311 96.252 39.3638C96.237 39.57 96.265 39.777 96.3343 39.9718C96.4036 40.1666 96.5125 40.3448 96.6543 40.4953C96.7961 40.6457 96.9676 40.765 97.1579 40.8457C97.3483 40.9263 97.5533 40.9666 97.76 40.9638C98.1934 40.9582 98.6091 40.7911 98.9257 40.4952C99.2424 40.1993 99.4372 39.7958 99.472 39.3638C99.4876 39.1578 99.4601 38.9509 99.3913 38.7561C99.3225 38.5613 99.2139 38.383 99.0724 38.2325C98.931 38.082 98.7597 37.9626 98.5695 37.8819C98.3794 37.8012 98.1745 37.761 97.968 37.7638Z" fill="white"/>
<path id="Vector_24" opacity="0.5" d="M104.296 39.3755C104.26 39.8078 104.065 40.2113 103.747 40.5072C103.43 40.803 103.014 40.97 102.58 40.9755C102.373 40.9782 102.168 40.938 101.978 40.8574C101.788 40.7767 101.616 40.6574 101.474 40.5069C101.333 40.3565 101.224 40.1782 101.154 39.9835C101.085 39.7887 101.057 39.5816 101.072 39.3755C101.108 38.9431 101.303 38.5396 101.621 38.2438C101.938 37.9479 102.354 37.781 102.788 37.7755C102.995 37.7733 103.199 37.8139 103.389 37.8948C103.579 37.9757 103.751 38.095 103.892 38.2453C104.034 38.3956 104.143 38.5736 104.212 38.7681C104.282 38.9626 104.31 39.1694 104.296 39.3755Z" fill="white"/>
</g>
<g id="freepik--Code--inject-238">
<g id="Vector_25">
<path d="M139.72 74.0673L153.72 75.8554C154.418 75.9439 155.091 76.1765 155.695 76.5384C156.299 76.9003 156.821 77.3836 157.229 77.9577C157.636 78.5318 157.92 79.1842 158.063 79.8737C158.205 80.5632 158.203 81.2748 158.056 81.9634L154.08 102.799C153.795 104.244 152.98 105.53 151.796 106.405C150.613 107.28 149.145 107.682 147.68 107.531L82.588 99.1994C81.8897 99.1113 81.2173 98.8792 80.6134 98.5177C80.0094 98.1562 79.4871 97.6733 79.0795 97.0995C78.6719 96.5257 78.3879 95.8736 78.2455 95.1843C78.103 94.495 78.1052 93.7837 78.252 93.0954L82.252 72.2473C82.5373 70.803 83.3517 69.5172 84.5355 68.6419C85.7194 67.7666 87.1874 67.3648 88.652 67.5153L131.164 72.9553" fill="white"/>
<path d="M139.72 74.0673L153.72 75.8554C154.418 75.9439 155.091 76.1765 155.695 76.5384C156.299 76.9003 156.821 77.3836 157.229 77.9577C157.636 78.5318 157.92 79.1842 158.063 79.8737C158.205 80.5632 158.203 81.2748 158.056 81.9634L154.08 102.799C153.795 104.244 152.98 105.53 151.796 106.405C150.613 107.28 149.145 107.682 147.68 107.531L82.588 99.1994C81.8897 99.1113 81.2173 98.8792 80.6134 98.5177C80.0094 98.1562 79.4871 97.6733 79.0795 97.0995C78.6719 96.5257 78.3879 95.8736 78.2455 95.1843C78.103 94.495 78.1052 93.7837 78.252 93.0954L82.252 72.2473C82.5373 70.803 83.3517 69.5172 84.5355 68.6419C85.7194 67.7666 87.1874 67.3648 88.652 67.5153L131.164 72.9553L139.72 74.0673Z" stroke="#263238" stroke-width="0.3" stroke-linecap="round" stroke-dasharray="2 2"/>
</g>
<path id="Vector_26" d="M105.884 78.9479L90.964 77.0399C90.8583 77.0235 90.7569 76.986 90.6659 76.9297C90.5749 76.8734 90.4961 76.7995 90.4342 76.7122C90.3722 76.6249 90.3285 76.5261 90.3054 76.4216C90.2824 76.3171 90.2805 76.2091 90.3 76.1039C90.3446 75.8824 90.4701 75.6855 90.652 75.5516C90.834 75.4178 91.0593 75.3565 91.284 75.3799L106.2 77.2879C106.306 77.3043 106.407 77.3417 106.498 77.398C106.589 77.4543 106.668 77.5283 106.73 77.6155C106.792 77.7028 106.836 77.8016 106.859 77.9061C106.882 78.0106 106.883 78.1186 106.864 78.2239C106.82 78.445 106.696 78.6418 106.514 78.7758C106.333 78.9097 106.108 78.9711 105.884 78.9479Z" fill="#263238"/>
<path id="Vector_27" d="M124.764 94.956L93.364 90.956C93.1398 90.9328 92.915 90.9941 92.7337 91.1281C92.5524 91.262 92.4277 91.4589 92.384 91.68C92.3645 91.7852 92.3664 91.8933 92.3894 91.9978C92.4125 92.1022 92.4562 92.201 92.5181 92.2883C92.5801 92.3756 92.6588 92.4496 92.7499 92.5058C92.8409 92.5621 92.9422 92.5996 93.048 92.616L124.444 96.616C124.669 96.6393 124.894 96.5781 125.076 96.4442C125.258 96.3103 125.383 96.1134 125.428 95.892C125.447 95.7868 125.446 95.6787 125.423 95.5742C125.399 95.4697 125.356 95.3709 125.294 95.2836C125.232 95.1964 125.153 95.1224 125.062 95.0661C124.971 95.0098 124.87 94.9724 124.764 94.956Z" fill="#315CEC"/>
<path id="Vector_28" d="M105.804 87.4358L94.316 85.9638C94.0918 85.9406 93.867 86.0019 93.6857 86.1359C93.5044 86.2698 93.3796 86.4667 93.336 86.6878C93.3165 86.793 93.3184 86.9011 93.3414 87.0056C93.3645 87.1101 93.4082 87.2089 93.4701 87.2961C93.5321 87.3834 93.6108 87.4574 93.7019 87.5137C93.7929 87.5699 93.8942 87.6074 94 87.6238L105.488 89.0918C105.712 89.116 105.938 89.0549 106.119 88.9209C106.301 88.7868 106.425 88.5894 106.468 88.3678C106.491 88.2625 106.492 88.1535 106.47 88.0479C106.449 87.9423 106.405 87.8424 106.343 87.7546C106.28 87.6668 106.2 87.593 106.107 87.5381C106.014 87.4832 105.911 87.4484 105.804 87.4358Z" fill="#315CEC"/>
<path id="Vector_29" d="M116.848 83.7472L95.248 80.9872C95.0238 80.964 94.799 81.0254 94.6177 81.1593C94.4364 81.2933 94.3117 81.4901 94.268 81.7112C94.2485 81.8165 94.2504 81.9245 94.2734 82.029C94.2965 82.1335 94.3402 82.2323 94.4021 82.3196C94.4641 82.4068 94.5428 82.4808 94.6339 82.5371C94.7249 82.5934 94.8262 82.6308 94.932 82.6472L116.512 85.4072C116.736 85.4305 116.961 85.3691 117.142 85.2351C117.324 85.1012 117.448 84.9044 117.492 84.6832C117.512 84.5795 117.511 84.4728 117.489 84.3694C117.467 84.2661 117.425 84.1681 117.365 84.0811C117.305 83.994 117.229 83.9197 117.14 83.8624C117.051 83.8051 116.952 83.766 116.848 83.7472Z" fill="#315CEC"/>
<path id="Vector_30" d="M144.488 87.2824L122.888 84.5224C122.664 84.4992 122.439 84.5605 122.258 84.6945C122.076 84.8284 121.952 85.0253 121.908 85.2464C121.889 85.3516 121.89 85.4597 121.913 85.5642C121.936 85.6686 121.98 85.7675 122.042 85.8547C122.104 85.942 122.183 86.016 122.274 86.0723C122.365 86.1285 122.466 86.166 122.572 86.1824L144.152 88.9424C144.376 88.9656 144.601 88.9042 144.782 88.7703C144.964 88.6364 145.088 88.4395 145.132 88.2184C145.152 88.1146 145.151 88.008 145.129 87.9046C145.107 87.8013 145.065 87.7032 145.005 87.6162C144.945 87.5292 144.869 87.4549 144.78 87.3976C144.691 87.3403 144.592 87.3012 144.488 87.2824Z" fill="#315CEC"/>
<path id="Vector_31" d="M133.528 90.979L112.168 88.247C111.944 88.2238 111.719 88.2852 111.538 88.4191C111.356 88.553 111.232 88.7499 111.188 88.971C111.169 89.0762 111.17 89.1843 111.193 89.2888C111.216 89.3933 111.26 89.4921 111.322 89.5793C111.384 89.6666 111.463 89.7406 111.554 89.7969C111.645 89.8531 111.746 89.8906 111.852 89.907L133.2 92.639C133.424 92.6622 133.649 92.6008 133.83 92.4669C134.012 92.333 134.136 92.1361 134.18 91.915C134.2 91.8106 134.198 91.7034 134.176 91.5996C134.154 91.4958 134.111 91.3975 134.05 91.3104C133.989 91.2233 133.912 91.1491 133.822 91.0922C133.733 91.0353 133.633 90.9968 133.528 90.979Z" fill="#315CEC"/>
</g>
<g id="freepik--Character--inject-238">
<path id="Vector_32" d="M63.78 86.4883C63.78 86.4883 56.92 110.324 54.136 122.028C51.216 134.32 42.536 152.9 41.796 161.048C41.044 161.348 38.596 161.012 37.312 160.384C37.312 160.384 38.512 134.404 45.568 122.572C43.968 93.4563 51.876 86.4883 51.876 86.4883H63.78Z" fill="#315CEC"/>
<path id="Vector_33" opacity="0.1" d="M54.896 98.4609L58.752 104.401C57.528 108.869 56.28 113.529 55.256 117.537C54.184 110.585 54.896 98.4609 54.896 98.4609Z" fill="black"/>
<path id="Vector_34" d="M64 80.6762L62.944 80.1002C62.7478 79.995 62.5295 79.938 62.3069 79.9338C62.0844 79.9297 61.864 79.9785 61.664 80.0762L59.764 81.0042C59.39 81.1871 59.0653 81.4568 58.8168 81.7908C58.5684 82.1248 58.4035 82.5135 58.336 82.9242L58.252 83.4442C59.94 84.5122 62.556 84.4242 62.556 84.4242L63.304 84.4802C63.4571 84.4968 63.612 84.4827 63.7596 84.4388C63.9071 84.3949 64.0445 84.322 64.1637 84.2245C64.2828 84.1269 64.3813 84.0067 64.4535 83.8706C64.5257 83.7346 64.57 83.5856 64.584 83.4322L64.716 81.9522C64.7347 81.6928 64.6769 81.4336 64.5496 81.2067C64.4223 80.9799 64.2312 80.7954 64 80.6762Z" fill="#FFC3BD"/>
<path id="Vector_35" d="M59.74 81.3111L59.672 81.2911C59.028 81.0871 58.324 80.8911 57.672 80.6191C57.0302 80.3894 56.4025 80.1222 55.792 79.8191C55.246 79.5577 54.7319 79.2342 54.26 78.8551C54.0398 78.6738 53.8542 78.4543 53.712 78.2071C53.636 77.3671 53.58 76.5271 53.588 75.6711C53.596 74.8151 53.632 73.8471 53.716 72.9311C53.8 72.0151 53.908 71.0991 54.052 70.1871C54.124 69.7311 54.2 69.2791 54.288 68.8271L54.428 68.1591L54.56 67.5391L54.588 67.4271C54.6607 66.8963 54.5343 66.3573 54.2331 65.9141C53.9319 65.471 53.4772 65.1551 52.9569 65.0273C52.4365 64.8996 51.8873 64.9691 51.4151 65.2224C50.943 65.4757 50.5813 65.8949 50.4 66.3991C50.316 66.7111 50.256 66.9471 50.192 67.1991C50.128 67.4511 50.08 67.7151 50.028 67.9711C49.924 68.4871 49.836 69.0031 49.756 69.5191C49.6007 70.5545 49.4992 71.5972 49.452 72.6431C49.398 73.696 49.406 74.7512 49.476 75.8031C49.5403 76.8693 49.6739 77.9302 49.876 78.9791V79.0911C49.8962 79.1897 49.9257 79.2861 49.964 79.3791C50.2067 79.9356 50.5497 80.4428 50.976 80.8751C51.3388 81.239 51.7414 81.561 52.176 81.8351C52.9445 82.288 53.7706 82.6352 54.632 82.8671C55.4189 83.0822 56.2213 83.236 57.032 83.3271C57.432 83.3711 57.832 83.3951 58.232 83.4111C58.632 83.4271 59.012 83.4351 59.432 83.4111C59.6863 83.3998 59.9285 83.2993 60.1161 83.1273C60.3038 82.9553 60.4249 82.7227 60.4583 82.4704C60.4917 82.218 60.4352 81.962 60.2987 81.7471C60.1623 81.5322 59.9546 81.3722 59.712 81.2951L59.74 81.3111Z" fill="#FFC3BD"/>
<path id="Vector_36" d="M53.228 61.1992C55.176 63.0072 56.32 65.8192 55.144 71.3872C53.236 72.4712 48.408 71.4792 48.408 71.4792C48.408 71.4792 47.872 63.2272 53.228 61.1992Z" fill="#263238"/>
<path id="Vector_37" d="M58.124 52.9043C58.468 55.3043 58.716 59.7043 57.008 61.0723C57.008 61.0723 59.26 61.0123 63.604 64.4963C65.204 62.7123 64.272 61.9643 64.272 61.9643C61.696 61.0163 61.872 59.0723 62.4 57.2963L58.124 52.9043Z" fill="#FFC3BD"/>
<path id="Vector_38" d="M67.824 51.5435C67.772 51.8635 67.888 52.1635 68.088 52.2115C68.288 52.2595 68.488 52.0395 68.552 51.7195C68.616 51.3995 68.488 51.0995 68.288 51.0515C68.088 51.0035 67.88 51.2235 67.824 51.5435Z" fill="#263238"/>
<path id="Vector_39" d="M68.196 51.0478L68.972 51.0078C68.972 51.0078 68.492 51.5158 68.196 51.0478Z" fill="#263238"/>
<path id="Vector_40" d="M67.708 52.1445C67.8561 52.9439 68.1061 53.7209 68.452 54.4565C67.98 54.7525 67.32 54.4045 67.32 54.4045L67.708 52.1445Z" fill="#ED847E"/>
<path id="Vector_41" d="M67.78 53.9993C67.7072 53.9984 67.6347 53.989 67.564 53.9713C67.4425 53.9359 67.3296 53.8756 67.2326 53.7944C67.1355 53.7132 67.0563 53.6127 67 53.4993C66.7191 52.8026 66.7191 52.024 67 51.3273C67.432 50.0473 68.348 49.1953 69.088 49.3913C69.2093 49.4261 69.3219 49.4861 69.4184 49.5675C69.5149 49.6488 69.5932 49.7496 69.648 49.8633C69.929 50.56 69.929 51.3386 69.648 52.0353C69.26 53.1993 68.472 53.9993 67.78 53.9993ZM68.88 49.5633C68.284 49.5633 67.548 50.3633 67.196 51.3913C66.9327 52.0307 66.9256 52.7468 67.176 53.3913C67.2185 53.4804 67.2793 53.5596 67.3544 53.6237C67.4296 53.6878 67.5173 53.7353 67.612 53.7633C68.232 53.9233 69.076 53.0993 69.46 51.9593C69.714 51.3168 69.714 50.6018 69.46 49.9593C69.4181 49.8697 69.3575 49.7902 69.2823 49.726C69.2071 49.6619 69.119 49.6146 69.024 49.5873C68.9768 49.5757 68.9286 49.569 68.88 49.5673V49.5633Z" fill="#315CEC"/>
<path id="Vector_42" d="M69.12 49.2725C69.1565 49.2409 69.1794 49.1965 69.184 49.1485C69.184 49.099 69.1649 49.0513 69.1306 49.0155C69.0963 48.9797 69.0495 48.9586 69 48.9565C68.6953 48.9304 68.3886 48.9745 68.1036 49.0855C67.8186 49.1964 67.5629 49.3713 67.356 49.5965C67.3409 49.6152 67.3299 49.6369 67.3237 49.6602C67.3175 49.6834 67.3163 49.7077 67.3201 49.7314C67.3238 49.7552 67.3325 49.7778 67.3456 49.798C67.3587 49.8182 67.3759 49.8354 67.396 49.8485C67.4388 49.8772 67.4907 49.889 67.5417 49.8816C67.5927 49.8742 67.6391 49.8482 67.672 49.8085C67.8385 49.6342 68.0423 49.4998 68.2681 49.4153C68.4939 49.3307 68.7359 49.2984 68.976 49.3205C69.0282 49.3225 69.0794 49.3054 69.12 49.2725Z" fill="#263238"/>
<path id="Vector_43" d="M57.888 47.9233C57.404 51.7593 57.632 53.9673 58.624 55.7713C60.676 59.5113 65.604 59.3713 67.2 55.8153C68.636 52.6153 69.2 46.8713 65.84 44.4753C65.1388 43.9365 64.3062 43.5952 63.4285 43.4867C62.5509 43.3782 61.6603 43.5065 60.8489 43.8583C60.0376 44.21 59.3352 44.7725 58.8146 45.4873C58.2939 46.2021 57.974 47.0431 57.888 47.9233Z" fill="#FFC3BD"/>
<path id="Vector_44" d="M56.444 47.9556C55.424 50.2476 57.468 54.3916 59.224 56.3116C60.312 57.5116 63.744 55.6876 65.832 52.1156C66.1027 51.3867 66.2218 50.6102 66.1819 49.8337C66.142 49.0571 65.944 48.2969 65.6 47.5996L56.444 47.9556Z" fill="#263238"/>
<path id="Vector_45" d="M69.696 51.6007H69.66C69.62 51.6007 65.8 50.1367 64.304 50.3127C64.2776 50.3151 64.2514 50.3073 64.2306 50.2909C64.2098 50.2746 64.196 50.2509 64.192 50.2247C64.1903 50.2116 64.1913 50.1983 64.1948 50.1855C64.1983 50.1727 64.2044 50.1608 64.2126 50.1503C64.2208 50.1399 64.2309 50.1312 64.2425 50.1248C64.2541 50.1183 64.2668 50.1142 64.28 50.1127C65.824 49.9247 69.572 51.3527 69.732 51.4127C69.7565 51.4234 69.776 51.443 69.7864 51.4676C69.7968 51.4921 69.7974 51.5198 69.788 51.5447C69.7796 51.5619 69.7665 51.5763 69.7502 51.5862C69.7339 51.5961 69.7151 51.6012 69.696 51.6007Z" fill="#315CEC"/>
<path id="Vector_46" d="M65 49.42C61.492 51.42 57.444 50.056 56.512 48.556C55.58 47.056 56.152 46.18 56.476 45.816C55.472 45.548 54.836 44.176 57.792 42.816C60.748 41.456 69.2 41.556 66.456 40C69.068 40.448 68.376 41.792 67.392 41.968C72.6 43.1 69.2 48.468 65 49.42Z" fill="#263238"/>
<path id="Vector_47" d="M56.656 45.3687C55.724 46.2687 54.444 45.6767 54.256 44.9688C54.088 47.5247 57.776 46.6767 56.656 45.3687Z" fill="#263238"/>
<path id="Vector_48" d="M64.312 51.8203C64.3511 52.1884 64.4672 52.5442 64.6525 52.8646C64.8379 53.185 65.0884 53.4629 65.388 53.6803C66.152 54.1883 66.84 53.3483 66.884 52.2963C66.928 51.3443 66.58 49.9403 65.684 49.8723C64.788 49.8043 64.172 50.8363 64.312 51.8203Z" fill="#FFC3BD"/>
<path id="Vector_49" d="M44.064 166.481C41.112 166.041 41.056 165.553 39.472 164.997C38.116 164.517 37.732 164.597 36.64 164.217C35.724 163.909 36.036 163.017 36.64 162.113C36.94 161.649 36.984 161.205 37.316 160.385L41.8 161.049C42.24 162.301 42.392 163.905 44.952 164.821C46.476 165.369 45.244 166.653 44.064 166.481Z" fill="#263238"/>
<path id="Vector_50" d="M71.424 166.492C68.488 166.492 67.924 166.296 66.276 166.24C64.86 166.188 64.628 166.492 63.196 166.492C62.248 166.492 62.116 165.42 62.464 164.62C62.736 163.996 62.776 163.248 62.972 162.436H67.02C67.748 163.72 69.74 164.668 71.964 164.836C73.556 164.944 72.6 166.492 71.424 166.492Z" fill="#263238"/>
<path id="Vector_51" d="M68 86.4883C68 86.4883 68.588 107.608 67.336 121.016C67.416 133.604 67.028 162.436 67.028 162.436C66.928 163.08 63.552 162.836 62.98 162.436C62.98 162.436 56.656 141.436 59.464 121.016C52.436 99.7203 53.952 86.4883 53.952 86.4883H68Z" fill="#315CEC"/>
<path id="Vector_52" d="M42.4 159.417C42.3292 159.975 42.2984 160.538 42.308 161.101C42.3096 161.148 42.3017 161.195 42.2847 161.239C42.2678 161.283 42.2421 161.323 42.2092 161.357C42.1764 161.391 42.137 161.418 42.0935 161.437C42.05 161.455 42.0033 161.465 41.956 161.465C40.276 161.465 37.956 160.749 37.22 160.505C37.1518 160.481 37.0928 160.437 37.0511 160.378C37.0095 160.319 36.9874 160.249 36.988 160.177V158.577C36.9874 158.526 36.9978 158.476 37.0185 158.43C37.0391 158.384 37.0695 158.343 37.1076 158.31C37.1456 158.277 37.1904 158.253 37.2388 158.238C37.2872 158.224 37.3381 158.221 37.388 158.229L42.116 159.029C42.2042 159.044 42.2829 159.093 42.3358 159.166C42.3887 159.238 42.4117 159.328 42.4 159.417Z" fill="#315CEC"/>
<path id="Vector_53" opacity="0.5" d="M42.4 159.417C42.3292 159.975 42.2984 160.538 42.308 161.101C42.3096 161.148 42.3017 161.195 42.2847 161.239C42.2678 161.283 42.2421 161.323 42.2092 161.357C42.1764 161.391 42.137 161.418 42.0935 161.437C42.05 161.455 42.0033 161.465 41.956 161.465C40.276 161.465 37.956 160.749 37.22 160.505C37.1518 160.481 37.0928 160.437 37.0511 160.378C37.0095 160.319 36.9874 160.249 36.988 160.177V158.577C36.9874 158.526 36.9978 158.476 37.0185 158.43C37.0391 158.384 37.0695 158.343 37.1076 158.31C37.1456 158.277 37.1904 158.253 37.2388 158.238C37.2872 158.224 37.3381 158.221 37.388 158.229L42.116 159.029C42.2042 159.044 42.2829 159.093 42.3358 159.166C42.3887 159.238 42.4117 159.328 42.4 159.417Z" fill="white"/>
<path id="Vector_54" d="M67.484 160.664C67.484 161.1 67.52 161.864 67.56 162.456C67.5691 162.551 67.5408 162.646 67.481 162.721C67.4213 162.796 67.3349 162.844 67.24 162.856C65.7536 162.977 64.2592 162.959 62.776 162.804C62.7046 162.798 62.637 162.77 62.5836 162.722C62.5301 162.674 62.4937 162.61 62.48 162.54L62.18 160.972C62.1715 160.92 62.174 160.867 62.1873 160.817C62.2006 160.766 62.2245 160.719 62.2574 160.678C62.2902 160.637 62.3313 160.604 62.3779 160.58C62.4246 160.556 62.4757 160.543 62.528 160.54L67.136 160.36C67.2224 160.355 67.3074 160.383 67.3726 160.44C67.4378 160.497 67.4778 160.578 67.484 160.664Z" fill="#315CEC"/>
<path id="Vector_55" opacity="0.5" d="M67.484 160.664C67.484 161.1 67.52 161.864 67.56 162.456C67.5691 162.551 67.5408 162.646 67.481 162.721C67.4213 162.796 67.3349 162.844 67.24 162.856C65.7536 162.977 64.2592 162.959 62.776 162.804C62.7046 162.798 62.637 162.77 62.5836 162.722C62.5301 162.674 62.4937 162.61 62.48 162.54L62.18 160.972C62.1715 160.92 62.174 160.867 62.1873 160.817C62.2006 160.766 62.2245 160.719 62.2574 160.678C62.2902 160.637 62.3313 160.604 62.3779 160.58C62.4246 160.556 62.4757 160.543 62.528 160.54L67.136 160.36C67.2224 160.355 67.3074 160.383 67.3726 160.44C67.4378 160.497 67.4778 160.578 67.484 160.664Z" fill="white"/>
<path id="Vector_56" d="M70.668 68.8004C70.458 71.2519 70.1229 73.6911 69.664 76.1084C69.148 79.2684 68.464 81.2484 67.992 86.5084C66.18 87.8124 53.808 87.2124 51.876 86.5084C52.2 81.9684 52.428 75.9004 50.804 65.4044C50.7 64.8534 50.7206 64.2862 50.8642 63.7442C51.0079 63.2022 51.2709 62.6992 51.634 62.272C51.9972 61.8448 52.4513 61.5042 52.9631 61.2752C53.4749 61.0462 54.0315 60.9345 54.592 60.9484C55.232 60.9484 55.912 60.9924 56.592 61.0404C59.0314 61.1682 61.4587 61.4676 63.856 61.9364C64.636 62.1044 65.456 62.3044 66.212 62.5124C67.5685 62.8815 68.7546 63.7105 69.5674 64.8575C70.3802 66.0045 70.7693 67.3983 70.668 68.8004Z" fill="#263238"/>
<path id="Vector_57" d="M81.56 71.8482C81.4581 71.7492 81.3377 71.6713 81.2055 71.619C81.0734 71.5668 80.9322 71.5412 80.7902 71.5438C80.6481 71.5464 80.508 71.5771 80.3778 71.6342C80.2477 71.6912 80.1302 71.7735 80.032 71.8762L80.004 71.9042C79.416 72.5122 78.804 73.1602 78.18 73.7522C77.556 74.3442 76.936 74.9522 76.296 75.4562C75.7254 75.949 75.1 76.3745 74.432 76.7242C74.3355 76.7724 74.2351 76.8126 74.132 76.8442C73.732 76.2322 73.332 75.6082 73 74.9522C72.572 74.1522 72.172 73.3282 71.8 72.4802C71.428 71.6322 71.1 70.7762 70.792 69.9042C70.64 69.4722 70.488 69.0362 70.352 68.5962L70.156 67.9442L69.98 67.3322L69.948 67.2202C69.7838 66.6862 69.4198 66.2362 68.9319 65.9641C68.444 65.6919 67.8699 65.6186 67.3293 65.7595C66.7886 65.9003 66.3232 66.2444 66.0301 66.72C65.737 67.1956 65.6388 67.766 65.756 68.3122C65.828 68.6242 65.888 68.8642 65.956 69.1122C66.024 69.3602 66.104 69.6202 66.18 69.8722C66.336 70.3762 66.5 70.8682 66.676 71.3642C67.0269 72.3465 67.4274 73.3104 67.876 74.2522C68.3304 75.2047 68.8393 76.1302 69.4 77.0242C69.9649 77.9322 70.5889 78.8021 71.268 79.6282L71.316 79.6882C71.3864 79.7759 71.4655 79.8564 71.552 79.9282C71.9383 80.2441 72.3895 80.4709 72.8735 80.5926C73.3574 80.7143 73.8622 80.7278 74.352 80.6322C75.0234 80.4901 75.6607 80.2183 76.228 79.8322C77.0902 79.2464 77.8704 78.5483 78.548 77.7562C79.1732 77.0402 79.7543 76.2868 80.288 75.5002C80.8122 74.726 81.2956 73.9249 81.736 73.1002C81.8419 72.8995 81.8819 72.6705 81.8503 72.4458C81.8188 72.221 81.7172 72.0119 81.56 71.8482Z" fill="#FFC3BD"/>
<path id="Vector_58" d="M84.4 69.3249L83.2 69.1809C82.9794 69.153 82.7553 69.1785 82.5465 69.255C82.3377 69.3316 82.1503 69.457 82 69.6209L80.572 71.1809C80.2905 71.4882 80.0865 71.8584 79.9773 72.2606C79.868 72.6628 79.8566 73.0854 79.944 73.4929L80.052 74.0049C82.016 74.3809 84.416 73.3449 84.416 73.3449L85.136 73.1249C85.2836 73.083 85.4214 73.0123 85.5416 72.917C85.6618 72.8216 85.7619 72.7034 85.8363 72.5692C85.9106 72.435 85.9577 72.2875 85.9748 72.135C85.9919 71.9826 85.9787 71.8282 85.936 71.6809L85.536 70.2529C85.4565 70.005 85.3069 69.7855 85.1053 69.6208C84.9037 69.4562 84.6587 69.3534 84.4 69.3249Z" fill="#FFC3BD"/>
<path id="Vector_59" d="M65.792 62.377C68.364 63.041 70.708 64.973 72.32 70.433C71.156 72.293 66.436 73.713 66.436 73.713C66.436 73.713 62.052 66.721 65.792 62.377Z" fill="#263238"/>
</g>
</g>
</svg>
