<svg width="200" height="200" viewBox="0 0 200 200" fill="none" xmlns="http://www.w3.org/2000/svg">
<g id="Accept terms-rafiki 1">
<g id="freepik--Shadow--inject-249">
<path id="freepik--path--inject-249" opacity="0.1" d="M100 171.025C142.833 171.025 177.556 168.997 177.556 166.497C177.556 163.996 142.833 161.969 100 161.969C57.1671 161.969 22.4441 163.996 22.4441 166.497C22.4441 168.997 57.1671 171.025 100 171.025Z" fill="black"/>
</g>
<g id="freepik--terms-and-conditions--inject-249">
<path id="Vector" d="M165.456 59.293H105.168C105.168 59.293 94.3081 69.293 94.3081 93.605C94.3081 114.513 102.544 142.861 99.4521 154.465C97.1201 163.221 85.8121 164.725 80.3921 164.933H137.776C137.776 164.933 156.648 166.073 159.74 154.465C162.832 142.857 154.596 114.513 154.596 93.601C154.596 69.277 165.456 59.293 165.456 59.293Z" fill="#CCCCCC"/>
<path id="Vector_2" opacity="0.7" d="M165.456 59.293H105.168C105.168 59.293 94.3081 69.293 94.3081 93.605C94.3081 114.513 102.544 142.861 99.4521 154.465C97.1201 163.221 85.8121 164.725 80.3921 164.933H137.776C137.776 164.933 156.648 166.073 159.74 154.465C162.832 142.857 154.596 114.513 154.596 93.601C154.596 69.277 165.456 59.293 165.456 59.293Z" fill="white"/>
<g id="Group" opacity="0.8">
<path id="Vector_3" opacity="0.8" d="M149.056 84.933H100.84C102.204 74.237 105.88 68.013 107.908 65.293H154.4C152.12 70.053 149.968 76.537 149.056 84.933Z" fill="#333333" fill-opacity="0.333333"/>
<path id="Vector_4" opacity="0.3" d="M148.652 90.6053H100.368C100.408 89.6333 100.464 88.6893 100.544 87.7773H148.8C148.733 88.6973 148.684 89.64 148.652 90.6053Z" fill="#333333" fill-opacity="0.333333"/>
<path id="Vector_5" opacity="0.3" d="M115.508 96.2732H100.352C100.325 95.3692 100.311 94.4799 100.308 93.6052V93.4492H115.468V93.6012C115.468 94.4852 115.48 95.3772 115.508 96.2732Z" fill="#333333" fill-opacity="0.333333"/>
<path id="Vector_6" opacity="0.3" d="M148.94 101.941H100.692C100.608 100.989 100.54 100.045 100.488 99.1172H148.756C148.804 100.053 148.865 100.995 148.94 101.941Z" fill="#333333" fill-opacity="0.333333"/>
<path id="Vector_7" opacity="0.3" d="M149.472 107.601H101.264C101.152 106.655 101.048 105.712 100.952 104.773H149.2C149.268 105.725 149.368 106.669 149.472 107.601Z" fill="#333333" fill-opacity="0.333333"/>
<path id="Vector_8" opacity="0.3" d="M150.168 113.281H102C101.868 112.337 101.744 111.393 101.624 110.457H149.808C149.92 111.398 150.04 112.34 150.168 113.281Z" fill="#333333" fill-opacity="0.333333"/>
<path id="Vector_9" opacity="0.3" d="M150.964 118.949H102.8C102.661 118.005 102.528 117.064 102.4 116.125H150.56C150.692 117.065 150.828 118.001 150.964 118.949Z" fill="#333333" fill-opacity="0.333333"/>
<path id="Vector_10" opacity="0.3" d="M151.816 124.621H103.668C103.592 124.105 103.512 123.581 103.432 123.057L103.24 121.793H151.388C151.532 122.737 151.672 123.681 151.816 124.621Z" fill="#333333" fill-opacity="0.333333"/>
<path id="Vector_11" opacity="0.3" d="M104.508 130.289C104.375 129.356 104.241 128.414 104.108 127.465H152.248C152.388 128.409 152.532 129.349 152.668 130.289H104.508Z" fill="#333333" fill-opacity="0.333333"/>
<path id="Vector_12" opacity="0.3" d="M105.272 135.957C105.16 135.033 105.036 134.089 104.908 133.133H145.068C145.204 134.085 145.332 135.029 145.468 135.957H105.272Z" fill="#333333" fill-opacity="0.333333"/>
<path id="Vector_13" opacity="0.3" d="M105.864 141.629C105.787 140.706 105.699 139.763 105.6 138.801H153.808C153.916 139.769 154.016 140.713 154.1 141.629H105.864Z" fill="#333333" fill-opacity="0.333333"/>
<path id="Vector_14" opacity="0.3" d="M106.14 147.297C106.14 146.385 106.104 145.441 106.052 144.473H131.488C131.552 145.461 131.588 146.405 131.6 147.297H106.14Z" fill="#333333" fill-opacity="0.333333"/>
</g>
<path id="Vector_15" d="M142.4 161.872C139.34 162.428 136.24 162.004 133.164 161.872C131.689 161.777 130.208 161.816 128.74 161.988C127.3 162.18 125.868 162.556 124.416 162.428C124.896 162.171 125.348 161.864 125.764 161.512C125.782 161.494 125.796 161.472 125.803 161.447C125.81 161.422 125.81 161.395 125.803 161.37C125.797 161.345 125.784 161.322 125.766 161.303C125.748 161.285 125.725 161.271 125.7 161.264C121.184 159.664 117.072 163.992 112.572 162.984C113.848 162.04 115.644 162.02 116.732 160.78C116.752 160.759 116.766 160.732 116.771 160.703C116.776 160.674 116.773 160.644 116.761 160.617C116.75 160.59 116.731 160.567 116.706 160.551C116.682 160.534 116.653 160.525 116.624 160.524C112.6 160.444 108.8 162 104.8 162.356C104.608 162.356 104.608 162.672 104.8 162.656C108.66 162.32 112.36 160.844 116.252 160.812C115.088 161.852 113.312 161.888 112.128 162.936C112.11 162.955 112.096 162.978 112.09 163.003C112.083 163.029 112.083 163.055 112.089 163.08C112.095 163.106 112.108 163.129 112.126 163.148C112.144 163.167 112.167 163.181 112.192 163.188C116.728 164.44 120.856 160.112 125.336 161.448C124.869 161.815 124.36 162.125 123.82 162.372C123.795 162.388 123.774 162.41 123.762 162.437C123.749 162.463 123.744 162.493 123.748 162.522C123.752 162.551 123.764 162.579 123.783 162.601C123.802 162.624 123.828 162.64 123.856 162.648C125.332 162.896 126.776 162.58 128.232 162.348C129.862 162.115 131.512 162.05 133.156 162.156C136.264 162.304 139.384 162.724 142.472 162.156C142.676 162.128 142.596 161.836 142.4 161.872Z" fill="#333333" fill-opacity="0.333333"/>
</g>
<g id="freepik--Character--inject-249">
<path id="Vector_16" d="M60.7519 74.0508C61.0039 74.3748 61.3279 74.7548 61.6239 75.1068C61.9199 75.4588 62.2439 75.8148 62.5639 76.1588C63.2079 76.8468 63.8599 77.5228 64.5639 78.1588C65.8694 79.3983 67.3524 80.4364 68.9639 81.2388C69.1599 81.3268 69.3639 81.4068 69.5439 81.4788C69.6329 81.5142 69.7237 81.5449 69.8159 81.5708C69.9013 81.6045 69.9897 81.63 70.0799 81.6468C70.4638 81.7455 70.8563 81.8071 71.2519 81.8308C72.1375 81.8738 73.0251 81.8229 73.8999 81.6788C74.829 81.5371 75.7492 81.3421 76.6559 81.0948C77.5759 80.8548 78.5159 80.5588 79.3919 80.2508L80.1919 81.8508C78.4137 82.9623 76.4883 83.8187 74.4719 84.3948C73.4087 84.6992 72.3129 84.8751 71.2079 84.9188C70.6095 84.9428 70.0102 84.9039 69.4199 84.8028C69.2679 84.7788 69.1119 84.7428 68.9599 84.7068C68.8079 84.6708 68.6479 84.6308 68.5159 84.5868C68.2359 84.5028 67.9639 84.4108 67.7159 84.3068C65.68 83.4696 63.8063 82.2823 62.1799 80.7988C61.3862 80.1109 60.6292 79.3819 59.9119 78.6148C59.5559 78.2148 59.2079 77.8428 58.8719 77.4428C58.5359 77.0428 58.2159 76.6428 57.8679 76.1828L60.7519 74.0508Z" fill="#FFC3BD"/>
<path id="Vector_17" d="M56.6839 72.9199C56.5959 75.1599 57.4839 79.1999 57.4839 79.1999L63.0279 78.5279C63.0279 78.5279 63.2319 72.6159 62.1559 71.1879C60.3359 68.7999 56.7679 70.7999 56.6839 72.9199Z" fill="#315CEC"/>
<path id="Vector_18" d="M78.6479 80.8194L81.244 78.4434L81.576 81.0034C81.576 81.0034 80.4999 82.4474 79.2799 81.8394L78.6479 80.8194Z" fill="#FFC3BD"/>
<path id="Vector_19" d="M82.5479 78.5834L83.6479 80.0234L81.5759 81.0034L81.2439 78.4434L82.5479 78.5834Z" fill="#FFC3BD"/>
<path id="Vector_20" d="M81.8919 72.1079C82.1679 72.1079 82.3199 72.1079 82.5159 72.1079C82.5998 72.1021 82.684 72.1021 82.7679 72.1079L82.9759 72.1359C83.1554 72.157 83.3264 72.2245 83.4719 72.3319C83.5426 72.4152 83.5896 72.5161 83.6079 72.6239L83.6999 72.9279L84.0719 74.1279L84.8159 76.5559L86.2999 81.4158C87.2799 84.6559 88.2999 87.8879 89.2439 91.1359C91.1839 97.6239 93.0199 104.136 94.8239 110.66C96.6279 117.184 98.3239 123.736 100.068 130.26C101.812 136.784 103.372 143.384 103.928 150.232C103.948 150.69 103.81 151.141 103.538 151.509C103.265 151.877 102.874 152.141 102.431 152.256C101.987 152.371 101.517 152.33 101.1 152.14C100.683 151.949 100.344 151.622 100.14 151.212C97.2999 144.956 95.4439 138.448 93.8199 131.88C92.1959 125.312 90.4719 118.8 88.8799 112.236C87.2879 105.672 85.7319 99.0719 84.2759 92.4599C83.5279 89.1599 82.8479 85.8399 82.1319 82.5319L81.0719 77.5639L80.5399 75.0799L80.2759 73.8359L80.2079 73.5279C80.1716 73.4238 80.1633 73.3121 80.1839 73.2038C80.2617 73.0452 80.3771 72.9079 80.5199 72.8038L80.6919 72.6759C80.7578 72.6256 80.8274 72.5801 80.8999 72.5399C81.0719 72.4399 81.1959 72.3559 81.4439 72.2359C81.5834 72.1643 81.7356 72.1208 81.8919 72.1079Z" fill="#263238"/>
<path id="Vector_21" d="M103.544 151.263C103.514 151.155 103.443 151.063 103.345 151.006C103.248 150.95 103.133 150.935 103.024 150.963L102.144 151.191L101.264 151.419C101.155 151.447 101.062 151.517 101.004 151.614C100.946 151.71 100.929 151.826 100.956 151.935C101.504 154.455 100.956 156.259 101.54 158.475C102.144 160.807 104.772 162.003 104.772 162.003L104.688 161.007L105.088 161.919C105.088 161.919 106.804 159.599 106.2 157.267C105.632 155.051 104.288 153.731 103.544 151.263Z" fill="#315CEC"/>
<path id="Vector_22" opacity="0.3" d="M103.544 151.263C103.514 151.155 103.443 151.063 103.345 151.006C103.248 150.95 103.133 150.935 103.024 150.963L102.144 151.191L101.264 151.419C101.155 151.447 101.062 151.517 101.004 151.614C100.946 151.71 100.929 151.826 100.956 151.935C101.504 154.455 100.956 156.259 101.54 158.475C102.144 160.807 104.772 162.003 104.772 162.003L104.688 161.007L105.088 161.919C105.088 161.919 106.804 159.599 106.2 157.267C105.632 155.051 104.288 153.731 103.544 151.263Z" fill="white"/>
<path id="Vector_23" d="M104.228 157.047C104.254 157.152 104.248 157.262 104.211 157.364C104.174 157.466 104.108 157.555 104.021 157.619C103.934 157.683 103.83 157.72 103.722 157.725C103.614 157.731 103.507 157.704 103.414 157.648C103.321 157.593 103.247 157.511 103.201 157.413C103.154 157.315 103.138 157.206 103.153 157.099C103.169 156.992 103.216 156.892 103.288 156.812C103.361 156.731 103.455 156.674 103.56 156.647C103.701 156.612 103.851 156.634 103.976 156.709C104.102 156.784 104.192 156.906 104.228 157.047Z" fill="#263238"/>
<path id="Vector_24" d="M104.72 161.128C104.704 161.133 104.688 161.134 104.671 161.132C104.655 161.13 104.639 161.125 104.625 161.117C104.611 161.109 104.598 161.097 104.588 161.084C104.579 161.071 104.572 161.056 104.568 161.04L103.576 157.22C103.572 157.204 103.571 157.188 103.573 157.171C103.575 157.155 103.58 157.14 103.588 157.125C103.597 157.111 103.608 157.099 103.62 157.089C103.633 157.079 103.648 157.072 103.664 157.068C103.68 157.063 103.696 157.061 103.713 157.063C103.729 157.065 103.745 157.07 103.759 157.079C103.773 157.087 103.786 157.098 103.796 157.111C103.805 157.125 103.812 157.14 103.816 157.156L104.808 160.976C104.812 160.991 104.813 161.008 104.811 161.024C104.809 161.04 104.804 161.056 104.796 161.07C104.787 161.084 104.777 161.096 104.764 161.106C104.751 161.116 104.736 161.124 104.72 161.128Z" fill="#263238"/>
<path id="Vector_25" d="M101.48 137.528L96.0879 138.924C95.9383 138.962 95.7799 138.939 95.6473 138.86C95.5146 138.781 95.4185 138.653 95.3799 138.504C95.3414 138.357 95.3617 138.201 95.4364 138.069C95.511 137.937 95.6342 137.839 95.7799 137.796L101.2 136.4C101.347 136.361 101.503 136.382 101.635 136.456C101.767 136.531 101.865 136.654 101.908 136.8C101.929 136.876 101.934 136.955 101.924 137.033C101.914 137.111 101.888 137.187 101.848 137.254C101.808 137.322 101.755 137.382 101.692 137.429C101.628 137.476 101.556 137.509 101.48 137.528Z" fill="#315CEC"/>
<path id="Vector_26" d="M74.1079 64.3194C74.0119 64.5594 74.0639 64.8114 74.2199 64.8794C74.3759 64.9474 74.5839 64.8074 74.6799 64.5674C74.7759 64.3274 74.7279 64.0754 74.5679 64.0074C74.4079 63.9394 74.2079 64.0794 74.1079 64.3194Z" fill="#263238"/>
<path id="Vector_27" d="M74.4958 64L75.1398 64.084C75.1398 64.084 74.6598 64.4 74.4958 64Z" fill="#263238"/>
<path id="Vector_28" d="M74.22 64.6387C74.2137 65.2826 74.2945 65.9244 74.46 66.5467C74.3005 66.5807 74.1355 66.5794 73.9765 66.5427C73.8176 66.5061 73.6686 66.4351 73.54 66.3347L74.22 64.6387Z" fill="#ED847E"/>
<path id="Vector_29" d="M75.0758 62.8555C75.0508 62.8507 75.0275 62.8397 75.0078 62.8235C74.8639 62.692 74.6916 62.5954 74.5043 62.5413C74.317 62.4872 74.1197 62.477 73.9278 62.5115C73.8886 62.5214 73.8471 62.5157 73.812 62.4955C73.7769 62.4754 73.7511 62.4424 73.7398 62.4035C73.73 62.3643 73.7357 62.3228 73.7558 62.2877C73.776 62.2526 73.809 62.2268 73.8478 62.2155C74.0881 62.1679 74.3363 62.1771 74.5724 62.2424C74.8085 62.3077 75.0261 62.4272 75.2078 62.5915C75.2221 62.6057 75.2334 62.6225 75.2412 62.641C75.2489 62.6596 75.2529 62.6795 75.2529 62.6996C75.2529 62.7196 75.2489 62.7395 75.2412 62.7581C75.2334 62.7766 75.2221 62.7934 75.2078 62.8076C75.1915 62.8259 75.1709 62.8398 75.1479 62.8482C75.1249 62.8566 75.1001 62.8591 75.0758 62.8555Z" fill="#263238"/>
<path id="Vector_30" d="M65.6279 64.1953C65.7999 66.1433 65.1519 69.3313 63.6799 70.4153C63.6799 70.4153 64.7879 72.4633 68.3359 72.9393C72.2359 73.4633 70.4039 71.2673 70.4039 71.2673C68.3279 70.4673 68.5519 68.9193 69.0759 67.4953L65.6279 64.1953Z" fill="#FFC3BD"/>
<path id="Vector_31" d="M76.2559 74.5918C76.5639 76.4078 76.9439 78.2918 77.3399 80.1278C77.5519 81.0438 77.7639 81.9638 78.0119 82.8638C78.2599 83.7638 78.5079 84.6638 78.7839 85.5478C78.9359 85.9838 79.0719 86.4278 79.2319 86.8518L79.4719 87.4918L79.5279 87.6478V87.6958C79.5359 87.7203 79.5452 87.7443 79.5559 87.7678C79.6384 87.9104 79.7733 88.0152 79.9319 88.0598C80.2483 88.1725 80.5802 88.2359 80.9159 88.2478C81.7742 88.2715 82.6326 88.2017 83.4759 88.0398C84.3599 87.8798 85.2919 87.6638 86.1599 87.4238L86.8919 89.0438C86.4508 89.3063 85.9969 89.5466 85.5319 89.7638C85.0723 89.989 84.601 90.1893 84.1199 90.3638C83.1126 90.7572 82.0561 91.0102 80.9799 91.1158C80.3477 91.1733 79.7105 91.1301 79.0919 90.9878C78.2992 90.8071 77.5855 90.3766 77.0559 89.7598C76.9189 89.5942 76.7958 89.4176 76.6879 89.2318C76.6319 89.1398 76.5879 89.0438 76.5399 88.9518L76.4639 88.7718L76.1519 88.0718C75.9479 87.6038 75.7519 87.1358 75.5799 86.6638C75.2359 85.7198 74.9079 84.7718 74.6239 83.8198C74.3399 82.8678 74.0839 81.9078 73.8239 80.9478C73.3479 79.0198 72.9599 77.1118 72.6719 75.1158L76.2559 74.5918Z" fill="#FFC3BD"/>
<path id="Vector_32" d="M85.7758 87.5345L87.3198 86.3105L88.0158 88.6865C88.0158 88.6865 85.9038 90.2145 85.3398 88.4185L85.7758 87.5345Z" fill="#FFC3BD"/>
<path id="Vector_33" d="M88.716 86.7305L89.268 88.4665L88.016 88.6865L87.324 86.3105L88.716 86.7305Z" fill="#FFC3BD"/>
<path id="Vector_34" d="M59.8679 162.963L63.0959 163.203L64.0519 155.791L60.8239 155.551L59.8679 162.963Z" fill="#FFC3BD"/>
<path id="Vector_35" d="M39.1958 153.546L41.9918 155.246L46.6438 149.438L43.8478 147.738L39.1958 153.546Z" fill="#FFC3BD"/>
<path id="Vector_36" d="M43.9439 156.103C43.9041 156.109 43.8636 156.109 43.8239 156.103C43.4239 156.103 42.9479 155.479 42.7079 155.111C42.6991 155.099 42.6943 155.084 42.6943 155.069C42.6943 155.054 42.6991 155.039 42.7079 155.027C42.7156 155.014 42.7269 155.004 42.7404 154.998C42.7539 154.991 42.7691 154.989 42.7839 154.991C42.9159 155.019 44.0719 155.263 44.2239 155.647C44.2402 155.689 44.245 155.735 44.238 155.78C44.231 155.825 44.2123 155.868 44.1839 155.903C44.1302 155.996 44.0451 156.067 43.9439 156.103ZM42.9439 155.195C43.2839 155.675 43.6079 155.959 43.8279 155.963C43.8758 155.964 43.9229 155.951 43.9644 155.927C44.0059 155.903 44.0403 155.869 44.0639 155.827C44.0745 155.81 44.0802 155.791 44.0802 155.771C44.0802 155.751 44.0745 155.732 44.0639 155.715C43.9999 155.511 43.4039 155.307 42.9439 155.199V155.195Z" fill="#315CEC"/>
<path id="Vector_37" d="M43.7718 155.104C43.4395 155.194 43.0916 155.212 42.7518 155.156C42.7392 155.151 42.7278 155.144 42.7187 155.134C42.7096 155.124 42.7031 155.113 42.6998 155.1C42.6935 155.089 42.6902 155.076 42.6902 155.064C42.6902 155.051 42.6935 155.039 42.6998 155.028C42.7238 155 43.3598 154.348 43.8278 154.368C43.8882 154.368 43.9477 154.383 44.0017 154.41C44.0558 154.437 44.103 154.476 44.1398 154.524C44.1831 154.566 44.2107 154.622 44.218 154.683C44.2252 154.743 44.2118 154.804 44.1798 154.856C44.074 154.98 43.9309 155.067 43.7718 155.104ZM42.9318 155.032C43.3318 155.076 43.9478 154.96 44.0718 154.776C44.0718 154.744 44.1038 154.7 44.0398 154.62C44.0162 154.589 43.986 154.564 43.9513 154.547C43.9167 154.529 43.8786 154.52 43.8398 154.52C43.4914 154.592 43.1741 154.771 42.9318 155.032Z" fill="#315CEC"/>
<path id="Vector_38" d="M42.8319 154.624L40.1799 152.072C40.1361 152.027 40.0772 151.999 40.0145 151.995C39.9518 151.99 39.8896 152.009 39.8399 152.048L37.5759 153.792C37.5213 153.84 37.4777 153.899 37.4477 153.966C37.4178 154.033 37.4023 154.105 37.4023 154.178C37.4023 154.251 37.4178 154.323 37.4477 154.389C37.4777 154.456 37.5213 154.515 37.5759 154.564C38.5159 155.44 39.0119 155.816 40.1759 156.94C40.8959 157.632 41.8719 158.712 42.8639 159.668C43.8559 160.624 44.8239 159.72 44.4959 159.236C43.0159 157.068 43.2359 156.256 43.1039 155.148C43.0757 154.947 42.9797 154.762 42.8319 154.624Z" fill="#263238"/>
<path id="Vector_39" d="M64.4959 163.306C64.1543 163.3 63.8141 163.261 63.4799 163.19C63.4645 163.187 63.4504 163.179 63.4397 163.168C63.4289 163.157 63.422 163.142 63.4199 163.126C63.4178 163.111 63.4205 163.095 63.4276 163.08C63.4348 163.066 63.446 163.054 63.4599 163.046C63.6079 162.97 64.9199 162.31 65.3039 162.534C65.3408 162.553 65.3718 162.582 65.3937 162.617C65.4155 162.652 65.4273 162.693 65.4279 162.734C65.4361 162.804 65.4269 162.874 65.401 162.939C65.3752 163.004 65.3335 163.062 65.2799 163.106C65.0486 163.26 64.7723 163.33 64.4959 163.306ZM63.7359 163.082C64.4479 163.198 64.9799 163.17 65.1799 162.994C65.2152 162.964 65.2424 162.926 65.2592 162.883C65.2759 162.839 65.2817 162.792 65.2759 162.746C65.277 162.73 65.2735 162.714 65.2657 162.7C65.2579 162.686 65.2461 162.674 65.2319 162.666C65.0159 162.546 64.2759 162.826 63.7359 163.082Z" fill="#315CEC"/>
<path id="Vector_40" d="M63.4959 163.2C63.4815 163.204 63.4663 163.204 63.4519 163.2C63.4401 163.192 63.4308 163.182 63.4251 163.169C63.4195 163.156 63.4176 163.142 63.4199 163.128C63.4199 163.072 63.5759 161.752 64.2999 161.752H64.3599C64.5719 161.772 64.6319 161.876 64.6439 161.964C64.7039 162.328 63.9199 163.028 63.5279 163.204L63.4959 163.2ZM64.2959 161.892C63.8319 161.892 63.6479 162.66 63.5919 162.988C63.9919 162.748 64.5239 162.188 64.4879 161.98C64.4879 161.96 64.4879 161.908 64.3399 161.896L64.2959 161.892Z" fill="#315CEC"/>
<path id="Vector_41" d="M63.296 162.742H59.668C59.6051 162.742 59.5443 162.764 59.4961 162.804C59.4478 162.845 59.4152 162.9 59.4039 162.962L58.9159 165.83C58.9062 165.902 58.912 165.975 58.9329 166.045C58.9538 166.114 58.9893 166.178 59.0371 166.233C59.0848 166.287 59.1437 166.331 59.2097 166.361C59.2758 166.391 59.3474 166.406 59.42 166.406C60.684 166.406 61.2959 166.31 62.8919 166.31C63.8719 166.31 65.9 166.41 67.2559 166.41C68.6119 166.41 68.72 165.07 68.156 164.95C65.64 164.406 64.664 163.654 63.832 162.95C63.6835 162.82 63.4936 162.746 63.296 162.742Z" fill="#263238"/>
<path id="Vector_42" opacity="0.2" d="M64.0519 155.791L63.5199 159.911L60.3279 159.375L60.8239 155.555L64.0519 155.791Z" fill="black"/>
<path id="Vector_43" opacity="0.2" d="M43.8439 147.738L46.6439 149.442L44.7159 151.842L41.8599 150.214L43.8439 147.738Z" fill="black"/>
<path id="Vector_44" d="M58.2398 89.863L71.3078 91.619C76.3718 73.291 74.8798 72.799 74.8798 72.799C74.304 72.5245 73.7091 72.2919 73.0998 72.103C72.4838 71.879 71.8612 71.675 71.2318 71.491C69.9747 71.1179 68.6964 70.82 67.4038 70.599C64.895 70.1677 62.3452 70.0241 59.8038 70.171C59.5491 70.1888 59.3018 70.2639 59.0801 70.3906C58.8585 70.5174 58.6683 70.6925 58.5238 70.903C58.4695 70.9811 58.4226 71.0642 58.3838 71.151C58.2416 71.4554 58.1863 71.7932 58.2238 72.127C59.3278 81.759 58.9718 84.927 58.2398 89.863Z" fill="#315CEC"/>
<path id="Vector_45" opacity="0.2" d="M72.5799 78.3997C72.3226 80.2961 72.5667 82.2269 73.2879 83.9997C74.1559 80.4237 74.6279 77.9997 74.8599 76.3197C73.8639 76.2757 72.8279 76.6597 72.5799 78.3997Z" fill="black"/>
<path id="Vector_46" d="M74.7638 72.7347C77.0038 74.0147 78.5598 77.0667 79.0278 78.8387L74.2598 83.1987C74.2598 83.1987 71.7878 77.4507 71.9878 75.6667C72.1878 73.8827 73.9198 72.2507 74.7638 72.7347Z" fill="#315CEC"/>
<path id="Vector_47" d="M66.3359 60.1751C65.3319 63.2071 64.8439 64.4671 65.7239 66.6271C67.0519 69.8791 70.9839 70.5671 72.8719 67.9231C74.5719 65.5431 75.9279 60.9831 73.5079 58.5591C72.9994 58.0183 72.3586 57.6195 71.6488 57.402C70.9389 57.1846 70.1847 57.156 69.4605 57.3192C68.7363 57.4824 68.0672 57.8317 67.5192 58.3325C66.9712 58.8333 66.5634 59.4685 66.3359 60.1751Z" fill="#FFC3BD"/>
<path id="Vector_48" d="M71.308 62.8637C71.0971 63.4198 71.0635 64.0277 71.212 64.6037C71.412 65.4037 72.012 65.4717 72.384 64.9557C72.756 64.4397 73.008 63.5077 72.608 62.8357C72.208 62.1637 71.568 62.2517 71.308 62.8637Z" fill="#FFC3BD"/>
<path id="Vector_49" d="M67.4238 56.3991C65.2638 55.1991 61.3759 58.7111 60.3999 64.4431C59.6999 68.5471 68.4639 70.5311 73.9999 70.4671C73.6319 69.4991 71.3319 66.5871 72.7998 63.7831C73.8679 61.7471 75.0839 62.2191 75.1639 59.8511C75.2639 56.8671 71.3118 54.8671 67.4238 56.3991Z" fill="#263238"/>
<path id="Vector_50" d="M72.3399 57.6866C74.8519 57.4426 77.3758 59.9106 75.5038 62.3706C75.0466 62.004 74.5144 61.7422 73.9448 61.604C73.3753 61.4658 72.7823 61.4544 72.2078 61.5706C71.0598 61.8266 72.3399 57.6866 72.3399 57.6866Z" fill="#263238"/>
<path id="Vector_51" d="M67.8599 91.1552C67.8599 91.1552 62.7999 112.603 60.3999 124.927C57.8959 137.927 45.8919 151.471 45.8919 151.471L41.8279 149.199C41.8279 149.199 49.3799 136.839 51.8279 124.699C56.8039 100.059 53.4279 95.0992 58.2279 89.8672L67.8599 91.1552Z" fill="#263238"/>
<path id="Vector_52" d="M46.3078 151.852L41.2158 149.016L41.9598 147.512L47.6718 150.14L46.3078 151.852Z" fill="#315CEC"/>
<path id="Vector_53" opacity="0.2" d="M65.1599 95.8158C61.2159 99.2438 61.6439 111.416 62.0559 116.88C63.7119 109.088 65.6999 100.416 66.8559 95.3958C66.4519 95.0838 65.8879 95.1998 65.1599 95.8158Z" fill="black"/>
<path id="Vector_54" d="M71.1159 91.6278C71.1159 91.6278 73.3999 117.096 72.1519 126.808C70.8559 136.912 64.2639 158.892 64.2639 158.892L59.5999 158.292C59.5999 158.292 63.3839 136.508 64.0559 126.508C64.7879 115.6 61.5359 90.3438 61.5359 90.3438L71.1159 91.6278Z" fill="#263238"/>
<path id="Vector_55" d="M65.2519 159.16L58.6199 158.304L58.7199 156.344L65.9199 157.04L65.2519 159.16Z" fill="#315CEC"/>
<path id="Vector_56" d="M58.124 89.0751L57.412 90.1591C57.356 90.2431 57.456 90.3471 57.604 90.3671L71.312 92.2071C71.432 92.2071 71.536 92.1791 71.548 92.1071L71.792 90.9631C71.792 90.8831 71.712 90.7991 71.584 90.7831L58.348 89.0071C58.308 88.9987 58.2665 89.0006 58.2273 89.0125C58.1882 89.0244 58.1527 89.0459 58.124 89.0751Z" fill="#315CEC"/>
<path id="Vector_57" opacity="0.5" d="M58.124 89.0751L57.412 90.1591C57.356 90.2431 57.456 90.3471 57.604 90.3671L71.312 92.2071C71.432 92.2071 71.536 92.1791 71.548 92.1071L71.792 90.9631C71.792 90.8831 71.712 90.7991 71.584 90.7831L58.348 89.0071C58.308 88.9987 58.2665 89.0006 58.2273 89.0125C58.1882 89.0244 58.1527 89.0459 58.124 89.0751Z" fill="black"/>
<path id="Vector_58" d="M59.7479 90.7988L59.3919 90.7508C59.3199 90.7508 59.2719 90.6988 59.2799 90.6548L59.6079 89.1668C59.6079 89.1268 59.6839 89.0988 59.7519 89.1068L60.1079 89.1548C60.1799 89.1548 60.2279 89.2068 60.2199 89.2508L59.8919 90.7388C59.8839 90.7628 59.8159 90.7988 59.7479 90.7988Z" fill="#263238"/>
<path id="Vector_59" d="M68.7 91.9995L68.344 91.9515C68.276 91.9515 68.224 91.8995 68.232 91.8555L68.56 90.3675C68.56 90.3235 68.636 90.2955 68.708 90.3075L69.06 90.3515C69.132 90.3515 69.18 90.4075 69.172 90.4515L68.844 91.9355C68.836 91.9995 68.768 91.9995 68.7 91.9995Z" fill="#263238"/>
</g>
</g>
</svg>
