<svg width="154" height="34" viewBox="0 0 154 34" fill="none" xmlns="http://www.w3.org/2000/svg">
<path d="M17 8.55218C9.0399 8.55218 4.25 13.642 4.25 19.9205C4.25 26.1991 9.0399 29.3118 17 29.3118C24.9601 29.3118 29.75 26.1991 29.75 19.9205C29.75 13.642 24.9601 8.55218 17 8.55218ZM17 8.55218C17 7.60774 17.7083 4.95837 19.8333 4.95837M12.75 16.427V20.677M21.25 16.427V20.677" stroke="url(#paint0_linear_6837_122932)" stroke-width="3.5" stroke-linecap="round"/>
<path d="M53.579 26.1161H50.043L49.1271 21.7204H42.3151L40.501 26.1161H36.965L45.3698 7.49869H49.2178L53.579 26.1161ZM48.5967 18.8502L46.9102 10.6533L43.4747 18.8502H48.5967ZM59.2566 26.1161H55.9546L57.9114 7.49869H61.2134L59.2566 26.1161ZM87.6713 26.1161H84.1613L85.6126 12.3082L80.5685 21.4618H78.0725L74.8828 12.2306L73.4233 26.1161H70.1733L72.1301 7.49869H76.4721L79.8291 17.1177L85.2861 7.49869H89.6281L87.6713 26.1161ZM101.679 26.1161H98.8714L98.877 24.332C98.0333 25.7628 96.7639 26.4609 95.0688 26.4264C93.7862 26.4264 92.7783 26.0386 92.0451 25.2628C91.3275 24.5044 91.0312 23.5304 91.1562 22.3409C91.2957 21.0136 91.8241 19.9448 92.7412 19.1346C93.6967 18.2899 94.9024 17.8676 96.3584 17.8676H99.5304L99.6038 17.1694C99.6835 16.4109 99.5275 15.8335 99.1359 15.437C98.7442 15.0405 98.141 14.8422 97.3264 14.8422C96.217 14.8422 95.1979 15.2215 94.2688 15.98L93.0069 13.8855C94.5005 12.8684 96.0966 12.3599 97.7953 12.3599C101.349 12.3599 102.939 14.1355 102.565 17.6866L101.679 26.1161ZM99.2885 20.1689H96.4545C95.0505 20.1689 94.2806 20.8153 94.1447 22.1082C94.0251 23.246 94.6742 23.8321 96.0919 23.8665C97.9639 23.8665 99.0131 22.7891 99.2396 20.6343L99.2885 20.1689ZM114.389 12.6702L114.109 15.3335H112.757C111.821 15.3335 111.062 15.6266 110.48 16.2127C109.841 16.8505 109.46 17.7555 109.337 18.9277L108.581 26.1161H105.409L106.823 12.6702H109.813L109.799 15.0232C110.479 13.5063 111.653 12.7219 113.323 12.6702H114.389ZM127.171 26.1161H123.245L119.008 20.1689L118.383 26.1161H115.185L117.196 6.98154H120.42L119.221 18.3847L124.369 12.6961H128.191L122.052 19.1605L127.171 26.1161ZM140.828 20.143H132.274C131.999 22.5909 133.015 23.8148 135.32 23.8148C136.603 23.8148 137.72 23.4097 138.672 22.5995L139.741 24.7974C138.965 25.418 138.139 25.8576 137.262 26.1161C136.547 26.323 135.661 26.4264 134.604 26.4264C130.425 26.4437 128.618 24.0906 129.184 19.3673C129.417 17.1436 130.064 15.4456 131.123 14.2734C132.28 12.9977 133.881 12.3599 135.926 12.3599C137.815 12.3599 139.194 12.9288 140.063 14.0665C140.885 15.1525 141.193 16.6695 140.988 18.6174L140.828 20.143ZM132.508 17.9193H137.968C138.066 16.9884 137.909 16.2558 137.497 15.7214C137.085 15.187 136.437 14.9198 135.553 14.9198C134.669 14.9198 133.964 15.1956 133.438 15.7473C132.931 16.2816 132.621 17.0057 132.508 17.9193ZM150.18 23.4011L149.894 26.1161H148.022C145.353 26.1161 144.156 24.806 144.432 22.1858L145.154 15.3077H143.386L143.404 12.6702H145.432L145.856 8.63643H149.054L148.63 12.6702H151.308L151.03 15.3077H148.352L147.643 22.0565C147.592 22.5392 147.66 22.8839 147.846 23.0908C148.033 23.2977 148.377 23.4011 148.88 23.4011H150.18Z" fill="url(#paint1_linear_6837_122932)"/>
<defs>
<linearGradient id="paint0_linear_6837_122932" x1="22.3205" y1="22.4031" x2="13.2919" y2="4.48264" gradientUnits="userSpaceOnUse">
<stop stop-color="#00D8FF"/>
<stop offset="1" stop-color="#0046FF"/>
</linearGradient>
<linearGradient id="paint1_linear_6837_122932" x1="39.554" y1="0" x2="146.041" y2="43.5035" gradientUnits="userSpaceOnUse">
<stop stop-color="#33D6C0"/>
<stop offset="0.25" stop-color="#5083FB"/>
<stop offset="0.5" stop-color="#336DF4"/>
<stop offset="0.75" stop-color="#4752E6"/>
<stop offset="1" stop-color="#8D55ED"/>
</linearGradient>
</defs>
</svg>
