<svg width="100" height="100" viewBox="0 0 100 100" fill="none" xmlns="http://www.w3.org/2000/svg">
<rect width="100" height="100" rx="30" fill="white"/>
<g clip-path="url(#clip0_1523_1057)">
<path fill-rule="evenodd" clip-rule="evenodd" d="M26.9314 31.4966C26.3485 32.6378 25.8076 34.2978 25.4444 36.4366C24.9538 39.3257 24.8483 42.7317 25.2113 46.1142C25.5754 49.5066 26.3953 52.734 27.6552 55.326C27.9377 55.9072 28.2365 56.4451 28.55 56.9393C28.551 56.6384 28.5534 56.3356 28.5559 56.0324C28.5567 55.9344 28.5575 55.8364 28.5583 55.7384C28.5615 55.3076 28.5644 54.9255 28.5644 54.5894C28.5644 53.1185 28.7233 50.6046 30.3367 48.4434C32.0872 46.0984 34.9745 44.8829 38.8748 44.8829H43.5939C41.5288 42.2878 38.218 38.654 34.6954 35.7832C32.8451 34.2752 31.0329 33.0576 29.3907 32.2943C28.4054 31.8364 27.59 31.5925 26.9314 31.4966ZM59.3251 44.8829H64.0442C67.9445 44.8829 70.8317 46.0984 72.5823 48.4434C74.1957 50.6046 74.3545 53.1185 74.3545 54.5894C74.3545 54.9255 74.3574 55.3076 74.3607 55.7384C74.3615 55.8364 74.3623 55.9344 74.3631 56.0324C74.3656 56.3356 74.368 56.6384 74.3689 56.9393C74.6825 56.4451 74.9812 55.9072 75.2638 55.326C76.5237 52.734 77.3436 49.5066 77.7077 46.1142C78.0707 42.7317 77.9652 39.3257 77.4746 36.4366C77.1114 34.2978 76.5705 32.6378 75.9876 31.4966C75.329 31.5925 74.5136 31.8364 73.5283 32.2943C71.8861 33.0576 70.0739 34.2752 68.2236 35.7832C64.701 38.654 61.3901 42.2878 59.3251 44.8829ZM69.4353 66.5576C69.0601 66.6984 68.6761 66.8209 68.2932 66.9276C66.7937 67.3456 65.0501 67.5931 63.3361 67.6551C61.6299 67.7169 59.8018 67.6003 58.1591 67.1986C56.634 66.8257 54.6817 66.0655 53.4692 64.3765C52.8904 63.5703 52.3563 63.2203 52.0384 63.0701C51.899 63.0043 51.7932 62.9729 51.7312 62.9588L51.4595 62.9961L51.1878 62.9588C51.1258 62.9729 51.02 63.0043 50.8806 63.0701C50.5627 63.2203 50.0285 63.5703 49.4498 64.3765C48.2373 66.0655 46.285 66.8257 44.7599 67.1986C43.1172 67.6003 41.2891 67.7169 39.5829 67.6551C37.8689 67.5931 36.1253 67.3456 34.6258 66.9276C34.2429 66.8209 33.8589 66.6984 33.4837 66.5576C33.1468 67.9415 32.8422 68.9858 32.5714 69.765L32.5708 69.7665C35.4459 73.0913 41.9777 78.0564 51.3746 77.8038L51.4595 77.8015L51.5444 77.8038C60.9412 78.0564 67.4731 73.0913 70.3482 69.7665L70.3476 69.765C70.0768 68.9858 69.7722 67.9415 69.4353 66.5576ZM27.383 64.8975C25.0156 63.1602 23.2513 60.7234 21.9718 58.091C20.312 54.6763 19.3471 50.6982 18.9276 46.7892C18.507 42.8702 18.6192 38.879 19.2138 35.3777C19.7923 31.9712 20.8924 28.6398 22.7491 26.3775L23.4832 25.4831L24.6209 25.2742C27.2072 24.7994 29.8054 25.5156 32.0533 26.5603C34.3433 27.6245 36.6093 29.188 38.6868 30.8812C42.033 33.6082 45.1404 36.8784 47.3955 39.5518C47.8028 39.4545 48.1874 39.3846 48.5265 39.3324C49.6448 39.1604 50.7232 39.1173 51.4595 39.1335C52.1958 39.1173 53.2742 39.1604 54.3925 39.3324C54.7315 39.3846 55.1162 39.4545 55.5235 39.5518C57.7786 36.8784 60.886 33.6082 64.2322 30.8812C66.3097 29.188 68.5757 27.6245 70.8657 26.5603C73.1136 25.5156 75.7118 24.7994 78.298 25.2742L79.4358 25.4831L80.1699 26.3775C82.0266 28.6398 83.1267 31.9712 83.7052 35.3777C84.2997 38.879 84.412 42.8702 83.9914 46.7892C83.5719 50.6982 82.607 54.6763 80.9472 58.091C79.6677 60.7234 77.9034 63.1602 75.536 64.8975C75.781 65.9173 75.9931 66.6797 76.1681 67.237L79.3992 67.7116L76.69 71.852C73.7984 76.271 64.9454 84.4536 51.4595 84.1263C37.9736 84.4536 29.1205 76.271 26.229 71.852L23.5198 67.7116L26.7508 67.237C26.9259 66.6797 27.1379 65.9173 27.383 64.8975ZM35.4002 52.2267C35.0591 52.6836 34.8843 53.4424 34.8843 54.5894C34.8843 54.9521 34.8812 55.3571 34.878 55.7782L34.8779 55.7866C34.8646 57.5269 34.8572 58.5788 34.9625 59.4038C35.034 59.9637 35.1405 60.2501 35.2557 60.4398C35.2709 60.448 35.2881 60.4572 35.3076 60.4671C35.5136 60.5721 35.8483 60.705 36.3219 60.837C37.2684 61.1008 38.5101 61.2896 39.8113 61.3367C41.1201 61.384 42.3369 61.2824 43.2594 61.0568C44.0955 60.8524 44.3456 60.6339 44.3513 60.6401C46.5267 57.6399 49.3729 56.5304 51.4595 56.6336C53.5461 56.5304 56.3922 57.64 58.5677 60.6402C58.5733 60.634 58.8235 60.8524 59.6596 61.0568C60.5821 61.2824 61.7989 61.384 63.1077 61.3367C64.4089 61.2896 65.6506 61.1008 66.5971 60.837C67.0707 60.705 67.4054 60.5721 67.6114 60.4671C67.6308 60.4572 67.6481 60.448 67.6633 60.4398C67.7785 60.2501 67.885 59.9637 67.9565 59.4038C68.0618 58.5788 68.0544 57.5269 68.0411 55.7866L68.041 55.7776C68.0378 55.3567 68.0347 54.9519 68.0347 54.5894C68.0347 53.4424 67.8599 52.6836 67.5188 52.2267C67.315 51.9537 66.627 51.2055 64.0442 51.2055H38.8748C36.292 51.2055 35.604 51.9537 35.4002 52.2267Z" fill="url(#paint0_linear_1523_1057)"/>
<path d="M13.4036 28.717C13.7296 29.2801 14.5906 29.0494 14.5914 28.3988L14.596 24.636C14.5962 24.4091 14.7173 24.1994 14.9137 24.0857L18.17 22.2004C18.7331 21.8744 18.5024 21.0134 17.8518 21.0126L14.089 21.008C13.8621 21.0077 13.6524 20.8867 13.5387 20.6903L11.6534 17.4339C11.3274 16.8709 10.4664 17.1016 10.4656 17.7522L10.461 21.515C10.4607 21.7419 10.3397 21.9515 10.1433 22.0653L6.88693 23.9506C6.32385 24.2766 6.55456 25.1376 7.2052 25.1384L10.968 25.143C11.1949 25.1432 11.4045 25.2643 11.5183 25.4607L13.4036 28.717Z" fill="url(#paint1_linear_1523_1057)"/>
<path d="M88.6057 70.4729C88.6062 70.9067 89.1802 71.0605 89.3975 70.6851L90.6544 68.5142C90.7302 68.3832 90.87 68.3025 91.0213 68.3024L93.5298 68.2993C93.9635 68.2988 94.1174 67.7248 93.742 67.5074L91.5711 66.2506C91.4401 66.1748 91.3594 66.035 91.3592 65.8837L91.3562 63.3752C91.3557 62.9414 90.7817 62.7876 90.5643 63.163L89.3074 65.3339C89.2316 65.4649 89.0919 65.5455 88.9406 65.5457L86.4321 65.5488C85.9983 65.5493 85.8445 66.1233 86.2199 66.3406L88.3908 67.5975C88.5217 67.6733 88.6024 67.8131 88.6026 67.9644L88.6057 70.4729Z" fill="url(#paint2_linear_1523_1057)"/>
</g>
<defs>
<linearGradient id="paint0_linear_1523_1057" x1="22.2303" y1="28.5496" x2="81.5014" y2="80.6852" gradientUnits="userSpaceOnUse">
<stop stop-color="#3F8FFF"/>
<stop offset="1" stop-color="#EF2FDF"/>
</linearGradient>
<linearGradient id="paint1_linear_1523_1057" x1="8.24514" y1="30.5234" x2="18.5777" y2="16.795" gradientUnits="userSpaceOnUse">
<stop stop-color="#3F8FFF"/>
<stop offset="1" stop-color="#EF2FDF"/>
</linearGradient>
<linearGradient id="paint2_linear_1523_1057" x1="85.0253" y1="69.7963" x2="95.5669" y2="65.3144" gradientUnits="userSpaceOnUse">
<stop stop-color="#3F8FFF"/>
<stop offset="1" stop-color="#EF2FDF"/>
</linearGradient>
<clipPath id="clip0_1523_1057">
<rect x="5" y="5" width="90" height="90" rx="4.74074" fill="white"/>
</clipPath>
</defs>
</svg>
