<svg width="36" height="36" viewBox="0 0 36 36" fill="none" xmlns="http://www.w3.org/2000/svg">
  <g clip-path="url(#clip0_1123_2629)">
    <rect width="36" height="36" rx="4" fill="url(#paint0_linear_1123_2629)" />
    <path
      d="M18.6479 10.2403C16.7434 12.2921 17.6626 15.1864 18.1234 16.2668C18.8168 16.1553 20.2082 15.7913 20.2267 15.2282C20.2498 14.5243 22.8497 13.6107 24.0617 12.8198C25.5892 11.823 24.8084 10.0156 24.2022 9.26594C23.2458 8.08333 21.0284 7.67562 18.6479 10.2403Z"
      fill="url(#paint1_linear_1123_2629)" />
    <path
      d="M37.1901 32.1718C37.1901 41.8213 29.8287 46.6051 17.595 46.6051C5.36143 46.6051 -2 41.8213 -2 32.1718C-2 22.5222 5.36143 14.6998 17.595 14.6998C29.8287 14.6998 37.1901 22.5222 37.1901 32.1718Z"
      fill="url(#paint2_linear_1123_2629)" />
    <path
      d="M31.5868 31.7161C31.5868 38.4708 32.2663 41.8195 17.5952 41.8195C2.92415 41.8195 3.60364 38.4708 3.60364 31.7161C3.60364 24.9615 4.62009 19.4857 17.5952 19.4857C30.5703 19.4857 31.5868 24.9615 31.5868 31.7161Z"
      fill="url(#paint3_linear_1123_2629)" />
    <path
      d="M9.19714 26.6644C9.19714 25.7834 9.91331 25.0692 10.7967 25.0692C11.6802 25.0692 12.3963 25.7834 12.3963 26.6644V32.2479C12.3963 33.1289 11.6802 33.8431 10.7967 33.8431C9.91331 33.8431 9.19714 33.1289 9.19714 32.2479V26.6644Z"
      fill="url(#paint4_linear_1123_2629)" />
    <path
      d="M23.5935 26.6644C23.5935 25.7834 24.3097 25.0692 25.1931 25.0692C26.0765 25.0692 26.7927 25.7834 26.7927 26.6644V32.2479C26.7927 33.1289 26.0765 33.8431 25.1931 33.8431C24.3097 33.8431 23.5935 33.1289 23.5935 32.2479V26.6644Z"
      fill="url(#paint5_linear_1123_2629)" />
  </g>
  <defs>
    <linearGradient id="paint0_linear_1123_2629" x1="1.14253e-06" y1="0.999999" x2="49.1932" y2="44.8741"
      gradientUnits="userSpaceOnUse">
      <stop stop-color="#E0E0E0" />
      <stop offset="1" stop-color="#F8F8F8" />
    </linearGradient>
    <linearGradient id="paint1_linear_1123_2629" x1="16.1088" y1="15.3971" x2="24.5228" y2="15.1288"
      gradientUnits="userSpaceOnUse">
      <stop stop-color="#315CEC" />
      <stop offset="0.500163" stop-color="#7697F6" />
      <stop offset="1" stop-color="#BBD2FF" />
    </linearGradient>
    <linearGradient id="paint2_linear_1123_2629" x1="-5.99899" y1="25.8666" x2="32.74" y2="47.8916"
      gradientUnits="userSpaceOnUse">
      <stop stop-color="#315CEC" />
      <stop offset="0.500163" stop-color="#7697F6" />
      <stop offset="1" stop-color="#BBD2FF" />
    </linearGradient>
    <linearGradient id="paint3_linear_1123_2629" x1="7.99764" y1="5.52711" x2="25.9127" y2="44.648"
      gradientUnits="userSpaceOnUse">
      <stop offset="0.136367" stop-color="#BBD2FF" />
      <stop offset="0.538559" stop-color="white" />
      <stop offset="1" stop-color="#DDE7FF" />
    </linearGradient>
    <linearGradient id="paint4_linear_1123_2629" x1="10.7967" y1="25.0692" x2="10.7967" y2="33.8431"
      gradientUnits="userSpaceOnUse">
      <stop stop-color="#315CEC" />
      <stop offset="1" stop-color="#CBDCFF" />
    </linearGradient>
    <linearGradient id="paint5_linear_1123_2629" x1="25.1931" y1="25.0692" x2="25.1931" y2="33.8431"
      gradientUnits="userSpaceOnUse">
      <stop stop-color="#315CEC" />
      <stop offset="1" stop-color="#CBDCFF" />
    </linearGradient>
    <clipPath id="clip0_1123_2629">
      <rect width="36" height="36" rx="4" fill="white" />
    </clipPath>
  </defs>
</svg>