<svg width="60" height="60" viewBox="0 0 60 60" fill="none" xmlns="http://www.w3.org/2000/svg">
<g clip-path="url(#clip0_8252_142839)">
<path fill-rule="evenodd" clip-rule="evenodd" d="M30 0H0V30V60H30H60V30V0H30ZM30 0C53.438 0 60 6.5625 60 30C60 53.4375 53.438 60 30 60C6.56201 60 0 53.4375 0 30C0 6.5625 6.56201 0 30 0Z" fill="white"/>
<path d="M59.5 30C59.5 41.7107 57.8508 49.0206 53.4357 53.4357C49.0206 57.8508 41.7107 59.5 30 59.5C18.2893 59.5 10.9794 57.8508 6.56432 53.4357C2.14924 49.0206 0.5 41.7107 0.5 30C0.5 18.2893 2.14924 10.9794 6.56432 6.56432C10.9794 2.14924 18.2893 0.5 30 0.5C41.7107 0.5 49.0206 2.14924 53.4357 6.56432C57.8508 10.9794 59.5 18.2893 59.5 30Z" stroke="#1C1D23" stroke-opacity="0.08"/>
</g>
<defs>
<clipPath id="clip0_8252_142839">
<rect width="60" height="60" fill="white"/>
</clipPath>
</defs>
</svg>
