<svg width="61" height="60" viewBox="0 0 61 60" fill="none" xmlns="http://www.w3.org/2000/svg">
<g clip-path="url(#clip0_8063_300960)">
<rect x="0.333374" width="60" height="60" rx="30" fill="#FFF8EB"/>
<path d="M28.3524 14.3038C26.081 17.7341 28.0989 21.7199 29.0226 23.18C30.0004 22.8538 31.9294 21.9961 31.8225 21.1739C31.689 20.1462 35.2378 18.2042 36.8055 16.7688C38.7813 14.9598 37.2217 12.5197 36.1657 11.5745C34.4999 10.0833 31.1918 10.0159 28.3524 14.3038Z" fill="#FF7D00"/>
<path d="M60.4114 41.7669C62.7009 55.7805 53.1741 64.4698 35.4557 67.3645C17.7374 70.2591 5.94054 65.0535 3.65112 51.0399C1.36169 37.0263 10.1675 23.9242 27.8859 21.0295C45.6042 18.1348 58.122 27.7533 60.4114 41.7669Z" fill="#FF7D00"/>
<path d="M52.1867 42.4323C53.7893 52.2418 55.5679 56.9442 34.3193 60.4156C13.0707 63.8871 13.2603 58.8631 11.6577 49.0536C10.0551 39.244 10.2281 31.0513 29.0204 27.9812C47.8128 24.911 50.5841 32.6227 52.1867 42.4323Z" fill="white"/>
<path d="M18.5611 40.3929C18.3521 39.1134 19.2199 37.9067 20.4994 37.6977C21.7789 37.4886 22.9856 38.3564 23.1946 39.6359L24.5193 47.7446C24.7284 49.0241 23.8606 50.2308 22.5811 50.4398C21.3016 50.6488 20.0949 49.781 19.8858 48.5015L18.5611 40.3929Z" fill="#41434C"/>
<path d="M39.4121 36.9867C39.203 35.7072 40.0708 34.5005 41.3503 34.2914C42.6298 34.0824 43.8365 34.9502 44.0456 36.2297L45.3703 44.3383C45.5793 45.6178 44.7115 46.8245 43.432 47.0335C42.1525 47.2426 40.9458 46.3748 40.7368 45.0953L39.4121 36.9867Z" fill="#41434C"/>
</g>
<defs>
<clipPath id="clip0_8063_300960">
<rect x="0.333374" width="60" height="60" rx="30" fill="white"/>
</clipPath>
</defs>
</svg>
