<svg
    xmlns="http://www.w3.org/2000/svg"
    width="14"
    height="14"
    viewBox="0 0 14 14"
    fill="none"
>
    <g clipPath="url(#clip0_11641_160855)">
        <path
            fillRule="evenodd"
            clipRule="evenodd"
            d="M8.39525 1.08216C8.38778 1.05836 8.37285 1.03754 8.35262 1.02276C8.33234 1.00798 8.30786 1 8.28274 1C8.25756 1 8.23308 1.00798 8.21285 1.02276C8.19258 1.03754 8.17764 1.05836 8.17017 1.08216L6.6985 6.64162L6.33067 5.22247C6.3232 5.19864 6.30827 5.17786 6.28799 5.16305C6.26776 5.14825 6.24328 5.1403 6.21811 5.1403C6.19298 5.1403 6.1685 5.14825 6.14823 5.16305C6.128 5.17786 6.11306 5.19864 6.10559 5.22247L5.55907 7.33228L4.68667 3.92316C4.67921 3.89935 4.66426 3.87853 4.64402 3.86375C4.62376 3.84897 4.59928 3.84099 4.57413 3.84099C4.54898 3.84099 4.52449 3.84897 4.50424 3.86375C4.48399 3.87853 4.46905 3.89935 4.46159 3.92316L2.9551 9.82538L2.47949 7.96971C2.47202 7.94588 2.45708 7.9251 2.43683 7.91029C2.41658 7.89549 2.39209 7.88754 2.36694 7.88754C2.3418 7.88754 2.3173 7.89549 2.29706 7.91029C2.27681 7.9251 2.26186 7.94588 2.2544 7.96971L1.0029 12.8572C0.998946 12.8745 0.999038 12.8925 1.00316 12.9098C1.00729 12.9271 1.01534 12.9432 1.0267 12.957C1.03807 12.9707 1.05244 12.9817 1.06874 12.9891C1.08503 12.9965 1.10282 13.0002 1.12074 12.9997H3.61433C3.61751 12.9998 3.62068 12.9998 3.62385 12.9996H4.23304C4.23733 12.9999 4.24166 13.0001 4.24599 12.9999H8.19142C8.1959 13.0001 8.20036 12.9999 8.2048 12.9995H9.63579C9.64022 12.9999 9.64467 13.0001 9.64914 13H12.8793C12.8972 13.0004 12.915 12.9968 12.9312 12.9894C12.9476 12.982 12.9619 12.971 12.9733 12.9573C12.9846 12.9435 12.9927 12.9274 12.9968 12.9101C13.001 12.8928 13.0011 12.8748 12.9971 12.8575L11.3732 6.53781C11.3661 6.51354 11.3512 6.49227 11.3308 6.47707C11.3104 6.46192 11.2856 6.45373 11.26 6.45373C11.2346 6.45373 11.2097 6.46192 11.1894 6.47707C11.1689 6.49227 11.1541 6.51354 11.1469 6.53781L10.5065 9.04277L8.39525 1.08216Z"
            stroke="white"
        />
        <path
            d="M11.1469 6.53793L9.53122 12.8576C9.52726 12.8749 9.52736 12.8929 9.53147 12.9102C9.53562 12.9275 9.54368 12.9436 9.55501 12.9574C9.56638 12.9711 9.58078 12.9821 9.59705 12.9895C9.61337 12.9969 9.63112 13.0005 9.64908 13.0001H12.8792C12.8971 13.0005 12.9149 12.9969 12.9312 12.9895C12.9475 12.9821 12.9619 12.9711 12.9732 12.9574C12.9846 12.9436 12.9926 12.9275 12.9967 12.9102C13.0009 12.8929 13.001 12.8749 12.997 12.8576L11.3731 6.53793C11.366 6.51367 11.3511 6.49239 11.3307 6.47719C11.3103 6.46204 11.2855 6.45386 11.26 6.45386C11.2345 6.45386 11.2097 6.46204 11.1893 6.47719C11.1689 6.49239 11.154 6.51367 11.1469 6.53793Z"
            stroke="white"
        />
        <path
            d="M2.2544 7.96961L1.0029 12.8571C0.998946 12.8744 0.999038 12.8924 1.00316 12.9097C1.00729 12.927 1.01534 12.9432 1.0267 12.9569C1.03807 12.9706 1.05244 12.9816 1.06874 12.989C1.08503 12.9964 1.10282 13.0001 1.12074 12.9996H3.61433C3.63225 13.0001 3.65004 12.9964 3.66633 12.989C3.68262 12.9816 3.697 12.9706 3.70836 12.9569C3.71973 12.9432 3.72778 12.927 3.73191 12.9097C3.73603 12.8924 3.73612 12.8744 3.73217 12.8571L2.47949 7.96961C2.47202 7.94579 2.45708 7.925 2.43683 7.9102C2.41658 7.89539 2.39209 7.88745 2.36694 7.88745C2.3418 7.88745 2.31731 7.89539 2.29706 7.9102C2.27681 7.925 2.26186 7.94579 2.2544 7.96961Z"
            stroke="white"
        />
        <path
            d="M6.10562 5.22255L4.12817 12.8563C4.12401 12.8737 4.12395 12.8919 4.12797 12.9093C4.132 12.9267 4.14002 12.9431 4.15141 12.9569C4.16279 12.9708 4.17725 12.9819 4.19365 12.9894C4.21005 12.9968 4.22797 13.0005 4.24601 13H8.19145C8.2095 13.0005 8.2274 12.9968 8.24382 12.9894C8.26019 12.9819 8.27468 12.9708 8.28606 12.9569C8.29743 12.9431 8.30544 12.9267 8.3095 12.9093C8.3135 12.8919 8.31346 12.8737 8.3093 12.8563L6.33069 5.22255C6.32322 5.19872 6.30829 5.17793 6.28801 5.16313C6.26778 5.14832 6.2433 5.14038 6.21813 5.14038C6.19301 5.14038 6.16852 5.14832 6.14825 5.16313C6.12802 5.17793 6.11308 5.19872 6.10562 5.22255Z"
            stroke="white"
        />
    </g>
    <defs>
        <clipPath id="clip0_11641_160855">
            <rect width="14" height="14" fill="white" />
        </clipPath>
    </defs>
				</svg>