<svg xmlns="http://www.w3.org/2000/svg" width="18" height="19" viewBox="0 0 18 19" fill="none">
  <g clip-path="url(#clip0_43_73598)">
    <path
      d="M17.9852 12.3354C17.9852 9.70262 15.4721 7.56945 12.373 7.56945C9.27212 7.56945 6.75908 9.70318 6.75908 12.3354C6.75908 14.9675 9.27212 17.1013 12.373 17.1013C13.3468 17.1013 14.2634 16.8889 15.063 16.5174L17.2754 17.475L17.0192 15.0069C17.63 14.2449 17.9857 13.3244 17.9857 12.3354H17.9852ZM10.4809 11.044C10.0392 11.044 9.68235 10.6866 9.68235 10.2455C9.68235 9.80433 10.0392 9.44693 10.4809 9.44693C10.922 9.44693 11.2788 9.8049 11.2788 10.2455C11.2788 10.686 10.9209 11.044 10.4809 11.044ZM14.2634 11.044C13.8234 11.044 13.4654 10.6866 13.4654 10.2455C13.4654 9.80433 13.8234 9.44693 14.2634 9.44693C14.7056 9.44693 15.063 9.8049 15.063 10.2455C15.063 10.686 14.7056 11.044 14.2634 11.044ZM12.373 6.93838C13.2401 6.93838 14.0661 7.09292 14.8186 7.37109C14.8242 7.2705 14.836 7.17384 14.836 7.07269C14.836 3.59421 11.5143 0.774902 7.41768 0.774902C3.32218 0.774902 0.000488281 3.59365 0.000488281 7.07269C0.000488281 8.38091 0.471403 9.59754 1.27724 10.6046L0.938947 13.865L3.86166 12.5989C4.58545 12.9361 5.38567 13.1637 6.23028 13.28C6.16678 12.9726 6.128 12.6579 6.128 12.3354C6.12857 9.35983 8.92989 6.93895 12.373 6.93895V6.93838ZM9.9178 3.2576C10.5005 3.2576 10.9715 3.72964 10.9715 4.31126C10.9715 4.894 10.5005 5.36604 9.9178 5.36604C9.33506 5.36604 8.86358 4.894 8.86358 4.31126C8.86358 3.72908 9.33562 3.2576 9.9178 3.2576ZM4.91756 5.36604C4.33482 5.36604 3.8639 4.894 3.8639 4.31126C3.8639 3.72908 4.33538 3.2576 4.91756 3.2576C5.5003 3.2576 5.97178 3.72964 5.97178 4.31126C5.97178 4.89288 5.49974 5.36604 4.91756 5.36604Z"
      fill="#51C332" />
  </g>
  <defs>
    <clipPath id="clip0_43_73598">
      <rect width="18" height="18" fill="white" transform="translate(0 0.125)" />
    </clipPath>
  </defs>
</svg>