<svg width="25" height="24" viewBox="0 0 25 24" fill="none" xmlns="http://www.w3.org/2000/svg">
<g id="Group">
<path id="Vector" fill-rule="evenodd" clip-rule="evenodd" d="M16.263 0L23.5 7.237V22C23.5 22.5304 23.2893 23.0391 22.9142 23.4142C22.5391 23.7893 22.0304 24 21.5 24H3.5C2.96957 24 2.46086 23.7893 2.08579 23.4142C1.71071 23.0391 1.5 22.5304 1.5 22V2C1.5 1.46957 1.71071 0.960859 2.08579 0.585786C2.46086 0.210714 2.96957 0 3.5 0L16.263 0Z" fill="#FF7800"/>
<path id="Vector_2" fill-rule="evenodd" clip-rule="evenodd" d="M18.263 7.237C17.7326 7.237 17.2239 7.02629 16.8488 6.65121C16.4737 6.27614 16.263 5.76743 16.263 5.237V0L23.5 7.237H18.263Z" fill="white" fill-opacity="0.401"/>
<path id="Vector_3" d="M13.66 12.21L11.34 18.47M8.59501 12.543L6.13501 15.07L8.59501 17.596M16.405 12.543L18.865 15.07L16.405 17.596" stroke="white" stroke-width="1.5" stroke-linecap="round" stroke-linejoin="round"/>
</g>
</svg>
