<svg width="24" height="24" viewBox="0 0 24 24" fill="none" xmlns="http://www.w3.org/2000/svg">
<path d="M21.2924 8.95125C21.251 9.12633 21.1487 9.38295 21.0054 9.69244H21.0084L20.992 9.7211C20.1554 11.5139 17.9711 15.03 17.9711 15.03C17.9711 15.03 17.9683 15.0217 17.9597 15.008L17.3214 16.1209H20.3976L14.5221 23.9462L15.8558 18.6229H13.4352L14.2763 15.1028C13.5958 15.2671 12.7915 15.4931 11.839 15.7998C11.839 15.7998 10.5503 16.5557 8.1269 14.3458C8.1269 14.3458 6.49246 12.9037 7.44008 12.5433C7.84311 12.39 9.39688 12.1957 10.6193 12.0301C12.2713 11.8065 13.2876 11.688 13.2876 11.688C13.2876 11.688 8.19423 11.7643 6.98594 11.574C5.77757 11.3837 4.24471 9.36443 3.9182 7.58918C3.9182 7.58918 3.41319 6.61465 5.00415 7.07604C6.59512 7.53743 13.1804 8.8721 13.1804 8.8721C13.1804 8.8721 4.61584 6.24232 4.04591 5.60074C3.4761 4.95917 2.3688 2.09864 2.51287 0.3409C2.51287 0.3409 2.57533 -0.097334 3.0239 0.0201113C3.0239 0.0201113 9.35551 2.91792 13.685 4.50424C18.0145 6.09056 21.7787 6.8974 21.2924 8.95125Z" fill="#3296FA"/>
</svg>
