<svg width="24" height="24" viewBox="0 0 24 24" fill="none" xmlns="http://www.w3.org/2000/svg">
<g clip-path="url(#clip0_171_243934)">
<path fill-rule="evenodd" clip-rule="evenodd" d="M15.763 0L23 7.237V22C23 22.5304 22.7893 23.0391 22.4142 23.4142C22.0391 23.7893 21.5304 24 21 24H3C2.46957 24 1.96086 23.7893 1.58579 23.4142C1.21071 23.0391 1 22.5304 1 22V2C1 1.46957 1.21071 0.960859 1.58579 0.585786C1.96086 0.210714 2.46957 0 3 0L15.763 0Z" fill="#9267E7"/>
<path fill-rule="evenodd" clip-rule="evenodd" d="M17.763 7.237C17.2326 7.237 16.7239 7.02629 16.3488 6.65121C15.9737 6.27614 15.763 5.76743 15.763 5.237V0L23 7.237H17.763Z" fill="white" fill-opacity="0.401"/>
<g opacity="0.802">
<path d="M12 10.338V20.012M9.84301 13.503L7.70801 20.012M14.157 13.503L16.292 20.012" stroke="white" stroke-width="1.5" stroke-linecap="round" stroke-linejoin="round"/>
</g>
<path d="M17.357 10.583H6.64301C6.09072 10.583 5.64301 11.0307 5.64301 11.583V17.447C5.64301 17.9993 6.09072 18.447 6.64301 18.447H17.357C17.9093 18.447 18.357 17.9993 18.357 17.447V11.583C18.357 11.0307 17.9093 10.583 17.357 10.583Z" fill="white"/>
</g>
<defs>
<clipPath id="clip0_171_243934">
<rect width="24" height="24" fill="white"/>
</clipPath>
</defs>
</svg>
