<svg width="24" height="24" viewBox="0 0 24 24" fill="none" xmlns="http://www.w3.org/2000/svg">
<g clip-path="url(#clip0_1764_872)">
<path fill-rule="evenodd" clip-rule="evenodd" d="M15.763 0L23 7.237V22C23 22.5304 22.7893 23.0391 22.4142 23.4142C22.0391 23.7893 21.5304 24 21 24H3C2.46957 24 1.96086 23.7893 1.58579 23.4142C1.21071 23.0391 1 22.5304 1 22V2C1 1.46957 1.21071 0.960859 1.58579 0.585786C1.96086 0.210714 2.46957 0 3 0L15.763 0Z" fill="#FF1164"/>
<path fill-rule="evenodd" clip-rule="evenodd" d="M17.763 7.237C17.2326 7.237 16.7239 7.02629 16.3488 6.65121C15.9737 6.27614 15.763 5.76743 15.763 5.237V0L23 7.237H17.763Z" fill="white" fill-opacity="0.401"/>
<path d="M7.35509 13.03V16.628C7.35509 17.769 6.83009 18.154 5.79409 18.154C5.56309 18.154 5.32509 18.154 5.03809 18L5.25509 17.223C5.42309 17.307 5.60509 17.321 5.73809 17.321C6.25609 17.321 6.45909 17.174 6.45909 16.614V13.03H7.35509ZM9.49868 14.346C9.88368 14.346 10.2827 14.416 10.6817 14.703L10.3387 15.347C10.0867 15.172 9.80668 15.06 9.48468 15.06C9.05068 15.06 8.89668 15.277 8.89668 15.459C8.89668 15.648 9.00168 15.809 9.27468 15.844L9.77868 15.914C10.4997 16.012 10.8287 16.383 10.8287 16.978C10.8287 17.783 10.2477 18.147 9.38668 18.147C8.91768 18.147 8.47668 18.07 8.04268 17.762L8.42068 17.104C8.77768 17.349 9.12068 17.405 9.40068 17.405C9.75068 17.405 9.97468 17.286 9.97468 17.013C9.97468 16.831 9.88368 16.67 9.58968 16.628L9.08568 16.544C8.42768 16.453 8.05668 16.117 8.05668 15.508C8.05668 14.745 8.68668 14.346 9.49868 14.346ZM14.5807 16.243C14.5807 17.363 14.2237 18.154 12.9987 18.154C11.7877 18.154 11.4237 17.363 11.4237 16.243C11.4237 15.165 11.7667 14.346 12.9987 14.346C14.2307 14.346 14.5807 15.151 14.5807 16.243ZM13.7057 16.243C13.7057 15.69 13.6217 15.095 12.9987 15.095C12.3827 15.095 12.2987 15.697 12.2987 16.243C12.2987 16.796 12.4177 17.398 12.9987 17.398C13.5867 17.398 13.7057 16.803 13.7057 16.243ZM18.5062 18.07H17.6452V15.802C17.6452 15.333 17.4072 15.095 16.9802 15.095C16.5742 15.095 16.3152 15.326 16.3152 15.795V18.07H15.4542V14.43H16.2592L16.3222 14.899C16.4972 14.521 16.8192 14.346 17.2462 14.346C18.0022 14.346 18.5062 14.794 18.5062 15.648V18.07Z" fill="white"/>
</g>
<defs>
<clipPath id="clip0_1764_872">
<rect width="24" height="24" fill="white"/>
</clipPath>
</defs>
</svg>
