<svg width="24" height="24" viewBox="0 0 24 24" fill="none" xmlns="http://www.w3.org/2000/svg">
<g clip-path="url(#clip0_1764_875)">
<path fill-rule="evenodd" clip-rule="evenodd" d="M15.763 0L23 7.237V22C23 22.5304 22.7893 23.0391 22.4142 23.4142C22.0391 23.7893 21.5304 24 21 24H3C2.46957 24 1.96086 23.7893 1.58579 23.4142C1.21071 23.0391 1 22.5304 1 22V2C1 1.46957 1.21071 0.960859 1.58579 0.585786C1.96086 0.210714 2.46957 0 3 0L15.763 0Z" fill="#FFA703"/>
<path fill-rule="evenodd" clip-rule="evenodd" d="M17.763 7.237C17.2326 7.237 16.7239 7.02629 16.3488 6.65121C15.9737 6.27614 15.763 5.76743 15.763 5.237V0L23 7.237H17.763Z" fill="white" fill-opacity="0.401"/>
<path d="M9.9523 11.9V17.04C9.9523 18.67 9.2023 19.22 7.7223 19.22C7.3923 19.22 7.0523 19.22 6.6423 19L6.9523 17.89C7.1923 18.01 7.4523 18.03 7.6423 18.03C8.3823 18.03 8.6723 17.82 8.6723 17.02V11.9H9.9523ZM11.0046 18.74L11.4546 17.62C11.9846 17.92 12.6046 18.03 13.1646 18.03C14.2146 18.03 14.6146 17.71 14.6146 17.06C14.6346 16.59 14.3246 16.28 13.6346 16.11L12.5546 15.84C11.5946 15.6 11.0946 14.95 11.0946 13.93C11.0946 12.65 12.0046 11.78 13.7146 11.78C14.3746 11.78 15.0846 11.87 15.6746 12.21L15.2746 13.36C14.7646 13.06 14.2846 12.97 13.7646 12.97C12.8046 12.97 12.4446 13.33 12.4446 13.83C12.4446 14.42 12.6746 14.63 13.3046 14.78L14.3846 15.05C15.3546 15.29 15.9746 16.02 15.9746 17.02C15.9846 18.28 15.1546 19.22 13.2246 19.22C12.3746 19.22 11.6146 19.1 11.0046 18.74Z" fill="white"/>
</g>
<defs>
<clipPath id="clip0_1764_875">
<rect width="24" height="24" fill="white"/>
</clipPath>
</defs>
</svg>
