<svg width="24" height="24" viewBox="0 0 24 24" fill="none" xmlns="http://www.w3.org/2000/svg">
<g clip-path="url(#clip0_1786_674)">
<path fill-rule="evenodd" clip-rule="evenodd" d="M15.763 0L23 7.237V22C23 22.5304 22.7893 23.0391 22.4142 23.4142C22.0391 23.7893 21.5304 24 21 24H3C2.46957 24 1.96086 23.7893 1.58579 23.4142C1.21071 23.0391 1 22.5304 1 22V2C1 1.46957 1.21071 0.960859 1.58579 0.585786C1.96086 0.210714 2.46957 0 3 0L15.763 0Z" fill="#777777"/>
<path fill-rule="evenodd" clip-rule="evenodd" d="M17.763 7.237C17.2326 7.237 16.7239 7.02629 16.3488 6.65121C15.9737 6.27614 15.763 5.76743 15.763 5.237V0L23 7.237H17.763Z" fill="white" fill-opacity="0.401"/>
<path d="M9.14445 13.78C9.69445 13.78 10.2645 13.88 10.8345 14.29L10.3445 15.21C9.98445 14.96 9.58445 14.8 9.12445 14.8C8.50445 14.8 8.28445 15.11 8.28445 15.37C8.28445 15.64 8.43445 15.87 8.82445 15.92L9.54445 16.02C10.5745 16.16 11.0445 16.69 11.0445 17.54C11.0445 18.69 10.2145 19.21 8.98445 19.21C8.31445 19.21 7.68445 19.1 7.06445 18.66L7.60445 17.72C8.11445 18.07 8.60445 18.15 9.00445 18.15C9.50445 18.15 9.82445 17.98 9.82445 17.59C9.82445 17.33 9.69445 17.1 9.27445 17.04L8.55445 16.92C7.61445 16.79 7.08445 16.31 7.08445 15.44C7.08445 14.35 7.98445 13.78 9.14445 13.78ZM16.5045 19.1H15.2745V15.86C15.2745 15.15 14.9345 14.84 14.3245 14.84C13.7445 14.84 13.3745 15.18 13.3745 15.87V19.1H12.1445V11.7H13.3945L13.3845 14.57C13.7245 14 14.1745 13.78 14.8045 13.78C15.8845 13.78 16.5045 14.4 16.5045 15.62V19.1Z" fill="white"/>
</g>
<defs>
<clipPath id="clip0_1786_674">
<rect width="24" height="24" fill="white"/>
</clipPath>
</defs>
</svg>
