<svg width="24" height="24" viewBox="0 0 24 24" fill="none" xmlns="http://www.w3.org/2000/svg">
<g clip-path="url(#clip0_1764_874)">
<path fill-rule="evenodd" clip-rule="evenodd" d="M15.763 0L23 7.237V22C23 22.5304 22.7893 23.0391 22.4142 23.4142C22.0391 23.7893 21.5304 24 21 24H3C2.46957 24 1.96086 23.7893 1.58579 23.4142C1.21071 23.0391 1 22.5304 1 22V2C1 1.46957 1.21071 0.960859 1.58579 0.585786C1.96086 0.210714 2.46957 0 3 0L15.763 0Z" fill="#4F5B93"/>
<path fill-rule="evenodd" clip-rule="evenodd" d="M17.763 7.237C17.2326 7.237 16.7239 7.02629 16.3488 6.65121C15.9737 6.27614 15.763 5.76743 15.763 5.237V0L23 7.237H17.763Z" fill="white" fill-opacity="0.401"/>
<path d="M6.73413 16H5.77413V18.08H4.75813V12.32H6.78213C8.14213 12.32 8.82213 13.008 8.82213 14.144C8.82213 15.384 8.10213 16 6.73413 16ZM6.74213 13.24H5.77413V15.088H6.74213C7.46213 15.088 7.75813 14.808 7.75813 14.16C7.75813 13.528 7.43813 13.24 6.74213 13.24ZM14.2545 18.08H13.2305V15.664H10.7585V18.08H9.7425V12.32H10.7585V14.672H13.2305V12.32H14.2545V18.08ZM17.5935 16H16.6335V18.08H15.6175V12.32H17.6415C19.0015 12.32 19.6815 13.008 19.6815 14.144C19.6815 15.384 18.9615 16 17.5935 16ZM17.6015 13.24H16.6335V15.088H17.6015C18.3215 15.088 18.6175 14.808 18.6175 14.16C18.6175 13.528 18.2975 13.24 17.6015 13.24Z" fill="white"/>
</g>
<defs>
<clipPath id="clip0_1764_874">
<rect width="24" height="24" fill="white"/>
</clipPath>
</defs>
</svg>
