<svg width="24" height="24" viewBox="0 0 24 24" fill="none" xmlns="http://www.w3.org/2000/svg">
<g clip-path="url(#clip0_1764_873)">
<path fill-rule="evenodd" clip-rule="evenodd" d="M15.763 0L23 7.237V22C23 22.5304 22.7893 23.0391 22.4142 23.4142C22.0391 23.7893 21.5304 24 21 24H3C2.46957 24 1.96086 23.7893 1.58579 23.4142C1.21071 23.0391 1 22.5304 1 22V2C1 1.46957 1.21071 0.960859 1.58579 0.585786C1.96086 0.210714 2.46957 0 3 0L15.763 0Z" fill="#7711D0"/>
<path fill-rule="evenodd" clip-rule="evenodd" d="M17.763 7.237C17.2326 7.237 16.7239 7.02629 16.3488 6.65121C15.9737 6.27614 15.763 5.76743 15.763 5.237V0L23 7.237H17.763Z" fill="white" fill-opacity="0.401"/>
<path d="M8.88928 16.664L9.50528 17.432C9.08928 17.944 8.49728 18.176 7.75328 18.176C6.60128 18.176 5.73728 17.48 5.64128 16.416C5.57728 15.728 5.58528 14.864 5.61728 14.208C5.67328 12.936 6.50528 12.224 7.75328 12.224C8.47328 12.224 8.97728 12.432 9.43328 12.896L8.82528 13.696C8.56928 13.312 8.19328 13.176 7.75328 13.176C7.12128 13.2 6.72928 13.48 6.68128 14.304C6.65728 14.76 6.64128 15.672 6.70528 16.264C6.78528 17.016 7.20928 17.216 7.75328 17.216C8.20928 17.2 8.54528 17.096 8.88928 16.664ZM10.0177 17.792L10.3777 16.896C10.8017 17.136 11.2977 17.224 11.7457 17.224C12.5857 17.224 12.9057 16.968 12.9057 16.448C12.9217 16.072 12.6737 15.824 12.1217 15.688L11.2577 15.472C10.4897 15.28 10.0897 14.76 10.0897 13.944C10.0897 12.92 10.8177 12.224 12.1857 12.224C12.7137 12.224 13.2817 12.296 13.7537 12.568L13.4337 13.488C13.0257 13.248 12.6417 13.176 12.2257 13.176C11.4577 13.176 11.1697 13.464 11.1697 13.864C11.1697 14.336 11.3537 14.504 11.8577 14.624L12.7217 14.84C13.4977 15.032 13.9937 15.616 13.9937 16.416C14.0017 17.424 13.3377 18.176 11.7937 18.176C11.1137 18.176 10.5057 18.08 10.0177 17.792ZM14.5802 17.792L14.9402 16.896C15.3642 17.136 15.8602 17.224 16.3082 17.224C17.1482 17.224 17.4682 16.968 17.4682 16.448C17.4842 16.072 17.2362 15.824 16.6842 15.688L15.8202 15.472C15.0522 15.28 14.6522 14.76 14.6522 13.944C14.6522 12.92 15.3802 12.224 16.7482 12.224C17.2762 12.224 17.8442 12.296 18.3162 12.568L17.9962 13.488C17.5882 13.248 17.2042 13.176 16.7882 13.176C16.0202 13.176 15.7322 13.464 15.7322 13.864C15.7322 14.336 15.9162 14.504 16.4202 14.624L17.2842 14.84C18.0602 15.032 18.5562 15.616 18.5562 16.416C18.5642 17.424 17.9002 18.176 16.3562 18.176C15.6762 18.176 15.0682 18.08 14.5802 17.792Z" fill="white"/>
</g>
<defs>
<clipPath id="clip0_1764_873">
<rect width="24" height="24" fill="white"/>
</clipPath>
</defs>
</svg>
