<svg width="25" height="24" viewBox="0 0 25 24" fill="none" xmlns="http://www.w3.org/2000/svg">
<g id="Group">
<path id="Vector" fill-rule="evenodd" clip-rule="evenodd" d="M16.263 0L23.5 7.237V22C23.5 22.5304 23.2893 23.0391 22.9142 23.4142C22.5391 23.7893 22.0304 24 21.5 24H3.5C2.96957 24 2.46086 23.7893 2.08579 23.4142C1.71071 23.0391 1.5 22.5304 1.5 22V2C1.5 1.46957 1.71071 0.960859 2.08579 0.585786C2.46086 0.210714 2.96957 0 3.5 0L16.263 0Z" fill="#00C084"/>
<path id="Vector_2" fill-rule="evenodd" clip-rule="evenodd" d="M18.263 7.237C17.7326 7.237 17.2239 7.02629 16.8488 6.65121C16.4737 6.27614 16.263 5.76743 16.263 5.237V0L23.5 7.237H18.263Z" fill="white" fill-opacity="0.401"/>
<path id="Vector_3" opacity="0.602" d="M17.437 9.603H7.56299C7.0107 9.603 6.56299 10.0507 6.56299 10.603V17.508C6.56299 18.0603 7.0107 18.508 7.56299 18.508H17.437C17.9893 18.508 18.437 18.0603 18.437 17.508V10.603C18.437 10.0507 17.9893 9.603 17.437 9.603Z" fill="white"/>
<path id="Vector_4" opacity="0.703" fill-rule="evenodd" clip-rule="evenodd" d="M7.56299 9.603H17.437C17.7022 9.603 17.9566 9.70836 18.1441 9.89589C18.3316 10.0834 18.437 10.3378 18.437 10.603V11.582H6.56299V10.602C6.56299 10.3368 6.66834 10.0824 6.85588 9.89489C7.04342 9.70736 7.29777 9.603 7.56299 9.603Z" fill="white"/>
<path id="Vector_5" fill-rule="evenodd" clip-rule="evenodd" d="M6.56299 17.508V10.603C6.56299 10.3378 6.66834 10.0834 6.85588 9.89589C7.04342 9.70836 7.29777 9.603 7.56299 9.603H8.54299V18.508H7.56299C7.29777 18.508 7.04342 18.4026 6.85588 18.2151C6.66834 18.0276 6.56299 17.7732 6.56299 17.508Z" fill="white"/>
</g>
</svg>
