<svg width="25" height="24" viewBox="0 0 25 24" fill="none" xmlns="http://www.w3.org/2000/svg">
<g id="Group">
<path id="Vector" fill-rule="evenodd" clip-rule="evenodd" d="M16.263 0L23.5 7.237V22C23.5 22.5304 23.2893 23.0391 22.9142 23.4142C22.5391 23.7893 22.0304 24 21.5 24H3.5C2.96957 24 2.46086 23.7893 2.08579 23.4142C1.71071 23.0391 1.5 22.5304 1.5 22V2C1.5 1.46957 1.71071 0.960859 2.08579 0.585786C2.46086 0.210714 2.96957 0 3.5 0L16.263 0Z" fill="#6B7EEF"/>
<path id="Vector_2" fill-rule="evenodd" clip-rule="evenodd" d="M18.263 7.237C17.7326 7.237 17.2239 7.02629 16.8488 6.65121C16.4737 6.27614 16.263 5.76743 16.263 5.237V0L23.5 7.237H18.263Z" fill="white" fill-opacity="0.401"/>
<path id="Vector_3" d="M14.619 10.831H7.24799C6.6957 10.831 6.24799 11.2787 6.24799 11.831V18.142C6.24799 18.6943 6.6957 19.142 7.24799 19.142H14.619C15.1713 19.142 15.619 18.6943 15.619 18.142V11.831C15.619 11.2787 15.1713 10.831 14.619 10.831Z" fill="white"/>
<path id="Vector_4" opacity="0.702" fill-rule="evenodd" clip-rule="evenodd" d="M12.242 15.828L17.212 19.022C17.3631 19.1189 17.5375 19.1734 17.717 19.1797C17.8964 19.186 18.0742 19.1439 18.2317 19.0577C18.3893 18.9716 18.5207 18.8447 18.6122 18.6902C18.7038 18.5358 18.7521 18.3595 18.752 18.18V11.793C18.7519 11.6135 18.7035 11.4374 18.6119 11.2831C18.5202 11.1288 18.3888 11.002 18.2313 10.916C18.0738 10.83 17.8961 10.788 17.7167 10.7943C17.5374 10.8006 17.363 10.8551 17.212 10.952L12.242 14.145C12.101 14.2355 11.985 14.36 11.9047 14.507C11.8244 14.6541 11.7823 14.8189 11.7823 14.9865C11.7823 15.154 11.8244 15.3189 11.9047 15.4659C11.985 15.613 12.101 15.7375 12.242 15.828Z" fill="white"/>
</g>
</svg>
