<svg width="24" height="24" viewBox="0 0 24 24" fill="none" xmlns="http://www.w3.org/2000/svg">
<g clip-path="url(#clip0_1145_6878)">
<path d="M13.7305 18.5716C13.1548 18.7847 12.5605 18.9438 11.9554 19.047C10.2837 19.3327 8.62278 19.2744 6.98392 18.8309C6.85797 18.7971 6.76338 18.8338 6.65948 18.8863C5.75527 19.3406 4.84909 19.792 3.94733 20.2492C3.65818 20.3962 3.37932 20.41 3.11859 20.2154C2.84561 20.011 2.76965 19.7331 2.82209 19.3911C2.93922 18.626 3.02841 17.8571 3.13329 17.0901C3.15143 16.9563 3.05635 16.9014 2.98185 16.8308C2.18497 16.0727 1.46993 15.2469 0.946516 14.2736C-0.707533 11.1958 -0.161574 7.5814 2.33249 5.05107C3.80275 3.55875 5.58423 2.63395 7.62888 2.22424C10.2719 1.69396 12.8116 2.00468 15.2017 3.27842C17.0518 4.26399 18.4628 5.68524 19.3008 7.62943C19.7767 8.7331 19.9703 9.89069 19.8889 11.1345C19.6297 10.9287 19.3773 10.7552 19.0626 10.7219C18.7444 10.6788 18.4208 10.7395 18.1398 10.8949C18.1684 10.2283 18.0845 9.56158 17.8918 8.92277C17.4061 7.34321 16.425 6.13563 15.0743 5.21623C13.6609 4.25467 12.0848 3.77978 10.3851 3.70773C8.25227 3.61707 6.28946 4.13754 4.56386 5.41324C2.94657 6.61151 1.93061 8.19156 1.78065 10.2367C1.6645 11.8202 2.16978 13.2262 3.14211 14.4711C3.53287 14.9755 3.99153 15.4234 4.50505 15.8021C4.83684 16.0472 4.9427 16.3486 4.83292 16.7431C4.7055 17.1984 4.58788 17.6566 4.47074 18.1154C4.44918 18.1997 4.40654 18.2982 4.48741 18.3687C4.58003 18.4501 4.65453 18.3545 4.72608 18.3134C5.2691 17.9977 5.81408 17.6846 6.35023 17.3577C6.67663 17.1582 7.00499 17.1043 7.37942 17.2107C9.08432 17.6949 10.8913 17.6881 12.5925 17.1911C12.7577 17.142 12.8287 17.1273 12.8375 17.3503C12.8581 17.9257 13.1914 18.3055 13.7305 18.5716Z" fill="#0081EF"/>
<path d="M14.8023 18.1129C14.0838 18.1046 13.5075 17.5532 13.4384 16.8083C13.3796 16.1736 13.8795 15.5017 14.5377 15.3924C15.494 15.2422 16.3726 14.7764 17.0337 14.0692C17.1552 13.9423 17.2915 13.9222 17.4307 13.9947C17.5698 14.0672 17.6228 14.2069 17.5885 14.3696C17.5675 14.4403 17.5248 14.5025 17.4664 14.5475C16.7703 15.2104 16.313 16.0849 16.1657 17.0347C16.0628 17.6488 15.4429 18.1208 14.8023 18.1129Z" fill="#FECB00"/>
<path d="M24.0155 16.723C24.0155 17.4229 23.5313 18.0066 22.8696 18.1075C21.9306 18.2506 21.146 18.6829 20.4859 19.3548C20.3918 19.4528 20.2977 19.543 20.1526 19.5244C20.0909 19.52 20.0319 19.4974 19.983 19.4596C19.934 19.4217 19.8974 19.3703 19.8777 19.3117C19.8286 19.1695 19.8777 19.0549 19.9757 18.9559C20.2161 18.7227 20.4334 18.4668 20.6245 18.1918C20.9526 17.7026 21.1743 17.1499 21.2754 16.5696C21.3847 15.9374 21.8321 15.4787 22.4207 15.3821C23.0191 15.2841 23.5783 15.5733 23.8846 16.1369C23.9792 16.3173 24.0243 16.5195 24.0155 16.723Z" fill="#0082EF"/>
<path d="M17.3527 12.8327C17.3586 12.124 17.9408 11.4992 18.602 11.4536C19.3395 11.4046 19.9771 11.8814 20.0904 12.5808C20.2442 13.5306 20.675 14.3319 21.3646 14.9999C21.5503 15.1802 21.5729 15.3586 21.4293 15.5081C21.2857 15.6576 21.1088 15.6551 20.9206 15.462C20.2418 14.7759 19.4385 14.3373 18.4785 14.179C18.0658 14.1108 17.7521 13.8648 17.538 13.4997C17.4086 13.2831 17.3738 13.0434 17.3527 12.8327Z" fill="#2DBB00"/>
<path d="M20.0972 20.6388C20.0972 21.3392 19.5753 21.9523 18.921 22.0145C18.1271 22.091 17.4924 21.6362 17.3635 20.8594C17.2067 19.9135 16.772 19.1254 16.0893 18.4663C15.9633 18.3442 15.9099 18.2095 15.98 18.0502C16.0378 17.9188 16.1584 17.8679 16.3015 17.8703C16.3995 17.8703 16.4681 17.9311 16.5304 17.9963C17.2126 18.7108 18.0452 19.1298 19.0161 19.3073C19.6561 19.4244 20.0958 19.9978 20.0972 20.6388Z" fill="#F96500"/>
</g>
<defs>
<clipPath id="clip0_1145_6878">
<rect width="24" height="24" fill="white"/>
</clipPath>
</defs>
</svg>
