<svg width="20" height="20" viewBox="0 0 20 20" fill="none" xmlns="http://www.w3.org/2000/svg">
<rect width="20" height="20" rx="10" fill="url(#paint0_linear_22862_69186)"/>
<path fill-rule="evenodd" clip-rule="evenodd" d="M15.8354 12.443C16.4372 12.5381 16.7276 12.3829 17 11.8181V10.238C16.8198 9.76235 16.4743 9.53104 15.9135 9.55707C15.9135 9.49274 15.9138 9.43019 15.9141 9.36887C15.9147 9.22976 15.9153 9.09702 15.9125 8.96427C15.8995 8.26732 15.534 7.87679 14.8401 7.86578C14.5787 7.86177 14.4806 7.78066 14.5156 7.52932H13.6124V7.84175C13.4968 7.8471 13.3904 7.85245 13.287 7.85764C13.1969 7.86217 13.1091 7.86659 13.0196 7.87079V8.77101H13.6034V9.55307H12.7242V10.4743H13.6284V12.455H14.5246V10.4613C14.6532 10.4613 14.7784 10.4608 14.9013 10.4603C15.2006 10.4591 15.486 10.4579 15.7713 10.4643C15.9716 10.4683 16.0787 10.5965 16.0858 10.7928C16.0897 10.9069 16.089 11.0215 16.0884 11.1362C16.0878 11.2569 16.0871 11.3775 16.0918 11.4977C16.0978 11.6599 16.0277 11.712 15.8735 11.706C15.7132 11.7004 15.5524 11.7016 15.3904 11.7029C15.3207 11.7034 15.2507 11.704 15.1805 11.704C15.2376 12.1556 15.4489 12.3819 15.8354 12.443ZM14.5198 8.9521C14.5207 8.88221 14.5216 8.80805 14.5216 8.72795C14.5852 8.74281 14.6542 8.75278 14.7185 8.76207C14.8449 8.78032 14.9533 8.79598 14.9672 8.8411C15.0293 9.03737 15.0203 9.26267 14.9973 9.47196C14.9933 9.51101 14.793 9.54706 14.6839 9.54606C14.6298 9.54606 14.5337 9.46295 14.5286 9.41088C14.5159 9.26744 14.5177 9.12249 14.5198 8.9521ZM5.76556 8.65026C5.76589 8.27623 5.76621 7.90224 5.76675 7.52832C5.46635 7.52832 5.16494 7.52832 4.86353 7.52932V11.712H4.26171C4.27573 12.1446 4.472 12.3899 4.83449 12.45C5.38824 12.5421 5.75574 12.2287 5.75874 11.6419C5.76384 10.645 5.7647 9.64749 5.76556 8.65026ZM9.4199 7.88822C9.48195 7.76907 9.54443 7.64911 9.60496 7.52832H8.70174C8.6209 7.69399 8.53884 7.85918 8.45677 8.0244C8.27145 8.39744 8.08609 8.7706 7.91467 9.14952C7.75846 9.49499 7.88463 9.66422 8.26515 9.67724C8.35123 9.6806 8.43732 9.6799 8.53827 9.67907C8.58763 9.67867 8.64054 9.67824 8.69873 9.67824L8.55554 9.99567C8.51893 10.0762 8.48148 10.1565 8.44401 10.2368C8.35852 10.42 8.27294 10.6035 8.19705 10.7907C8.10793 11.009 8.19505 11.1823 8.42436 11.2083C8.67536 11.2361 8.9295 11.2349 9.1828 11.2338C9.24884 11.2334 9.31481 11.2331 9.38066 11.2333C9.41671 11.2333 9.46778 11.1933 9.4868 11.1582C9.56614 11.0107 9.64161 10.8612 9.72094 10.7041C9.75575 10.6352 9.79131 10.5647 9.82827 10.4923C9.80004 10.4899 9.77632 10.4876 9.7555 10.4856C9.71575 10.4818 9.68661 10.479 9.65703 10.4783C9.22645 10.4663 9.22545 10.4653 9.41971 10.0758C9.43223 10.0507 9.4445 10.0252 9.45676 9.99967C9.46903 9.97414 9.4813 9.9486 9.49381 9.92357C9.56312 9.78383 9.63243 9.64423 9.70294 9.50221C9.8209 9.26461 9.94224 9.02021 10.0726 8.75699C9.67806 8.78002 9.34761 8.79904 8.97911 8.82007C9.09333 8.51527 9.2551 8.20465 9.4199 7.88822ZM3.05607 10.6814C3.03725 10.7779 3.01842 10.8744 3.001 10.971C3.001 11.009 3.001 11.0471 3 11.0831L3.00009 11.0833C3.1743 11.3907 3.34851 11.698 3.53873 12.0324C4.05024 11.3144 4.0945 10.5184 4.13866 9.72417C4.15597 9.41292 4.17326 9.10194 4.21865 8.79604H3.26836C3.25828 8.92435 3.24951 9.05107 3.24081 9.17661C3.22101 9.46256 3.20163 9.74236 3.16823 10.0207C3.14179 10.2419 3.09892 10.4617 3.05607 10.6814ZM16.1308 8.73996C16.4753 8.79404 16.7967 8.78503 17 8.43155V8.15016C16.7687 7.86678 16.5644 7.78567 16.3411 7.88781C16.1018 7.99696 16.0277 8.29136 16.1308 8.73996ZM11.9913 11.5625C11.9199 11.5621 11.8476 11.5617 11.7739 11.5617C11.7739 10.6114 11.7739 9.69712 11.7729 8.75484H12.3436V7.88266H10.2538V8.76886H10.8296V11.5617C10.7599 11.5617 10.6919 11.5613 10.6252 11.5609C10.4559 11.5599 10.2945 11.5589 10.1336 11.5647C10.0545 11.5667 9.93237 11.5757 9.90433 11.6247C9.79407 11.8146 9.69605 12.0119 9.58971 12.226C9.55022 12.3055 9.50958 12.3873 9.46674 12.4719H12.0142C12.7312 12.4719 12.7312 12.4719 12.6868 11.7707L12.6861 11.7589C12.6771 11.6157 12.632 11.5556 12.4858 11.5596C12.3227 11.5646 12.1596 11.5636 11.9913 11.5625ZM7.29879 8.78789H6.40859C6.40158 10.4702 6.6369 11.6037 7.06948 11.9822C7.35888 11.4996 7.58218 11.0259 7.44199 10.4141C7.35959 10.0527 7.34327 9.67637 7.3268 9.29683C7.31945 9.12749 7.31208 8.9575 7.29879 8.78789ZM9.45372 11.5506H8.01176C7.99469 11.5843 7.97732 11.6185 7.95962 11.6533C7.84024 11.8884 7.70572 12.1533 7.54613 12.4699C7.66018 12.4699 7.77076 12.4701 7.87869 12.4702C8.22754 12.4707 8.54873 12.4712 8.86993 12.4659C8.924 12.4649 9.0001 12.4208 9.02614 12.3748C9.13301 12.1818 9.23279 11.9853 9.34634 11.7616C9.38068 11.694 9.41628 11.6239 9.45372 11.5506Z" fill="white"/>
<defs>
<linearGradient id="paint0_linear_22862_69186" x1="0" y1="10" x2="20" y2="10" gradientUnits="userSpaceOnUse">
<stop stop-color="#FF416C"/>
<stop offset="1" stop-color="#FF4B2B"/>
</linearGradient>
</defs>
</svg>
