<svg width="20" height="20" viewBox="0 0 20 20" fill="none" xmlns="http://www.w3.org/2000/svg">
<rect width="20" height="20" rx="10" fill="url(#paint0_linear_22819_37298)"/>
<path d="M14.0832 7.66683V12.3335C14.0832 12.4882 14.0217 12.6366 13.9123 12.746C13.8029 12.8554 13.6545 12.9168 13.4998 12.9168H6.49984C6.34513 12.9168 6.19675 12.8554 6.08736 12.746C5.97796 12.6366 5.9165 12.4882 5.9165 12.3335V7.66683C5.9165 7.51212 5.97796 7.36375 6.08736 7.25435C6.19675 7.14495 6.34513 7.0835 6.49984 7.0835H13.4998C13.6545 7.0835 13.8029 7.14495 13.9123 7.25435C14.0217 7.36375 14.0832 7.51212 14.0832 7.66683Z" stroke="white" stroke-linecap="round" stroke-linejoin="round"/>
<path d="M7.0835 15.8332V15.2498C7.0835 15.0951 7.14495 14.9468 7.25435 14.8374C7.36375 14.728 7.51212 14.6665 7.66683 14.6665H12.3335C12.4882 14.6665 12.6366 14.728 12.746 14.8374C12.8554 14.9468 12.9168 15.0951 12.9168 15.2498V15.8332" stroke="white" stroke-linecap="round" stroke-linejoin="round"/>
<path d="M12.9168 4.1665V4.74984C12.9168 4.90455 12.8554 5.05292 12.746 5.16232C12.6366 5.27171 12.4882 5.33317 12.3335 5.33317H7.66683C7.51212 5.33317 7.36375 5.27171 7.25435 5.16232C7.14495 5.05292 7.0835 4.90455 7.0835 4.74984V4.1665" stroke="white" stroke-linecap="round" stroke-linejoin="round"/>
<defs>
<linearGradient id="paint0_linear_22819_37298" x1="0" y1="10" x2="20" y2="10" gradientUnits="userSpaceOnUse">
<stop stop-color="#F2994A"/>
<stop offset="1" stop-color="#F2C94C"/>
</linearGradient>
</defs>
</svg>
