<svg width="24" height="24" viewBox="0 0 24 24" fill="none" xmlns="http://www.w3.org/2000/svg">
<path d="M20.8903 7.98857C21.0052 7.98857 21.1183 7.99543 21.2332 8.00743C22.1119 8.12351 22.9703 8.36061 23.784 8.712C24.0206 8.81829 24.0789 8.904 23.8766 9.11829C23.2937 9.74229 22.8103 10.4554 22.4469 11.2269C22.0526 12.0549 21.624 12.864 21.2212 13.6886C20.9231 14.305 20.5079 14.8575 19.9989 15.3154C18.7423 16.452 17.2766 16.932 15.6034 16.7006C13.6834 16.4349 11.8663 15.7869 10.1486 14.9314C10.0651 14.892 9.98335 14.8491 9.90344 14.8029C9.88492 14.7912 9.86978 14.775 9.8595 14.7557C9.84923 14.7364 9.84419 14.7147 9.84488 14.6929C9.84557 14.671 9.85198 14.6498 9.86345 14.6312C9.87493 14.6126 9.89108 14.5973 9.91029 14.5869L10.0303 14.5234C11.4189 13.7811 12.5812 12.7457 13.6989 11.6571C14.172 11.1994 14.6246 10.7194 15.1029 10.2669C16.1521 9.27314 17.4485 8.57877 18.8572 8.256C19.1657 8.18057 19.4794 8.12057 19.7897 8.05371H19.8034L20.4652 7.99371" fill="#133C9A"/>
<path d="M7.44514 21.4183C7.23429 21.4063 6.71486 21.3343 6.65143 21.3257C5.30925 21.1591 4.00275 20.7771 2.78229 20.1943C2.07429 19.8634 1.39371 19.4743 0.711429 19.0937C0.262286 18.8434 0.06 18.4543 0.0634286 17.9246C0.0771429 15.9703 0.0771429 14.016 0.0634286 12.0617C0.0565714 10.8051 0.0171429 9.54857 0 8.29029C0 8.17886 0.0171429 8.06743 0.0514286 7.96457C0.128571 7.73657 0.284571 7.72457 0.438857 7.872C0.617143 8.04343 0.759429 8.25257 0.936 8.42057C2.51314 9.97714 4.188 11.4017 6.06343 12.5743C7.11943 13.2514 8.21829 13.8566 9.35486 14.388C11.1771 15.216 13.0474 15.9463 15.0051 16.4091C16.7366 16.8189 18.4183 16.56 19.8206 15.4629C20.2491 15.096 20.46 14.8286 20.9674 14.1531C20.7413 14.7538 20.4474 15.3266 20.0914 15.8606C19.7657 16.3749 19.0286 17.0606 18.4697 17.5971C17.6194 18.42 16.5069 19.0869 15.4629 19.6491C14.3246 20.2629 13.1417 20.7531 11.8783 21.0206C11.2303 21.1834 10.2943 21.3686 9.972 21.3857C9.91543 21.3823 9.72171 21.4251 9.624 21.4183C8.79086 21.48 8.27657 21.504 7.44686 21.4183H7.44514Z" fill="#3370FF"/>
<path d="M3.86914 2.59029C3.92735 2.58614 3.98579 2.58614 4.044 2.59029C7.62171 2.59029 11.172 2.64857 14.7463 2.64857C14.7531 2.64857 14.76 2.64857 14.7634 2.65372C15.096 2.94343 15.4029 3.25714 15.684 3.59486C16.4914 4.39714 17.0931 5.78914 17.5046 6.636C17.7103 7.22229 18.0189 7.78114 18.1646 8.436V8.44629C17.7994 8.56457 17.4446 8.70857 17.1017 8.88C16.0663 9.40457 15.5966 9.78857 14.7394 10.632C14.2714 11.0897 13.872 11.5011 13.2514 12.0874C13.0264 12.3059 12.7937 12.5164 12.5537 12.7183C12.3891 12.4269 9.60685 6.98572 4.01657 2.70343" fill="#00D6B9"/>
</svg>
