<svg width="24" height="24" viewBox="0 0 24 24" fill="none" xmlns="http://www.w3.org/2000/svg">
<g clip-path="url(#clip0_171_244091)">
<path d="M10.771 13.4652L17.1031 22.6466C17.5563 23.3036 18.5834 23.1944 18.9404 22.4806C19.4303 21.501 20.1121 20.3218 20.8609 19.5716C21.3889 19.0425 22.1413 18.5355 22.8625 18.1139C23.6324 17.6638 23.5898 16.447 22.7573 16.1272L11.9452 11.9736C11.0334 11.6233 10.2165 12.6611 10.771 13.4652Z" fill="url(#paint0_linear_171_244091)"/>
<path d="M5.91911 1.67406C6.153 1.04199 7.04699 1.04199 7.28087 1.67406L7.98747 3.5836C8.061 3.78232 8.21768 3.939 8.4164 4.01253L10.3259 4.71912C10.958 4.95301 10.958 5.847 10.3259 6.08088L8.4164 6.78748C8.21768 6.86101 8.061 7.01769 7.98747 7.21641L7.28087 9.12595C7.04699 9.75802 6.153 9.75802 5.91911 9.12595L5.21252 7.21641C5.13899 7.01769 4.98231 6.86101 4.78359 6.78748L2.87405 6.08088C2.24198 5.847 2.24198 4.95301 2.87405 4.71912L4.78359 4.01253C4.98231 3.939 5.13899 3.78232 5.21252 3.5836L5.91911 1.67406Z" fill="url(#paint1_linear_171_244091)"/>
<path d="M18.1739 4.00202C18.3722 3.466 19.1304 3.466 19.3287 4.00202L19.8171 5.32178C19.8794 5.49031 20.0123 5.62317 20.1808 5.68553L21.5006 6.17389C22.0366 6.37223 22.0366 7.13036 21.5006 7.32871L20.1808 7.81706C20.0123 7.87942 19.8794 8.01229 19.8171 8.18081L19.3287 9.50058C19.1304 10.0366 18.3722 10.0366 18.1739 9.50058L17.6855 8.18081C17.6232 8.01229 17.4903 7.87942 17.3218 7.81706L16.002 7.32871C15.466 7.13036 15.466 6.37223 16.002 6.17389L17.3218 5.68553C17.4903 5.62317 17.6232 5.4903 17.6855 5.32178L18.1739 4.00202Z" fill="url(#paint2_linear_171_244091)"/>
<path d="M4.97388 14.802C5.17222 14.266 5.93035 14.266 6.1287 14.802L6.61705 16.1218C6.67941 16.2903 6.81228 16.4232 6.9808 16.4855L8.30057 16.9739C8.83658 17.1722 8.83658 17.9304 8.30057 18.1287L6.9808 18.6171C6.81228 18.6794 6.67941 18.8123 6.61705 18.9808L6.12869 20.3006C5.93035 20.8366 5.17222 20.8366 4.97388 20.3006L4.48552 18.9808C4.42316 18.8123 4.29029 18.6794 4.12177 18.6171L2.802 18.1287C2.26599 17.9304 2.26599 17.1722 2.80201 16.9739L4.12177 16.4855C4.29029 16.4232 4.42316 16.2903 4.48552 16.1218L4.97388 14.802Z" fill="url(#paint3_linear_171_244091)"/>
</g>
<defs>
<linearGradient id="paint0_linear_171_244091" x1="18.3764" y1="24.166" x2="16.4418" y2="9.81231" gradientUnits="userSpaceOnUse">
<stop stop-color="#FFF73F"/>
<stop offset="1" stop-color="#FF5F5F"/>
</linearGradient>
<linearGradient id="paint1_linear_171_244091" x1="8.92264" y1="7.80803" x2="4.68403" y2="-0.226679" gradientUnits="userSpaceOnUse">
<stop stop-color="#00D8FF"/>
<stop offset="1" stop-color="#0046FF"/>
</linearGradient>
<linearGradient id="paint2_linear_171_244091" x1="23.061" y1="6.7513" x2="14.4416" y2="6.7513" gradientUnits="userSpaceOnUse">
<stop stop-color="#FF3F43"/>
<stop offset="1" stop-color="#FF5FF2"/>
</linearGradient>
<linearGradient id="paint3_linear_171_244091" x1="9.86099" y1="17.5513" x2="1.24158" y2="17.5513" gradientUnits="userSpaceOnUse">
<stop stop-color="#FFF73F"/>
<stop offset="1" stop-color="#FF5F5F"/>
</linearGradient>
<clipPath id="clip0_171_244091">
<rect width="24" height="23.9999" fill="white"/>
</clipPath>
</defs>
</svg>
