<svg width="200" height="200" viewBox="0 0 200 200" fill="none" xmlns="http://www.w3.org/2000/svg">
  <g clip-path="url(#clip0_1289_67002)">
    <rect width="200" height="200" rx="52" fill="white" />
    <path fill-rule="evenodd" clip-rule="evenodd"
      d="M87.0428 139.806C88.1543 127.595 102.896 125.53 109.809 135.656C111.883 138.693 112.742 142.373 112.565 146.046C112.494 147.527 112.458 149.026 112.458 150.543C112.458 164.952 115.668 177.792 122.088 189.063C128.651 200.191 137.639 208.893 149.052 215.171C160.608 221.305 173.733 224.372 188.428 224.372C199.987 224.372 210.302 222.556 219.372 218.924C226.003 216.269 234.05 218.023 237.649 224.192C240.728 229.47 239.541 236.319 234.144 239.184C229.85 241.464 225.026 243.375 219.671 244.916C210.256 247.627 199.841 248.982 188.428 248.982C168.74 248.982 151.121 244.845 135.57 236.57C120.162 228.296 108.107 216.669 99.4046 201.689C90.8447 186.709 86.5647 169.66 86.5647 150.543C86.5647 146.887 86.7241 143.308 87.0428 139.806ZM170.297 77.7167C166.917 78.5557 163.345 78.5937 160.099 77.3343C148.852 72.9713 148.666 59.7379 159.938 55.4396C161.483 54.8504 162.694 54.402 163.399 54.1624C163.513 54.1238 163.628 54.0843 163.746 54.0439C166.735 53.0189 171.275 51.462 190.354 51.462C209.043 51.462 225.735 55.3853 240.429 63.2319C255.124 71.0785 266.608 82.3491 274.883 97.0436C283.3 111.596 287.509 128.787 287.509 148.617C287.509 165.88 284.014 179.504 277.023 189.491C270.032 199.477 259.261 204.471 244.709 204.471C237.148 204.471 230.514 203.115 224.807 200.405C219.101 197.551 214.821 193.129 211.968 187.137C204.977 198.55 194.776 204.257 181.366 204.257C173.091 204.257 165.53 202.188 158.682 198.051C151.977 193.913 146.555 187.85 142.418 179.861C138.424 171.729 136.426 162.17 136.426 151.185C136.426 140.2 138.424 130.713 142.418 122.723C146.555 114.591 152.048 108.457 158.896 104.32C165.744 100.04 173.234 97.8996 181.366 97.8996C193.207 97.8996 202.623 102.536 209.614 111.81C210.558 105.437 215.972 100.468 222.414 100.468C229.348 100.468 235.079 106.089 235.079 113.023V161.885C235.079 168.305 236.007 172.942 237.861 175.795C239.716 178.506 242.427 179.861 245.993 179.861C251.415 179.861 255.338 177.15 257.763 171.729C260.188 166.165 261.401 158.818 261.401 149.687C261.401 134.137 258.405 120.869 252.413 109.884C246.421 98.7556 238.004 90.3384 227.161 84.6317C216.462 78.9251 203.978 76.0718 189.712 76.0718C182.711 76.0718 176.922 76.0718 170.297 77.7167ZM186.288 175.795C192.137 175.795 197.059 173.869 201.054 170.017C205.191 166.022 207.26 159.745 207.26 151.185C207.26 142.625 205.191 136.419 201.054 132.567C197.059 128.573 192.137 126.575 186.288 126.575C180.153 126.575 175.231 128.715 171.522 132.995C167.813 137.275 165.958 143.339 165.958 151.185C165.958 159.032 167.813 165.095 171.522 169.375C175.231 173.655 180.153 175.795 186.288 175.795Z"
      fill="url(#paint0_linear_1289_67002)" />
    <path
      d="M73.7307 66.0414L112.697 122.541C115.485 126.585 121.806 125.913 124.003 121.52C127.018 115.492 131.213 108.235 135.821 103.618C139.071 100.363 143.7 97.2428 148.139 94.6481C152.876 91.8783 152.614 84.3907 147.492 82.4227L80.9566 56.8626C75.3456 54.707 70.3182 61.0933 73.7307 66.0414Z"
      fill="url(#paint1_linear_1289_67002)" />
    <path
      d="M32.228 68.8413C33.7053 64.849 39.3521 64.849 40.8294 68.8413L45.2925 80.9027C45.7569 82.1579 46.7466 83.1475 48.0018 83.612L60.0631 88.0751C64.0555 89.5524 64.0555 95.1991 60.0631 96.6764L48.0018 101.14C46.7466 101.604 45.7569 102.594 45.2925 103.849L40.8294 115.91C39.3521 119.903 33.7053 119.903 32.228 115.91L27.7649 103.849C27.3004 102.594 26.3108 101.604 25.0556 101.14L12.9943 96.6764C9.00191 95.1991 9.00191 89.5524 12.9943 88.0751L25.0556 83.612C26.3108 83.1475 27.3004 82.1579 27.7649 80.9027L32.228 68.8413Z"
      fill="url(#paint2_linear_1289_67002)" />
    <path
      d="M96.3324 12.9962C97.3172 10.3346 101.082 10.3346 102.067 12.9962L104.492 19.5495C104.801 20.3863 105.461 21.046 106.298 21.3557L112.851 23.7806C115.513 24.7655 115.513 28.53 112.851 29.5148L106.298 31.9398C105.461 32.2494 104.801 32.9092 104.492 33.746L102.067 40.2993C101.082 42.9608 97.3172 42.9608 96.3324 40.2992L93.9074 33.746C93.5978 32.9092 92.938 32.2494 92.1012 31.9398L85.5479 29.5148C82.8864 28.53 82.8864 24.7655 85.5479 23.7806L92.1012 21.3557C92.938 21.046 93.5978 20.3863 93.9074 19.5495L96.3324 12.9962Z"
      fill="url(#paint3_linear_1289_67002)" />
  </g>
  <defs>
    <linearGradient id="paint0_linear_1289_67002" x1="228.963" y1="192.949" x2="154.489" y2="49.3288"
      gradientUnits="userSpaceOnUse">
      <stop stop-color="#00D8FF" />
      <stop offset="1" stop-color="#0046FF" />
    </linearGradient>
    <linearGradient id="paint1_linear_1289_67002" x1="120.533" y1="131.891" x2="108.627" y2="43.5624"
      gradientUnits="userSpaceOnUse">
      <stop stop-color="#FFF73F" />
      <stop offset="1" stop-color="#FF5F5F" />
    </linearGradient>
    <linearGradient id="paint2_linear_1289_67002" x1="51.1994" y1="107.586" x2="24.4268" y2="56.8356"
      gradientUnits="userSpaceOnUse">
      <stop stop-color="#00D8FF" />
      <stop offset="1" stop-color="#0046FF" />
    </linearGradient>
    <linearGradient id="paint3_linear_1289_67002" x1="120.599" y1="26.6477" x2="77.7997" y2="26.6477"
      gradientUnits="userSpaceOnUse">
      <stop stop-color="#FFF73F" />
      <stop offset="1" stop-color="#FF5F5F" />
    </linearGradient>
    <clipPath id="clip0_1289_67002">
      <rect width="200" height="200" rx="52" fill="white" />
    </clipPath>
  </defs>
</svg>