<svg width="200" height="200" viewBox="0 0 200 200" fill="none" xmlns="http://www.w3.org/2000/svg">
<rect width="200" height="200" rx="52" fill="white"/>
<path fill-rule="evenodd" clip-rule="evenodd" d="M62.7599 105.733C63.4266 98.4086 72.2687 97.1697 76.4154 103.244C77.659 105.065 78.1745 107.272 78.0684 109.475C78.0257 110.364 78.0043 111.263 78.0043 112.173C78.0043 120.816 79.9296 128.517 83.7803 135.277C87.7166 141.952 93.1076 147.171 99.9533 150.937C106.885 154.616 114.757 156.456 123.571 156.456C130.504 156.456 136.691 155.367 142.131 153.188C146.108 151.596 150.935 152.647 153.094 156.348C154.941 159.513 154.228 163.621 150.992 165.34C148.416 166.707 145.523 167.853 142.311 168.778C136.663 170.404 130.417 171.217 123.571 171.217C111.762 171.217 101.194 168.735 91.8668 163.772C82.6251 158.809 75.3944 151.835 70.1745 142.85C65.0403 133.865 62.4731 123.639 62.4731 112.173C62.4731 109.98 62.5687 107.833 62.7599 105.733ZM112.696 68.4914C110.669 68.9946 108.526 69.0174 106.579 68.262C99.8333 65.6451 99.7218 57.7077 106.483 55.1295C107.409 54.7761 108.135 54.5071 108.559 54.3635C108.627 54.3403 108.696 54.3166 108.767 54.2924C110.559 53.6776 113.282 52.7438 124.726 52.7438C135.936 52.7438 145.948 55.097 154.762 59.8034C163.575 64.5098 170.464 71.2699 175.427 80.0837C180.476 88.812 183 99.1233 183 111.018C183 121.372 180.903 129.544 176.71 135.534C172.517 141.524 166.057 144.519 157.329 144.519C152.793 144.519 148.814 143.706 145.391 142.08C141.969 140.369 139.401 137.716 137.69 134.122C133.497 140.968 127.379 144.39 119.335 144.39C114.372 144.39 109.837 143.15 105.729 140.668C101.707 138.186 98.4558 134.55 95.9742 129.758C93.5782 124.88 92.3802 119.147 92.3802 112.558C92.3802 105.969 93.5782 100.278 95.9742 95.4865C98.4558 90.609 101.75 86.9294 105.858 84.4479C109.965 81.8807 114.458 80.5971 119.335 80.5971C126.437 80.5971 132.085 83.3782 136.278 88.9403C136.844 85.118 140.092 82.1374 143.956 82.1374C148.115 82.1374 151.553 85.509 151.553 89.6681V118.976C151.553 122.826 152.109 125.608 153.221 127.319C154.334 128.945 155.96 129.758 158.099 129.758C161.35 129.758 163.704 128.132 165.158 124.88C166.613 121.543 167.34 117.136 167.34 111.659C167.34 102.332 165.543 94.3741 161.949 87.7851C158.356 81.1106 153.307 76.0619 146.803 72.639C140.386 69.2162 132.898 67.5048 124.341 67.5048C120.142 67.5048 116.669 67.5048 112.696 68.4914ZM122.287 127.319C125.796 127.319 128.748 126.164 131.144 123.853C133.625 121.457 134.866 117.692 134.866 112.558C134.866 107.424 133.625 103.701 131.144 101.391C128.748 98.9949 125.796 97.7969 122.287 97.7969C118.608 97.7969 115.656 99.0805 113.431 101.648C111.206 104.215 110.093 107.852 110.093 112.558C110.093 117.264 111.206 120.901 113.431 123.468C115.656 126.035 118.608 127.319 122.287 127.319Z" fill="url(#paint0_linear_1281_66554)"/>
<path d="M54.7754 61.4885L78.1474 95.3772C79.82 97.8025 83.6111 97.3994 84.9289 94.7645C86.7372 91.1489 89.2536 86.7964 92.0175 84.0273C93.9665 82.0747 96.7435 80.2032 99.4055 78.6469C102.247 76.9855 102.09 72.4945 99.0174 71.3141L59.1096 55.983C55.7441 54.6901 52.7286 58.5206 54.7754 61.4885Z" fill="url(#paint1_linear_1281_66554)"/>
<path d="M29.882 63.1679C30.7681 60.7733 34.155 60.7733 35.0411 63.1679L37.7181 70.4023C37.9967 71.1552 38.5902 71.7488 39.3431 72.0274L46.5775 74.7044C48.9722 75.5905 48.9722 78.9774 46.5775 79.8635L39.3431 82.5405C38.5902 82.819 37.9967 83.4126 37.7181 84.1655L35.0411 91.3999C34.155 93.7946 30.7681 93.7946 29.882 91.3999L27.205 84.1655C26.9264 83.4126 26.3328 82.819 25.58 82.5405L18.3455 79.8635C15.9509 78.9774 15.9509 75.5905 18.3455 74.7044L25.58 72.0274C26.3328 71.7488 26.9264 71.1552 27.205 70.4023L29.882 63.1679Z" fill="url(#paint2_linear_1281_66554)"/>
<path d="M68.332 29.6719C68.9227 28.0754 71.1807 28.0754 71.7714 29.6719L73.2259 33.6025C73.4116 34.1045 73.8073 34.5002 74.3092 34.6859L78.2399 36.1404C79.8363 36.7311 79.8363 38.9891 78.2399 39.5798L74.3092 41.0343C73.8073 41.22 73.4116 41.6157 73.2259 42.1176L71.7714 46.0483C71.1807 47.6447 68.9227 47.6447 68.332 46.0483L66.8775 42.1176C66.6918 41.6157 66.296 41.22 65.7941 41.0343L61.8635 39.5798C60.267 38.9891 60.267 36.7311 61.8635 36.1404L65.7941 34.6859C66.296 34.5002 66.6918 34.1045 66.8775 33.6025L68.332 29.6719Z" fill="url(#paint3_linear_1281_66554)"/>
<defs>
<linearGradient id="paint0_linear_1281_66554" x1="147.884" y1="137.608" x2="103.214" y2="51.4642" gradientUnits="userSpaceOnUse">
<stop stop-color="#00D8FF"/>
<stop offset="1" stop-color="#0046FF"/>
</linearGradient>
<linearGradient id="paint1_linear_1281_66554" x1="82.8473" y1="100.986" x2="75.7064" y2="48.0055" gradientUnits="userSpaceOnUse">
<stop stop-color="#FFF73F"/>
<stop offset="1" stop-color="#FF5F5F"/>
</linearGradient>
<linearGradient id="paint2_linear_1281_66554" x1="41.261" y1="86.4069" x2="25.2028" y2="55.9669" gradientUnits="userSpaceOnUse">
<stop stop-color="#00D8FF"/>
<stop offset="1" stop-color="#0046FF"/>
</linearGradient>
<linearGradient id="paint3_linear_1281_66554" x1="82.8873" y1="37.8601" x2="57.216" y2="37.8601" gradientUnits="userSpaceOnUse">
<stop stop-color="#FFF73F"/>
<stop offset="1" stop-color="#FF5F5F"/>
</linearGradient>
</defs>
</svg>
