<svg width="40" height="40" viewBox="0 0 40 40" fill="none" xmlns="http://www.w3.org/2000/svg">
<rect x="2" y="2" width="36" height="36" rx="4" fill="#EEF3FD"/>
<path d="M24.2678 8.14453C25.3368 8.14453 26.362 8.56525 27.1179 9.31414C27.8738 10.063 28.2985 11.0787 28.2985 12.1378V20.1244C28.2985 21.1835 27.8738 22.1992 27.1179 22.9481C26.362 23.697 25.3368 24.1177 24.2678 24.1177H19.5076L14.7092 26.9699C14.5646 27.0558 14.4007 27.1045 14.2323 27.1114C14.0639 27.1183 13.8965 27.0832 13.7453 27.0094C13.5941 26.9356 13.464 26.8255 13.3669 26.689C13.2699 26.5525 13.2089 26.394 13.1896 26.2282L13.1836 26.1144V24.1177H12.1759C11.1418 24.1177 10.1473 23.7239 9.39797 23.0178C8.6487 22.3117 8.20201 21.3473 8.1503 20.3241L8.14526 20.1244V12.1378C8.14526 11.0787 8.56992 10.063 9.32581 9.31414C10.0817 8.56525 11.1069 8.14453 12.1759 8.14453H24.2678ZM20.2372 17.1294H14.1912C13.924 17.1294 13.6677 17.2346 13.4787 17.4218C13.2897 17.6091 13.1836 17.863 13.1836 18.1278C13.1836 18.3925 13.2897 18.6465 13.4787 18.8337C13.6677 19.0209 13.924 19.1261 14.1912 19.1261H20.2372C20.5044 19.1261 20.7607 19.0209 20.9497 18.8337C21.1387 18.6465 21.2448 18.3925 21.2448 18.1278C21.2448 17.863 21.1387 17.6091 20.9497 17.4218C20.7607 17.2346 20.5044 17.1294 20.2372 17.1294ZM22.2525 13.1362H14.1912C13.924 13.1362 13.6677 13.2413 13.4787 13.4286C13.2897 13.6158 13.1836 13.8697 13.1836 14.1345C13.1836 14.3992 13.2897 14.6532 13.4787 14.8404C13.6677 15.0276 13.924 15.1328 14.1912 15.1328H22.2525C22.5197 15.1328 22.776 15.0276 22.965 14.8404C23.154 14.6532 23.2602 14.3992 23.2602 14.1345C23.2602 13.8697 23.154 13.6158 22.965 13.4286C22.776 13.2413 22.5197 13.1362 22.2525 13.1362Z" fill="#587DF0"/>
<path d="M23.3194 21.1836C22.7535 21.1836 22.2107 21.4202 21.8105 21.8415C21.4103 22.2627 21.1855 22.8341 21.1855 23.4298V27.9223C21.1855 28.518 21.4103 29.0894 21.8105 29.5106C22.2107 29.9319 22.7535 30.1685 23.3194 30.1685H25.8395L28.3799 31.7729C28.4564 31.8212 28.5432 31.8486 28.6323 31.8525C28.7215 31.8563 28.8101 31.8366 28.8901 31.7951C28.9702 31.7536 29.039 31.6916 29.0904 31.6148C29.1418 31.5381 29.1741 31.4489 29.1843 31.3556L29.1875 31.2916V30.1685H29.721C30.2685 30.1685 30.795 29.947 31.1917 29.5498C31.5883 29.1526 31.8248 28.6102 31.8522 28.0346L31.8549 27.9223V23.4298C31.8549 22.8341 31.63 22.2627 31.2299 21.8415C30.8297 21.4202 30.2869 21.1836 29.721 21.1836H23.3194ZM25.4533 26.2376H28.6541C28.7955 26.2376 28.9312 26.2968 29.0313 26.4021C29.1313 26.5074 29.1875 26.6502 29.1875 26.7992C29.1875 26.9481 29.1313 27.0909 29.0313 27.1962C28.9312 27.3016 28.7955 27.3607 28.6541 27.3607H25.4533C25.3118 27.3607 25.1761 27.3016 25.076 27.1962C24.976 27.0909 24.9198 26.9481 24.9198 26.7992C24.9198 26.6502 24.976 26.5074 25.076 26.4021C25.1761 26.2968 25.3118 26.2376 25.4533 26.2376ZM24.3863 23.9914H28.6541C28.7955 23.9914 28.9312 24.0505 29.0313 24.1559C29.1313 24.2612 29.1875 24.404 29.1875 24.5529C29.1875 24.7019 29.1313 24.8447 29.0313 24.95C28.9312 25.0553 28.7955 25.1145 28.6541 25.1145H24.3863C24.2448 25.1145 24.1091 25.0553 24.0091 24.95C23.9091 24.8447 23.8529 24.7019 23.8529 24.5529C23.8529 24.404 23.9091 24.2612 24.0091 24.1559C24.1091 24.0505 24.2448 23.9914 24.3863 23.9914Z" fill="#FF9E33"/>
</svg>
