<svg width="16" height="16" viewBox="0 0 16 16" fill="none" xmlns="http://www.w3.org/2000/svg">
<path d="M3.875 4.625C3.875 4.82391 3.95402 5.01468 4.09467 5.15533C4.23532 5.29598 4.42609 5.375 4.625 5.375C4.82391 5.375 5.01468 5.29598 5.15533 5.15533C5.29598 5.01468 5.375 4.82391 5.375 4.625C5.375 4.42609 5.29598 4.23532 5.15533 4.09467C5.01468 3.95402 4.82391 3.875 4.625 3.875C4.42609 3.875 4.23532 3.95402 4.09467 4.09467C3.95402 4.23532 3.875 4.42609 3.875 4.625Z" stroke="#1C1D23" stroke-opacity="0.8" stroke-width="1.5" stroke-linecap="round" stroke-linejoin="round"/>
<path d="M1.25 3.5V7.379C1.25008 7.77679 1.40818 8.15826 1.6895 8.4395L7.472 14.222C7.81096 14.5609 8.27067 14.7513 8.75 14.7513C9.22933 14.7513 9.68904 14.5609 10.028 14.222L14.222 10.028C14.5609 9.68904 14.7513 9.22933 14.7513 8.75C14.7513 8.27067 14.5609 7.81096 14.222 7.472L8.4395 1.6895C8.15826 1.40818 7.77679 1.25008 7.379 1.25H3.5C2.90326 1.25 2.33097 1.48705 1.90901 1.90901C1.48705 2.33097 1.25 2.90326 1.25 3.5Z" stroke="#1C1D23" stroke-opacity="0.8" stroke-width="1.5" stroke-linecap="round" stroke-linejoin="round"/>
<path d="M8.375 9.38466L7.25 10.2494L7.649 8.85666L6.5 7.99941H7.9265L8.375 6.64941L8.8235 7.99941H10.25L9.101 8.85666L9.5 10.2494L8.375 9.38466Z" stroke="#1C1D23" stroke-opacity="0.8" stroke-width="1.5" stroke-linecap="round" stroke-linejoin="round"/>
</svg>
