<svg width="20" height="20" viewBox="0 0 20 20" fill="none" xmlns="http://www.w3.org/2000/svg">
<rect width="20" height="20" rx="10" fill="url(#paint0_linear_22819_37311)"/>
<path d="M4.75 8.83333C4.75 9.36956 4.85562 9.90055 5.06083 10.396C5.26603 10.8914 5.56681 11.3415 5.94598 11.7207C6.32515 12.0999 6.7753 12.4006 7.27071 12.6058C7.76612 12.811 8.2971 12.9167 8.83333 12.9167C9.36956 12.9167 9.90055 12.811 10.396 12.6058C10.8914 12.4006 11.3415 12.0999 11.7207 11.7207C12.0999 11.3415 12.4006 10.8914 12.6058 10.396C12.811 9.90055 12.9167 9.36956 12.9167 8.83333C12.9167 8.2971 12.811 7.76612 12.6058 7.27071C12.4006 6.7753 12.0999 6.32515 11.7207 5.94598C11.3415 5.56681 10.8914 5.26603 10.396 5.06083C9.90055 4.85562 9.36956 4.75 8.83333 4.75C8.2971 4.75 7.76612 4.85562 7.27071 5.06083C6.7753 5.26603 6.32515 5.56681 5.94598 5.94598C5.56681 6.32515 5.26603 6.7753 5.06083 7.27071C4.85562 7.76612 4.75 8.2971 4.75 8.83333Z" stroke="white" stroke-linecap="round" stroke-linejoin="round"/>
<path d="M15.25 15.25L11.75 11.75" stroke="white" stroke-linecap="round" stroke-linejoin="round"/>
<defs>
<linearGradient id="paint0_linear_22819_37311" x1="1.08434" y1="1.16081" x2="20.7974" y2="16.7667" gradientUnits="userSpaceOnUse">
<stop stop-color="#3F8FFF"/>
<stop offset="1" stop-color="#EF2FDF"/>
</linearGradient>
</defs>
</svg>
