<svg width="20" height="20" viewBox="0 0 20 20" fill="none" xmlns="http://www.w3.org/2000/svg">
<rect width="20" height="20" rx="10" fill="url(#paint0_linear_22819_37295)"/>
<path d="M7.61083 13.2452C7.64185 13.3846 7.71475 13.5112 7.81975 13.6079C7.92474 13.7047 8.05682 13.767 8.19825 13.7866C8.33968 13.8061 8.48372 13.7819 8.61102 13.7173C8.73833 13.6527 8.84283 13.5506 8.9105 13.4249L10.1297 11.6207L12.9921 14.4831C13.0499 14.5409 13.1185 14.5867 13.194 14.618C13.2695 14.6493 13.3505 14.6654 13.4322 14.6654C13.5139 14.6654 13.5949 14.6493 13.6704 14.618C13.7459 14.5867 13.8145 14.5409 13.8723 14.4831L14.4831 13.8723C14.5409 13.8145 14.5867 13.7459 14.618 13.6704C14.6493 13.5949 14.6654 13.5139 14.6654 13.4322C14.6654 13.3505 14.6493 13.2695 14.618 13.194C14.5867 13.1185 14.5409 13.0499 14.4831 12.9921L11.6207 10.1297L13.4366 8.9105C13.5623 8.84278 13.6643 8.73824 13.7289 8.61089C13.7935 8.48354 13.8176 8.33948 13.798 8.19804C13.7784 8.05659 13.716 7.92453 13.6192 7.81957C13.5223 7.71461 13.3957 7.64177 13.2563 7.61083L5.3335 5.3335L7.61083 13.2452Z" stroke="white" stroke-linecap="round" stroke-linejoin="round"/>
<defs>
<linearGradient id="paint0_linear_22819_37295" x1="0" y1="10" x2="20" y2="10" gradientUnits="userSpaceOnUse">
<stop stop-color="#F2709C"/>
<stop offset="1" stop-color="#FF9472"/>
</linearGradient>
</defs>
</svg>
