<svg width="20" height="20" viewBox="0 0 20 20" fill="none" xmlns="http://www.w3.org/2000/svg">
<rect width="20" height="20" rx="10" fill="url(#paint0_linear_22884_191527)"/>
<path fill-rule="evenodd" clip-rule="evenodd" d="M9.10069 8.49643C8.34245 7.52393 6.52972 5.63331 5.34475 5.85076C4.39253 7.01051 4.4807 11.1602 6.36749 12.0482C6.16999 12.9904 6.03833 13.2381 5.99719 13.2441C6.43215 13.9086 7.84165 15.223 10 15.165C12.1583 15.223 13.5679 13.9086 14.0028 13.2441C13.9617 13.2381 13.83 12.9904 13.6325 12.0482C15.5193 11.1602 15.6075 7.01051 14.6553 5.85076C13.4703 5.63331 11.6576 7.52393 10.8993 8.49643C10.6595 8.33697 10.1998 8.30918 10 8.31522C9.80015 8.30918 9.34051 8.33697 9.10069 8.49643Z" stroke="white" stroke-linecap="round"/>
<path fill-rule="evenodd" clip-rule="evenodd" d="M6.50253 10.4929C6.50253 10.0292 6.62081 9.3335 7.76973 9.3335H12.2303C13.3792 9.3335 13.4975 10.0292 13.4975 10.4929C13.4975 10.555 13.498 10.625 13.4986 10.7007C13.503 11.2847 13.5101 11.6263 13.2947 11.9C12.9906 12.2864 11.1996 12.441 10.811 11.9C10.5001 11.4671 10.1408 11.3975 10 11.4169C9.8592 11.3975 9.49988 11.4671 9.18899 11.9C8.80039 12.441 7.00941 12.2864 6.70529 11.9C6.48991 11.6263 6.49697 11.2847 6.50142 10.7007C6.502 10.625 6.50253 10.555 6.50253 10.4929Z" stroke="white" stroke-linecap="round"/>
<defs>
<linearGradient id="paint0_linear_22884_191527" x1="-1.93715e-07" y1="10" x2="25.5" y2="-3" gradientUnits="userSpaceOnUse">
<stop stop-color="#757F9A"/>
<stop offset="1" stop-color="#D7DDE8"/>
</linearGradient>
</defs>
</svg>
