<svg width="20" height="20" viewBox="0 0 20 20" fill="none" xmlns="http://www.w3.org/2000/svg">
<rect width="20" height="20" rx="10" fill="url(#paint0_linear_22819_37302)"/>
<path d="M4.75 12.9166C4.75 12.7619 4.81146 12.6135 4.92085 12.5041C5.03025 12.3947 5.17862 12.3333 5.33333 12.3333H7.08333C7.23804 12.3333 7.38642 12.3947 7.49581 12.5041C7.60521 12.6135 7.66667 12.7619 7.66667 12.9166V14.6666C7.66667 14.8213 7.60521 14.9697 7.49581 15.0791C7.38642 15.1885 7.23804 15.2499 7.08333 15.2499H5.33333C5.17862 15.2499 5.03025 15.1885 4.92085 15.0791C4.81146 14.9697 4.75 14.8213 4.75 14.6666V12.9166Z" stroke="white" stroke-linecap="round" stroke-linejoin="round"/>
<path d="M5.3335 9.99992V6.49992C5.3335 6.1905 5.45641 5.89375 5.6752 5.67496C5.894 5.45617 6.19074 5.33325 6.50016 5.33325H13.5002C13.8096 5.33325 14.1063 5.45617 14.3251 5.67496C14.5439 5.89375 14.6668 6.1905 14.6668 6.49992V13.4999C14.6668 13.8093 14.5439 14.1061 14.3251 14.3249C14.1063 14.5437 13.8096 14.6666 13.5002 14.6666H10.0002" stroke="white" stroke-linecap="round" stroke-linejoin="round"/>
<path d="M10 7.66675H12.3333V10.0001" stroke="white" stroke-linecap="round" stroke-linejoin="round"/>
<path d="M12.3332 7.66675L9.4165 10.5834" stroke="white" stroke-linecap="round" stroke-linejoin="round"/>
<defs>
<linearGradient id="paint0_linear_22819_37302" x1="0" y1="10" x2="20" y2="10" gradientUnits="userSpaceOnUse">
<stop stop-color="#A770EF"/>
<stop offset="0.5" stop-color="#CF8BF3"/>
<stop offset="1" stop-color="#FDB99B"/>
</linearGradient>
</defs>
</svg>
