<svg width="20" height="20" viewBox="0 0 20 20" fill="none" xmlns="http://www.w3.org/2000/svg">
<rect width="20" height="20" rx="10" fill="url(#paint0_linear_22819_37288)"/>
<path d="M10 8.25H5.91667C5.60725 8.25 5.3105 8.37292 5.09171 8.59171C4.87292 8.8105 4.75 9.10725 4.75 9.41667V11.75C4.75 12.0594 4.87292 12.3562 5.09171 12.575C5.3105 12.7938 5.60725 12.9167 5.91667 12.9167H7.66667" stroke="white" stroke-linecap="round" stroke-linejoin="round"/>
<path d="M10 11.7502H14.0833C14.3928 11.7502 14.6895 11.6272 14.9083 11.4085C15.1271 11.1897 15.25 10.8929 15.25 10.5835V8.25016C15.25 7.94074 15.1271 7.644 14.9083 7.4252C14.6895 7.20641 14.3928 7.0835 14.0833 7.0835H12.3333" stroke="white" stroke-linecap="round" stroke-linejoin="round"/>
<path d="M7.6665 8.25V5.91667C7.6665 5.60725 7.78942 5.3105 8.00821 5.09171C8.22701 4.87292 8.52375 4.75 8.83317 4.75H11.1665C11.4759 4.75 11.7727 4.87292 11.9915 5.09171C12.2103 5.3105 12.3332 5.60725 12.3332 5.91667V8.83333C12.3332 9.14275 12.2103 9.4395 11.9915 9.65829C11.7727 9.87708 11.4759 10 11.1665 10H8.83317C8.52375 10 8.22701 10.1229 8.00821 10.3417C7.78942 10.5605 7.6665 10.8572 7.6665 11.1667V14.0833C7.6665 14.3928 7.78942 14.6895 8.00821 14.9083C8.22701 15.1271 8.52375 15.25 8.83317 15.25H11.1665C11.4759 15.25 11.7727 15.1271 11.9915 14.9083C12.2103 14.6895 12.3332 14.3928 12.3332 14.0833V11.75" stroke="white" stroke-linecap="round" stroke-linejoin="round"/>
<path d="M9.4165 6.5V6.50583" stroke="white" stroke-linecap="round" stroke-linejoin="round"/>
<path d="M10.5835 13.5V13.5058" stroke="white" stroke-linecap="round" stroke-linejoin="round"/>
<defs>
<linearGradient id="paint0_linear_22819_37288" x1="0" y1="10" x2="20" y2="10" gradientUnits="userSpaceOnUse">
<stop stop-color="#606C88"/>
<stop offset="1" stop-color="#3F4C6B"/>
</linearGradient>
</defs>
</svg>
