<svg width="20" height="20" viewBox="0 0 20 20" fill="none" xmlns="http://www.w3.org/2000/svg">
<rect width="20" height="20" rx="10" fill="url(#paint0_linear_23446_311820)"/>
<g clip-path="url(#clip0_23446_311820)">
<path d="M11.1668 14.6667C11.1668 14.3572 11.0439 14.0605 10.8251 13.8417C10.6063 13.6229 10.3096 13.5 10.0002 13.5C9.69074 13.5 9.394 13.6229 9.17521 13.8417C8.95641 14.0605 8.8335 14.3572 8.8335 14.6667C8.8335 14.9761 8.95641 15.2728 9.17521 15.4916C9.394 15.7104 9.69074 15.8333 10.0002 15.8333C10.3096 15.8333 10.6063 15.7104 10.8251 15.4916C11.0439 15.2728 11.1668 14.9761 11.1668 14.6667Z" stroke="white" stroke-linecap="round" stroke-linejoin="round"/>
<path d="M11.1668 5.33317C11.1668 5.02375 11.0439 4.72701 10.8251 4.50821C10.6063 4.28942 10.3096 4.1665 10.0002 4.1665C9.69074 4.1665 9.394 4.28942 9.17521 4.50821C8.95641 4.72701 8.8335 5.02375 8.8335 5.33317C8.8335 5.64259 8.95641 5.93934 9.17521 6.15813C9.394 6.37692 9.69074 6.49984 10.0002 6.49984C10.3096 6.49984 10.6063 6.37692 10.8251 6.15813C11.0439 5.93934 11.1668 5.64259 11.1668 5.33317Z" stroke="white" stroke-linecap="round" stroke-linejoin="round"/>
<path d="M6.49984 10.0002C6.49984 9.69074 6.37692 9.394 6.15813 9.17521C5.93934 8.95641 5.64259 8.8335 5.33317 8.8335C5.02375 8.8335 4.72701 8.95641 4.50821 9.17521C4.28942 9.394 4.1665 9.69074 4.1665 10.0002C4.1665 10.3096 4.28942 10.6063 4.50821 10.8251C4.72701 11.0439 5.02375 11.1668 5.33317 11.1668C5.64259 11.1668 5.93934 11.0439 6.15813 10.8251C6.37692 10.6063 6.49984 10.3096 6.49984 10.0002Z" stroke="white" stroke-linecap="round" stroke-linejoin="round"/>
<path d="M15.8333 10.0002C15.8333 9.69074 15.7104 9.394 15.4916 9.17521C15.2728 8.95641 14.9761 8.8335 14.6667 8.8335C14.3572 8.8335 14.0605 8.95641 13.8417 9.17521C13.6229 9.394 13.5 9.69074 13.5 10.0002C13.5 10.3096 13.6229 10.6063 13.8417 10.8251C14.0605 11.0439 14.3572 11.1668 14.6667 11.1668C14.9761 11.1668 15.2728 11.0439 15.4916 10.8251C15.7104 10.6063 15.8333 10.3096 15.8333 10.0002Z" stroke="white" stroke-linecap="round" stroke-linejoin="round"/>
<path d="M10.875 6.2085L13.7917 9.12516" stroke="white" stroke-linecap="round" stroke-linejoin="round"/>
<path d="M6.2085 10.875L9.12516 13.7917" stroke="white" stroke-linecap="round" stroke-linejoin="round"/>
<path d="M10.875 13.7917L13.7917 10.875" stroke="white" stroke-linecap="round" stroke-linejoin="round"/>
<path d="M9.12516 6.2085L6.2085 9.12516" stroke="white" stroke-linecap="round" stroke-linejoin="round"/>
</g>
<defs>
<linearGradient id="paint0_linear_23446_311820" x1="0" y1="10" x2="20" y2="10" gradientUnits="userSpaceOnUse">
<stop stop-color="#FF9966"/>
<stop offset="1" stop-color="#FF5E62"/>
</linearGradient>
<clipPath id="clip0_23446_311820">
<rect width="14" height="14" fill="white" transform="translate(3 3)"/>
</clipPath>
</defs>
</svg>
