<svg width="20" height="20" viewBox="0 0 20 20" fill="none" xmlns="http://www.w3.org/2000/svg">
<rect width="20" height="20" rx="10" fill="url(#paint0_linear_23174_41693)"/>
<path d="M12.0417 10.5835C11.5002 10.5835 10.9809 10.7986 10.598 11.1815C10.2151 11.5644 10 12.0837 10 12.6252V13.2085C10 13.75 10.2151 14.2693 10.598 14.6522C10.9809 15.0351 11.5002 15.2502 12.0417 15.2502C12.5832 15.2502 13.1025 15.0351 13.4853 14.6522C13.8682 14.2693 14.0833 13.75 14.0833 13.2085V12.1585" stroke="white" stroke-linecap="round" stroke-linejoin="round"/>
<path d="M7.95817 10.5835C8.49965 10.5835 9.01896 10.7986 9.40185 11.1815C9.78473 11.5644 9.99984 12.0837 9.99984 12.6252V13.2085C9.99984 13.75 9.78473 14.2693 9.40185 14.6522C9.01896 15.0351 8.49965 15.2502 7.95817 15.2502C7.41669 15.2502 6.89738 15.0351 6.51449 14.6522C6.13161 14.2693 5.9165 13.75 5.9165 13.2085V12.1585" stroke="white" stroke-linecap="round" stroke-linejoin="round"/>
<path d="M13.2082 12.3333C13.7497 12.3333 14.269 12.1182 14.6518 11.7353C15.0347 11.3525 15.2498 10.8332 15.2498 10.2917C15.2498 9.75018 15.0347 9.23088 14.6518 8.84799C14.269 8.4651 13.7497 8.25 13.2082 8.25H12.9165" stroke="white" stroke-linecap="round" stroke-linejoin="round"/>
<path d="M14.0833 8.425V6.79167C14.0833 6.25018 13.8682 5.73088 13.4853 5.34799C13.1025 4.9651 12.5832 4.75 12.0417 4.75C11.5002 4.75 10.9809 4.9651 10.598 5.34799C10.2151 5.73088 10 6.25018 10 6.79167" stroke="white" stroke-linecap="round" stroke-linejoin="round"/>
<path d="M6.79167 12.3333C6.25018 12.3333 5.73088 12.1182 5.34799 11.7353C4.9651 11.3525 4.75 10.8332 4.75 10.2917C4.75 9.75018 4.9651 9.23088 5.34799 8.84799C5.73088 8.4651 6.25018 8.25 6.79167 8.25H7.08333" stroke="white" stroke-linecap="round" stroke-linejoin="round"/>
<path d="M5.9165 8.425V6.79167C5.9165 6.25018 6.13161 5.73088 6.51449 5.34799C6.89738 4.9651 7.41669 4.75 7.95817 4.75C8.49965 4.75 9.01896 4.9651 9.40185 5.34799C9.78473 5.73088 9.99984 6.25018 9.99984 6.79167V12.625" stroke="white" stroke-linecap="round" stroke-linejoin="round"/>
<defs>
<linearGradient id="paint0_linear_23174_41693" x1="0" y1="10" x2="20" y2="10" gradientUnits="userSpaceOnUse">
<stop stop-color="#4776E6"/>
<stop offset="1" stop-color="#8E54E9"/>
</linearGradient>
</defs>
</svg>
