<svg width="20" height="20" viewBox="0 0 20 20" fill="none" xmlns="http://www.w3.org/2000/svg">
<rect width="20" height="20" rx="10" fill="url(#paint0_linear_22862_69190)"/>
<g clip-path="url(#clip0_22862_69190)">
<path d="M12.3385 7.98606C12.4889 7.98606 12.6393 7.99995 12.7889 8.01308C12.3864 6.14541 10.3675 4.75 8.06769 4.75C5.49596 4.75902 3.38867 6.49717 3.38867 8.70426C3.38867 9.97668 4.09112 11.0261 5.25796 11.8386L4.78698 13.2324L6.42481 12.4208C7.01158 12.5355 7.4826 12.6503 8.06191 12.6503C8.2123 12.6503 8.35531 12.6438 8.49823 12.6306C8.40535 12.3137 8.35724 11.9853 8.35529 11.655C8.36193 9.63154 10.1155 7.98688 12.3393 7.98688L12.3385 7.98606H12.3385ZM9.8213 6.72836C10.1766 6.72836 10.408 6.95791 10.408 7.31044C10.408 7.65481 10.1766 7.89258 9.8213 7.89258C9.47335 7.89258 9.11884 7.66221 9.11884 7.31043C9.11884 6.95791 9.47335 6.72836 9.8213 6.72836ZM6.54629 7.89258C6.19924 7.89258 5.84391 7.66221 5.84391 7.31043C5.84391 6.95791 6.19924 6.72836 6.54629 6.72836C6.89424 6.72836 7.13306 6.95791 7.13306 7.31044C7.13306 7.65481 6.90167 7.89258 6.54629 7.89258ZM16.6109 11.6066C16.6109 9.75206 14.7416 8.23612 12.6326 8.23612C10.4088 8.23612 8.65523 9.75206 8.65523 11.6066C8.65523 13.4677 10.4088 14.9779 12.6326 14.9779C13.0971 14.9779 13.5681 14.8631 14.0383 14.7475L15.3209 15.4444L14.9664 14.2867C15.9085 13.5768 16.6109 12.6487 16.6109 11.6066ZM11.3435 11.0245C11.1121 11.0245 10.8725 10.7949 10.8725 10.5572C10.8725 10.3276 11.1121 10.0899 11.3435 10.0899C11.6988 10.0899 11.9302 10.3202 11.9302 10.5572C11.9302 10.7949 11.6988 11.0245 11.3435 11.0245ZM13.916 11.0245C13.6838 11.0245 13.4516 10.7949 13.4516 10.5572C13.4516 10.3276 13.683 10.0899 13.916 10.0899C14.2706 10.0899 14.5027 10.3202 14.5027 10.5572C14.5027 10.7949 14.2706 11.0245 13.916 11.0245Z" fill="white"/>
</g>
<defs>
<linearGradient id="paint0_linear_22862_69190" x1="0" y1="10" x2="20" y2="10" gradientUnits="userSpaceOnUse">
<stop stop-color="#00D118"/>
<stop offset="1" stop-color="#0CC32B"/>
</linearGradient>
<clipPath id="clip0_22862_69190">
<rect width="14" height="14" fill="white" transform="translate(3 3)"/>
</clipPath>
</defs>
</svg>
