<svg width="200" height="200" viewBox="0 0 200 200" fill="none" xmlns="http://www.w3.org/2000/svg">
<path opacity="0.1" d="M100 171.025C142.833 171.025 177.556 168.997 177.556 166.497C177.556 163.996 142.833 161.969 100 161.969C57.167 161.969 22.444 163.996 22.444 166.497C22.444 168.997 57.167 171.025 100 171.025Z" fill="black"/>
<path d="M111.728 159.131L108.84 158.275L110.048 151.355L112.94 152.207L111.728 159.131Z" fill="#FFC3BD"/>
<path d="M136.824 163.418H133.808L133.056 156.438H136.072L136.824 163.418Z" fill="#FFC3BD"/>
<path d="M133.56 163.066H137.236C137.296 163.065 137.354 163.085 137.401 163.122C137.448 163.159 137.48 163.212 137.492 163.27L138.088 165.95C138.103 166.016 138.102 166.083 138.087 166.148C138.071 166.213 138.041 166.274 137.999 166.326C137.956 166.377 137.903 166.419 137.842 166.447C137.781 166.474 137.715 166.488 137.648 166.486C136.448 166.466 135.6 166.398 134.112 166.398C133.196 166.398 130.432 166.494 129.168 166.494C127.904 166.494 127.736 165.242 128.252 165.13C130.576 164.622 132.328 163.93 133.072 163.25C133.206 163.131 133.38 163.065 133.56 163.066Z" fill="#263238"/>
<path d="M108.956 157.948L112.116 158.884C112.173 158.901 112.222 158.937 112.257 158.986C112.291 159.034 112.307 159.093 112.304 159.152L112.112 161.892C112.109 161.959 112.09 162.025 112.058 162.083C112.026 162.142 111.981 162.193 111.926 162.231C111.871 162.27 111.808 162.296 111.742 162.306C111.676 162.317 111.608 162.312 111.544 162.292C110.412 161.936 108.788 161.38 107.356 160.96C105.68 160.464 104.208 160.128 102.244 159.548C101.044 159.196 101.084 157.9 101.612 157.948C104.012 158.124 105.884 158.616 108.196 157.988C108.441 157.905 108.704 157.892 108.956 157.948Z" fill="#263238"/>
<path d="M129.96 71.3768C128.412 72.4768 126.86 73.4848 125.256 74.4688C123.652 75.4528 122.028 76.3768 120.336 77.2448L119.7 77.5688L119.524 77.6568L119.232 77.7928C119.034 77.8726 118.831 77.9394 118.624 77.9928C117.869 78.1792 117.079 78.1792 116.324 77.9928C115.184 77.6881 114.123 77.1425 113.212 76.3928C111.658 75.1261 110.324 73.611 109.264 71.9088L111.012 70.4728C112.296 71.6099 113.69 72.6175 115.172 73.4808C115.752 73.8284 116.395 74.0594 117.064 74.1608C117.216 74.1846 117.371 74.1593 117.508 74.0888C117.523 74.0804 117.537 74.0696 117.548 74.0568L117.568 74.0368L117.692 73.9608L118.264 73.6048C119.784 72.6488 121.304 71.6528 122.816 70.6448L127.36 67.6328L129.96 71.3768Z" fill="#FFC3BD"/>
<path d="M121.308 70.4764L124.588 77.5564C139.104 72.7564 134.632 61.6004 121.308 70.4764Z" fill="#263238"/>
<path opacity="0.2" d="M129.016 70.8359C127.154 72.6477 125.786 74.9061 125.044 77.3959C127.996 76.3719 130.116 75.0759 131.508 73.7599L129.016 70.8359Z" fill="black"/>
<path d="M111.336 71.1375L110.268 68.1055L107.716 70.5055C107.898 70.9232 108.166 71.298 108.502 71.6054C108.838 71.9128 109.236 72.1459 109.668 72.2895L111.336 71.1375Z" fill="#FFC3BD"/>
<path d="M108.54 67.293L106.552 69.497L107.716 70.501L110.268 68.105L108.54 67.293Z" fill="#FFC3BD"/>
<path opacity="0.2" d="M110.048 151.355L109.424 154.923L112.316 155.779L112.94 152.211L110.048 151.355Z" fill="black"/>
<path opacity="0.2" d="M136.072 156.438H133.056L133.444 160.037H136.46L136.072 156.438Z" fill="black"/>
<path d="M143.728 69.7437C143.948 69.8233 144.15 69.9461 144.323 70.1049C144.495 70.2636 144.634 70.4552 144.731 70.6683C144.828 70.8814 144.882 71.1117 144.889 71.3458C144.896 71.58 144.856 71.8131 144.772 72.0317C143.791 74.6348 142.961 77.2926 142.288 79.9917C141.716 82.2757 141.268 84.4677 140.908 86.4597C140.068 91.1317 139.708 94.7277 139.428 95.9237L123.6 92.7997C126.556 69.2837 128.82 67.2637 128.82 67.2637C130.112 67.1829 131.408 67.1829 132.7 67.2637C132.967 67.2797 133.243 67.3037 133.528 67.3357C135.794 67.6465 138.041 68.0886 140.256 68.6597C140.656 68.7637 141.1 68.8797 141.512 69.0037C142.324 69.2557 143.092 69.5157 143.728 69.7437Z" fill="#263238"/>
<path opacity="0.2" d="M140.856 74.1914C140.52 76.6363 140.905 79.1261 141.964 81.3554C142.064 80.9034 142.176 80.4514 142.288 79.9954C142.72 78.2794 143.224 76.5114 143.816 74.7354L140.856 74.1914Z" fill="black"/>
<path d="M141.092 60.9727L136.264 63.6847C136.356 65.4487 136.064 67.2487 133.536 67.3487C132.98 67.9887 132.424 69.4967 134.248 70.8367L133.848 72.0807C137.448 71.8167 139.5 69.8527 140.248 68.6767C139.032 66.9327 140.24 63.0527 141.092 60.9727Z" fill="#FFC3BD"/>
<path d="M129.2 93.9983C129.174 93.9943 129.151 93.9804 129.135 93.9595C129.119 93.9385 129.113 93.9122 129.116 93.8863C130.848 80.4783 134.116 70.8863 134.148 70.7903C134.158 70.7658 134.176 70.7458 134.2 70.7341C134.223 70.7223 134.251 70.7195 134.276 70.7263C134.301 70.7354 134.322 70.7537 134.334 70.7775C134.345 70.8014 134.348 70.8288 134.34 70.8543C134.304 70.9503 131.044 80.5263 129.312 93.9103C129.311 93.9237 129.307 93.9367 129.301 93.9486C129.295 93.9605 129.286 93.9709 129.276 93.9792C129.265 93.9875 129.253 93.9934 129.24 93.9967C129.227 94 129.213 94.0006 129.2 93.9983Z" fill="white"/>
<path d="M131.9 71.9988C132.638 71.5269 133.425 71.1366 134.248 70.8348C133.816 70.3748 133.552 68.2148 133.884 67.2148H133.084C133.084 67.2148 131.252 67.8668 131.9 71.9988Z" fill="white"/>
<path d="M137.044 73.2853C136.773 72.6153 136.324 72.0326 135.744 71.6013C137.044 71.2013 139.268 70.0893 140.024 68.1133C140.332 68.3653 140.824 68.7173 140.824 68.7173C140.824 68.7173 141.6 71.6853 137.044 73.2853Z" fill="white"/>
<path d="M134.708 73.0379C134.656 73.2859 134.492 73.4859 134.344 73.4859C134.196 73.4859 134.112 73.2819 134.16 73.0339C134.208 72.7859 134.372 72.5859 134.524 72.5859C134.676 72.5859 134.756 72.8019 134.708 73.0379Z" fill="white"/>
<path d="M139.124 62.0781L136.268 63.6781C136.295 64.0901 136.286 64.5037 136.24 64.9141C137.188 64.9621 138.64 64.2021 138.944 63.2541C139.074 62.8761 139.135 62.4777 139.124 62.0781Z" fill="#ED847E"/>
<path d="M136.248 51.9475C134.184 52.4475 133.2 56.6755 135.784 58.1075C140.828 56.9715 142.068 50.5355 136.248 51.9475Z" fill="#263238"/>
<path d="M142.704 57.5713C141.852 60.4393 141.504 62.1593 139.684 63.3153C136.956 65.0513 133.684 62.8873 133.648 59.8233C133.628 57.0633 135.024 52.8353 138.14 52.3353C138.827 52.2225 139.531 52.287 140.185 52.5226C140.84 52.7582 141.424 53.1572 141.881 53.6817C142.338 54.2063 142.654 54.8389 142.798 55.5196C142.942 56.2003 142.909 56.9065 142.704 57.5713Z" fill="#FFC3BD"/>
<path d="M143.276 53.5994C140.344 52.8914 139.464 59.0554 142.044 60.4874C148 59.1394 146.364 54.3314 143.276 53.5994Z" fill="#263238"/>
<path d="M142.568 51.8641C139.348 51.2641 137.368 48.6641 137.368 48.6641C137.368 48.6641 134.676 50.7441 135.444 52.3601C136.212 53.9761 139.82 55.7961 141.552 55.8641C141.552 55.8641 140.752 59.6721 144.18 57.5281C148.776 54.6681 145.6 52.4321 142.568 51.8641Z" fill="#263238"/>
<path d="M145.284 55.8252C146.097 56.2693 146.725 56.9882 147.056 57.8532C147.308 55.6012 145.748 55.7652 145.284 55.8252Z" fill="#263238"/>
<path d="M137.76 54.0007C136.3 53.5518 135.049 52.5956 134.232 51.3047C134.56 55.0047 137.032 54.2367 137.76 54.0007Z" fill="#263238"/>
<path d="M136.328 60.3249C136.67 60.4104 137.027 60.4133 137.37 60.3333C137.713 60.2533 138.032 60.0927 138.3 59.8649C138.314 59.8502 138.321 59.8309 138.321 59.8109C138.321 59.7909 138.314 59.7716 138.3 59.7569C138.293 59.7498 138.285 59.7441 138.275 59.7402C138.266 59.7364 138.256 59.7344 138.246 59.7344C138.236 59.7344 138.226 59.7364 138.217 59.7402C138.207 59.7441 138.199 59.7498 138.192 59.7569C137.942 59.9655 137.646 60.1121 137.328 60.1851C137.011 60.2581 136.68 60.2553 136.364 60.1769C136.346 60.1766 136.328 60.1826 136.314 60.1938C136.299 60.205 136.289 60.2207 136.285 60.2385C136.281 60.2562 136.283 60.2748 136.291 60.2912C136.298 60.3077 136.312 60.321 136.328 60.3289V60.3249Z" fill="#263238"/>
<path d="M142.968 60.5454C142.526 61.0263 141.919 61.3221 141.268 61.3734C140.448 61.4174 140.316 60.5734 140.776 59.8574C141.176 59.2014 142.12 58.3934 142.832 58.6934C143.544 58.9934 143.536 59.9334 142.968 60.5454Z" fill="#FFC3BD"/>
<path d="M108.536 153.937L113.436 155.385C113.436 155.385 118.336 138.705 121.38 128.365C122.18 125.625 123.42 121.769 124.888 117.681C126.74 112.529 128.948 106.985 130.732 102.649C132.608 98.0808 134.008 94.8568 134.008 94.8568L123.6 92.8008C123.6 92.8008 114.864 116.681 112.932 125.681C110.932 135.045 108.536 153.937 108.536 153.937Z" fill="#315CEC"/>
<path opacity="0.2" d="M124.888 117.68C126.74 112.528 128.948 106.984 130.732 102.648L129.932 100.164C126.944 102.932 125.04 112.4 124.888 117.68Z" fill="black"/>
<path d="M129.2 93.9102C129.2 93.9102 127.108 119.746 127.1 128.582C127.1 138.254 132.036 159.338 132.036 159.338H137.56C137.56 159.338 135.4 140.682 135.356 131.194C135.308 120.45 139.412 95.9262 139.412 95.9262L129.2 93.9102Z" fill="#315CEC"/>
<path d="M131.392 159.455H137.896V157.515L130.624 157.387L131.392 159.455Z" fill="#263238"/>
<path d="M108.196 153.96L113.724 155.596L114.56 153.696L108.26 151.824L108.196 153.96Z" fill="#263238"/>
<path d="M138.1 57.3641C138.048 57.6001 137.876 57.7642 137.72 57.7282C137.564 57.6922 137.484 57.4721 137.54 57.2361C137.596 57.0001 137.764 56.8361 137.92 56.8721C138.076 56.9081 138.156 57.1281 138.1 57.3641Z" fill="#263238"/>
<path d="M135.424 56.743C135.368 56.983 135.2 57.1431 135.044 57.1071C134.888 57.0711 134.808 56.851 134.864 56.615C134.92 56.379 135.088 56.2151 135.24 56.2511C135.392 56.2871 135.476 56.507 135.424 56.743Z" fill="#263238"/>
<path d="M136.248 57.0586C135.798 57.7173 135.26 58.3108 134.648 58.8226C134.976 59.3106 135.776 59.2466 135.776 59.2466L136.248 57.0586Z" fill="#ED847E"/>
<path d="M139.132 56.694C139.106 56.6919 139.081 56.683 139.059 56.6683C139.037 56.6536 139.02 56.6335 139.008 56.61C138.939 56.4416 138.83 56.2924 138.691 56.1754C138.551 56.0583 138.386 55.9769 138.208 55.938C138.171 55.9312 138.138 55.9102 138.117 55.8796C138.095 55.8489 138.086 55.8111 138.092 55.774C138.098 55.7364 138.119 55.7026 138.149 55.6801C138.18 55.6576 138.218 55.6482 138.256 55.654C138.477 55.704 138.683 55.8059 138.857 55.9512C139.031 56.0966 139.168 56.2813 139.256 56.49C139.271 56.5251 139.272 56.5647 139.259 56.6005C139.245 56.6363 139.218 56.6655 139.184 56.682C139.167 56.6883 139.15 56.6923 139.132 56.694Z" fill="#263238"/>
<path d="M134.488 55.5555C134.458 55.5535 134.429 55.5438 134.404 55.5275C134.375 55.5027 134.357 55.4675 134.353 55.4295C134.349 55.3915 134.36 55.3535 134.384 55.3235C134.524 55.1411 134.707 54.9956 134.916 54.8995C135.125 54.8033 135.354 54.7594 135.584 54.7715C135.605 54.7707 135.625 54.7744 135.644 54.7822C135.663 54.79 135.68 54.8018 135.694 54.8168C135.708 54.8317 135.719 54.8495 135.726 54.869C135.732 54.8884 135.735 54.9091 135.733 54.9295C135.731 54.95 135.724 54.9698 135.714 54.9875C135.704 55.0053 135.69 55.0207 135.673 55.0326C135.656 55.0446 135.637 55.0528 135.617 55.0567C135.597 55.0607 135.576 55.0602 135.556 55.0555C135.377 55.0514 135.199 55.0899 135.038 55.1678C134.877 55.2457 134.736 55.3607 134.628 55.5035C134.612 55.5241 134.59 55.5399 134.565 55.5491C134.541 55.5582 134.514 55.5605 134.488 55.5555Z" fill="#263238"/>
<path d="M132.564 163.599C132.359 163.615 132.154 163.56 131.984 163.443C131.93 163.397 131.888 163.339 131.862 163.274C131.837 163.208 131.827 163.137 131.836 163.067C131.836 163.025 131.847 162.984 131.868 162.948C131.889 162.913 131.92 162.883 131.956 162.863C132.292 162.691 133.264 163.291 133.372 163.359C133.384 163.366 133.394 163.377 133.4 163.39C133.405 163.403 133.407 163.417 133.404 163.431C133.402 163.445 133.396 163.458 133.387 163.469C133.378 163.479 133.366 163.487 133.352 163.491C133.094 163.555 132.83 163.591 132.564 163.599ZM132.116 162.975C132.086 162.968 132.054 162.968 132.024 162.975C132.009 162.983 131.996 162.995 131.987 163.01C131.979 163.025 131.975 163.042 131.976 163.059C131.971 163.107 131.977 163.156 131.994 163.201C132.012 163.246 132.04 163.287 132.076 163.319C132.413 163.471 132.794 163.49 133.144 163.371C132.83 163.172 132.481 163.037 132.116 162.971V162.975Z" fill="#315CEC"/>
<path d="M133.336 163.489H133.3C132.988 163.321 132.384 162.657 132.448 162.321C132.46 162.269 132.489 162.223 132.53 162.189C132.571 162.156 132.623 162.137 132.676 162.137C132.73 162.129 132.786 162.133 132.838 162.149C132.891 162.165 132.939 162.192 132.98 162.229C133.332 162.513 133.404 163.385 133.408 163.429C133.409 163.439 133.407 163.448 133.404 163.458C133.4 163.467 133.395 163.475 133.388 163.482C133.382 163.489 133.374 163.495 133.365 163.499C133.356 163.503 133.346 163.505 133.336 163.505V163.489ZM132.728 162.265H132.696C132.6 162.265 132.592 162.317 132.592 162.337C132.552 162.537 132.936 163.033 133.248 163.269C133.225 162.926 133.102 162.597 132.892 162.325C132.845 162.287 132.788 162.266 132.728 162.265Z" fill="#315CEC"/>
<path d="M108.556 158.265C108.064 158.221 107.2 158.089 106.956 157.713C106.922 157.659 106.901 157.597 106.895 157.533C106.889 157.469 106.899 157.405 106.924 157.345C106.937 157.308 106.959 157.275 106.988 157.249C107.018 157.223 107.053 157.205 107.092 157.197C107.492 157.109 108.488 158.037 108.6 158.141C108.608 158.154 108.613 158.168 108.613 158.183C108.613 158.198 108.608 158.213 108.6 158.225C108.596 158.235 108.591 158.244 108.583 158.251C108.575 158.258 108.566 158.263 108.556 158.265ZM107.144 157.333H107.124C107.109 157.337 107.095 157.344 107.084 157.355C107.073 157.365 107.065 157.379 107.06 157.393C107.039 157.431 107.029 157.474 107.029 157.517C107.029 157.561 107.039 157.603 107.06 157.641C107.192 157.849 107.66 158.017 108.328 158.101C107.948 157.741 107.38 157.309 107.144 157.333Z" fill="#315CEC"/>
<path d="M108.556 158.263C108.539 158.27 108.521 158.27 108.504 158.263C108.204 158.003 107.704 157.175 107.844 156.863C107.88 156.787 107.964 156.711 108.156 156.747C108.226 156.759 108.293 156.786 108.352 156.825C108.411 156.864 108.462 156.916 108.5 156.975C108.78 157.375 108.628 158.175 108.62 158.223C108.618 158.235 108.613 158.247 108.605 158.256C108.598 158.265 108.587 158.272 108.576 158.275L108.556 158.263ZM108.048 156.863C108.033 156.864 108.017 156.868 108.004 156.875C107.991 156.883 107.98 156.894 107.972 156.907C107.884 157.095 108.208 157.707 108.5 158.043C108.567 157.705 108.526 157.354 108.384 157.039C108.325 156.953 108.235 156.892 108.132 156.871C108.104 156.866 108.076 156.863 108.048 156.863Z" fill="#315CEC"/>
<path d="M144.4 70.5586C144.632 70.7906 144.8 70.9586 144.976 71.1546C145.152 71.3506 145.324 71.5546 145.492 71.7386C145.828 72.1386 146.156 72.5386 146.472 72.9386C147.104 73.7538 147.69 74.6031 148.228 75.4826C148.775 76.3765 149.262 77.3052 149.688 78.2626C150.129 79.2448 150.48 80.265 150.736 81.3106L150.832 81.7106L150.924 82.1786C150.964 82.4866 151.004 82.7946 151.016 83.0946C151.043 83.6753 151.023 84.2571 150.956 84.8346C150.828 85.9055 150.585 86.9596 150.232 87.9786C149.557 89.9149 148.614 91.7473 147.432 93.4226L145.432 92.3306L145.864 91.0426C146.008 90.6066 146.128 90.1626 146.264 89.7266C146.506 88.8638 146.705 87.9894 146.86 87.1066C147.01 86.279 147.087 85.4397 147.088 84.5986C147.088 84.2206 147.056 83.8432 146.992 83.4706C146.967 83.2995 146.932 83.1299 146.888 82.9626L146.82 82.7306L146.724 82.4466C146.143 80.8417 145.362 79.3164 144.4 77.9066C143.912 77.1786 143.388 76.4626 142.84 75.7666C142.573 75.4146 142.293 75.0706 142 74.7346L141.6 74.2386L141.2 73.7866L144.4 70.5586Z" fill="#FFC3BD"/>
<path d="M139.924 74.9223C140.864 77.5743 141.96 79.5903 143.504 81.0743L149.292 75.5583C144 65.2263 138.488 70.8783 139.924 74.9223Z" fill="#263238"/>
<path d="M145.82 91.8555L143.56 93.9195L147.104 95.4235C147.104 95.4235 148.64 93.2395 147.572 92.2955L145.82 91.8555Z" fill="#FFC3BD"/>
<path d="M143.124 96.4019L146.112 97.5059L147.104 95.4259L143.56 93.9219L143.124 96.4019Z" fill="#FFC3BD"/>
<path d="M89.568 37.9355L66.124 43.6955L64.588 40.4315C64.5238 40.2936 64.4137 40.1823 64.2765 40.1166C64.1394 40.051 63.9836 40.035 63.836 40.0715L49.316 43.6395C49.1685 43.6762 49.0381 43.7627 48.947 43.8844C48.8559 44.0061 48.8097 44.1556 48.816 44.3075L48.968 47.9075L39.6 50.2115C39.3383 50.2767 39.1131 50.443 38.9737 50.6739C38.8342 50.9047 38.7919 51.1815 38.856 51.4435L46.584 82.8875C46.6154 83.0177 46.6722 83.1404 46.7513 83.2486C46.8303 83.3567 46.9299 83.4482 47.0444 83.5177C47.1589 83.5872 47.286 83.6334 47.4184 83.6536C47.5509 83.6738 47.686 83.6677 47.816 83.6355L97.776 71.3555C98.0384 71.2911 98.2646 71.1252 98.4049 70.8942C98.5451 70.6632 98.5879 70.386 98.524 70.1235L90.8 38.6795C90.7347 38.4177 90.5685 38.1925 90.3376 38.0531C90.1067 37.9137 89.83 37.8714 89.568 37.9355Z" fill="#FDC127"/>
<path opacity="0.9" d="M89.568 37.9355L66.124 43.6955L64.588 40.4315C64.5238 40.2936 64.4137 40.1823 64.2765 40.1166C64.1394 40.051 63.9836 40.035 63.836 40.0715L49.316 43.6395C49.1685 43.6762 49.0381 43.7627 48.947 43.8844C48.8559 44.0061 48.8097 44.1556 48.816 44.3075L48.968 47.9075L39.6 50.2115C39.3383 50.2767 39.1131 50.443 38.9737 50.6739C38.8342 50.9047 38.7919 51.1815 38.856 51.4435L46.584 82.8875C46.6154 83.0177 46.6722 83.1404 46.7513 83.2486C46.8303 83.3567 46.9299 83.4482 47.0444 83.5177C47.1589 83.5872 47.286 83.6334 47.4184 83.6536C47.5509 83.6738 47.686 83.6677 47.816 83.6355L97.776 71.3555C98.0384 71.2911 98.2646 71.1252 98.4049 70.8942C98.5451 70.6632 98.5879 70.386 98.524 70.1235L90.8 38.6795C90.7347 38.4177 90.5685 38.1925 90.3376 38.0531C90.1067 37.9137 89.83 37.8714 89.568 37.9355Z" fill="white"/>
<path d="M62.9 41.5403L50.8274 44.5078L51.2218 46.1121L63.2944 43.1445L62.9 41.5403Z" fill="white"/>
<path d="M90.268 48.3987L65.068 54.5907L63.532 51.3267C63.4678 51.1889 63.3577 51.0776 63.2206 51.0119C63.0834 50.9462 62.9277 50.9303 62.78 50.9667L48.26 54.5347C48.1128 54.5706 47.9826 54.6564 47.8914 54.7774C47.8003 54.8985 47.7538 55.0473 47.76 55.1987L47.912 58.7987L40.312 60.6667C40.0496 60.7311 39.8234 60.897 39.6832 61.128C39.5429 61.359 39.5001 61.6362 39.564 61.8987L47.292 93.3427C47.3564 93.6052 47.5223 93.8313 47.7533 93.9716C47.9843 94.1118 48.2615 94.1547 48.524 94.0907L98.488 81.8107C98.6179 81.7789 98.7402 81.7217 98.8479 81.6425C98.9556 81.5633 99.0466 81.4636 99.1158 81.3492C99.1849 81.2347 99.2307 81.1078 99.2507 80.9756C99.2706 80.8433 99.2643 80.7085 99.232 80.5787L91.508 49.1347C91.4411 48.8728 91.2729 48.6481 91.0404 48.5101C90.8078 48.372 90.53 48.332 90.268 48.3987Z" fill="#FDC127"/>
<path opacity="0.8" d="M90.268 48.3987L65.068 54.5907L63.532 51.3267C63.4678 51.1889 63.3577 51.0776 63.2206 51.0119C63.0834 50.9462 62.9277 50.9303 62.78 50.9667L48.26 54.5347C48.1128 54.5706 47.9826 54.6564 47.8914 54.7774C47.8003 54.8985 47.7538 55.0473 47.76 55.1987L47.912 58.7987L40.312 60.6667C40.0496 60.7311 39.8234 60.897 39.6832 61.128C39.5429 61.359 39.5001 61.6362 39.564 61.8987L47.292 93.3427C47.3564 93.6052 47.5223 93.8313 47.7533 93.9716C47.9843 94.1118 48.2615 94.1547 48.524 94.0907L98.488 81.8107C98.6179 81.7789 98.7402 81.7217 98.8479 81.6425C98.9556 81.5633 99.0466 81.4636 99.1158 81.3492C99.1849 81.2347 99.2307 81.1078 99.2507 80.9756C99.2706 80.8433 99.2643 80.7085 99.232 80.5787L91.508 49.1347C91.4411 48.8728 91.2729 48.6481 91.0404 48.5101C90.8078 48.372 90.53 48.332 90.268 48.3987Z" fill="white"/>
<path d="M61.8437 52.4231L49.771 55.3906L50.1654 56.9949L62.238 54.0273L61.8437 52.4231Z" fill="white"/>
<path d="M90.972 58.8317L64 65.4557L62.464 62.1917C62.3998 62.0538 62.2897 61.9425 62.1526 61.8769C62.0154 61.8112 61.8597 61.7952 61.712 61.8317L47.2 65.3997C47.0521 65.4357 46.9213 65.5221 46.8301 65.644C46.7389 65.7658 46.6929 65.9156 46.7 66.0677L46.852 69.6677L41.008 71.1037C40.7456 71.1681 40.5194 71.334 40.3792 71.565C40.2389 71.796 40.1961 72.0732 40.26 72.3357L48 103.784C48.0644 104.046 48.2303 104.272 48.4613 104.413C48.6923 104.553 48.9695 104.596 49.232 104.532L99.2 92.2517C99.3302 92.2203 99.453 92.1635 99.5611 92.0844C99.6693 92.0054 99.7608 91.9058 99.8303 91.7913C99.8998 91.6768 99.946 91.5497 99.9662 91.4173C99.9864 91.2848 99.9802 91.1497 99.948 91.0197L92.22 59.5757C92.1888 59.4438 92.1314 59.3196 92.0513 59.2103C91.9711 59.1011 91.8698 59.009 91.7534 58.9396C91.6371 58.8702 91.5079 58.8249 91.3737 58.8064C91.2394 58.7879 91.1028 58.7965 90.972 58.8317Z" fill="#FDC127"/>
<path opacity="0.6" d="M90.972 58.8317L64 65.4557L62.464 62.1917C62.3998 62.0538 62.2897 61.9425 62.1526 61.8769C62.0154 61.8112 61.8597 61.7952 61.712 61.8317L47.2 65.3997C47.0521 65.4357 46.9213 65.5221 46.8301 65.644C46.7389 65.7658 46.6929 65.9156 46.7 66.0677L46.852 69.6677L41.008 71.1037C40.7456 71.1681 40.5194 71.334 40.3792 71.565C40.2389 71.796 40.1961 72.0732 40.26 72.3357L48 103.784C48.0644 104.046 48.2303 104.272 48.4613 104.413C48.6923 104.553 48.9695 104.596 49.232 104.532L99.2 92.2517C99.3302 92.2203 99.453 92.1635 99.5611 92.0844C99.6693 92.0054 99.7608 91.9058 99.8303 91.7913C99.8998 91.6768 99.946 91.5497 99.9662 91.4173C99.9864 91.2848 99.9802 91.1497 99.948 91.0197L92.22 59.5757C92.1888 59.4438 92.1314 59.3196 92.0513 59.2103C91.9711 59.1011 91.8698 59.009 91.7534 58.9396C91.6371 58.8702 91.5079 58.8249 91.3737 58.8064C91.2394 58.7879 91.1028 58.7965 90.972 58.8317Z" fill="white"/>
<path d="M60.7913 63.2981L48.7186 66.2656L49.113 67.8699L61.1856 64.9023L60.7913 63.2981Z" fill="white"/>
<path d="M111.036 70.0983L81.504 71.5983L80.612 68.1023C80.5744 67.9548 80.4869 67.8248 80.3644 67.7344C80.242 67.6441 80.092 67.5988 79.94 67.6063L65.008 68.3663C64.8559 68.3738 64.7111 68.4336 64.5981 68.5357C64.4851 68.6377 64.4109 68.7757 64.388 68.9263L63.856 72.4943L59.656 72.7103C59.5222 72.7164 59.3909 72.749 59.2697 72.8061C59.1485 72.8631 59.0398 72.9436 58.9498 73.0429C58.8599 73.1421 58.7904 73.2582 58.7455 73.3844C58.7005 73.5106 58.681 73.6445 58.688 73.7783L60.336 106.114C60.3495 106.384 60.4695 106.638 60.6697 106.819C60.87 107.001 61.1341 107.095 61.404 107.082L112.8 104.47C113.07 104.457 113.323 104.337 113.505 104.137C113.686 103.936 113.781 103.672 113.768 103.402L112.12 71.0623C112.113 70.9274 112.08 70.7951 112.022 70.6733C111.963 70.5514 111.881 70.4425 111.78 70.3527C111.679 70.2629 111.562 70.1942 111.434 70.1505C111.306 70.1068 111.171 70.0891 111.036 70.0983Z" fill="#FDC127"/>
<path opacity="0.4" d="M111.036 70.0983L81.504 71.5983L80.612 68.1023C80.5744 67.9548 80.4869 67.8248 80.3644 67.7344C80.242 67.6441 80.092 67.5988 79.94 67.6063L65.008 68.3663C64.8559 68.3738 64.7111 68.4336 64.5981 68.5357C64.4851 68.6377 64.4109 68.7757 64.388 68.9263L63.856 72.4943L59.656 72.7103C59.5222 72.7164 59.3909 72.749 59.2697 72.8061C59.1485 72.8631 59.0398 72.9436 58.9498 73.0429C58.8599 73.1421 58.7904 73.2582 58.7455 73.3844C58.7005 73.5106 58.681 73.6445 58.688 73.7783L60.336 106.114C60.3495 106.384 60.4695 106.638 60.6697 106.819C60.87 107.001 61.1341 107.095 61.404 107.082L112.8 104.47C113.07 104.457 113.323 104.337 113.505 104.137C113.686 103.936 113.781 103.672 113.768 103.402L112.12 71.0623C112.113 70.9274 112.08 70.7951 112.022 70.6733C111.963 70.5514 111.881 70.4425 111.78 70.3527C111.679 70.2629 111.562 70.1942 111.434 70.1505C111.306 70.1068 111.171 70.0891 111.036 70.0983Z" fill="white"/>
<path d="M78.7393 68.8845L66.3233 69.5156L66.4072 71.1655L78.8232 70.5344L78.7393 68.8845Z" fill="white"/>
<path d="M92.376 79.7217L61.9 87.1977L60.368 83.9337C60.2981 83.7979 60.1836 83.6904 60.0437 83.6292C59.9038 83.568 59.7471 83.5569 59.6 83.5977L45.08 87.1657C44.9321 87.2017 44.8013 87.2881 44.7101 87.4099C44.6189 87.5318 44.5729 87.6816 44.58 87.8337L44.732 91.4337L42.4 91.9977C42.1376 92.0621 41.9114 92.228 41.7712 92.459C41.6309 92.6899 41.5881 92.9671 41.652 93.2297L49.38 124.674C49.4453 124.936 49.612 125.163 49.8436 125.303C50.0752 125.443 50.353 125.486 50.616 125.422L100.576 113.142C100.838 113.076 101.063 112.91 101.202 112.679C101.342 112.448 101.384 112.172 101.32 111.91L93.6 80.4697C93.5346 80.2095 93.3698 79.9854 93.1409 79.8456C92.912 79.7057 92.6373 79.6612 92.376 79.7217Z" fill="#FDC127"/>
<path opacity="0.2" d="M92.376 79.7217L61.9 87.1977L60.368 83.9337C60.2981 83.7979 60.1836 83.6904 60.0437 83.6292C59.9038 83.568 59.7471 83.5569 59.6 83.5977L45.08 87.1657C44.9321 87.2017 44.8013 87.2881 44.7101 87.4099C44.6189 87.5318 44.5729 87.6816 44.58 87.8337L44.732 91.4337L42.4 91.9977C42.1376 92.0621 41.9114 92.228 41.7712 92.459C41.6309 92.6899 41.5881 92.9671 41.652 93.2297L49.38 124.674C49.4453 124.936 49.612 125.163 49.8436 125.303C50.0752 125.443 50.353 125.486 50.616 125.422L100.576 113.142C100.838 113.076 101.063 112.91 101.202 112.679C101.342 112.448 101.384 112.172 101.32 111.91L93.6 80.4697C93.5346 80.2095 93.3698 79.9854 93.1409 79.8456C92.912 79.7057 92.6373 79.6612 92.376 79.7217Z" fill="white"/>
<path d="M58.6785 85.0637L46.6059 88.0312L47.0002 89.6355L59.0728 86.6679L58.6785 85.0637Z" fill="white"/>
<path d="M93.0807 90.1681L43.1238 102.448C42.5768 102.582 42.2423 103.135 42.3768 103.682L50.105 135.122C50.2395 135.669 50.792 136.004 51.339 135.869L101.296 123.589C101.843 123.455 102.177 122.902 102.043 122.355L94.3147 90.9151C94.1802 90.3681 93.6278 90.0336 93.0807 90.1681Z" fill="#FDC127"/>
<path d="M60.448 99.1038L44.508 103.02C44.4143 103.04 44.3174 103.04 44.2238 103.019C44.1302 102.998 44.0423 102.957 43.9662 102.899C43.89 102.841 43.8275 102.767 43.7829 102.682C43.7383 102.597 43.7128 102.504 43.708 102.408L43.552 98.7078C43.5449 98.5558 43.5909 98.4059 43.6821 98.2841C43.7733 98.1622 43.9041 98.0759 44.052 98.0398L58.572 94.4718C58.7202 94.4359 58.8762 94.4521 59.0139 94.5176C59.1516 94.5832 59.2625 94.6941 59.328 94.8318L60.904 98.1798C60.9451 98.2695 60.9657 98.3673 60.9643 98.466C60.9629 98.5647 60.9395 98.6618 60.8958 98.7503C60.8521 98.8388 60.7893 98.9164 60.7118 98.9776C60.6343 99.0388 60.5442 99.0819 60.448 99.1038Z" fill="#FDC127"/>
<path d="M57.6221 95.9387L45.5495 98.9062L45.9438 100.51L58.0164 97.5429L57.6221 95.9387Z" fill="white"/>
</svg>
