<svg width="25" height="24" viewBox="0 0 25 24" fill="none" xmlns="http://www.w3.org/2000/svg">
<g id="Group">
<path id="Vector" fill-rule="evenodd" clip-rule="evenodd" d="M16.263 0L23.5 7.237V22C23.5 22.5304 23.2893 23.0391 22.9142 23.4142C22.5391 23.7893 22.0304 24 21.5 24H3.5C2.96957 24 2.46086 23.7893 2.08579 23.4142C1.71071 23.0391 1.5 22.5304 1.5 22V2C1.5 1.46957 1.71071 0.960859 2.08579 0.585786C2.46086 0.210714 2.96957 0 3.5 0L16.263 0Z" fill="#FFA200"/>
<path id="Vector_2" fill-rule="evenodd" clip-rule="evenodd" d="M18.263 7.237C17.7326 7.237 17.2239 7.02629 16.8488 6.65121C16.4737 6.27614 16.263 5.76743 16.263 5.237V0L23.5 7.237H18.263Z" fill="white" fill-opacity="0.401"/>
<path id="Vector_3" fill-rule="evenodd" clip-rule="evenodd" d="M7.017 18.554H17.983C18.1289 18.554 18.2725 18.5172 18.4004 18.4469C18.5283 18.3766 18.6364 18.2752 18.7147 18.1521C18.793 18.0289 18.8389 17.888 18.8482 17.7424C18.8575 17.5968 18.8299 17.4511 18.768 17.319L18.713 17.204L18.605 16.978L18.497 16.758L18.39 16.545L18.283 16.338L18.177 16.137C18.1594 16.104 18.1418 16.071 18.124 16.038L18.019 15.846C18.0014 15.8146 17.9838 15.7833 17.966 15.752L17.862 15.569L17.758 15.392C16.773 13.741 15.863 12.915 15.028 12.915C13.769 12.915 12.589 14.039 11.488 16.287C10.892 15.48 10.027 15.077 8.89 15.077C7.992 15.077 7.119 15.801 6.27 17.249C6.19295 17.3806 6.15198 17.5303 6.15124 17.6828C6.1505 17.8353 6.19001 17.9853 6.26578 18.1177C6.34156 18.2501 6.45091 18.3601 6.58281 18.4367C6.7147 18.5133 6.86448 18.5538 7.017 18.554Z" fill="white"/>
<path id="Vector_4" d="M8.03 12.032C8.71539 12.032 9.271 11.4764 9.271 10.791C9.271 10.1056 8.71539 9.55 8.03 9.55C7.34462 9.55 6.789 10.1056 6.789 10.791C6.789 11.4764 7.34462 12.032 8.03 12.032Z" fill="white"/>
</g>
</svg>
