<svg width="25" height="24" viewBox="0 0 25 24" fill="none" xmlns="http://www.w3.org/2000/svg">
<g id="Group">
<path id="Vector" fill-rule="evenodd" clip-rule="evenodd" d="M16.263 0L23.5 7.237V22C23.5 22.5304 23.2893 23.0391 22.9142 23.4142C22.5391 23.7893 22.0304 24 21.5 24H3.5C2.96957 24 2.46086 23.7893 2.08579 23.4142C1.71071 23.0391 1.5 22.5304 1.5 22V2C1.5 1.46957 1.71071 0.960859 2.08579 0.585786C2.46086 0.210714 2.96957 0 3.5 0L16.263 0Z" fill="#FA5C26"/>
<path id="Vector_2" fill-rule="evenodd" clip-rule="evenodd" d="M18.263 7.237C17.7326 7.237 17.2239 7.02629 16.8488 6.65121C16.4737 6.27614 16.263 5.76743 16.263 5.237V0L23.5 7.237H18.263Z" fill="white" fill-opacity="0.401"/>
<g id="Group_2">
<path id="Vector_3" d="M9.20299 13.598H6.51199C6.23585 13.598 6.01199 13.8219 6.01199 14.098V16.789C6.01199 17.0651 6.23585 17.289 6.51199 17.289H9.20299C9.47914 17.289 9.70299 17.0651 9.70299 16.789V14.098C9.70299 13.8219 9.47914 13.598 9.20299 13.598Z" fill="white"/>
<path id="Vector_4" d="M17.559 9.907H14.868C14.5919 9.907 14.368 10.1309 14.368 10.407V13.098C14.368 13.3741 14.5919 13.598 14.868 13.598H17.559C17.8351 13.598 18.059 13.3741 18.059 13.098V10.407C18.059 10.1309 17.8351 9.907 17.559 9.907Z" fill="white"/>
<path id="Vector_5" d="M17.559 17.289H14.868C14.5919 17.289 14.368 17.5129 14.368 17.789V20.48C14.368 20.7561 14.5919 20.98 14.868 20.98H17.559C17.8351 20.98 18.059 20.7561 18.059 20.48V17.789C18.059 17.5129 17.8351 17.289 17.559 17.289Z" fill="white"/>
<path id="Vector_6" d="M16.214 11.752H15.142C14.4602 11.7519 13.789 11.9203 13.1881 12.2424C12.5872 12.5645 12.0753 13.0302 11.698 13.598L11.088 14.516C10.703 15.095 10.054 15.443 9.358 15.443C10.054 15.443 10.703 15.792 11.088 16.371L11.698 17.289C12.0754 17.8566 12.5874 18.3221 13.1883 18.644C13.7892 18.9659 14.4603 19.1343 15.142 19.134H16.214" stroke="white" stroke-opacity="0.697" stroke-width="1.5"/>
</g>
</g>
</svg>
