<svg width="200" height="200" viewBox="0 0 200 200" fill="none" xmlns="http://www.w3.org/2000/svg">
<g id="Deconstructed robot-rafiki 1">
<g id="freepik--Shadow--inject-122">
<path id="freepik--path--inject-122" d="M98.0716 169.484C140.905 169.484 175.628 167.456 175.628 164.956C175.628 162.455 140.905 160.428 98.0716 160.428C55.2386 160.428 20.5156 162.455 20.5156 164.956C20.5156 167.456 55.2386 169.484 98.0716 169.484Z" fill="#F5F5F5"/>
</g>
<g id="freepik--robot-arm-2--inject-122">
<path id="Vector" d="M148.433 105.515L150.159 108.746L151.444 108.06L149.718 104.829L148.433 105.515Z" fill="#263238"/>
<path id="Vector_2" d="M161.004 124.248H158.652V128.276H161.004V124.248Z" fill="#263238"/>
<path id="Vector_3" d="M156.008 155.668H151.044V158.404H156.008V155.668Z" fill="#263238"/>
<path id="Vector_4" d="M166.22 164.636H140.832L141.416 161.812C141.672 160.582 142.344 159.478 143.319 158.686C144.294 157.893 145.512 157.46 146.768 157.46H160.28C161.537 157.459 162.755 157.892 163.73 158.685C164.704 159.477 165.376 160.582 165.632 161.812L166.22 164.636Z" fill="#263238"/>
<path id="Vector_5" opacity="0.4" d="M166.22 164.636H140.832L141.416 161.812C141.672 160.582 142.344 159.478 143.319 158.686C144.294 157.893 145.512 157.46 146.768 157.46H160.28C161.537 157.459 162.755 157.892 163.73 158.685C164.704 159.477 165.376 160.582 165.632 161.812L166.22 164.636Z" fill="white"/>
<path id="Vector_6" d="M153.428 156.352L150.844 155.62C150.35 155.48 149.89 155.24 149.492 154.915C149.094 154.59 148.766 154.188 148.529 153.732C148.293 153.276 148.152 152.776 148.115 152.264C148.078 151.751 148.147 151.237 148.316 150.752L155.832 129.224C156.147 128.314 156.797 127.558 157.65 127.112C158.503 126.666 159.494 126.563 160.42 126.824C161.345 127.087 162.134 127.693 162.626 128.518C163.118 129.343 163.277 130.326 163.068 131.264L158.14 153.528C158.031 154.031 157.82 154.506 157.52 154.924C157.22 155.342 156.837 155.695 156.395 155.959C155.954 156.224 155.463 156.395 154.953 156.463C154.442 156.53 153.924 156.493 153.428 156.352Z" fill="#315CEC"/>
<path id="Vector_7" d="M159.32 125.772L161.112 124.888C161.32 124.785 161.506 124.641 161.656 124.464C161.807 124.287 161.92 124.081 161.988 123.859C162.056 123.637 162.078 123.403 162.053 123.172C162.027 122.941 161.955 122.718 161.84 122.516L153.14 107.16C152.925 106.781 152.574 106.498 152.157 106.369C151.741 106.24 151.291 106.276 150.9 106.468C150.512 106.665 150.214 107.001 150.065 107.41C149.916 107.819 149.929 108.268 150.1 108.668L157.004 124.912C157.095 125.124 157.229 125.316 157.396 125.475C157.563 125.634 157.761 125.757 157.978 125.837C158.194 125.918 158.425 125.953 158.655 125.942C158.886 125.931 159.112 125.873 159.32 125.772Z" fill="#315CEC"/>
<path id="Vector_8" opacity="0.3" d="M159.32 125.772L161.112 124.888C161.32 124.785 161.506 124.641 161.656 124.464C161.807 124.287 161.92 124.081 161.988 123.859C162.056 123.637 162.078 123.403 162.053 123.172C162.027 122.941 161.955 122.718 161.84 122.516L153.14 107.16C152.925 106.781 152.574 106.498 152.157 106.369C151.741 106.24 151.291 106.276 150.9 106.468C150.512 106.665 150.214 107.001 150.065 107.41C149.916 107.819 149.929 108.268 150.1 108.668L157.004 124.912C157.095 125.124 157.229 125.316 157.396 125.475C157.563 125.634 157.761 125.757 157.978 125.837C158.194 125.918 158.425 125.953 158.655 125.942C158.886 125.931 159.112 125.873 159.32 125.772Z" fill="white"/>
<path id="Vector_9" d="M149.5 106.34L150.724 105.22C150.798 105.152 150.856 105.071 150.897 104.98C150.938 104.889 150.96 104.79 150.962 104.69C150.964 104.591 150.946 104.491 150.908 104.399C150.871 104.306 150.815 104.223 150.744 104.152L137.692 91.1241C137.557 90.9894 137.375 90.9121 137.184 90.9083C136.993 90.9046 136.809 90.9748 136.668 91.1041C136.529 91.2333 136.444 91.4109 136.431 91.6006C136.419 91.7903 136.479 91.9776 136.6 92.1241L148.436 106.268C148.5 106.345 148.579 106.408 148.667 106.453C148.756 106.499 148.853 106.526 148.953 106.532C149.052 106.539 149.152 106.525 149.246 106.492C149.34 106.459 149.427 106.408 149.5 106.34Z" fill="#315CEC"/>
<path id="Vector_10" opacity="0.5" d="M149.5 106.34L150.724 105.22C150.798 105.152 150.856 105.071 150.897 104.98C150.938 104.889 150.96 104.79 150.962 104.69C150.964 104.591 150.946 104.491 150.908 104.399C150.871 104.306 150.815 104.223 150.744 104.152L137.692 91.1241C137.557 90.9894 137.375 90.9121 137.184 90.9083C136.993 90.9046 136.809 90.9748 136.668 91.1041C136.529 91.2333 136.444 91.4109 136.431 91.6006C136.419 91.7903 136.479 91.9776 136.6 92.1241L148.436 106.268C148.5 106.345 148.579 106.408 148.667 106.453C148.756 106.499 148.853 106.526 148.953 106.532C149.052 106.539 149.152 106.525 149.246 106.492C149.34 106.459 149.427 106.408 149.5 106.34Z" fill="white"/>
<path id="Vector_11" d="M135.912 90.8842C135.814 90.5549 135.606 90.2692 135.323 90.0748C135.04 89.8804 134.699 89.7891 134.356 89.8162L132.244 89.9722L131.528 90.2042L129.752 91.4642C129.687 91.5092 129.633 91.5675 129.593 91.6351C129.552 91.7028 129.526 91.7782 129.517 91.8565C129.508 91.9348 129.516 92.0142 129.54 92.0893C129.564 92.1644 129.603 92.2336 129.656 92.2922L132.056 91.2762L132.524 91.1362L134.444 91.0002C134.516 90.9951 134.588 91.0145 134.647 91.0551C134.707 91.0958 134.751 91.1554 134.772 91.2242C134.792 91.2937 134.788 91.3679 134.76 91.4347C134.733 91.5015 134.683 91.557 134.62 91.5922L132.944 92.5362L132.476 92.6762L129.912 93.1522C129.901 93.2298 129.906 93.3089 129.928 93.3842C129.949 93.4596 129.987 93.5295 130.037 93.5893C130.088 93.6491 130.151 93.6974 130.222 93.731C130.293 93.7646 130.37 93.7827 130.448 93.7842L132.756 93.8402L133.472 93.6082L135.208 92.6322C135.507 92.4646 135.74 92.2 135.868 91.8821C135.996 91.5642 136.011 91.2122 135.912 90.8842Z" fill="#263238"/>
<g id="Group" opacity="0.7">
<path id="Vector_12" d="M154.8 150.348C154.537 150.084 154.211 149.893 153.852 149.792C153.485 149.688 153.097 149.681 152.727 149.773C152.357 149.865 152.017 150.052 151.741 150.315C151.466 150.579 151.264 150.91 151.155 151.276C151.047 151.642 151.036 152.029 151.124 152.4L154.8 150.348Z" fill="white"/>
<path id="Vector_13" d="M151.696 153.441C152.033 153.777 152.47 153.994 152.941 154.059C153.412 154.125 153.891 154.035 154.307 153.803C154.722 153.572 155.051 153.211 155.243 152.776C155.436 152.341 155.481 151.856 155.372 151.393L151.696 153.441Z" fill="white"/>
</g>
<g id="Group_2" opacity="0.7">
<path id="Vector_14" d="M157.6 122.68C157.613 122.42 157.694 122.169 157.836 121.95C157.977 121.732 158.173 121.555 158.404 121.436C158.635 121.317 158.894 121.262 159.153 121.274C159.413 121.287 159.665 121.367 159.884 121.508C160.099 121.643 160.276 121.832 160.396 122.056L157.6 122.68Z" fill="white"/>
<path id="Vector_15" d="M160.579 122.848C160.566 123.107 160.484 123.359 160.343 123.577C160.202 123.795 160.006 123.973 159.775 124.091C159.543 124.21 159.285 124.266 159.025 124.253C158.766 124.241 158.514 124.16 158.295 124.02C158.08 123.885 157.903 123.696 157.783 123.472L160.579 122.848Z" fill="white"/>
</g>
<g id="Group_3" opacity="0.7">
<path id="Vector_16" d="M148.772 103.505C148.92 103.465 149.076 103.465 149.224 103.505C149.375 103.544 149.513 103.621 149.624 103.73C149.735 103.839 149.816 103.975 149.858 104.124C149.901 104.274 149.903 104.432 149.866 104.583C149.828 104.734 149.752 104.872 149.644 104.985L148.772 103.505Z" fill="white"/>
<path id="Vector_17" d="M149.224 105.232C149.074 105.271 148.916 105.271 148.766 105.23C148.615 105.189 148.479 105.11 148.369 105C148.259 104.89 148.179 104.753 148.139 104.603C148.098 104.453 148.097 104.295 148.136 104.144C148.172 103.994 148.246 103.856 148.352 103.744L149.224 105.232Z" fill="white"/>
</g>
</g>
<g id="freepik--robot-arm-1--inject-122">
<path id="Vector_18" d="M39.9981 88.1784L36.4697 91.1855L37.6658 92.589L41.1942 89.5818L39.9981 88.1784Z" fill="#263238"/>
<path id="Vector_19" d="M50.0159 112.404H47.0479V117.488H50.0159V112.404Z" fill="#263238"/>
<path id="Vector_20" d="M52.1556 153.188H45.8916V156.64H52.1556V153.188Z" fill="#263238"/>
<path id="Vector_21" d="M65.0479 164.508H33.0039L33.7439 160.944C34.0667 159.391 34.9147 157.997 36.1452 156.996C37.3758 155.995 38.9136 155.448 40.4999 155.448H57.5519C59.1382 155.448 60.676 155.995 61.9066 156.996C63.1371 157.997 63.9851 159.391 64.3079 160.944L65.0479 164.508Z" fill="#263238"/>
<path id="Vector_22" opacity="0.4" d="M65.0479 164.508H33.0039L33.7439 160.944C34.0667 159.391 34.9147 157.997 36.1452 156.996C37.3758 155.995 38.9136 155.448 40.4999 155.448H57.5519C59.1382 155.448 60.676 155.995 61.9066 156.996C63.1371 157.997 63.9851 159.391 64.3079 160.944L65.0479 164.508Z" fill="white"/>
<path id="Vector_23" d="M50.4354 153.944H47.0394C46.3911 153.944 45.7497 153.811 45.1545 153.553C44.5594 153.296 44.0231 152.92 43.5785 152.448C43.1339 151.976 42.7904 151.418 42.5691 150.809C42.3478 150.2 42.2533 149.551 42.2914 148.904L43.9994 120.176C44.0709 118.965 44.6022 117.828 45.4848 116.996C46.3674 116.164 47.5345 115.7 48.7474 115.7C49.9607 115.699 51.1283 116.162 52.0111 116.994C52.8939 117.827 53.425 118.965 53.4954 120.176L55.1994 148.904C55.2377 149.553 55.1427 150.202 54.9204 150.813C54.6981 151.423 54.3532 151.982 53.9069 152.454C53.4606 152.926 52.9224 153.302 52.3253 153.558C51.7283 153.815 51.0851 153.946 50.4354 153.944Z" fill="#315CEC"/>
<path id="Vector_24" d="M51.0158 113.04L48.8598 114.348C48.6094 114.501 48.3304 114.601 48.0401 114.642C47.7497 114.683 47.454 114.664 47.1712 114.586C46.8884 114.509 46.6244 114.374 46.3955 114.191C46.1665 114.008 45.9774 113.779 45.8398 113.52L35.3678 93.8565C35.1114 93.3683 35.0514 92.8005 35.2002 92.2695C35.3489 91.7385 35.6951 91.2844 36.1678 91.0005C36.6381 90.7156 37.1994 90.6211 37.7369 90.7364C38.2745 90.8516 38.7477 91.1679 39.0598 91.6205L51.6878 109.976C51.8528 110.219 51.9666 110.493 52.0221 110.781C52.0777 111.07 52.0739 111.366 52.011 111.653C51.9481 111.94 51.8275 112.211 51.6563 112.449C51.4852 112.688 51.2673 112.889 51.0158 113.04Z" fill="#315CEC"/>
<path id="Vector_25" opacity="0.3" d="M51.0158 113.04L48.8598 114.348C48.6094 114.501 48.3304 114.601 48.0401 114.642C47.7497 114.683 47.454 114.664 47.1712 114.586C46.8884 114.509 46.6244 114.374 46.3955 114.191C46.1665 114.008 45.9774 113.779 45.8398 113.52L35.3678 93.8565C35.1114 93.3683 35.0514 92.8005 35.2002 92.2695C35.3489 91.7385 35.6951 91.2844 36.1678 91.0005C36.6381 90.7156 37.1994 90.6211 37.7369 90.7364C38.2745 90.8516 38.7477 91.1679 39.0598 91.6205L51.6878 109.976C51.8528 110.219 51.9666 110.493 52.0221 110.781C52.0777 111.07 52.0739 111.366 52.011 111.653C51.9481 111.94 51.8275 112.211 51.6563 112.449C51.4852 112.688 51.2673 112.889 51.0158 113.04Z" fill="white"/>
<path id="Vector_26" d="M39.8236 91.0567L38.6836 89.3047C38.6156 89.1987 38.5696 89.0802 38.5484 88.956C38.5273 88.8319 38.5314 88.7048 38.5606 88.5823C38.5897 88.4598 38.6432 88.3445 38.718 88.2432C38.7927 88.1418 38.8872 88.0566 38.9956 87.9927L59.0796 76.2247C59.2869 76.1034 59.533 76.0665 59.7668 76.1216C60.0005 76.1767 60.2042 76.3196 60.3356 76.5207C60.4659 76.7225 60.5137 76.9666 60.4691 77.2026C60.4244 77.4387 60.2907 77.6485 60.0956 77.7887L41.1476 91.3087C41.0453 91.3824 40.929 91.4346 40.8059 91.4619C40.6827 91.4892 40.5553 91.4911 40.4314 91.4675C40.3075 91.444 40.1897 91.3954 40.0852 91.3247C39.9807 91.2541 39.8917 91.1629 39.8236 91.0567Z" fill="#315CEC"/>
<path id="Vector_27" opacity="0.5" d="M39.8236 91.0567L38.6836 89.3047C38.6156 89.1987 38.5696 89.0802 38.5484 88.956C38.5273 88.8319 38.5314 88.7048 38.5606 88.5823C38.5897 88.4598 38.6432 88.3445 38.718 88.2432C38.7927 88.1418 38.8872 88.0566 38.9956 87.9927L59.0796 76.2247C59.2869 76.1034 59.533 76.0665 59.7668 76.1216C60.0005 76.1767 60.2042 76.3196 60.3356 76.5207C60.4659 76.7225 60.5137 76.9666 60.4691 77.2026C60.4244 77.4387 60.2907 77.6485 60.0956 77.7887L41.1476 91.3087C41.0453 91.3824 40.929 91.4346 40.8059 91.4619C40.6827 91.4892 40.5553 91.4911 40.4314 91.4675C40.3075 91.444 40.1897 91.3954 40.0852 91.3247C39.9807 91.2541 39.8917 91.1629 39.8236 91.0567Z" fill="white"/>
<path id="Vector_28" d="M60.7999 75.9242C60.8008 75.4907 60.9495 75.0706 61.2215 74.7331C61.4935 74.3956 61.8726 74.1611 62.2959 74.0682L64.9079 73.4922H65.8559L68.4599 74.3722C68.5545 74.4036 68.6413 74.4545 68.7148 74.5218C68.7882 74.589 68.8467 74.6709 68.8863 74.7623C68.926 74.8537 68.9459 74.9524 68.9448 75.0519C68.9437 75.1515 68.9216 75.2497 68.8799 75.3402L65.6079 74.9802H64.9919L62.6199 75.5122C62.5297 75.5325 62.4493 75.5835 62.3924 75.6564C62.3355 75.7293 62.3057 75.8197 62.3079 75.9122C62.3057 76.0047 62.3355 76.095 62.3924 76.168C62.4493 76.2409 62.5297 76.2919 62.6199 76.3122L64.9919 76.8442H65.5999L68.8719 76.4882C68.9135 76.5781 68.9356 76.6758 68.9366 76.7748C68.9376 76.8738 68.9176 76.972 68.878 77.0627C68.8383 77.1534 68.7798 77.2347 68.7063 77.3012C68.6329 77.3676 68.5462 77.4177 68.4519 77.4482L65.6839 78.3522H64.7359L62.2799 77.8002C61.8558 77.7041 61.4775 77.4654 61.2081 77.124C60.9388 76.7825 60.7947 76.359 60.7999 75.9242Z" fill="#263238"/>
<g id="Group_4" opacity="0.7">
<path id="Vector_29" d="M49.9996 146.184C49.475 145.891 48.8689 145.777 48.2735 145.859C47.6782 145.942 47.126 146.216 46.701 146.641C46.2759 147.066 46.0013 147.619 45.9187 148.214C45.8362 148.809 45.9503 149.415 46.2436 149.94L49.9996 146.184Z" fill="white"/>
<path id="Vector_30" d="M47.3232 151.004C47.7428 151.237 48.216 151.357 48.6962 151.352C49.1764 151.347 49.647 151.217 50.0616 150.975C50.4762 150.733 50.8206 150.387 51.0607 149.971C51.3009 149.555 51.4286 149.084 51.4312 148.604C51.4315 148.133 51.3103 147.67 51.0792 147.26L47.3232 151.004Z" fill="white"/>
</g>
<g id="Group_5" opacity="0.7">
<path id="Vector_31" d="M48.8801 109.12C48.5935 108.961 48.2702 108.879 47.9423 108.883C47.6143 108.887 47.293 108.976 47.0102 109.142C46.7274 109.308 46.4928 109.545 46.3297 109.83C46.1665 110.114 46.0805 110.437 46.0801 110.764C46.0785 111.084 46.1598 111.398 46.3161 111.676L48.8801 109.12Z" fill="white"/>
<path id="Vector_32" d="M47.0479 112.401C47.3275 112.558 47.6432 112.639 47.9639 112.637C48.4614 112.637 48.9386 112.439 49.2904 112.087C49.6422 111.735 49.8398 111.258 49.8398 110.761C49.842 110.44 49.7607 110.124 49.6039 109.845L47.0479 112.401Z" fill="white"/>
</g>
<g id="Group_6" opacity="0.7">
<path id="Vector_33" d="M41.5995 87.8238C41.4291 87.7304 41.2374 87.6828 41.0431 87.6857C40.8487 87.6885 40.6585 87.7417 40.4908 87.84C40.3232 87.9383 40.1839 88.0784 40.0866 88.2467C39.9893 88.4149 39.9372 88.6055 39.9355 88.7998C39.9358 88.9925 39.9839 89.1822 40.0755 89.3518L41.5995 87.8238Z" fill="white"/>
<path id="Vector_34" d="M40.5117 89.7918C40.6831 89.8884 40.8768 89.9383 41.0736 89.9366C41.2703 89.9349 41.4632 89.8816 41.6328 89.7819C41.8025 89.6823 41.943 89.5399 42.0404 89.369C42.1378 89.198 42.1886 89.0045 42.1877 88.8078C42.1875 88.6163 42.1394 88.4279 42.0477 88.2598L40.5117 89.7918Z" fill="white"/>
</g>
</g>
<g id="freepik--Robot--inject-122">
<path id="Vector_35" d="M89.24 60.8008L88.544 61.5288C87.8954 62.2058 87.3917 63.0079 87.0637 63.8862C86.7356 64.7644 86.5901 65.7004 86.636 66.6368C86.636 66.6368 86.672 67.4968 86.692 67.7848C86.892 70.5848 87.72 78.9848 87.72 78.9848C87.72 78.9848 86.12 80.8808 86.492 93.7848L84.652 95.3488C84.4949 95.4811 84.3798 95.6565 84.3208 95.8533C84.2618 96.0501 84.2616 96.2598 84.32 96.4568L84.58 97.3408C84.5885 97.3629 84.5952 97.3856 84.6 97.4088L84.816 98.3888C84.8485 98.5321 84.9103 98.6672 84.9976 98.7854C85.0849 98.9037 85.1957 99.0025 85.3231 99.0758C85.4505 99.1491 85.5917 99.1952 85.7378 99.2112C85.8839 99.2272 86.0318 99.2128 86.172 99.1688L88.28 98.5088C88.479 98.4457 88.6551 98.3257 88.7866 98.1636C88.9181 98.0015 88.9993 97.8045 89.02 97.5968L88.924 94.2968L91.324 79.3768C91.324 79.3768 93.272 63.1608 89.24 60.8008Z" fill="#315CEC"/>
<path id="Vector_36" opacity="0.2" d="M89.24 60.8008L88.544 61.5288C87.8954 62.2058 87.3917 63.0079 87.0637 63.8862C86.7356 64.7644 86.5901 65.7004 86.636 66.6368C86.636 66.6368 86.672 67.4968 86.692 67.7848C86.892 70.5848 87.72 78.9848 87.72 78.9848C87.72 78.9848 86.12 80.8808 86.492 93.7848L84.652 95.3488C84.4949 95.4811 84.3798 95.6565 84.3208 95.8533C84.2618 96.0501 84.2616 96.2598 84.32 96.4568L84.58 97.3408C84.5885 97.3629 84.5952 97.3856 84.6 97.4088L84.816 98.3888C84.8485 98.5321 84.9103 98.6672 84.9976 98.7854C85.0849 98.9037 85.1957 99.0025 85.3231 99.0758C85.4505 99.1491 85.5917 99.1952 85.7378 99.2112C85.8839 99.2272 86.0318 99.2128 86.172 99.1688L88.28 98.5088C88.479 98.4457 88.6551 98.3257 88.7866 98.1636C88.9181 98.0015 88.9993 97.8045 89.02 97.5968L88.924 94.2968L91.324 79.3768C91.324 79.3768 93.272 63.1608 89.24 60.8008Z" fill="black"/>
<path id="Vector_37" d="M87.6206 90.9403L86.9246 96.6003C86.9246 96.6003 86.7646 115.8 86.4246 122.2C85.9646 130.82 83.4246 156.6 83.4246 156.6C83.4246 156.6 81.6446 161 80.4966 162.028C79.8966 162.568 78.3886 163.172 77.0566 163.628C76.9425 163.666 76.8451 163.743 76.781 163.845C76.717 163.946 76.6902 164.067 76.7053 164.187C76.7204 164.306 76.7764 164.417 76.8638 164.499C76.9512 164.582 77.0646 164.632 77.1846 164.64C79.1406 164.792 81.6926 164.896 82.8246 164.552C83.9566 164.208 86.2646 162.58 87.7646 161.472C88.1513 161.187 88.4206 160.77 88.5222 160.3C88.6238 159.831 88.5507 159.34 88.3166 158.92L87.0246 156.596C87.0246 156.596 93.4246 136.24 94.0246 129.196C94.1726 127.396 93.4246 121.996 93.4246 121.996L100.297 102.72C100.297 102.72 104.649 97.0483 99.7766 88.6562L88.3606 89.6003L87.6206 90.9403Z" fill="#315CEC"/>
<path id="Vector_38" opacity="0.2" d="M87.6206 90.9403L86.9246 96.6003C86.9246 96.6003 86.7646 115.8 86.4246 122.2C85.9646 130.82 83.4246 156.6 83.4246 156.6C83.4246 156.6 81.6446 161 80.4966 162.028C79.8966 162.568 78.3886 163.172 77.0566 163.628C76.9425 163.666 76.8451 163.743 76.781 163.845C76.717 163.946 76.6902 164.067 76.7053 164.187C76.7204 164.306 76.7764 164.417 76.8638 164.499C76.9512 164.582 77.0646 164.632 77.1846 164.64C79.1406 164.792 81.6926 164.896 82.8246 164.552C83.9566 164.208 86.2646 162.58 87.7646 161.472C88.1513 161.187 88.4206 160.77 88.5222 160.3C88.6238 159.831 88.5507 159.34 88.3166 158.92L87.0246 156.596C87.0246 156.596 93.4246 136.24 94.0246 129.196C94.1726 127.396 93.4246 121.996 93.4246 121.996L100.297 102.72C100.297 102.72 104.649 97.0483 99.7766 88.6562L88.3606 89.6003L87.6206 90.9403Z" fill="white"/>
<path id="Vector_39" opacity="0.7" d="M91.8926 123C92.3543 123 92.7286 122.422 92.7286 121.708C92.7286 120.994 92.3543 120.416 91.8926 120.416C91.4309 120.416 91.0566 120.994 91.0566 121.708C91.0566 122.422 91.4309 123 91.8926 123Z" fill="white"/>
<path id="Vector_40" opacity="0.4" d="M91.86 119C90.736 119 89.808 120.144 89.696 121.612H86.452C86.452 121.816 86.452 122.012 86.424 122.2H87.556L84.4 156.296H83.444C83.444 156.492 83.416 156.596 83.416 156.596C83.416 156.596 83.368 156.708 83.292 156.896H87.2L87.036 156.6L87.128 156.296H85.024L88.168 122.212H90.296V121.912C90.296 120.636 91 119.6 91.872 119.6C92.608 119.6 93.256 120.368 93.412 121.428L93.448 121.684H93.548L93.868 120.78C93.524 119.724 92.744 119 91.86 119Z" fill="white"/>
<path id="Vector_41" opacity="0.4" d="M83.6003 164.217C83.7963 164.117 84.0003 164.005 84.2163 163.877C84.2334 163.567 84.1302 163.264 83.9283 163.029C83.1963 162.197 81.2483 162.145 80.2883 162.177C79.9309 162.422 79.5504 162.632 79.1523 162.805H79.7843C80.5843 162.737 82.8523 162.713 83.4763 163.425C83.5432 163.503 83.5895 163.596 83.6111 163.697C83.6328 163.798 83.6291 163.902 83.6003 164.001V164.217Z" fill="white"/>
<g id="Group_7" opacity="0.7">
<path id="Vector_42" d="M87.0041 158.289C86.9358 158.153 86.8337 158.037 86.7075 157.952C86.5814 157.868 86.4356 157.817 86.2841 157.805C85.7321 157.805 85.2881 158.493 85.2881 159.345C85.2879 159.542 85.3134 159.738 85.3641 159.929L87.0041 158.289Z" fill="white"/>
<path id="Vector_43" d="M85.6357 160.504C85.7064 160.614 85.8018 160.705 85.9144 160.772C86.027 160.838 86.1535 160.876 86.2837 160.884C86.8317 160.884 87.2757 160.196 87.2757 159.344C87.2736 159.198 87.2589 159.052 87.2317 158.908L85.6357 160.504Z" fill="white"/>
</g>
<path id="Vector_44" d="M105.917 89.3526L104.473 87.6006L91.3525 90.5606C91.5972 91.0272 91.8135 91.5081 92.0005 92.0006C92.3045 93.1206 92.1645 95.5046 92.5285 96.6046C92.9285 97.8046 95.2285 100.805 95.2285 100.805L102.977 157.029C102.977 157.029 101.297 162.465 100.029 163.805C99.5394 164.217 98.9905 164.553 98.4005 164.801C98.28 164.866 98.1835 164.968 98.1253 165.092C98.067 165.216 98.0501 165.355 98.0769 165.489C98.1038 165.624 98.173 165.746 98.2745 165.838C98.3759 165.93 98.5043 165.987 98.6405 166.001C99.9965 166.065 101.509 166.061 102.221 165.789C103.525 165.289 105.933 162.829 107.197 161.473C107.443 161.209 107.605 160.878 107.664 160.522C107.722 160.166 107.674 159.801 107.525 159.473L106.325 156.789C106.325 156.789 108.893 136.053 108.025 129.189C107.765 127.145 105.773 121.389 105.773 121.389C105.773 121.389 106.249 111.389 106.673 105.789C106.76 104.583 106.973 103.39 107.309 102.229C108.001 99.8246 109.021 94.4006 105.917 89.3526Z" fill="#315CEC"/>
<path id="Vector_45" opacity="0.4" d="M105.917 89.3526L104.473 87.6006L91.3525 90.5606C91.5972 91.0272 91.8135 91.5081 92.0005 92.0006C92.3045 93.1206 92.1645 95.5046 92.5285 96.6046C92.9285 97.8046 95.2285 100.805 95.2285 100.805L102.977 157.029C102.977 157.029 101.297 162.465 100.029 163.805C99.5394 164.217 98.9905 164.553 98.4005 164.801C98.28 164.866 98.1835 164.968 98.1253 165.092C98.067 165.216 98.0501 165.355 98.0769 165.489C98.1038 165.624 98.173 165.746 98.2745 165.838C98.3759 165.93 98.5043 165.987 98.6405 166.001C99.9965 166.065 101.509 166.061 102.221 165.789C103.525 165.289 105.933 162.829 107.197 161.473C107.443 161.209 107.605 160.878 107.664 160.522C107.722 160.166 107.674 159.801 107.525 159.473L106.325 156.789C106.325 156.789 108.893 136.053 108.025 129.189C107.765 127.145 105.773 121.389 105.773 121.389C105.773 121.389 106.249 111.389 106.673 105.789C106.76 104.583 106.973 103.39 107.309 102.229C108.001 99.8246 109.021 94.4006 105.917 89.3526Z" fill="white"/>
<path id="Vector_46" d="M108.025 129.201C107.789 127.357 106.145 122.489 105.825 121.557H105.677C105.597 123.157 104.737 124.412 103.677 124.412C102.617 124.412 101.677 123.025 101.677 121.312H99.7686L104.197 157.024L106.349 156.876C106.349 156.876 108.893 136.064 108.025 129.201Z" fill="#263238"/>
<path id="Vector_47" opacity="0.4" d="M108.025 129.201C107.789 127.357 106.145 122.489 105.825 121.557H105.677C105.597 123.157 104.737 124.412 103.677 124.412C102.617 124.412 101.677 123.025 101.677 121.312H99.7686L104.197 157.024L106.349 156.876C106.349 156.876 108.893 136.064 108.025 129.201Z" fill="white"/>
<path id="Vector_48" d="M103.688 124.412C104.793 124.412 105.688 123.024 105.688 121.312C105.688 119.6 104.793 118.212 103.688 118.212C102.584 118.212 101.688 119.6 101.688 121.312C101.688 123.024 102.584 124.412 103.688 124.412Z" fill="#263238"/>
<path id="Vector_49" opacity="0.3" d="M103.688 124.412C104.793 124.412 105.688 123.024 105.688 121.312C105.688 119.6 104.793 118.212 103.688 118.212C102.584 118.212 101.688 119.6 101.688 121.312C101.688 123.024 102.584 124.412 103.688 124.412Z" fill="white"/>
<path id="Vector_50" d="M104.284 99.3088C105.746 99.3088 106.932 97.4696 106.932 95.2008C106.932 92.932 105.746 91.0928 104.284 91.0928C102.821 91.0928 101.636 92.932 101.636 95.2008C101.636 97.4696 102.821 99.3088 104.284 99.3088Z" fill="#263238"/>
<path id="Vector_51" opacity="0.3" d="M104.284 99.3088C105.746 99.3088 106.932 97.4696 106.932 95.2008C106.932 92.932 105.746 91.0928 104.284 91.0928C102.821 91.0928 101.636 92.932 101.636 95.2008C101.636 97.4696 102.821 99.3088 104.284 99.3088Z" fill="white"/>
<path id="Vector_52" d="M106.02 160.885C106.568 160.885 107.012 160.195 107.012 159.345C107.012 158.494 106.568 157.805 106.02 157.805C105.472 157.805 105.028 158.494 105.028 159.345C105.028 160.195 105.472 160.885 106.02 160.885Z" fill="#263238"/>
<path id="Vector_53" opacity="0.5" d="M106.02 160.885C106.568 160.885 107.012 160.195 107.012 159.345C107.012 158.494 106.568 157.805 106.02 157.805C105.472 157.805 105.028 158.494 105.028 159.345C105.028 160.195 105.472 160.885 106.02 160.885Z" fill="white"/>
<path id="Vector_54" opacity="0.4" d="M103.309 118.269C102.385 118.545 101.685 119.801 101.685 121.313C101.685 122.825 102.385 124.081 103.309 124.357C104.233 124.081 104.929 122.825 104.929 121.313C104.929 119.801 104.233 118.545 103.309 118.269Z" fill="white"/>
<path id="Vector_55" opacity="0.4" d="M103.884 91.1445C102.612 91.4445 101.636 93.1445 101.636 95.2005C101.636 97.2565 102.612 98.9565 103.884 99.2565C105.156 98.9565 106.136 97.2565 106.136 95.2005C106.136 93.1445 105.156 91.4445 103.884 91.1445Z" fill="white"/>
<path id="Vector_56" d="M106.021 161.201C105.293 161.201 104.725 160.401 104.725 159.361C104.725 158.321 105.293 157.521 106.021 157.521C106.749 157.521 107.313 158.321 107.313 159.361C107.313 160.401 106.745 161.201 106.021 161.201ZM106.021 158.121C105.693 158.121 105.325 158.629 105.325 159.361C105.325 160.093 105.693 160.601 106.021 160.601C106.349 160.601 106.713 160.093 106.713 159.361C106.713 158.629 106.349 158.105 106.021 158.105V158.121Z" fill="#315CEC"/>
<path id="Vector_57" d="M104.48 164.188C104.435 163.923 104.292 163.685 104.08 163.52C103.208 162.852 101.204 163.216 100.34 163.416C100.25 163.557 100.15 163.691 100.04 163.816C99.9268 163.927 99.8036 164.028 99.6719 164.116H100.04H100.116C101.176 163.828 103.092 163.548 103.716 164.024C103.783 164.074 103.837 164.139 103.872 164.214C103.908 164.29 103.924 164.373 103.92 164.456V164.712L104.48 164.188Z" fill="#315CEC"/>
<path id="Vector_58" d="M100.116 121.601H101.396C101.496 123.361 102.464 124.701 103.684 124.701C104.836 124.701 105.76 123.501 105.948 121.901L105.772 121.381L105.836 120.061C105.544 118.917 104.848 118.089 103.996 117.925L104.576 99.5646C106.064 99.3446 107.236 97.4606 107.236 95.1646C107.236 92.7326 105.912 90.7646 104.284 90.7646C102.656 90.7646 101.388 92.6646 101.34 95.0326L101.368 95.8006C101.56 97.8006 102.632 99.3446 103.976 99.5526L103.396 117.913C102.312 118.109 101.488 119.369 101.396 120.985H98.0518V121.285L98.0918 121.585H99.5118L103.856 156.633L102.928 156.681L102.952 156.853L102.972 156.997V157.045V157.069C102.963 157.092 102.955 157.116 102.948 157.141C102.948 157.169 102.928 157.205 102.912 157.245L106.512 157.065L106.464 156.953L106.364 156.733C106.364 156.733 106.364 156.685 106.364 156.593C106.364 156.501 106.364 156.517 106.364 156.469L104.464 156.565L100.116 121.601ZM101.936 95.2006C101.936 93.1006 102.988 91.3926 104.284 91.3926C105.58 91.3926 106.636 93.1006 106.636 95.2006C106.636 97.3006 105.58 99.0046 104.284 99.0046C102.988 99.0046 101.936 97.3006 101.936 95.2006ZM103.684 118.513C104.608 118.513 105.384 119.797 105.384 121.313C105.384 122.829 104.608 124.113 103.684 124.113C102.76 124.113 101.984 122.833 101.984 121.313C101.984 119.793 102.764 118.513 103.684 118.513Z" fill="#315CEC"/>
<path id="Vector_59" opacity="0.7" d="M103.688 121.312C103.688 122 103.328 122.552 102.888 122.552C102.448 122.552 102.088 122 102.088 121.312C102.088 120.624 102.448 120.072 102.888 120.072C103.328 120.072 103.688 120.628 103.688 121.312Z" fill="white"/>
<path id="Vector_60" opacity="0.7" d="M104.712 95.1999C104.712 96.2479 104.16 97.0999 103.484 97.0999C102.808 97.0999 102.256 96.2479 102.256 95.1999C102.256 94.1519 102.808 93.2959 103.484 93.2959C104.16 93.2959 104.712 94.1479 104.712 95.1999Z" fill="white"/>
<path id="Vector_61" opacity="0.7" d="M106.02 159.345C106.02 159.689 105.84 159.965 105.62 159.965C105.4 159.965 105.22 159.689 105.22 159.345C105.22 159.001 105.396 158.725 105.62 158.725C105.844 158.725 106.02 159.001 106.02 159.345Z" fill="white"/>
<path id="Vector_62" d="M76.4842 91.0928H75.0602C73.5962 91.0928 72.4082 92.9288 72.4082 95.2008C72.4082 97.4728 73.6082 99.3048 75.0602 99.3048H76.4842C77.9482 99.3048 79.1322 97.4688 79.1322 95.2008C79.1322 92.9328 77.9482 91.0928 76.4842 91.0928Z" fill="#263238"/>
<path id="Vector_63" opacity="0.6" d="M76.4842 91.0928H75.0602C73.5962 91.0928 72.4082 92.9288 72.4082 95.2008C72.4082 97.4728 73.6082 99.3048 75.0602 99.3048H76.4842C77.9482 99.3048 79.1322 97.4688 79.1322 95.2008C79.1322 92.9328 77.9482 91.0928 76.4842 91.0928Z" fill="white"/>
<path id="Vector_64" opacity="0.2" d="M76.4839 99.3088C77.9464 99.3088 79.1319 97.4696 79.1319 95.2008C79.1319 92.932 77.9464 91.0928 76.4839 91.0928C75.0215 91.0928 73.8359 92.932 73.8359 95.2008C73.8359 97.4696 75.0215 99.3088 76.4839 99.3088Z" fill="black"/>
<path id="Vector_65" d="M78.6559 93.7168H77.1279C76.5999 93.7168 76.1719 94.3808 76.1719 95.2008C76.1719 96.0208 76.5999 96.6808 77.1279 96.6808H78.6559C79.1999 96.6808 79.5999 96.0008 79.5999 95.2008C79.5999 94.4008 79.1999 93.7168 78.6559 93.7168Z" fill="#263238"/>
<path id="Vector_66" opacity="0.6" d="M78.6559 93.7168H77.1279C76.5999 93.7168 76.1719 94.3808 76.1719 95.2008C76.1719 96.0208 76.5999 96.6808 77.1279 96.6808H78.6559C79.1999 96.6808 79.5999 96.0008 79.5999 95.2008C79.5999 94.4008 79.1999 93.7168 78.6559 93.7168Z" fill="white"/>
<path id="Vector_67" opacity="0.2" d="M79.6004 95.2008C79.6004 96.0008 79.1724 96.6808 78.6484 96.6808C78.1244 96.6808 77.6924 96.0168 77.6924 95.2008C77.6924 94.3848 78.1204 93.7168 78.6484 93.7168C79.1764 93.7168 79.6004 94.4008 79.6004 95.2008Z" fill="black"/>
<path id="Vector_68" d="M80.3483 94.54H78.8683C78.6363 94.54 78.4443 94.836 78.4443 95.2C78.4443 95.564 78.6363 95.856 78.8683 95.856H80.3483C80.5843 95.856 80.7723 95.56 80.7723 95.2C80.7723 94.84 80.5843 94.54 80.3483 94.54Z" fill="#263238"/>
<path id="Vector_69" opacity="0.6" d="M80.3483 94.54H78.8683C78.6363 94.54 78.4443 94.836 78.4443 95.2C78.4443 95.564 78.6363 95.856 78.8683 95.856H80.3483C80.5843 95.856 80.7723 95.56 80.7723 95.2C80.7723 94.84 80.5843 94.54 80.3483 94.54Z" fill="white"/>
<path id="Vector_70" opacity="0.2" d="M80.7718 95.2C80.7718 95.56 80.5838 95.856 80.3478 95.856C80.1118 95.856 79.9238 95.56 79.9238 95.2C79.9238 94.84 80.1158 94.54 80.3478 94.54C80.5798 94.54 80.7718 94.836 80.7718 95.2Z" fill="black"/>
<path id="Vector_71" d="M82.5245 118.801H81.6605C80.7725 118.801 80.0605 119.921 80.0605 121.297C80.0605 122.673 80.7805 123.793 81.6605 123.793H82.5245C83.4165 123.793 84.1245 122.677 84.1245 121.297C84.1245 119.917 83.4165 118.801 82.5245 118.801Z" fill="#263238"/>
<path id="Vector_72" opacity="0.6" d="M82.5245 118.801H81.6605C80.7725 118.801 80.0605 119.921 80.0605 121.297C80.0605 122.673 80.7805 123.793 81.6605 123.793H82.5245C83.4165 123.793 84.1245 122.677 84.1245 121.297C84.1245 119.917 83.4165 118.801 82.5245 118.801Z" fill="white"/>
<path id="Vector_73" opacity="0.2" d="M84.1365 121.312C84.1365 122.692 83.4165 123.808 82.5365 123.808C81.6565 123.808 80.9365 122.692 80.9365 121.312C80.9365 119.932 81.6565 118.816 82.5365 118.816C83.4165 118.816 84.1365 119.936 84.1365 121.312Z" fill="black"/>
<path id="Vector_74" d="M84.6439 120.4H82.9159C82.5959 120.4 82.3359 120.8 82.3359 121.3C82.3359 121.8 82.5959 122.2 82.9159 122.2H84.6439C84.9639 122.2 85.2239 121.8 85.2239 121.3C85.2239 120.8 84.9639 120.4 84.6439 120.4Z" fill="#263238"/>
<path id="Vector_75" opacity="0.6" d="M84.6439 120.4H82.9159C82.5959 120.4 82.3359 120.8 82.3359 121.3C82.3359 121.8 82.5959 122.2 82.9159 122.2H84.6439C84.9639 122.2 85.2239 121.8 85.2239 121.3C85.2239 120.8 84.9639 120.4 84.6439 120.4Z" fill="white"/>
<path id="Vector_76" opacity="0.2" d="M85.2245 121.312C85.2245 121.808 84.9645 122.212 84.6445 122.212C84.3245 122.212 84.0645 121.812 84.0645 121.312C84.0645 120.812 84.3245 120.412 84.6445 120.412C84.9645 120.412 85.2245 120.8 85.2245 121.312Z" fill="black"/>
<path id="Vector_77" d="M79.0206 59.9287H78.1566C77.2646 59.9287 76.5566 61.0487 76.5566 62.4247C76.5566 63.8007 77.2766 64.9207 78.1566 64.9207H79.0206C79.9086 64.9207 80.6206 63.8047 80.6206 62.4247C80.6206 61.0447 79.9086 59.9287 79.0206 59.9287Z" fill="#263238"/>
<path id="Vector_78" opacity="0.6" d="M79.0206 59.9287H78.1566C77.2646 59.9287 76.5566 61.0487 76.5566 62.4247C76.5566 63.8007 77.2766 64.9207 78.1566 64.9207H79.0206C79.9086 64.9207 80.6206 63.8047 80.6206 62.4247C80.6206 61.0447 79.9086 59.9287 79.0206 59.9287Z" fill="white"/>
<path id="Vector_79" opacity="0.2" d="M79.0202 64.9207C79.9105 64.9207 80.6322 63.8032 80.6322 62.4247C80.6322 61.0462 79.9105 59.9287 79.0202 59.9287C78.1299 59.9287 77.4082 61.0462 77.4082 62.4247C77.4082 63.8032 78.1299 64.9207 79.0202 64.9207Z" fill="black"/>
<path id="Vector_80" d="M81.14 61.5244H79.412C79.092 61.5244 78.832 61.9244 78.832 62.4244C78.832 62.9244 79.092 63.3244 79.412 63.3244H81.14C81.46 63.3244 81.72 62.9244 81.72 62.4244C81.72 61.9244 81.46 61.5244 81.14 61.5244Z" fill="#263238"/>
<path id="Vector_81" opacity="0.6" d="M81.14 61.5244H79.412C79.092 61.5244 78.832 61.9244 78.832 62.4244C78.832 62.9244 79.092 63.3244 79.412 63.3244H81.14C81.46 63.3244 81.72 62.9244 81.72 62.4244C81.72 61.9244 81.46 61.5244 81.14 61.5244Z" fill="white"/>
<path id="Vector_82" opacity="0.2" d="M81.1406 63.3244C81.4609 63.3244 81.7206 62.9215 81.7206 62.4244C81.7206 61.9274 81.4609 61.5244 81.1406 61.5244C80.8202 61.5244 80.5605 61.9274 80.5605 62.4244C80.5605 62.9215 80.8202 63.3244 81.1406 63.3244Z" fill="black"/>
<path id="Vector_83" d="M75.9646 95.2002L75.7926 96.6002C75.7926 96.6002 75.6366 115.248 75.3086 121.912H78.8526C78.8526 120.468 79.6926 119.3 80.7286 119.3L84.0926 100.8L75.9646 95.2002Z" fill="#315CEC"/>
<path id="Vector_84" opacity="0.2" d="M75.9646 95.2002L75.7926 96.6002C75.7926 96.6002 75.6366 115.248 75.3086 121.912H78.8526C78.8526 120.468 79.6926 119.3 80.7286 119.3L84.0926 100.8L75.9646 95.2002Z" fill="black"/>
<path id="Vector_85" opacity="0.7" d="M76.6566 95.6762L75.9646 95.2002L75.7926 96.6002C75.7926 96.6002 75.6366 115.248 75.3086 121.912H76.0566C76.3886 115.248 76.5446 96.6002 76.5446 96.6002L76.6566 95.6762Z" fill="white"/>
<path id="Vector_86" d="M112.077 158.772H110.553C110.349 158.772 110.185 159.028 110.185 159.344C110.185 159.66 110.349 159.916 110.553 159.916H112.077C112.281 159.916 112.445 159.66 112.445 159.344C112.445 159.028 112.281 158.772 112.077 158.772Z" fill="#263238"/>
<path id="Vector_87" opacity="0.3" d="M112.077 158.772H110.553C110.349 158.772 110.185 159.028 110.185 159.344C110.185 159.66 110.349 159.916 110.553 159.916H112.077C112.281 159.916 112.445 159.66 112.445 159.344C112.445 159.028 112.281 158.772 112.077 158.772Z" fill="white"/>
<path id="Vector_88" d="M113.136 157.805H112.604C112.056 157.805 111.612 158.493 111.612 159.345C111.612 160.197 112.056 160.885 112.604 160.885H113.136C113.688 160.885 114.132 160.197 114.132 159.345C114.132 158.493 113.688 157.805 113.136 157.805Z" fill="#263238"/>
<path id="Vector_89" opacity="0.6" d="M113.136 157.805H112.604C112.056 157.805 111.612 158.493 111.612 159.345C111.612 160.197 112.056 160.885 112.604 160.885H113.136C113.688 160.885 114.132 160.197 114.132 159.345C114.132 158.493 113.688 157.805 113.136 157.805Z" fill="white"/>
<path id="Vector_90" d="M114.133 159.345C114.133 160.197 113.689 160.885 113.137 160.885C112.585 160.885 112.145 160.197 112.145 159.345C112.145 158.493 112.589 157.805 113.137 157.805C113.685 157.805 114.133 158.493 114.133 159.345Z" fill="#315CEC"/>
<path id="Vector_91" d="M114.724 129.201C114.492 127.357 112.844 122.489 112.524 121.557H112.4C112.32 123.157 111.46 124.412 110.4 124.412C109.34 124.412 108.4 123.025 108.4 121.312H106.48L110.904 157.024L113.056 156.876C113.056 156.876 115.6 136.064 114.724 129.201Z" fill="#315CEC"/>
<path id="Vector_92" opacity="0.4" d="M114.724 129.201C114.492 127.357 112.844 122.489 112.524 121.557H112.4C112.32 123.157 111.46 124.412 110.4 124.412C109.34 124.412 108.4 123.025 108.4 121.312H106.48L110.904 157.024L113.056 156.876C113.056 156.876 115.6 136.064 114.724 129.201Z" fill="white"/>
<path id="Vector_93" d="M112.8 120.164H109.732C109.332 120.164 108.992 120.68 108.992 121.312C108.992 121.944 109.32 122.46 109.732 122.46H112.8C113.2 122.46 113.54 121.948 113.54 121.312C113.54 120.676 113.2 120.164 112.8 120.164Z" fill="#263238"/>
<path id="Vector_94" opacity="0.3" d="M112.8 120.164H109.732C109.332 120.164 108.992 120.68 108.992 121.312C108.992 121.944 109.32 122.46 109.732 122.46H112.8C113.2 122.46 113.54 121.948 113.54 121.312C113.54 120.676 113.2 120.164 112.8 120.164Z" fill="white"/>
<path id="Vector_95" d="M114.932 118.212H113.856C112.752 118.212 111.856 119.6 111.856 121.312C111.856 123.024 112.752 124.412 113.856 124.412H114.932C116.036 124.412 116.932 123.024 116.932 121.312C116.932 119.6 116.036 118.212 114.932 118.212Z" fill="#263238"/>
<path id="Vector_96" opacity="0.7" d="M114.932 118.212H113.856C112.752 118.212 111.856 119.6 111.856 121.312C111.856 123.024 112.752 124.412 113.856 124.412H114.932C116.036 124.412 116.932 123.024 116.932 121.312C116.932 119.6 116.036 118.212 114.932 118.212Z" fill="white"/>
<path id="Vector_97" d="M114.933 124.412C116.037 124.412 116.933 123.024 116.933 121.312C116.933 119.6 116.037 118.212 114.933 118.212C113.828 118.212 112.933 119.6 112.933 121.312C112.933 123.024 113.828 124.412 114.933 124.412Z" fill="#315CEC"/>
<path id="Vector_98" d="M115.601 120.304C115.537 120.182 115.443 120.079 115.329 120.004C115.214 119.929 115.081 119.885 114.945 119.876C114.433 119.876 114.017 120.52 114.017 121.312C114.016 121.485 114.038 121.657 114.081 121.824L115.601 120.304Z" fill="white"/>
<path id="Vector_99" d="M114.336 122.4C114.402 122.5 114.49 122.583 114.593 122.642C114.697 122.702 114.813 122.737 114.932 122.744C115.444 122.744 115.856 122.1 115.856 121.308C115.855 121.174 115.843 121.04 115.82 120.908L114.336 122.4Z" fill="white"/>
<path id="Vector_100" d="M119.465 60.5399C119.433 60.4112 119.374 60.2912 119.29 60.1883C119.207 60.0854 119.102 60.0023 118.982 59.9449C118.863 59.8875 118.732 59.8573 118.6 59.8565C118.468 59.8556 118.337 59.8841 118.217 59.9399C117.526 60.2499 116.914 60.7109 116.425 61.289C115.936 61.867 115.583 62.5474 115.393 63.2799L120.313 77.9599L121.441 77.7679C121.441 76.6079 122.025 75.6719 122.741 75.6719H122.845C122.101 71.3159 120.145 63.2759 119.465 60.5399ZM118.929 63.4839C118.677 63.5319 118.381 63.0839 118.265 62.5159C118.149 61.9479 118.265 61.4159 118.509 61.3679C118.753 61.3199 119.053 61.7679 119.169 62.3359C119.285 62.9039 119.177 63.4319 118.929 63.4839Z" fill="#315CEC"/>
<path id="Vector_101" opacity="0.4" d="M119.465 60.5399C119.433 60.4112 119.374 60.2912 119.29 60.1883C119.207 60.0854 119.102 60.0023 118.982 59.9449C118.863 59.8875 118.732 59.8573 118.6 59.8565C118.468 59.8556 118.337 59.8841 118.217 59.9399C117.526 60.2499 116.914 60.7109 116.425 61.289C115.936 61.867 115.583 62.5474 115.393 63.2799L120.313 77.9599L121.441 77.7679C121.441 76.6079 122.025 75.6719 122.741 75.6719H122.845C122.101 71.3159 120.145 63.2759 119.465 60.5399ZM118.929 63.4839C118.677 63.5319 118.381 63.0839 118.265 62.5159C118.149 61.9479 118.265 61.4159 118.509 61.3679C118.753 61.3199 119.053 61.7679 119.169 62.3359C119.285 62.9039 119.177 63.4319 118.929 63.4839Z" fill="white"/>
<path id="Vector_102" d="M123.936 77.2002H122.4C122.196 77.2002 122.032 77.4562 122.032 77.7722C122.032 78.0882 122.196 78.3402 122.4 78.3402H123.928C124.128 78.3402 124.292 78.0842 124.292 77.7722C124.292 77.4602 124.136 77.2002 123.936 77.2002Z" fill="#263238"/>
<path id="Vector_103" opacity="0.3" d="M123.936 77.2002H122.4C122.196 77.2002 122.032 77.4562 122.032 77.7722C122.032 78.0882 122.196 78.3402 122.4 78.3402H123.928C124.128 78.3402 124.292 78.0842 124.292 77.7722C124.292 77.4602 124.136 77.2002 123.936 77.2002Z" fill="white"/>
<path id="Vector_104" d="M124.996 76.2285H124.464C123.916 76.2285 123.468 76.9165 123.468 77.7685C123.468 78.6205 123.916 79.3085 124.464 79.3085H124.996C125.544 79.3085 125.992 78.6165 125.992 77.7685C125.992 76.9205 125.544 76.2285 124.996 76.2285Z" fill="#263238"/>
<path id="Vector_105" opacity="0.6" d="M124.996 76.2285H124.464C123.916 76.2285 123.468 76.9165 123.468 77.7685C123.468 78.6205 123.916 79.3085 124.464 79.3085H124.996C125.544 79.3085 125.992 78.6165 125.992 77.7685C125.992 76.9205 125.544 76.2285 124.996 76.2285Z" fill="white"/>
<path id="Vector_106" d="M126 77.7685C126 78.6165 125.552 79.3085 125.004 79.3085C124.456 79.3085 124.012 78.6165 124.012 77.7685C124.012 76.9205 124.456 76.2285 125.004 76.2285C125.552 76.2285 126 76.9165 126 77.7685Z" fill="#315CEC"/>
<path id="Vector_107" d="M122.152 61.8564H120.628C120.424 61.8564 120.26 62.1084 120.26 62.4244C120.26 62.7404 120.424 62.9964 120.628 62.9964H122.152C122.356 62.9964 122.52 62.7404 122.52 62.4244C122.52 62.1084 122.356 61.8564 122.152 61.8564Z" fill="#263238"/>
<path id="Vector_108" opacity="0.3" d="M122.152 61.8564H120.628C120.424 61.8564 120.26 62.1084 120.26 62.4244C120.26 62.7404 120.424 62.9964 120.628 62.9964H122.152C122.356 62.9964 122.52 62.7404 122.52 62.4244C122.52 62.1084 122.356 61.8564 122.152 61.8564Z" fill="white"/>
<path id="Vector_109" d="M123.2 60.8848H122.668C122.116 60.8848 121.672 61.5768 121.672 62.4248C121.672 63.2728 122.116 63.9648 122.668 63.9648H123.2C123.748 63.9648 124.192 63.2768 124.192 62.4248C124.192 61.5728 123.764 60.8848 123.2 60.8848Z" fill="#263238"/>
<path id="Vector_110" opacity="0.6" d="M123.2 60.8848H122.668C122.116 60.8848 121.672 61.5768 121.672 62.4248C121.672 63.2728 122.116 63.9648 122.668 63.9648H123.2C123.748 63.9648 124.192 63.2768 124.192 62.4248C124.192 61.5728 123.764 60.8848 123.2 60.8848Z" fill="white"/>
<path id="Vector_111" d="M124.209 62.4248C124.209 63.2768 123.765 63.9648 123.217 63.9648C122.669 63.9648 122.225 63.2768 122.225 62.4248C122.225 61.5728 122.669 60.8848 123.217 60.8848C123.765 60.8848 124.209 61.5768 124.209 62.4248Z" fill="#315CEC"/>
<path id="Vector_112" d="M112.756 59.9401C111.392 60.5641 109.204 62.2601 109.776 66.6001L113.728 78.1521C113.728 78.1521 112.324 82.1521 113.776 93.2001L111.6 94.4881C111.373 94.6218 111.188 94.8153 111.064 95.0474C110.939 95.2795 110.881 95.5413 110.896 95.8041L110.936 96.5001V97.4841C110.935 97.7146 110.988 97.9422 111.092 98.1481L111.36 98.6761C111.527 99.0059 111.815 99.2586 112.164 99.3816C112.512 99.5045 112.895 99.4882 113.232 99.3361L114.68 98.6841C114.877 98.5947 115.051 98.4619 115.19 98.2957C115.328 98.1294 115.428 97.934 115.48 97.7241L116.484 93.7481C116.484 93.7481 117.82 81.2801 117.684 77.8921C117.556 75.0161 114.844 63.8601 114.02 60.5401C113.988 60.4097 113.928 60.288 113.844 60.184C113.759 60.0799 113.652 59.996 113.531 59.9385C113.41 59.881 113.277 59.8513 113.143 59.8516C113.009 59.8518 112.877 59.8821 112.756 59.9401Z" fill="#315CEC"/>
<path id="Vector_113" opacity="0.4" d="M112.756 59.9401C111.392 60.5641 109.204 62.2601 109.776 66.6001L113.728 78.1521C113.728 78.1521 112.324 82.1521 113.776 93.2001L111.6 94.4881C111.373 94.6218 111.188 94.8153 111.064 95.0474C110.939 95.2795 110.881 95.5413 110.896 95.8041L110.936 96.5001V97.4841C110.935 97.7146 110.988 97.9422 111.092 98.1481L111.36 98.6761C111.527 99.0059 111.815 99.2586 112.164 99.3816C112.512 99.5045 112.895 99.4882 113.232 99.3361L114.68 98.6841C114.877 98.5947 115.051 98.4619 115.19 98.2957C115.328 98.1294 115.428 97.934 115.48 97.7241L116.484 93.7481C116.484 93.7481 117.82 81.2801 117.684 77.8921C117.556 75.0161 114.844 63.8601 114.02 60.5401C113.988 60.4097 113.928 60.288 113.844 60.184C113.759 60.0799 113.652 59.996 113.531 59.9385C113.41 59.881 113.277 59.8513 113.143 59.8516C113.009 59.8518 112.877 59.8821 112.756 59.9401Z" fill="white"/>
<path id="Vector_114" d="M114.032 60.5399C114 60.4111 113.94 60.291 113.856 60.1881C113.773 60.0852 113.667 60.0022 113.547 59.9448C113.428 59.8875 113.297 59.8573 113.164 59.8565C113.032 59.8556 112.9 59.8841 112.78 59.9399C112.09 60.2506 111.478 60.7119 110.99 61.2898C110.501 61.8678 110.148 62.5477 109.956 63.2799L114.88 77.9599L116.008 77.7679C116.008 76.6079 116.588 75.6719 117.308 75.6719H117.408C116.668 71.3159 114.708 63.2759 114.032 60.5399Z" fill="#263238"/>
<path id="Vector_115" opacity="0.4" d="M114.032 60.5399C114 60.4111 113.94 60.291 113.856 60.1881C113.773 60.0852 113.667 60.0022 113.547 59.9448C113.428 59.8875 113.297 59.8573 113.164 59.8565C113.032 59.8556 112.9 59.8841 112.78 59.9399C112.09 60.2506 111.478 60.7119 110.99 61.2898C110.501 61.8678 110.148 62.5477 109.956 63.2799L114.88 77.9599L116.008 77.7679C116.008 76.6079 116.588 75.6719 117.308 75.6719H117.408C116.668 71.3159 114.708 63.2759 114.032 60.5399Z" fill="white"/>
<path id="Vector_116" d="M117.601 79.4845H117.537C117.463 79.523 117.38 79.5436 117.297 79.5445C116.753 79.5445 116.297 78.7205 116.297 77.7485C116.297 76.7765 116.753 75.9525 117.297 75.9525H117.449C117.417 75.7605 117.385 75.5525 117.345 75.3485H117.297C116.457 75.3485 115.789 76.2685 115.697 77.4885L115.065 77.5965L110.225 63.2005L110.101 62.7725C109.969 63.1184 109.87 63.476 109.805 63.8405L114.461 77.7205L113.697 77.8525H113.629L113.729 78.1445C113.729 78.1445 113.693 78.2445 113.641 78.4525H113.777L115.705 78.1245C115.813 79.2925 116.469 80.1685 117.285 80.1685C117.406 80.1656 117.527 80.1427 117.641 80.1005C117.641 79.8805 117.641 79.6725 117.665 79.4685L117.601 79.4845Z" fill="#315CEC"/>
<path id="Vector_117" d="M114.568 63.0685C114.768 64.0845 114.568 64.9765 114.148 65.0685C113.728 65.1605 113.2 64.4005 112.996 63.3845C112.792 62.3685 112.996 61.4765 113.416 61.3845C113.836 61.2925 114.364 62.0525 114.568 63.0685Z" fill="#263238"/>
<path id="Vector_118" opacity="0.2" d="M114.568 63.0685C114.768 64.0845 114.568 64.9765 114.148 65.0685C113.728 65.1605 113.2 64.4005 112.996 63.3845C112.792 62.3685 112.996 61.4765 113.416 61.3845C113.836 61.2925 114.364 62.0525 114.568 63.0685Z" fill="white"/>
<path id="Vector_119" opacity="0.7" d="M113.668 63.1682C113.74 63.5362 113.668 63.8602 113.516 63.8882C113.364 63.9162 113.172 63.6482 113.116 63.2802C113.06 62.9122 113.116 62.5922 113.268 62.5602C113.42 62.5282 113.6 62.8002 113.668 63.1682Z" fill="white"/>
<path id="Vector_120" d="M114.776 94.5166H113.844C113.604 94.5166 113.404 94.8206 113.404 95.2006C113.404 95.5806 113.604 95.8806 113.844 95.8806H114.776C115.016 95.8806 115.216 95.5766 115.216 95.2006C115.216 94.8246 115.016 94.5166 114.776 94.5166Z" fill="#263238"/>
<path id="Vector_121" opacity="0.3" d="M114.776 94.5166H113.844C113.604 94.5166 113.404 94.8206 113.404 95.2006C113.404 95.5806 113.604 95.8806 113.844 95.8806H114.776C115.016 95.8806 115.216 95.5766 115.216 95.2006C115.216 94.8246 115.016 94.5166 114.776 94.5166Z" fill="white"/>
<path id="Vector_122" d="M117.744 93.6768H115.676C115.136 93.6768 114.696 94.3608 114.696 95.2008C114.696 96.0408 115.136 96.7208 115.676 96.7208H117.744C118.284 96.7208 118.724 96.0408 118.724 95.2008C118.724 94.3608 118.284 93.6768 117.744 93.6768Z" fill="#263238"/>
<path id="Vector_123" opacity="0.4" d="M117.744 93.6768H115.676C115.136 93.6768 114.696 94.3608 114.696 95.2008C114.696 96.0408 115.136 96.7208 115.676 96.7208H117.744C118.284 96.7208 118.724 96.0408 118.724 95.2008C118.724 94.3608 118.284 93.6768 117.744 93.6768Z" fill="white"/>
<path id="Vector_124" d="M120.18 91.0928H118.756C117.292 91.0928 116.104 92.9288 116.104 95.2008C116.104 97.4728 117.304 99.3048 118.756 99.3048H120.18C121.64 99.3048 122.828 97.4688 122.828 95.2008C122.828 92.9328 121.64 91.0928 120.18 91.0928Z" fill="#263238"/>
<path id="Vector_125" opacity="0.6" d="M120.18 91.0928H118.756C117.292 91.0928 116.104 92.9288 116.104 95.2008C116.104 97.4728 117.304 99.3048 118.756 99.3048H120.18C121.64 99.3048 122.828 97.4688 122.828 95.2008C122.828 92.9328 121.64 91.0928 120.18 91.0928Z" fill="white"/>
<path id="Vector_126" d="M120.18 99.3088C121.643 99.3088 122.828 97.4696 122.828 95.2008C122.828 92.932 121.643 91.0928 120.18 91.0928C118.718 91.0928 117.532 92.932 117.532 95.2008C117.532 97.4696 118.718 99.3088 120.18 99.3088Z" fill="#315CEC"/>
<path id="Vector_127" d="M121.052 93.8639C120.966 93.7034 120.842 93.5672 120.689 93.4679C120.537 93.3686 120.362 93.3095 120.18 93.2959C119.5 93.2959 118.952 94.1479 118.952 95.1999C118.953 95.4278 118.981 95.6548 119.036 95.8759L121.052 93.8639Z" fill="white"/>
<path id="Vector_128" d="M119.393 96.6486C119.481 96.7815 119.6 96.8916 119.739 96.9702C119.878 97.0487 120.033 97.0934 120.193 97.1006C120.869 97.1006 121.417 96.2486 121.417 95.2006C121.416 95.0273 121.398 94.8545 121.365 94.6846L119.393 96.6486Z" fill="white"/>
<path id="Vector_129" d="M86.3279 59.0566C84.9016 59.5005 83.5229 60.0847 82.2119 60.8006L82.4159 61.4606C82.5474 61.8858 82.5798 62.3355 82.5105 62.7751C82.4411 63.2147 82.2719 63.6326 82.0159 63.9966C80.8439 65.6446 79.0759 69.0606 80.8759 72.9406H81.4599L84.8399 71.6686C84.8399 64.3846 87.8559 61.6366 87.8559 61.6366C87.5791 61.6094 87.3152 61.5065 87.0929 61.3393C86.8707 61.1721 86.6988 60.947 86.5959 60.6886C86.5325 60.4098 86.5274 60.1209 86.5811 59.84C86.6348 59.5591 86.7461 59.2924 86.9079 59.0566H86.3279Z" fill="#315CEC"/>
<path id="Vector_130" opacity="0.7" d="M86.3279 59.0566C84.9016 59.5005 83.5229 60.0847 82.2119 60.8006L82.4159 61.4606C82.5474 61.8858 82.5798 62.3355 82.5105 62.7751C82.4411 63.2147 82.2719 63.6326 82.0159 63.9966C80.8439 65.6446 79.0759 69.0606 80.8759 72.9406H81.4599L84.8399 71.6686C84.8399 64.3846 87.8559 61.6366 87.8559 61.6366C87.5791 61.6094 87.3152 61.5065 87.0929 61.3393C86.8707 61.1721 86.6988 60.947 86.5959 60.6886C86.5325 60.4098 86.5274 60.1209 86.5811 59.84C86.6348 59.5591 86.7461 59.2924 86.9079 59.0566H86.3279Z" fill="white"/>
<path id="Vector_131" d="M84.2599 71.6686C84.2599 64.3846 87.2719 61.6366 87.2719 61.6366C86.9958 61.6087 86.7327 61.5055 86.5113 61.3384C86.2898 61.1712 86.1184 60.9465 86.0159 60.6886C85.9525 60.4098 85.9474 60.1209 86.0011 59.84C86.0548 59.5591 86.1661 59.2924 86.3279 59.0566C84.9016 59.5005 83.5229 60.0847 82.2119 60.8006L82.4159 61.4606C82.5474 61.8858 82.5798 62.3355 82.5105 62.7751C82.4411 63.2147 82.2719 63.6326 82.0159 63.9966C80.8439 65.6446 79.0759 69.0606 80.8759 72.9406L84.2559 71.6686H84.2599Z" fill="#315CEC"/>
<path id="Vector_132" d="M101.6 58.0524C102.436 58.8844 100.124 60.5844 98.0564 61.2524C95.7324 61.9844 93.5244 61.9604 93.1244 60.7004C93.0628 60.4212 93.059 60.1323 93.1133 59.8517C93.1677 59.571 93.279 59.3044 93.4404 59.0684C93.4404 59.0684 95.9084 58.7084 95.9084 53.7284L100.548 50.4004C100.548 50.4004 99.7924 56.2604 101.6 58.0524Z" fill="#315CEC"/>
<path id="Vector_133" opacity="0.2" d="M100.421 51.9684C100.469 51.0444 100.549 50.4004 100.549 50.4004L95.8885 53.7164C95.8938 54.3865 95.8403 55.0557 95.7285 55.7164C96.5746 55.6793 97.394 55.4094 98.0965 54.9364C99.1727 54.2254 99.9884 53.1837 100.421 51.9684Z" fill="black"/>
<path id="Vector_134" d="M93.9665 46.3762C94.2496 44.9527 93.7344 43.6506 92.8158 43.4679C91.8971 43.2851 90.9228 44.291 90.6396 45.7145C90.3565 47.138 90.8717 48.4401 91.7904 48.6229C92.709 48.8056 93.6833 47.7998 93.9665 46.3762Z" fill="#315CEC"/>
<path id="Vector_135" d="M104.536 48.9482L103.041 48.6522C102.841 48.6122 102.641 48.8282 102.569 49.1402C102.497 49.4522 102.62 49.7282 102.82 49.7682L104.317 50.0682C104.513 50.1082 104.716 49.8882 104.788 49.5802C104.86 49.2722 104.736 48.9882 104.536 48.9482Z" fill="#263238"/>
<path id="Vector_136" opacity="0.3" d="M104.536 48.9482L103.041 48.6522C102.841 48.6122 102.641 48.8282 102.569 49.1402C102.497 49.4522 102.62 49.7282 102.82 49.7682L104.317 50.0682C104.513 50.1082 104.716 49.8882 104.788 49.5802C104.86 49.2722 104.736 48.9882 104.536 48.9482Z" fill="white"/>
<path id="Vector_137" d="M105.768 48.2046L105.244 48.1006C104.708 47.9926 104.136 48.5846 103.972 49.4166C103.808 50.2486 104.104 51.0166 104.644 51.1206L105.168 51.2246C105.704 51.3326 106.276 50.7446 106.444 49.9086C106.612 49.0726 106.308 48.3126 105.768 48.2046Z" fill="#263238"/>
<path id="Vector_138" opacity="0.6" d="M105.768 48.2046L105.244 48.1006C104.708 47.9926 104.136 48.5846 103.972 49.4166C103.808 50.2486 104.104 51.0166 104.644 51.1206L105.168 51.2246C105.704 51.3326 106.276 50.7446 106.444 49.9086C106.612 49.0726 106.308 48.3126 105.768 48.2046Z" fill="white"/>
<path id="Vector_139" d="M106.444 49.9082C106.276 50.7442 105.704 51.3322 105.168 51.2242C104.632 51.1162 104.328 50.3562 104.492 49.5202C104.656 48.6842 105.232 48.0962 105.768 48.2042C106.304 48.3122 106.608 49.0762 106.444 49.9082Z" fill="#315CEC"/>
<path id="Vector_140" d="M102.292 46.2926C101.312 49.7886 100.912 51.8926 98.7318 53.3086C95.4558 55.4646 91.4358 52.8886 91.3558 49.1806C91.2838 45.8206 92.8998 40.6886 96.6678 40.0286C97.4981 39.878 98.3532 39.9425 99.1516 40.2158C99.9499 40.4892 100.665 40.9624 101.229 41.5903C101.793 42.2182 102.186 42.98 102.372 43.8031C102.558 44.6262 102.531 45.4832 102.292 46.2926Z" fill="#315CEC"/>
<path id="Vector_141" opacity="0.4" d="M102.292 46.2926C101.312 49.7886 100.912 51.8926 98.7318 53.3086C95.4558 55.4646 91.4358 52.8886 91.3558 49.1806C91.2838 45.8206 92.8998 40.6886 96.6678 40.0286C97.4981 39.878 98.3532 39.9425 99.1516 40.2158C99.9499 40.4892 100.665 40.9624 101.229 41.5903C101.793 42.2182 102.186 42.98 102.372 43.8031C102.558 44.6262 102.531 45.4832 102.292 46.2926Z" fill="white"/>
<path id="Vector_142" d="M96.5318 46.1205C96.4678 46.4085 96.2678 46.6125 96.0758 46.5685C95.8838 46.5245 95.7878 46.2605 95.8518 45.9725C95.9158 45.6845 96.1158 45.4845 96.3038 45.5285C96.4918 45.5725 96.5918 45.8325 96.5318 46.1205Z" fill="#2E353A"/>
<path id="Vector_143" d="M93.2766 45.4164C93.2126 45.7044 93.0086 45.9044 92.8206 45.8644C92.6326 45.8244 92.5326 45.5564 92.5926 45.2724C92.6526 44.9884 92.8606 44.7804 93.0486 44.8204C93.2366 44.8604 93.3366 45.1284 93.2766 45.4164Z" fill="#2E353A"/>
<g id="Group_8" opacity="0.7">
<path id="Vector_144" d="M94.6486 50.5445C93.9254 50.6325 93.1922 50.5103 92.5366 50.1925C92.4894 50.1776 92.4459 50.1526 92.4094 50.1191C92.3728 50.0857 92.344 50.0447 92.325 49.999C92.3059 49.9533 92.2971 49.9039 92.2991 49.8545C92.3011 49.805 92.3139 49.7565 92.3366 49.7125C92.3907 49.6313 92.4726 49.5726 92.5668 49.5476C92.6611 49.5225 92.7613 49.5328 92.8486 49.5765C93.4133 49.8414 94.0426 49.9373 94.6606 49.8525C94.7081 49.8426 94.7572 49.8422 94.8049 49.8513C94.8526 49.8604 94.898 49.8789 94.9386 49.9057C94.9791 49.9325 95.0139 49.967 95.0411 50.0073C95.0682 50.0476 95.0871 50.0929 95.0966 50.1405C95.0856 50.2515 95.0336 50.3545 94.9508 50.4292C94.8679 50.5039 94.7602 50.545 94.6486 50.5445Z" fill="white"/>
</g>
<path id="Vector_145" d="M94.2479 45.7881L93.6599 48.5081L92.3359 47.9521L94.2479 45.7881Z" fill="#315CEC"/>
<path id="Vector_146" opacity="0.5" d="M99.4163 47.8203L91.3043 46.3443C91.2169 46.3289 91.1339 46.2952 91.0606 46.2452C90.9873 46.1953 90.9256 46.1303 90.8794 46.0546C90.8332 45.9789 90.8037 45.8942 90.7928 45.8062C90.7819 45.7182 90.7899 45.6289 90.8163 45.5443L91.2163 44.1643C91.2415 44.0848 91.2825 44.0112 91.3367 43.9479C91.3909 43.8845 91.4572 43.8327 91.5318 43.7954C91.6064 43.7581 91.6877 43.7361 91.7709 43.7308C91.8541 43.7254 91.9375 43.7368 92.0163 43.7643L100.212 46.3723L99.4163 47.8203Z" fill="white"/>
<path id="Vector_147" d="M96.6679 40.0285C95.0679 40.3085 93.8679 41.3885 93.0039 42.8005L97.0039 44.1325C97.3626 43.9131 97.7585 43.7613 98.1719 43.6845C98.9855 43.5415 99.8235 43.6779 100.55 44.0715C101.276 44.4651 101.848 45.0928 102.172 45.8525L102.352 45.9125C102.526 45.1194 102.5 44.2956 102.278 43.5147C102.056 42.7338 101.644 42.0201 101.078 41.4374C100.513 40.8546 99.8122 40.4209 99.0384 40.1751C98.2646 39.9293 97.4419 39.8789 96.6439 40.0285H96.6679Z" fill="#263238"/>
<path id="Vector_148" opacity="0.4" d="M96.6679 40.0285C95.0679 40.3085 93.8679 41.3885 93.0039 42.8005L97.0039 44.1325C97.3626 43.9131 97.7585 43.7613 98.1719 43.6845C98.9855 43.5415 99.8235 43.6779 100.55 44.0715C101.276 44.4651 101.848 45.0928 102.172 45.8525L102.352 45.9125C102.526 45.1194 102.5 44.2956 102.278 43.5147C102.056 42.7338 101.644 42.0201 101.078 41.4374C100.513 40.8546 99.8122 40.4209 99.0384 40.1751C98.2646 39.9293 97.4419 39.8789 96.6439 40.0285H96.6679Z" fill="white"/>
<path id="Vector_149" d="M96.6679 35.4123C95.0679 35.6883 93.8679 36.7723 93.0039 38.1843L97.0039 39.5163C97.3626 39.2969 97.7585 39.1451 98.1719 39.0683C98.9855 38.9253 99.8235 39.0617 100.55 39.4553C101.276 39.8489 101.848 40.4766 102.172 41.2363L102.352 41.2963C102.526 40.5032 102.5 39.6794 102.278 38.8985C102.056 38.1176 101.644 37.4039 101.078 36.8212C100.513 36.2384 99.8122 35.8047 99.0384 35.5589C98.2646 35.3131 97.4419 35.2627 96.6439 35.4123H96.6679Z" fill="#315CEC"/>
<path id="Vector_150" opacity="0.4" d="M96.6679 35.4123C95.0679 35.6883 93.8679 36.7723 93.0039 38.1843L97.0039 39.5163C97.3626 39.2969 97.7585 39.1451 98.1719 39.0683C98.9855 38.9253 99.8235 39.0617 100.55 39.4553C101.276 39.8489 101.848 40.4766 102.172 41.2363L102.352 41.2963C102.526 40.5032 102.5 39.6794 102.278 38.8985C102.056 38.1176 101.644 37.4039 101.078 36.8212C100.513 36.2384 99.8122 35.8047 99.0384 35.5589C98.2646 35.3131 97.4419 35.2627 96.6439 35.4123H96.6679Z" fill="white"/>
<path id="Vector_151" d="M102.55 48.5774C102.834 47.1539 102.318 45.8518 101.4 45.669C100.481 45.4863 99.5068 46.4921 99.2236 47.9157C98.9405 49.3392 99.4557 50.6413 100.374 50.824C101.293 51.0068 102.267 50.0009 102.55 48.5774Z" fill="#315CEC"/>
<path id="Vector_152" d="M102.001 48.4602C101.817 49.4002 101.173 50.0602 100.569 49.9442C99.9645 49.8282 99.6245 48.9642 99.8125 48.0282C100.001 47.0922 100.641 46.4282 101.245 46.5482C101.849 46.6682 102.169 47.5242 102.001 48.4602Z" fill="#263238"/>
<path id="Vector_153" opacity="0.4" d="M101.052 46.5361C100.504 46.5361 99.9602 47.1761 99.7922 48.0281C99.6242 48.8801 99.8842 49.6601 100.388 49.8881C100.936 49.8881 101.48 49.2481 101.652 48.3961C101.824 47.5441 101.556 46.7641 101.052 46.5361Z" fill="white"/>
<path id="Vector_154" opacity="0.7" d="M100.9 48.2479C100.844 48.5439 100.64 48.7559 100.448 48.7159C100.256 48.6759 100.148 48.4079 100.208 48.1079C100.268 47.8079 100.472 47.6039 100.66 47.6399C100.848 47.6759 100.96 47.9519 100.9 48.2479Z" fill="white"/>
<path id="Vector_155" d="M108.708 60.5043C108.75 60.3822 108.768 60.253 108.76 60.1241C108.752 59.9951 108.718 59.869 108.662 59.7531C108.605 59.6371 108.525 59.5335 108.428 59.4482C108.331 59.363 108.218 59.2978 108.096 59.2563C105.436 58.3643 97.464 56.3483 89.296 60.8003L89.496 61.4603C89.6275 61.8855 89.6599 62.3352 89.5905 62.7748C89.5212 63.2144 89.352 63.6323 89.096 63.9963C87.924 65.6443 86.156 69.0603 87.956 72.9403C87.956 72.9403 88.676 80.3323 88.608 82.8003C88.548 84.8483 87.604 90.9403 87.604 90.9403C87.604 90.9403 88.004 91.3163 90.052 91.3883C90.344 92.7483 91.06 93.5563 92.156 93.5563C93.32 93.5563 94.556 92.6483 95.016 91.1563C97.636 90.8763 101.16 90.3363 105.9 89.3723C105.9 89.3723 104.58 85.7003 104.3 84.4323C103.948 82.5492 103.785 80.6358 103.812 78.7203C104 74.4643 107.6 63.6963 108.708 60.5043Z" fill="#315CEC"/>
<g id="Group_9" opacity="0.6">
<path id="Vector_156" d="M88.5441 79.1647C88.9721 80.8687 89.9561 81.8047 91.3441 81.8047C92.9441 81.8047 94.4281 80.6047 95.0401 78.8447C97.5961 78.5647 100.592 78.1127 103.948 77.4967C103.972 77.3007 104.004 77.0967 104.036 76.8887H103.916C100.464 77.5247 97.3881 77.9887 94.7801 78.2647L94.5841 78.2887L94.5281 78.4767C94.0361 80.0767 92.7281 81.2007 91.3281 81.2007C89.8841 81.2007 89.3041 79.9007 89.0681 78.8007L89.0201 78.5727H88.7881H88.4561C88.4561 78.7767 88.4841 78.9727 88.4961 79.1767L88.5441 79.1647Z" fill="white"/>
<path id="Vector_157" d="M104.087 83.2012C100.487 83.8852 97.3434 84.3732 94.7074 84.6572L94.5074 84.6772L94.4514 84.8692C94.0114 86.3092 92.8514 87.3172 91.5914 87.3172C90.3314 87.3172 89.7794 86.1492 89.5914 85.1692L89.5434 84.9412H89.3074C89.0034 84.9412 88.7314 84.9132 88.4674 84.8892C88.4474 85.0852 88.4234 85.2892 88.3994 85.4852C88.5954 85.4852 88.7994 85.5212 89.0514 85.5332C89.4514 87.0772 90.3434 87.9332 91.6034 87.9332C93.0514 87.9332 94.4034 86.8372 94.9754 85.2492C97.5794 84.9612 100.675 84.4772 104.175 83.8132C104.147 83.6252 104.115 83.4132 104.087 83.2172V83.2012Z" fill="white"/>
<path id="Vector_158" d="M105.2 71.3687C105.176 71.3687 102.74 71.6127 101.936 71.6327C99.6157 71.6967 93.1037 71.4407 91.6597 71.3807C91.7237 65.6047 94.0237 62.5287 94.7477 61.7007C95.8646 61.7631 96.9828 61.6069 98.0398 61.2407C100.04 60.6047 102.264 58.9967 101.64 58.1367C100.714 59.0165 99.5966 59.6696 98.3758 60.0447C96.0558 60.7807 93.8477 60.7527 93.4477 59.4927C93.4075 59.3632 93.3873 59.2283 93.3878 59.0927C93.2354 59.3229 93.1316 59.5817 93.0828 59.8534C93.0339 60.1251 93.0411 60.4039 93.1037 60.6727C93.1814 60.8855 93.3097 61.0762 93.4777 61.2282C93.6457 61.3801 93.8482 61.4888 94.0677 61.5447C93.1117 62.7247 91.0958 65.8687 91.0518 71.4447L87.9117 72.6247H87.8438C87.8877 72.7247 87.9197 72.8247 87.9677 72.9247C87.9677 72.9247 87.9678 73.0327 87.9958 73.2167L91.3958 71.9527C92.1438 71.9847 99.4397 72.2887 101.944 72.2167C102.692 72.1967 104.712 72.0007 105.144 71.9607C105.2 71.7567 105.256 71.5607 105.308 71.3527L105.2 71.3687Z" fill="white"/>
</g>
<path id="Vector_159" d="M106.285 68.4638C107.999 68.4638 109.389 66.3094 109.389 63.6518C109.389 60.9942 107.999 58.8398 106.285 58.8398C104.57 58.8398 103.181 60.9942 103.181 63.6518C103.181 66.3094 104.57 68.4638 106.285 68.4638Z" fill="#315CEC"/>
<path id="Vector_160" opacity="0.4" d="M106.285 68.4638C107.999 68.4638 109.389 66.3094 109.389 63.6518C109.389 60.9942 107.999 58.8398 106.285 58.8398C104.57 58.8398 103.181 60.9942 103.181 63.6518C103.181 66.3094 104.57 68.4638 106.285 68.4638Z" fill="white"/>
<path id="Vector_161" d="M106.285 67.556C107.674 67.556 108.801 65.8082 108.801 63.6521C108.801 61.4959 107.674 59.748 106.285 59.748C104.895 59.748 103.769 61.4959 103.769 63.6521C103.769 65.8082 104.895 67.556 106.285 67.556Z" fill="#263238"/>
<path id="Vector_162" opacity="0.2" d="M106.285 67.556C107.674 67.556 108.801 65.8082 108.801 63.6521C108.801 61.4959 107.674 59.748 106.285 59.748C104.895 59.748 103.769 61.4959 103.769 63.6521C103.769 65.8082 104.895 67.556 106.285 67.556Z" fill="white"/>
<path id="Vector_163" opacity="0.4" d="M105.905 59.8008C104.705 60.0848 103.769 61.7008 103.769 63.6528C103.769 65.6048 104.697 67.2208 105.905 67.5088C107.105 67.2208 108.041 65.6088 108.041 63.6528C108.041 61.6968 107.113 60.0848 105.905 59.8008Z" fill="white"/>
<path id="Vector_164" opacity="0.7" d="M106.768 63.6526C106.768 64.7206 106.212 65.5846 105.524 65.5846C104.836 65.5846 104.28 64.7206 104.28 63.6526C104.28 62.5846 104.836 61.7246 105.524 61.7246C106.212 61.7246 106.768 62.5886 106.768 63.6526Z" fill="white"/>
</g>
</g>
</svg>
