<svg width="140" height="141" viewBox="0 0 140 141" fill="none" xmlns="http://www.w3.org/2000/svg">
<path opacity="0.1" d="M70.0001 120.076C99.9832 120.076 124.289 118.657 124.289 116.907C124.289 115.156 99.9832 113.737 70.0001 113.737C40.017 113.737 15.7109 115.156 15.7109 116.907C15.7109 118.657 40.017 120.076 70.0001 120.076Z" fill="black"/>
<path d="M102.43 114.303H100.319L99.7559 109.411H101.87L102.43 114.303Z" fill="#FFC3BD"/>
<path d="M115.242 114.303H113.131L111.484 109.411H113.596L115.242 114.303Z" fill="#FFC3BD"/>
<path d="M112.839 114.056H115.415C115.457 114.057 115.497 114.071 115.53 114.098C115.562 114.124 115.585 114.161 115.594 114.202L116.011 116.078C116.021 116.124 116.021 116.171 116.01 116.217C115.999 116.263 115.978 116.305 115.948 116.342C115.919 116.378 115.881 116.407 115.839 116.427C115.796 116.447 115.75 116.457 115.703 116.456C114.863 116.442 114.269 116.392 113.225 116.392C112.584 116.392 111.265 116.459 110.375 116.459C109.484 116.459 109.372 115.582 109.733 115.504C111.363 115.146 111.973 114.664 112.497 114.188C112.591 114.103 112.712 114.056 112.839 114.056Z" fill="#263238"/>
<path d="M100.332 114.056H102.639C102.681 114.057 102.722 114.071 102.755 114.098C102.788 114.124 102.811 114.161 102.821 114.202L103.238 116.078C103.248 116.124 103.248 116.171 103.237 116.216C103.226 116.262 103.206 116.304 103.176 116.34C103.147 116.377 103.11 116.406 103.068 116.426C103.026 116.446 102.979 116.456 102.933 116.456C102.093 116.442 100.897 116.392 99.8528 116.392C98.6292 116.392 97.5736 116.459 96.14 116.459C95.272 116.459 95.02 115.582 95.3952 115.504C97.0472 115.14 98.3968 115.104 99.8248 114.222C99.9751 114.12 100.151 114.063 100.332 114.056Z" fill="#263238"/>
<path d="M103.642 61.8896C103.432 63.5248 103.203 65.1684 102.959 66.8036L102.228 71.7764C102.115 72.3811 101.872 72.9541 101.517 73.4564C101.196 73.908 100.806 74.3075 100.363 74.6408C99.5826 75.2101 98.7145 75.6488 97.7931 75.94C96.9469 76.2174 96.0785 76.4216 95.1974 76.5504C94.7634 76.6176 94.3323 76.6624 93.8983 76.6988C93.4643 76.7352 93.0442 76.7576 92.5822 76.7576L92.4395 75.1784C93.1927 75.0048 93.9907 74.8032 94.7383 74.554C95.4789 74.3236 96.203 74.0429 96.9054 73.714C97.545 73.4246 98.1385 73.0425 98.6667 72.58C98.8733 72.3925 99.0499 72.1743 99.1902 71.9332C99.2962 71.7443 99.3619 71.5355 99.3834 71.32L99.4647 70.1412C99.4927 69.7212 99.5319 69.3012 99.5683 68.8868C99.6411 68.0524 99.7241 67.2199 99.8174 66.3892C99.9994 64.7288 100.215 63.0796 100.473 61.4248L103.642 61.8896Z" fill="#FFC3BD"/>
<path d="M104.339 60.8394C105.05 62.7294 103.345 69.0658 103.345 69.0658L98.6523 66.7194C98.6523 66.7194 98.8736 63.561 99.946 61.1194C101.018 58.6778 103.558 58.7562 104.339 60.8394Z" fill="#315CEC"/>
<path opacity="0.3" d="M104.339 60.8394C105.05 62.7294 103.345 69.0658 103.345 69.0658L98.6523 66.7194C98.6523 66.7194 98.8736 63.561 99.946 61.1194C101.018 58.6778 103.558 58.7562 104.339 60.8394Z" fill="black"/>
<path d="M93.5622 74.9851L91.2578 75.1391L92.3358 77.6115C92.7685 77.5994 93.186 77.449 93.5271 77.1825C93.8682 76.916 94.115 76.5472 94.2314 76.1303L93.5622 74.9851Z" fill="#FFC3BD"/>
<path d="M89.1758 76.1108L90.4554 77.8412L92.3314 77.6116L91.2562 75.1392L89.1758 76.1108Z" fill="#FFC3BD"/>
<path opacity="0.2" d="M99.7578 109.411L100.083 112.25L102.183 112.124L101.869 109.411H99.7578Z" fill="black"/>
<path opacity="0.2" d="M113.598 109.411H111.484L112.588 112.687L114.553 112.248L113.598 109.411Z" fill="black"/>
<path d="M101.829 59.3834C101.829 59.3834 99.3374 65.7618 101.703 77.6422H113.001C113.08 75.9062 111.991 67.4474 113.662 59.2742C112.414 59.0332 111.151 58.8742 109.882 58.7982C108.282 58.7043 106.678 58.7043 105.077 58.7982C103.981 58.9081 102.895 59.1038 101.829 59.3834Z" fill="#315CEC"/>
<path opacity="0.3" d="M101.829 59.3834C101.829 59.3834 99.3374 65.7618 101.703 77.6422H113.001C113.08 75.9062 111.991 67.4474 113.662 59.2742C112.414 59.0332 111.151 58.8742 109.882 58.7982C108.282 58.7043 106.678 58.7043 105.077 58.7982C103.981 58.9081 102.895 59.1038 101.829 59.3834Z" fill="black"/>
<path d="M105.957 65.3531C105.806 66.7699 105.027 67.8507 104.215 67.7639C103.403 67.6771 102.869 66.4591 103.017 65.0395C103.165 63.6199 103.949 62.5419 104.759 62.6259C105.568 62.7099 106.119 63.9335 105.957 65.3531Z" fill="#315CEC"/>
<path opacity="0.1" d="M105.957 65.3531C105.806 66.7699 105.027 67.8507 104.215 67.7639C103.403 67.6771 102.869 66.4591 103.017 65.0395C103.165 63.6199 103.949 62.5419 104.759 62.6259C105.568 62.7099 106.119 63.9335 105.957 65.3531Z" fill="white"/>
<path d="M111.362 63.1803C111.731 61.3155 112.448 61.6375 113.131 62.5559C112.839 65.0285 112.705 67.5171 112.728 70.0067C112.263 69.2171 110.746 66.3051 111.362 63.1803Z" fill="#315CEC"/>
<path opacity="0.4" d="M111.362 63.1803C111.731 61.3155 112.448 61.6375 113.131 62.5559C112.839 65.0285 112.705 67.5171 112.728 70.0067C112.263 69.2171 110.746 66.3051 111.362 63.1803Z" fill="black"/>
<path d="M109.407 53.3887C109.104 54.9343 108.802 57.7651 109.883 58.7983C109.883 58.7983 109.46 60.3635 106.587 60.3635C103.431 60.3635 105.078 58.7983 105.078 58.7983C106.803 58.3867 106.758 57.1183 106.458 55.9059L109.407 53.3887Z" fill="#FFC3BD"/>
<path d="M108.203 54.4163L106.459 55.9059C106.533 56.1809 106.583 56.462 106.607 56.7459C107.265 56.6507 108.17 55.9283 108.24 55.2395C108.279 54.9652 108.267 54.686 108.203 54.4163Z" fill="#ED847E"/>
<path d="M105 47.6039C103.838 48.5083 103.846 52.1175 105.608 52.1931C107.369 52.2687 107.209 45.8959 105 47.6039Z" fill="#263238"/>
<path d="M109.854 51.5631C109.241 53.5679 108.984 54.7719 107.704 55.5699C105.783 56.7711 103.504 55.2367 103.504 53.0891C103.504 51.1543 104.509 48.2031 106.696 47.8699C107.177 47.7959 107.669 47.846 108.125 48.0153C108.581 48.1846 108.987 48.4676 109.303 48.8374C109.619 49.2073 109.836 49.6517 109.932 50.1287C110.029 50.6057 110.002 51.0994 109.854 51.5631Z" fill="#FFC3BD"/>
<path d="M109.233 53.5232C108.055 53.708 107.411 47.6432 110.222 48.9844C114.217 50.8968 111.143 53.2264 109.233 53.5232Z" fill="#263238"/>
<path d="M109.344 49.5415C107.891 49.4155 105.788 49.4771 105.332 47.6823C104.696 45.1791 107.69 44.8095 108.429 46.7247C110.21 46.1395 115.115 49.1971 111.848 50.7483L109.344 49.5415Z" fill="#263238"/>
<path d="M110.235 54.027C109.856 54.3927 109.348 54.5939 108.821 54.587C108.124 54.573 107.981 53.901 108.334 53.3466C108.662 52.8454 109.418 52.2518 110.037 52.5346C110.655 52.8174 110.692 53.5594 110.235 54.027Z" fill="#FFC3BD"/>
<path d="M101.703 77.6394C101.703 77.6394 93.4658 89.055 93.6982 95.495C93.9362 102.195 99.2534 111.455 99.2534 111.455L102.689 110.668C102.689 110.668 99.2702 102.601 99.4298 96.0214C99.6034 88.8478 109.132 83.1862 109.132 77.6534L101.703 77.6394Z" fill="#263238"/>
<path d="M105.714 77.6394C105.714 77.6394 101.514 89.3994 102.832 95.4502C104.272 102.072 111.512 111.858 111.512 111.858L114.97 110.906C114.97 110.906 110.289 102.487 109.468 95.929C108.575 88.8142 113.013 82.9314 113.013 77.6394H105.714Z" fill="#263238"/>
<path d="M110.986 112.34L115.959 111.416L115.71 110.08L110.135 111.024L110.986 112.34Z" fill="#315CEC"/>
<path opacity="0.4" d="M110.986 112.34L115.959 111.416L115.71 110.08L110.135 111.024L110.986 112.34Z" fill="white"/>
<path d="M98.5372 111.744L103.569 111.248L103.434 109.876L97.8008 110.36L98.5372 111.744Z" fill="#315CEC"/>
<path opacity="0.4" d="M98.5372 111.744L103.569 111.248L103.434 109.876L97.8008 110.36L98.5372 111.744Z" fill="white"/>
<path d="M106.631 51.3922C106.592 51.5574 106.472 51.6722 106.351 51.6442C106.231 51.6162 106.186 51.4622 106.228 51.297C106.27 51.1318 106.388 51.017 106.494 51.045C106.601 51.073 106.679 51.227 106.631 51.3922Z" fill="#263238"/>
<path d="M104.759 50.9415C104.72 51.1067 104.6 51.2215 104.479 51.1963C104.359 51.1711 104.317 51.0143 104.356 50.8491C104.395 50.6839 104.516 50.5691 104.636 50.5943C104.756 50.6195 104.798 50.7763 104.759 50.9415Z" fill="#263238"/>
<path d="M105.333 51.1682C105.018 51.6265 104.641 52.0392 104.213 52.3946C104.307 52.5027 104.423 52.589 104.553 52.6476C104.684 52.7061 104.826 52.7354 104.969 52.7334L105.333 51.1682Z" fill="#ED847E"/>
<path d="M105.706 53.3523C105.579 53.3515 105.453 53.3365 105.33 53.3075C105.318 53.3036 105.307 53.2951 105.3 53.2837C105.294 53.2723 105.291 53.2588 105.294 53.2459C105.296 53.2394 105.299 53.2334 105.303 53.228C105.307 53.2227 105.312 53.2182 105.317 53.2148C105.323 53.2115 105.329 53.2092 105.336 53.2083C105.343 53.2074 105.349 53.2078 105.356 53.2095C105.561 53.2637 105.776 53.2686 105.983 53.2239C106.19 53.1791 106.384 53.0859 106.548 52.9519C106.558 52.9428 106.57 52.9377 106.583 52.9377C106.597 52.9377 106.609 52.9428 106.618 52.9519C106.623 52.9563 106.627 52.9617 106.63 52.9678C106.632 52.9738 106.634 52.9803 106.634 52.9869C106.634 52.9935 106.632 53 106.63 53.006C106.627 53.012 106.623 53.0174 106.618 53.0219C106.363 53.2374 106.04 53.3545 105.706 53.3523Z" fill="#263238"/>
<path d="M107.362 50.9246C107.343 50.9246 107.325 50.919 107.309 50.9085C107.293 50.8981 107.28 50.8832 107.273 50.8658C107.225 50.7494 107.151 50.6459 107.056 50.5636C106.962 50.4814 106.849 50.4228 106.727 50.3926C106.7 50.3881 106.677 50.3734 106.661 50.3516C106.646 50.3298 106.64 50.3028 106.644 50.2764C106.648 50.25 106.663 50.2265 106.685 50.211C106.707 50.1955 106.734 50.1893 106.76 50.1938C106.915 50.2293 107.059 50.3015 107.18 50.4043C107.3 50.5072 107.395 50.6376 107.455 50.7846C107.46 50.7965 107.463 50.8094 107.464 50.8226C107.464 50.8357 107.462 50.8488 107.457 50.8611C107.453 50.8734 107.445 50.8846 107.436 50.894C107.427 50.9035 107.416 50.911 107.404 50.9162C107.391 50.923 107.377 50.9259 107.362 50.9246Z" fill="#263238"/>
<path d="M104.117 50.1044C104.094 50.1051 104.071 50.0971 104.053 50.082C104.042 50.0738 104.034 50.0637 104.028 50.0522C104.021 50.0407 104.017 50.028 104.016 50.0149C104.015 50.0019 104.016 49.9887 104.02 49.9762C104.024 49.9636 104.03 49.952 104.039 49.942C104.138 49.8154 104.266 49.7146 104.412 49.6483C104.558 49.5819 104.718 49.5521 104.879 49.5612C104.905 49.5647 104.929 49.5784 104.945 49.5993C104.961 49.6203 104.969 49.6468 104.966 49.6732C104.962 49.6989 104.949 49.7223 104.928 49.7385C104.908 49.7547 104.882 49.7624 104.856 49.76C104.731 49.7567 104.606 49.7828 104.492 49.8363C104.378 49.8898 104.279 49.9691 104.201 50.068C104.191 50.0806 104.178 50.0906 104.164 50.0969C104.149 50.1033 104.133 50.1059 104.117 50.1044Z" fill="#263238"/>
<path d="M76.5754 90.6017L68.9961 91.5042L69.0292 91.7822L76.6085 90.8798L76.5754 90.6017Z" fill="#315CEC"/>
<path d="M82.4013 89.9008L79.2793 90.2759L79.3127 90.5539L82.4347 90.1788L82.4013 89.9008Z" fill="#315CEC"/>
<path d="M125.646 71.9913L58.4238 80.0071L59.8405 91.8873L127.063 83.8716L125.646 71.9913Z" fill="#315CEC"/>
<path d="M115.721 76.4312L84.8398 80.1135L85.4906 85.5713L116.371 81.8889L115.721 76.4312Z" fill="#315CEC"/>
<path opacity="0.2" d="M115.721 76.4312L84.8398 80.1135L85.4906 85.5713L116.371 81.8889L115.721 76.4312Z" fill="white"/>
<path d="M68.571 87.7922C70.0727 86.5899 70.3155 84.3979 69.1133 82.8961C67.911 81.3944 65.719 81.1516 64.2172 82.3539C62.7155 83.5561 62.4727 85.7482 63.6749 87.2499C64.8772 88.7517 67.0692 88.9944 68.571 87.7922Z" fill="#315CEC"/>
<path opacity="0.2" d="M68.571 87.7922C70.0727 86.5899 70.3155 84.3979 69.1133 82.8961C67.911 81.3944 65.719 81.1516 64.2172 82.3539C62.7155 83.5561 62.4727 85.7482 63.6749 87.2499C64.8772 88.7517 67.0692 88.9944 68.571 87.7922Z" fill="white"/>
<path d="M79.0073 86.0381C80.1797 84.5129 79.8937 82.3261 78.3686 81.1537C76.8434 79.9813 74.6566 80.2672 73.4842 81.7924C72.3118 83.3176 72.5977 85.5044 74.1229 86.6768C75.6481 87.8492 77.8349 87.5633 79.0073 86.0381Z" fill="#315CEC"/>
<path opacity="0.2" d="M79.0073 86.0381C80.1797 84.5129 79.8937 82.3261 78.3686 81.1537C76.8434 79.9813 74.6566 80.2672 73.4842 81.7924C72.3118 83.3176 72.5977 85.5044 74.1229 86.6768C75.6481 87.8492 77.8349 87.5633 79.0073 86.0381Z" fill="white"/>
<path d="M114.469 60.918C114.654 61.31 114.805 61.6572 114.951 62.038C115.096 62.4188 115.231 62.7744 115.376 63.158C115.656 63.9 115.889 64.6532 116.099 65.4232C116.316 66.1967 116.495 66.9808 116.633 67.7724L116.734 68.3744L116.807 68.9876C116.835 69.192 116.846 69.402 116.86 69.6092L116.883 69.9228V70.0012V70.13C116.883 70.2308 116.883 70.3176 116.883 70.41C116.828 70.9606 116.668 71.4956 116.412 71.9864C116.215 72.3813 115.99 72.7621 115.74 73.126C115.277 73.7912 114.771 74.4254 114.225 75.0244C113.171 76.1824 112.029 77.257 110.809 78.2388L109.689 77.1188C110.602 75.9512 111.515 74.7444 112.341 73.546C112.747 72.9635 113.12 72.3597 113.461 71.7372C113.617 71.458 113.753 71.1679 113.867 70.8692C113.947 70.6778 113.995 70.4743 114.007 70.2672C114.007 70.2532 114.007 70.2672 114.007 70.2672C114.007 70.2812 114.007 70.284 114.007 70.2672V70.2028L113.968 69.9508C113.943 69.78 113.92 69.6148 113.881 69.4412L113.78 68.9316L113.66 68.4164C113.489 67.7304 113.296 67.0416 113.075 66.3556C112.853 65.6696 112.613 64.9836 112.358 64.3004C112.232 63.9588 112.103 63.62 111.969 63.2812L111.557 62.2396L114.469 60.918Z" fill="#FFC3BD"/>
<path d="M114.104 59.4142C115.989 60.1394 117.341 67.033 117.341 67.033L112.861 68.7998C112.861 68.7998 111.358 65.3362 110.851 62.7742C110.319 60.0778 111.965 58.5994 114.104 59.4142Z" fill="#315CEC"/>
<path opacity="0.3" d="M114.104 59.4142C115.989 60.1394 117.341 67.033 117.341 67.033L112.861 68.7998C112.861 68.7998 111.358 65.3362 110.851 62.7742C110.319 60.0778 111.965 58.5994 114.104 59.4142Z" fill="black"/>
<path d="M112.151 114.426C112.007 114.437 111.863 114.399 111.742 114.32C111.705 114.287 111.676 114.246 111.658 114.199C111.64 114.153 111.633 114.103 111.639 114.054C111.638 114.024 111.646 113.996 111.662 113.971C111.677 113.946 111.699 113.926 111.725 113.914C111.961 113.793 112.641 114.21 112.717 114.261C112.725 114.265 112.732 114.273 112.736 114.282C112.741 114.291 112.741 114.301 112.739 114.311C112.738 114.321 112.733 114.329 112.727 114.336C112.72 114.343 112.712 114.348 112.703 114.35C112.522 114.397 112.337 114.422 112.151 114.426ZM111.837 113.989C111.814 113.987 111.791 113.992 111.77 114.003C111.756 114.003 111.742 114.023 111.739 114.062C111.735 114.095 111.738 114.129 111.75 114.16C111.762 114.192 111.781 114.219 111.807 114.241C112.042 114.35 112.311 114.364 112.557 114.28C112.338 114.138 112.094 114.039 111.837 113.989Z" fill="#315CEC"/>
<path d="M112.691 114.353C112.683 114.355 112.674 114.355 112.666 114.353C112.448 114.235 112.025 113.773 112.07 113.538C112.077 113.501 112.097 113.468 112.126 113.444C112.155 113.42 112.192 113.407 112.229 113.407C112.267 113.402 112.306 113.406 112.342 113.417C112.379 113.428 112.413 113.446 112.442 113.471C112.688 113.67 112.739 114.28 112.742 114.311C112.742 114.32 112.74 114.329 112.736 114.337C112.732 114.346 112.726 114.353 112.719 114.359C112.71 114.359 112.7 114.357 112.691 114.353ZM112.28 113.496H112.255C112.19 113.496 112.185 113.535 112.182 113.547C112.157 113.687 112.425 114.037 112.644 114.202C112.628 113.961 112.542 113.73 112.395 113.538C112.362 113.512 112.322 113.497 112.28 113.496Z" fill="#315CEC"/>
<path d="M99.4554 114.426C99.274 114.442 99.0924 114.397 98.9402 114.297C98.9062 114.267 98.88 114.229 98.8639 114.187C98.8478 114.144 98.8423 114.099 98.8478 114.054C98.8488 114.026 98.8568 113.999 98.871 113.976C98.8852 113.952 98.9052 113.933 98.929 113.919C99.1866 113.776 100.035 114.199 100.133 114.258C100.142 114.263 100.149 114.27 100.153 114.279C100.158 114.288 100.159 114.298 100.158 114.308C100.157 114.319 100.153 114.328 100.146 114.336C100.139 114.344 100.129 114.349 100.119 114.35C99.9007 114.397 99.6785 114.422 99.4554 114.426ZM99.0718 113.989C99.0397 113.987 99.0078 113.994 98.9794 114.009C98.9695 114.014 98.9612 114.021 98.9553 114.031C98.9493 114.04 98.9461 114.051 98.9458 114.062C98.9429 114.092 98.9469 114.121 98.9576 114.149C98.9683 114.177 98.9854 114.202 99.0074 114.222C99.1362 114.336 99.4862 114.359 99.951 114.28C99.6767 114.134 99.3793 114.035 99.0718 113.989Z" fill="#315CEC"/>
<path d="M100.107 114.353H100.088C99.8327 114.238 99.3288 113.793 99.3652 113.544C99.3652 113.488 99.4155 113.418 99.5527 113.404C99.6027 113.397 99.6535 113.402 99.7017 113.416C99.7499 113.43 99.7946 113.455 99.8327 113.488C100.113 113.709 100.158 114.277 100.16 114.303C100.162 114.311 100.161 114.32 100.157 114.328C100.154 114.336 100.148 114.343 100.141 114.347C100.13 114.353 100.119 114.355 100.107 114.353ZM99.592 113.496H99.5639C99.4715 113.496 99.4659 113.541 99.4659 113.552C99.4407 113.698 99.7851 114.056 100.046 114.213C100.021 113.972 99.9236 113.744 99.7655 113.561C99.7177 113.518 99.6558 113.495 99.592 113.496Z" fill="#315CEC"/>
<path d="M110.179 76.7996L108.107 77.3596L109.824 79.44C109.824 79.44 111.484 78.5804 111.126 77.648L110.179 76.7996Z" fill="#FFC3BD"/>
<path d="M106.607 79.0871L108.108 80.7167L109.825 79.4371L108.108 77.3567L106.607 79.0871Z" fill="#FFC3BD"/>
<path d="M39.6561 54.3995C39.1885 54.8755 38.6873 55.4047 38.2253 55.9311C37.7633 56.4575 37.3013 56.9979 36.8673 57.5523C36.4333 58.1067 36.0273 58.6723 35.6269 59.2323L35.3469 59.6663L35.0669 60.1059C34.9745 60.2543 34.8933 60.4027 34.8121 60.5539L34.5909 60.9599C34.4999 61.1923 34.4487 61.4384 34.4397 61.6879C34.4173 62.0085 34.4173 62.3304 34.4397 62.6511C34.4886 63.3435 34.5774 64.0325 34.7057 64.7147C34.8261 65.4119 34.9857 66.1147 35.1453 66.8091C35.3049 67.5035 35.4897 68.2091 35.6717 68.9007L34.6469 69.2843C34.0229 67.9255 33.5025 66.5215 33.0901 65.0843C32.877 64.3495 32.7142 63.6011 32.6029 62.8443C32.5449 62.439 32.5159 62.0301 32.5161 61.6207C32.5084 61.1376 32.59 60.6572 32.7569 60.2039C32.8185 60.0499 32.8549 59.9883 32.8969 59.8959L33.0229 59.6327C33.1069 59.4563 33.1937 59.2827 33.2861 59.1147L33.5661 58.6051L33.8461 58.1095C34.2376 57.4571 34.6638 56.8262 35.1229 56.2195C35.5765 55.6147 36.0469 55.0211 36.5425 54.4555C37.0381 53.8899 37.5393 53.3355 38.1133 52.7979L39.6561 54.3995Z" fill="#FFC3BD"/>
<path d="M39.7748 51.0647C38.2768 51.1319 36.8516 53.6211 36.8516 53.6211L38.624 57.2387C38.624 57.2387 41.5164 55.4299 41.5528 53.2319C41.5752 51.8039 41.2504 50.9975 39.7748 51.0647Z" fill="#315CEC"/>
<path opacity="0.5" d="M39.7748 51.0647C38.2768 51.1319 36.8516 53.6211 36.8516 53.6211L38.624 57.2387C38.624 57.2387 41.5164 55.4299 41.5528 53.2319C41.5752 51.8039 41.2504 50.9975 39.7748 51.0647Z" fill="black"/>
<path d="M35.3896 68.4807L37.2152 69.0239L36 70.2531C36 70.2531 34.6868 69.8471 34.502 68.9539L35.3896 68.4807Z" fill="#FFC3BD"/>
<path d="M38.3184 70.4267L38.0132 71.6027L36 70.2531L37.2152 69.0239L38.3184 70.4267Z" fill="#FFC3BD"/>
<path d="M80.1664 58.2543L35.8887 59.3132L36.2879 76.0077L80.5657 74.9487L80.1664 58.2543Z" fill="#315CEC"/>
<path opacity="0.6" d="M80.1664 58.2543L35.8887 59.3132L36.2879 76.0077L80.5657 74.9487L80.1664 58.2543Z" fill="white"/>
<path d="M77.9405 59.6375L61.4336 60.0322L61.5824 66.2549L78.0893 65.8601L77.9405 59.6375Z" fill="#315CEC"/>
<path opacity="0.7" d="M77.9405 59.6375L61.4336 60.0322L61.5824 66.2549L78.0893 65.8601L77.9405 59.6375Z" fill="white"/>
<path d="M69.0909 67.3843L52.584 67.7791L52.7328 74.0017L69.2397 73.6069L69.0909 67.3843Z" fill="#315CEC"/>
<path opacity="0.7" d="M69.0909 67.3843L52.584 67.7791L52.7328 74.0017L69.2397 73.6069L69.0909 67.3843Z" fill="white"/>
<path d="M50.1196 45.5487C50.0916 45.7195 50.1588 45.8763 50.2708 45.8959C50.3828 45.9155 50.4976 45.7979 50.5284 45.6159C50.5592 45.4339 50.4864 45.2883 50.3744 45.2659C50.2624 45.2435 50.1336 45.3751 50.1196 45.5487Z" fill="#263238"/>
<path d="M50.3105 45.277L50.7417 45.2378C50.7417 45.2378 50.4785 45.5178 50.3105 45.277Z" fill="#263238"/>
<path d="M50.2242 45.7417C50.3139 46.1634 50.4599 46.5712 50.6582 46.9541C50.5589 46.9996 50.451 47.0232 50.3418 47.0232C50.2326 47.0232 50.1247 46.9996 50.0254 46.9541L50.2242 45.7417Z" fill="#ED847E"/>
<path d="M50.5254 44.4509C50.5086 44.4506 50.4921 44.4457 50.4778 44.4369C50.3644 44.3713 50.2373 44.333 50.1065 44.3252C49.9757 44.3174 49.8449 44.3404 49.7246 44.3921C49.7127 44.3984 49.6996 44.4022 49.6862 44.4033C49.6728 44.4044 49.6593 44.4028 49.6465 44.3987C49.6338 44.3945 49.6219 44.3878 49.6118 44.379C49.6016 44.3702 49.5933 44.3594 49.5874 44.3473C49.5806 44.3357 49.5764 44.3228 49.5749 44.3094C49.5733 44.296 49.5746 44.2825 49.5785 44.2696C49.5824 44.2567 49.589 44.2448 49.5978 44.2346C49.6065 44.2243 49.6173 44.216 49.6294 44.2101C49.7792 44.1429 49.9429 44.1122 50.1069 44.1205C50.2709 44.1287 50.4307 44.1758 50.573 44.2577C50.5848 44.2639 50.5953 44.2724 50.6038 44.2827C50.6124 44.2929 50.6188 44.3048 50.6227 44.3176C50.6266 44.3303 50.6279 44.3437 50.6266 44.357C50.6253 44.3703 50.6213 44.3832 50.615 44.3949C50.607 44.4119 50.5943 44.4261 50.5784 44.4361C50.5625 44.446 50.5441 44.4511 50.5254 44.4509Z" fill="#263238"/>
<path d="M44.6356 46.9597C44.6776 48.2673 44.5432 50.6249 43.5156 51.2913C43.5156 51.2913 43.65 52.6381 46.0048 53.0917C48.592 53.5929 47.4524 52.0557 47.4524 52.0557C46.0944 51.4453 46.3044 50.4121 46.7132 49.4797L44.6356 46.9597Z" fill="#FFC3BD"/>
<path d="M51.685 54.5898C51.8474 55.2422 52.0518 55.9562 52.2758 56.6282C52.4998 57.3002 52.7518 57.9722 53.0346 58.619C53.3106 59.2557 53.6325 59.8714 53.9978 60.4614C54.3315 61.0216 54.7372 61.5356 55.2046 61.9902C55.4209 62.193 55.6595 62.3705 55.9158 62.5194C56.035 62.5905 56.1595 62.6523 56.2882 62.7042L56.4058 62.749C56.4368 62.7581 56.4687 62.7637 56.501 62.7658C56.7255 62.7708 56.948 62.7228 57.1506 62.6258C57.4346 62.4983 57.7056 62.3436 57.9598 62.1638C59.0988 61.3088 60.1327 60.3219 61.0398 59.2238L61.9526 59.8314C61.7594 60.1842 61.5606 60.5062 61.3506 60.8338C61.1406 61.1614 60.9166 61.475 60.6786 61.7858C60.2016 62.4291 59.6602 63.022 59.063 63.5554C58.7347 63.8444 58.376 64.0969 57.9934 64.3086C57.5345 64.5689 57.0197 64.7149 56.4926 64.7342C56.3377 64.7349 56.1831 64.7218 56.0306 64.695C55.8878 64.668 55.7473 64.6296 55.6106 64.5802C55.389 64.5035 55.1737 64.4099 54.9666 64.3002C54.565 64.0907 54.1891 63.8351 53.8466 63.5386C52.5166 62.3822 51.7046 60.9542 51.0466 59.5262C50.7158 58.8138 50.4269 58.0827 50.1814 57.3366C49.926 56.5904 49.7129 55.8304 49.543 55.0602L51.685 54.5898Z" fill="#FFC3BD"/>
<path d="M60.918 59.333L61.5536 58.1682L63.3176 58.6358C63.3176 58.6358 62.2592 60.2458 61.3576 60.2486L60.918 59.333Z" fill="#FFC3BD"/>
<path d="M62.99 57.7483L64.3312 58.6359H63.3176L61.5508 58.1683L62.99 57.7483Z" fill="#FFC3BD"/>
<path d="M39.0039 114.151L41.1655 114.308L41.8067 109.347L39.6451 109.187L39.0039 114.151Z" fill="#FFC3BD"/>
<path d="M21.9961 103.478L23.4885 105.082L27.5401 102.181L26.0449 100.577L21.9961 103.478Z" fill="#FFC3BD"/>
<path d="M24.1446 104.833L22.8958 102.705C22.8761 102.668 22.8435 102.64 22.8043 102.625C22.7651 102.611 22.7219 102.611 22.683 102.626L20.9078 103.343C20.8633 103.364 20.8237 103.393 20.7916 103.43C20.7594 103.467 20.7355 103.511 20.7215 103.558C20.7075 103.604 20.7036 103.654 20.7101 103.702C20.7167 103.751 20.7335 103.797 20.7594 103.839C21.2046 104.572 21.4566 104.906 22.0054 105.841C22.3414 106.401 22.7782 107.291 23.243 108.081C23.7078 108.87 24.4974 108.47 24.363 108.098C23.803 106.432 24.083 105.947 24.2062 105.208C24.2284 105.08 24.2067 104.947 24.1446 104.833Z" fill="#263238"/>
<path d="M41.3004 114.003H38.8728C38.8307 114.002 38.7897 114.016 38.7572 114.043C38.7248 114.069 38.7032 114.107 38.6964 114.149L38.3604 116.072C38.354 116.12 38.3579 116.169 38.3719 116.215C38.3859 116.261 38.4095 116.304 38.4414 116.34C38.4732 116.377 38.5124 116.406 38.5564 116.426C38.6004 116.446 38.6481 116.456 38.6964 116.456C39.5364 116.442 39.9536 116.391 41.0232 116.391C41.6812 116.391 43.0392 116.461 43.9464 116.461C44.8536 116.461 44.9236 115.563 44.5484 115.481C42.8684 115.117 42.2104 114.613 41.6504 114.135C41.5523 114.052 41.4287 114.005 41.3004 114.003Z" fill="#263238"/>
<path opacity="0.2" d="M41.8065 109.346L41.4509 112.107L39.3145 111.749L39.6449 109.19L41.8065 109.346Z" fill="black"/>
<path opacity="0.2" d="M26.0449 100.577L27.5401 102.181L25.8629 103.383L24.3145 101.814L26.0449 100.577Z" fill="black"/>
<path d="M39.166 64.2302L47.846 65.9102C51.9312 53.8394 50.9596 53.4614 50.9596 53.4614C50.3252 53.1172 49.6707 52.8115 48.9996 52.5458L48.882 52.5038C48.322 52.2994 48.21 52.2714 47.468 52.053C46.1912 51.7534 45.0012 51.493 43.5312 51.2942L43.2512 51.255C42.9852 51.2214 42.722 51.1934 42.4672 51.1682C42.2936 51.1486 42.1228 51.1374 41.9576 51.1262L41.3976 51.0954C40.4512 51.0506 39.7736 51.0646 39.7736 51.0646C40.2524 58.5994 39.8912 60.7526 39.166 64.2302Z" fill="#315CEC"/>
<path opacity="0.5" d="M39.166 64.2302L47.846 65.9102C51.9312 53.8394 50.9596 53.4614 50.9596 53.4614C50.3252 53.1172 49.6707 52.8115 48.9996 52.5458L48.882 52.5038C48.322 52.2994 48.21 52.2714 47.468 52.053C46.1912 51.7534 45.0012 51.493 43.5312 51.2942L43.2512 51.255C42.9852 51.2214 42.722 51.1934 42.4672 51.1682C42.2936 51.1486 42.1228 51.1374 41.9576 51.1262L41.3976 51.0954C40.4512 51.0506 39.7736 51.0646 39.7736 51.0646C40.2524 58.5994 39.8912 60.7526 39.166 64.2302Z" fill="black"/>
<path d="M49.1989 57.1295C48.9501 58.3909 49.038 59.6956 49.4537 60.9123C50.1733 58.5547 50.5737 56.9419 50.8033 55.8387C50.1397 55.7519 49.4313 55.9675 49.1989 57.1295Z" fill="#315CEC"/>
<path opacity="0.6" d="M49.1989 57.1295C48.9501 58.3909 49.038 59.6956 49.4537 60.9123C50.1733 58.5547 50.5737 56.9419 50.8033 55.8387C50.1397 55.7519 49.4313 55.9675 49.1989 57.1295Z" fill="black"/>
<path d="M50.8787 53.4193C52.3263 54.3629 53.2475 56.4657 53.4911 57.6669L50.1311 60.4025C50.1311 60.4025 48.3027 56.3201 48.9019 55.2785C49.5319 54.1921 50.3327 53.0637 50.8787 53.4193Z" fill="#315CEC"/>
<path opacity="0.5" d="M50.8787 53.4193C52.3263 54.3629 53.2475 56.4657 53.4911 57.6669L50.1311 60.4025C50.1311 60.4025 48.3027 56.3201 48.9019 55.2785C49.5319 54.1921 50.3327 53.0637 50.8787 53.4193Z" fill="black"/>
<path d="M44.4231 43.9609C44.2075 46.0889 44.0675 46.9849 44.9579 48.2701C46.2963 50.2049 48.9675 50.0845 49.8187 48.0825C50.5859 46.2821 50.8127 43.1041 48.8807 41.8665C48.4696 41.587 47.9929 41.4194 47.4973 41.3802C47.0018 41.3411 46.5047 41.4316 46.0548 41.643C45.6049 41.8543 45.2179 42.1793 44.9317 42.5857C44.6456 42.9921 44.4703 43.4661 44.4231 43.9609Z" fill="#FFC3BD"/>
<path d="M44.4522 39.6182C43.1446 40.587 43.9818 40.8194 43.4246 41.7966C42.8282 42.8438 42.201 41.651 41.0138 42.8018C40.2438 43.5494 41.5738 44.3418 40.6022 45.6578C39.8574 46.6798 39.051 45.795 39.3646 47.8978C39.5802 49.3286 38.7038 49.1494 38.113 49.9586C37.273 51.1178 38.0262 51.9494 40.1878 52.3862C42.3494 52.823 40.8094 54.9958 42.8422 55.0602C45.0598 55.133 44.5446 52.2434 45.6254 52.9462C46.7062 53.649 48.6746 53.0078 48.5542 51.2802C48.4478 49.6954 46.6866 49.7514 48.1118 48.6678C49.2318 47.8278 49.5706 47.8278 48.781 46.0246C48.1118 44.4902 50.5702 44.7254 50.5254 43.3954C50.4414 40.9958 48.781 41.7154 48.2574 40.4862C47.9186 39.6798 46.1266 38.375 44.4522 39.6182Z" fill="#263238"/>
<path d="M48.5586 45.0699C48.5696 45.4676 48.7036 45.852 48.9422 46.1703C49.2726 46.6211 49.6618 46.5035 49.757 46.0891C49.8438 45.7167 49.7766 45.0335 49.3538 44.7199C48.931 44.4063 48.5614 44.6247 48.5586 45.0699Z" fill="#FFC3BD"/>
<path d="M45.5477 65.4677C45.5477 65.4677 41.3253 79.6105 39.2617 87.7557C37.0833 96.3517 26.6953 103.355 26.6953 103.355L24.4805 101.159C24.4805 101.159 31.4245 95.2989 33.5329 87.2769C37.8141 70.9977 35.7533 67.5481 39.1665 64.2385L45.5477 65.4677Z" fill="#315CEC"/>
<path opacity="0.8" d="M45.5477 65.4677C45.5477 65.4677 41.3253 79.6105 39.2617 87.7557C37.0833 96.3517 26.6953 103.355 26.6953 103.355L24.4805 101.159C24.4805 101.159 31.4245 95.2989 33.5329 87.2769C37.8141 70.9977 35.7533 67.5481 39.1665 64.2385L45.5477 65.4677Z" fill="white"/>
<path d="M26.8883 103.677L24.1191 100.924L24.8723 100.09L28.2407 102.957L26.8883 103.677Z" fill="#315CEC"/>
<path d="M43.5661 68.4806C40.7941 70.617 40.6093 78.7594 40.6737 82.4386C42.0737 77.295 43.7537 71.5746 44.7225 68.265C44.4565 68.041 44.0757 68.0858 43.5661 68.4806Z" fill="#315CEC"/>
<path opacity="0.6" d="M43.5661 68.4806C40.7941 70.617 40.6093 78.7594 40.6737 82.4386C42.0737 77.295 43.7537 71.5746 44.7225 68.265C44.4565 68.041 44.0757 68.0858 43.5661 68.4806Z" fill="white"/>
<path d="M24.5934 105.987C24.5675 105.991 24.541 105.991 24.515 105.987C24.2518 105.905 24.0642 105.427 23.9746 105.147C23.9719 105.137 23.972 105.127 23.975 105.117C23.978 105.108 23.9837 105.1 23.9914 105.093C23.9996 105.087 24.0094 105.084 24.0194 105.084C24.0295 105.084 24.0393 105.087 24.0474 105.093C24.1286 105.133 24.8286 105.499 24.8566 105.774C24.8592 105.804 24.8538 105.835 24.8411 105.863C24.8283 105.891 24.8086 105.915 24.7838 105.933C24.7282 105.972 24.6611 105.991 24.5934 105.987ZM24.1146 105.222C24.2434 105.592 24.3946 105.833 24.543 105.877C24.5745 105.885 24.6074 105.885 24.6388 105.877C24.6702 105.868 24.6989 105.852 24.7222 105.83C24.7334 105.823 24.7422 105.813 24.7477 105.801C24.7532 105.789 24.755 105.776 24.753 105.763C24.739 105.617 24.389 105.376 24.1146 105.222Z" fill="#315CEC"/>
<path d="M47.7072 65.9101C47.7072 65.9101 48.2476 83.0237 47.038 89.4693C45.7808 96.1725 41.9504 111.424 41.9504 111.424L38.834 111.021C38.834 111.021 40.794 95.6209 41.634 88.9541C42.544 81.6909 41.354 64.6809 41.354 64.6809L47.7072 65.9101Z" fill="#315CEC"/>
<path opacity="0.8" d="M47.7072 65.9101C47.7072 65.9101 48.2476 83.0237 47.038 89.4693C45.7808 96.1725 41.9504 111.424 41.9504 111.424L38.834 111.021C38.834 111.021 40.794 95.6209 41.634 88.9541C42.544 81.6909 41.354 64.6809 41.354 64.6809L47.7072 65.9101Z" fill="white"/>
<path d="M42.6135 111.601L38.1699 111.029L38.2231 109.974L43.0587 110.184L42.6135 111.601Z" fill="#315CEC"/>
<path d="M24.6623 105.312C24.4318 105.31 24.2045 105.259 23.9959 105.161C23.9887 105.156 23.9828 105.149 23.9784 105.141C23.9741 105.133 23.9714 105.125 23.9707 105.116C23.9713 105.107 23.9742 105.098 23.9791 105.09C23.984 105.082 23.9907 105.076 23.9987 105.071C24.0211 105.057 24.5587 104.752 24.8387 104.85C24.8772 104.862 24.9127 104.882 24.9427 104.909C24.9726 104.936 24.9964 104.97 25.0123 105.007C25.033 105.043 25.0407 105.084 25.0341 105.125C25.0274 105.166 25.0069 105.203 24.9759 105.231C24.8834 105.292 24.773 105.321 24.6623 105.312ZM24.1359 105.113C24.3795 105.211 24.8023 105.253 24.9143 105.152C24.9339 105.138 24.9507 105.11 24.9143 105.049C24.9052 105.025 24.8906 105.003 24.8717 104.985C24.8527 104.968 24.8299 104.955 24.8051 104.948C24.5704 104.933 24.3369 104.991 24.1359 105.113Z" fill="#315CEC"/>
<path d="M42.103 114.381C41.8752 114.376 41.6483 114.35 41.4254 114.303C41.415 114.301 41.4055 114.296 41.398 114.288C41.3905 114.281 41.3854 114.271 41.3834 114.261C41.3817 114.25 41.3836 114.239 41.3886 114.229C41.3937 114.22 41.4016 114.212 41.4114 114.207C41.5094 114.157 42.3858 113.715 42.6462 113.863C42.6704 113.877 42.6907 113.896 42.7054 113.92C42.7201 113.943 42.7286 113.97 42.7302 113.997C42.7357 114.044 42.7293 114.091 42.7117 114.135C42.6941 114.178 42.6658 114.217 42.6294 114.247C42.4746 114.351 42.2887 114.398 42.103 114.381ZM41.5962 114.23C42.0722 114.308 42.4362 114.289 42.5622 114.171C42.5857 114.151 42.6039 114.125 42.6152 114.097C42.6264 114.068 42.6303 114.037 42.6266 114.006C42.6268 113.995 42.6241 113.984 42.6186 113.974C42.6132 113.964 42.6054 113.956 42.5958 113.95C42.453 113.871 41.9574 114.059 41.5962 114.23Z" fill="#315CEC"/>
<path d="M41.4412 114.303C41.432 114.305 41.4223 114.305 41.4132 114.303C41.4056 114.297 41.3996 114.29 41.3957 114.282C41.3918 114.273 41.3901 114.264 41.3908 114.255C41.3908 114.216 41.5056 113.278 42.0208 113.334C42.1608 113.348 42.2028 113.421 42.2112 113.477C42.2504 113.72 41.7268 114.191 41.4636 114.317L41.4412 114.303ZM41.9816 113.426C41.668 113.426 41.5448 113.941 41.5084 114.16C41.7884 114 42.1328 113.631 42.1104 113.485C42.1104 113.485 42.1104 113.437 42.0096 113.429L41.9816 113.426Z" fill="#315CEC"/>
<path d="M39.1212 63.7011L38.6032 64.3955C38.5612 64.4515 38.6228 64.5243 38.7236 64.5439L47.8152 66.3051C47.8936 66.3219 47.9664 66.3051 47.9776 66.2463L48.1848 65.4903C48.1848 65.4371 48.1372 65.3811 48.0532 65.3643L39.2724 63.6619C39.246 63.6544 39.2181 63.654 39.1915 63.6609C39.1649 63.6678 39.1406 63.6817 39.1212 63.7011Z" fill="#315CEC"/>
<path d="M40.1385 64.9051L39.9033 64.8603C39.8585 64.8603 39.8249 64.8183 39.8333 64.7903L40.1133 63.8103C40.1133 63.7823 40.1665 63.7655 40.2113 63.7739L40.4465 63.8187C40.4941 63.8187 40.5249 63.8607 40.5165 63.8887L40.2365 64.8687C40.2309 64.8967 40.1861 64.9135 40.1385 64.9051Z" fill="#315CEC"/>
<path opacity="0.8" d="M40.1385 64.9051L39.9033 64.8603C39.8585 64.8603 39.8249 64.8183 39.8333 64.7903L40.1133 63.8103C40.1133 63.7823 40.1665 63.7655 40.2113 63.7739L40.4465 63.8187C40.4941 63.8187 40.5249 63.8607 40.5165 63.8887L40.2365 64.8687C40.2309 64.8967 40.1861 64.9135 40.1385 64.9051Z" fill="white"/>
<path d="M46.0761 66.0698L45.8409 66.0222C45.7933 66.0222 45.7625 65.983 45.7709 65.955L46.0509 64.9722C46.0509 64.9442 46.1041 64.9274 46.1517 64.9386L46.3869 64.9834C46.4345 64.9834 46.4653 65.0226 46.4569 65.0534L46.1769 66.0334C46.1685 66.0614 46.1237 66.0782 46.0761 66.0698Z" fill="#315CEC"/>
<path opacity="0.8" d="M46.0761 66.0698L45.8409 66.0222C45.7933 66.0222 45.7625 65.983 45.7709 65.955L46.0509 64.9722C46.0509 64.9442 46.1041 64.9274 46.1517 64.9386L46.3869 64.9834C46.4345 64.9834 46.4653 65.0226 46.4569 65.0534L46.1769 66.0334C46.1685 66.0614 46.1237 66.0782 46.0761 66.0698Z" fill="white"/>
</svg>
