<svg width="144" height="34" viewBox="0 0 144 34" fill="none" xmlns="http://www.w3.org/2000/svg">
<path d="M17 8.55218C9.0399 8.55218 4.25 13.642 4.25 19.9205C4.25 26.1991 9.0399 29.3118 17 29.3118C24.9601 29.3118 29.75 26.1991 29.75 19.9205C29.75 13.642 24.9601 8.55218 17 8.55218ZM17 8.55218C17 7.60774 17.7083 4.95837 19.8333 4.95837M12.75 16.427V20.677M21.25 16.427V20.677" stroke="url(#paint0_linear_6837_122922)" stroke-width="3.5" stroke-linecap="round"/>
<path d="M56.7036 11.9721L56.5732 13.2132C56.0454 18.7295 54.4112 23.8062 51.6704 28.4433H48.3684C49.9229 25.8576 51.107 23.3321 51.9207 20.8671C52.6835 18.5571 53.2117 16.0058 53.5052 13.2132L53.6356 11.9721H51.3736L51.4223 9.28287H53.9183L54.3504 5.17151H57.4184L56.9863 9.28287H60.3663C61.7183 9.28287 62.3391 9.9724 62.2289 11.3515C61.9399 16.5747 61.4434 21.298 60.7395 25.5214C60.4215 27.228 59.3539 28.1503 57.5367 28.2882C56.422 28.3399 55.3286 28.2709 54.2565 28.0813L53.8399 25.3663C54.8581 25.5731 55.7869 25.6421 56.6261 25.5731C57.3039 25.5559 57.6946 25.2197 57.7981 24.5647C58.4042 21.2722 58.8318 17.2039 59.0809 12.3599C59.0907 12.1013 58.9743 11.9721 58.7316 11.9721H56.7036ZM49.0265 22.6771L50.2388 22.5219L49.967 25.1077L37.9014 26.6074L37.8585 24.0475L39.2815 23.8665L40.9094 8.37785C41.0544 6.99878 41.8202 6.30925 43.2068 6.30925H48.6668C50.0535 6.30925 50.6744 6.99878 50.5294 8.37785L49.0265 22.6771ZM45.9177 23.065L46.2629 19.781H42.7789L42.3902 23.4787L45.9177 23.065ZM46.5238 17.2987L46.8363 14.3251H43.3523L43.0398 17.2987H46.5238ZM47.0972 11.8428L47.3663 9.28287C47.3935 9.02429 47.2771 8.895 47.0171 8.895H44.3131C44.0531 8.895 43.9095 9.02429 43.8823 9.28287L43.6132 11.8428H47.0972ZM84.9283 13.3166H82.5883L82.3301 15.7731H84.2801C84.5401 15.7731 84.6837 15.6438 84.7109 15.3853L84.9283 13.3166ZM85.1892 10.8343L85.3903 8.92086C85.4175 8.66228 85.3011 8.533 85.0411 8.533H83.0911L82.8492 10.8343H85.1892ZM81.3572 25.0301H87.6752L87.4034 27.6159H71.9594L71.9797 25.4438L64.1754 26.9694L63.99 24.2803L66.9358 23.7114L67.6614 16.8074H65.4774L65.4892 14.2217H67.9332L68.4767 9.05015H66.1367L66.1485 6.46439H74.2085L73.9367 9.05015H71.4407L70.8972 14.2217H73.0552L72.7834 16.8074H70.6254L69.9596 23.1425L72.6399 22.6254L72.3872 25.0301H78.3412L78.5668 22.8839H73.3148L73.3265 20.2982H78.8385L79.0424 18.3589H75.8184C74.4508 18.3416 73.83 17.6521 73.9558 16.2903L74.8255 8.01584C74.9859 6.65401 75.7517 5.96448 77.1229 5.94724H86.5869C87.9544 5.96448 88.5753 6.65401 88.4495 8.01584L87.5798 16.2903C87.4193 17.6521 86.6535 18.3416 85.2824 18.3589H82.0584L81.8545 20.2982H87.3405L87.0688 22.8839H81.5828L81.3572 25.0301ZM79.3141 15.7731L79.5723 13.3166H77.2323L77.0149 15.3853C76.9877 15.6438 77.1041 15.7731 77.3641 15.7731H79.3141ZM79.8332 10.8343L80.0751 8.533H78.1251C77.8651 8.533 77.7215 8.66228 77.6943 8.92086L77.4932 10.8343H79.8332ZM105.323 8.01584H115.255L114.973 10.705H92.2488L92.2975 8.01584H102.099L102.398 5.17151H105.622L105.323 8.01584ZM104.404 16.2644L103.124 28.4433H100.004L101.284 16.2644H96.1365C95.8765 16.2644 95.7347 16.3765 95.7112 16.6006L94.7518 25.7283H91.7358L92.8202 15.4111C92.8745 14.894 93.1 14.4802 93.4966 14.1699C93.9124 13.8424 94.4236 13.6787 95.0303 13.6787H101.556L101.774 11.61H104.894L104.676 13.6787H111.202C111.792 13.6787 112.26 13.8424 112.607 14.1699C112.938 14.4802 113.077 14.894 113.022 15.4111L112.212 23.1167C112.143 23.7717 111.825 24.332 111.256 24.7974C110.687 25.2628 110.003 25.5042 109.204 25.5214C108.002 25.5731 106.771 25.4956 105.51 25.2887L105.114 22.6254C106.169 22.815 107.208 22.9012 108.233 22.8839C108.547 22.8667 108.799 22.7719 108.991 22.5995C109.184 22.4099 109.295 22.1772 109.324 21.9014L109.881 16.6006C109.905 16.3765 109.786 16.2644 109.526 16.2644H104.404ZM136.053 15.9541C135.097 19.6087 133.559 22.6168 131.439 24.9784C132.403 25.2025 133.396 25.3232 134.417 25.3404C134.798 25.3404 135.12 25.2456 135.382 25.056C135.626 24.8836 135.78 24.6509 135.846 24.3578C136.513 21.8065 136.871 19.1346 136.922 16.342C136.878 16.1006 136.762 15.9714 136.573 15.9541H136.053ZM133.219 15.9541H131.581C131.075 17.7986 130.346 19.3759 129.394 20.6861C128.48 21.9617 127.134 23.3063 125.356 24.7198L124.747 21.8496C125.785 20.8843 126.619 19.9534 127.251 19.057C127.905 18.1089 128.413 17.0746 128.773 15.9541H126.927L126.656 13.3425L134.756 8.99843H127.138L127.166 6.25753H137.592C138.303 6.25753 138.845 6.45577 139.22 6.85226C139.579 7.2315 139.716 7.74003 139.631 8.37785C139.606 8.61919 139.53 8.85191 139.402 9.07601C139.212 9.40353 138.942 9.66211 138.592 9.85173L132.02 13.2649H138.182C138.875 13.2649 139.41 13.4546 139.786 13.8338C140.162 14.213 140.334 14.7216 140.302 15.3594C140.136 19.0829 139.689 22.4271 138.961 25.3921C138.77 26.2196 138.371 26.8833 137.764 27.3832C137.117 27.9348 136.316 28.2106 135.363 28.2106C133.786 28.2106 132.548 28.1072 131.652 27.9003L131.232 25.2111C130.098 26.4351 128.697 27.6417 127.03 28.8312L126.432 25.8576C129.754 23.4442 132.016 20.143 133.219 15.9541ZM122.413 21.3066L124.664 20.6602L124.368 23.4787L116.532 25.8059L116.219 23.0908L119.275 22.2117L120.161 13.7821H117.561L117.579 11.1446H120.439L121.066 5.17151H124.108L123.481 11.1446H125.899L125.621 13.7821H123.203L122.413 21.3066Z" fill="url(#paint1_linear_6837_122922)"/>
<defs>
<linearGradient id="paint0_linear_6837_122922" x1="22.3205" y1="22.4031" x2="13.2919" y2="4.48264" gradientUnits="userSpaceOnUse">
<stop stop-color="#00D8FF"/>
<stop offset="1" stop-color="#0046FF"/>
</linearGradient>
<linearGradient id="paint1_linear_6837_122922" x1="39.554" y1="0" x2="138.484" y2="37.7829" gradientUnits="userSpaceOnUse">
<stop stop-color="#33D6C0"/>
<stop offset="0.25" stop-color="#5083FB"/>
<stop offset="0.5" stop-color="#336DF4"/>
<stop offset="0.75" stop-color="#4752E6"/>
<stop offset="1" stop-color="#8D55ED"/>
</linearGradient>
</defs>
</svg>
