<svg xmlns="http://www.w3.org/2000/svg" width="24" height="24" viewBox="0 0 24 24" fill="none">
  <mask id="path-1-inside-1_43_73789" fill="white">
    <path fill-rule="evenodd" clip-rule="evenodd"
      d="M12.0185 6.49877C11.8936 5.89336 11.8976 5.09686 12.4836 4.4722C13.577 3.30657 14.5954 3.49187 15.0347 4.02935C15.3131 4.37004 15.6717 5.1915 14.9701 5.64452C14.7775 5.76895 14.5084 5.90006 14.2385 6.03158C13.8628 6.2146 13.4856 6.39842 13.3102 6.56617C18.1403 7.07529 21 10.4063 21 14.4395C21 18.8251 17.6189 20.9993 12 20.9993C6.3811 20.9993 3 18.8251 3 14.4395C3 10.054 6.3811 6.49876 12 6.49876C12.0062 6.49876 12.0123 6.49876 12.0185 6.49877Z" />
  </mask>
  <path
    d="M12.4836 4.4722L11.0249 3.1039V3.1039L12.4836 4.4722ZM12.0185 6.49877L12.0157 8.49877L14.4737 8.5022L13.9772 6.09485L12.0185 6.49877ZM15.0347 4.02935L16.5832 2.76369L16.5832 2.76368L15.0347 4.02935ZM14.9701 5.64452L13.8852 3.96436L13.8852 3.96436L14.9701 5.64452ZM14.2385 6.03158L13.3624 4.23366L13.3624 4.23366L14.2385 6.03158ZM13.3102 6.56617L11.9279 5.1207L8.80939 8.10284L13.1005 8.55515L13.3102 6.56617ZM11.0249 3.1039C9.79176 4.41849 9.87744 6.01896 10.0597 6.90269L13.9772 6.09485C13.9637 6.02902 13.9562 5.97008 13.9538 5.92C13.9515 5.86994 13.9546 5.83749 13.9574 5.82054C13.96 5.805 13.9616 5.80649 13.9562 5.81792C13.9537 5.82332 13.9505 5.82892 13.9471 5.83398C13.9436 5.83909 13.9415 5.84128 13.9423 5.84049L11.0249 3.1039ZM16.5832 2.76368C15.9483 1.98687 14.9506 1.53864 13.8605 1.61729C12.7793 1.6953 11.8114 2.26546 11.0249 3.1039L13.9423 5.84049C14.2492 5.5133 14.3371 5.5933 14.1483 5.60692C13.9506 5.62119 13.6817 5.53434 13.4861 5.29501L16.5832 2.76368ZM16.0551 7.32468C17.1627 6.60948 17.4664 5.47438 17.3555 4.55516C17.2623 3.78268 16.8967 3.14719 16.5832 2.76369L13.4861 5.29501C13.4487 5.24925 13.4359 5.22367 13.4295 5.20993C13.4232 5.19658 13.3969 5.13894 13.3843 5.03446C13.3711 4.92476 13.3691 4.72057 13.4685 4.48146C13.5753 4.22441 13.747 4.0536 13.8852 3.96436L16.0551 7.32468ZM15.1145 7.82951C15.3455 7.71698 15.739 7.52881 16.0551 7.32468L13.8852 3.96436C13.816 4.00909 13.6713 4.08314 13.3624 4.23366L15.1145 7.82951ZM14.6924 8.01164C14.6194 8.08149 14.5702 8.11206 14.5813 8.10467C14.5865 8.10126 14.611 8.08571 14.6635 8.05683C14.7747 7.99561 14.9154 7.92651 15.1145 7.82951L13.3624 4.23366C13.1859 4.31967 12.9502 4.434 12.735 4.55238C12.5527 4.65271 12.2169 4.84439 11.9279 5.1207L14.6924 8.01164ZM13.1005 8.55515C16.9938 8.96553 19 11.5091 19 14.4395H23C23 9.30342 19.2867 5.18505 13.5198 4.57719L13.1005 8.55515ZM19 14.4395C19 16.0433 18.4226 17.0466 17.4542 17.7297C16.3789 18.4883 14.6002 18.9993 12 18.9993V22.9993C15.0187 22.9993 17.74 22.4233 19.76 20.9983C21.8868 19.498 23 17.2213 23 14.4395H19ZM12 18.9993C9.39977 18.9993 7.62106 18.4883 6.54578 17.7297C5.57736 17.0466 5 16.0433 5 14.4395H1C1 17.2213 2.11319 19.498 4.24004 20.9983C6.26004 22.4233 8.98133 22.9993 12 22.9993V18.9993ZM5 14.4395C5 12.7781 5.63153 11.3322 6.75377 10.2902C7.87868 9.2457 9.61836 8.49876 12 8.49876V4.49876C8.76274 4.49876 6.00243 5.52942 4.03206 7.35893C2.05902 9.19092 1 11.7154 1 14.4395H5ZM12 8.49876C12.005 8.49876 12.0102 8.49876 12.0157 8.49877L12.0213 4.49877C12.0144 4.49876 12.0073 4.49876 12 4.49876V8.49876Z"
    fill="white" mask="url(#path-1-inside-1_43_73789)" />
  <path
    d="M8.14282 11.9369C8.14282 11.5365 8.47176 11.2119 8.87752 11.2119C9.28328 11.2119 9.61221 11.5365 9.61221 11.9369V14.4745C9.61221 14.875 9.28328 15.1996 8.87752 15.1996C8.47176 15.1996 8.14282 14.875 8.14282 14.4745V11.9369Z"
    fill="white" />
  <path
    d="M14.7551 11.9369C14.7551 11.5365 15.0841 11.2119 15.4898 11.2119C15.8956 11.2119 16.2245 11.5365 16.2245 11.9369V14.4745C16.2245 14.875 15.8956 15.1996 15.4898 15.1996C15.0841 15.1996 14.7551 14.875 14.7551 14.4745V11.9369Z"
    fill="white" />
</svg>