<svg width="61" height="60" viewBox="0 0 61 60" fill="none" xmlns="http://www.w3.org/2000/svg">
<g clip-path="url(#clip0_5387_92667)">
<rect x="0.5" width="60" height="60" rx="30" fill="#F9F9F9"/>
<path d="M18.6151 12.3354C16.6261 15.3392 18.3931 18.8293 19.2019 20.1078C20.0581 19.8223 21.7472 19.0712 21.6536 18.3512C21.5367 17.4513 24.6442 15.7508 26.0169 14.4939C27.747 12.9099 26.3813 10.7732 25.4567 9.94554C23.9981 8.63982 21.1013 8.58076 18.6151 12.3354Z" fill="#E6E7EA"/>
<path d="M46.6871 36.3833C48.6918 48.6542 40.3497 56.2629 24.8348 58.7976C9.31986 61.3323 -1.00994 56.7741 -3.01466 44.5031C-5.01938 32.2322 2.6914 20.7594 18.2063 18.2247C33.7213 15.69 44.6824 24.1124 46.6871 36.3833Z" fill="#E6E7EA"/>
<path d="M39.4852 36.9645C40.8885 45.5541 42.446 49.6718 23.8398 52.7115C5.23359 55.7512 5.39963 51.352 3.99632 42.7624C2.59302 34.1727 2.7445 26.9988 19.1998 24.3105C35.6552 21.6222 38.0819 28.3748 39.4852 36.9645Z" fill="white"/>
<path d="M10.0404 35.1795C9.85737 34.0591 10.6172 33.0025 11.7376 32.8195C12.858 32.6364 13.9147 33.3963 14.0977 34.5167L15.2577 41.6169C15.4407 42.7373 14.6808 43.794 13.5605 43.977C12.4401 44.16 11.3834 43.4002 11.2004 42.2798L10.0404 35.1795Z" fill="#E6E7EA"/>
<path d="M28.3002 32.1966C28.1171 31.0762 28.877 30.0196 29.9974 29.8365C31.1178 29.6535 32.1744 30.4134 32.3575 31.5338L33.5174 38.634C33.7005 39.7544 32.9406 40.811 31.8202 40.9941C30.6998 41.1771 29.6432 40.4173 29.4602 39.2969L28.3002 32.1966Z" fill="#E6E7EA"/>
<path d="M54.3245 36.6536C53.4273 37.1608 53.3909 38.1962 53.4175 38.5932C53.6674 38.6179 54.1857 38.6214 54.2601 38.4375C54.353 38.2076 55.3498 38.1372 55.8586 37.984C56.4998 37.7911 56.452 37.1261 56.3359 36.8253C56.1527 36.3507 55.446 36.0196 54.3245 36.6536Z" fill="#C6C8CD"/>
<path d="M53.9966 35.8428C54.4452 37.5598 53.0962 38.8923 52.528 39.3541C52.1794 39.0825 51.5207 38.4595 51.6747 38.1406C51.8672 37.742 50.7046 36.4481 50.269 35.6418C49.7201 34.6256 50.6761 33.856 51.2279 33.6222C52.0983 33.2533 53.4359 33.6965 53.9966 35.8428Z" fill="#C6C8CD"/>
<path d="M63.4121 49.8416C62.9433 56.0407 57.9945 58.7573 50.1565 58.1646C42.3186 57.5718 37.8346 54.1418 38.3035 47.9427C38.7723 41.7436 43.8687 37.0749 51.7067 37.6677C59.5446 38.2605 63.8809 43.6425 63.4121 49.8416Z" fill="#C6C8CD"/>
<path d="M59.8452 49.2775C59.517 53.6168 59.7897 55.801 50.3901 55.0902C40.9905 54.3793 41.5886 52.2609 41.9167 47.9216C42.2449 43.5822 43.1622 40.1137 51.4752 40.7424C59.7882 41.3711 60.1734 44.9381 59.8452 49.2775Z" fill="white"/>
<path d="M45.7467 44.9472C45.7895 44.3812 46.2831 43.9571 46.8491 43.9999C47.4151 44.0427 47.8392 44.5362 47.7964 45.1022L47.5251 48.6892C47.4823 49.2552 46.9888 49.6793 46.4228 49.6365C45.8568 49.5937 45.4326 49.1002 45.4754 48.5342L45.7467 44.9472Z" fill="#C6C8CD"/>
<path d="M54.9694 45.6447C55.0122 45.0787 55.5057 44.6546 56.0717 44.6974C56.6377 44.7402 57.0619 45.2337 57.0191 45.7997L56.7478 49.3867C56.705 49.9527 56.2114 50.3768 55.6454 50.334C55.0794 50.2912 54.6553 49.7977 54.6981 49.2317L54.9694 45.6447Z" fill="#C6C8CD"/>
</g>
<defs>
<clipPath id="clip0_5387_92667">
<rect x="0.5" width="60" height="60" rx="30" fill="white"/>
</clipPath>
</defs>
</svg>
