<svg
    xmlns="http://www.w3.org/2000/svg"
    width="12"
    height="12"
    viewBox="0 0 12 12"
    fill="none"
>
    <g clipPath="url(#clip0_10756_157535)">
        <path
            d="M10.6884 8.1471C10.724 8.14424 10.7599 8.14852 10.7938 8.15969C10.8278 8.17085 10.8591 8.18867 10.8861 8.21211C10.9131 8.23554 10.9351 8.26412 10.9509 8.29618C10.9667 8.32823 10.9759 8.36311 10.9781 8.39877C10.9802 8.43444 10.9752 8.47018 10.9634 8.50389C10.9515 8.5376 10.9331 8.56862 10.9091 8.59512C10.8852 8.62161 10.8561 8.64306 10.8238 8.65821C10.7914 8.67336 10.7564 8.6819 10.7207 8.68334L1.61347 9.22468L2.14299 10.1051C2.17697 10.1615 2.18904 10.2284 2.1769 10.2932C2.16477 10.3579 2.12928 10.4159 2.07717 10.4562L2.05111 10.4739C1.99005 10.5106 1.91691 10.5215 1.84779 10.5043C1.77867 10.4871 1.71922 10.4431 1.68251 10.3821L0.992873 9.2357C0.96189 9.18421 0.944716 9.1256 0.943012 9.06553C0.941307 9.00546 0.955129 8.94597 0.983142 8.89281C1.01116 8.83965 1.05241 8.79461 1.10292 8.76206C1.15343 8.7295 1.21148 8.71053 1.27147 8.70698L10.6882 8.1471H10.6884Z"
            fill="white"
        />
        <path
            d="M1.71512 9.97502C1.9056 9.97099 2.0684 10.0449 2.24249 10.183C2.28601 10.2176 2.32954 10.2555 2.38354 10.3047C2.40422 10.3235 2.4918 10.4049 2.51464 10.4256C2.7524 10.6424 2.90768 10.7305 3.10676 10.7359C3.31524 10.7415 3.46837 10.666 3.73622 10.4524C3.82273 10.3828 3.86894 10.346 3.91515 10.3114C4.13733 10.1432 4.32001 10.057 4.5438 10.0521C4.76518 10.0476 4.94948 10.122 5.16762 10.2705C5.19879 10.292 5.23049 10.3146 5.27025 10.3434L5.36751 10.4148C5.62703 10.6034 5.78392 10.6746 6.001 10.6746C6.21539 10.6746 6.34407 10.6099 6.55013 10.4296C6.55551 10.425 6.63637 10.3533 6.66136 10.3321C6.87574 10.1472 7.04688 10.0572 7.28679 10.0521C7.48318 10.0481 7.65512 10.1059 7.85151 10.2203C7.91598 10.2579 7.98046 10.2993 8.09894 10.3769C8.36545 10.5489 8.53443 10.6163 8.76548 10.6163C8.99598 10.6163 9.14052 10.5534 9.36028 10.3879L9.47231 10.3033L9.50455 10.2791C9.70739 10.1311 9.87422 10.0567 10.091 10.0521C10.4779 10.0441 10.9459 10.2536 11.5152 10.6679C11.5709 10.7105 11.6077 10.7732 11.6178 10.8426C11.6279 10.912 11.6105 10.9826 11.5692 11.0393C11.528 11.096 11.4662 11.1343 11.3971 11.1461C11.3279 11.1579 11.2569 11.1422 11.1992 11.1023C10.7165 10.7509 10.3438 10.5843 10.1026 10.5892C10.0174 10.5911 9.9438 10.6241 9.82156 10.7133C9.79309 10.734 9.68374 10.8173 9.68348 10.8175C9.37909 11.0464 9.13273 11.1536 8.76548 11.1536C8.40924 11.1536 8.15348 11.0515 7.80798 10.8285C7.73363 10.7786 7.65802 10.7306 7.58124 10.6845C7.46276 10.6155 7.37974 10.5878 7.29807 10.5894C7.2113 10.5911 7.14037 10.6284 7.01195 10.7391C6.99046 10.7579 6.91148 10.8277 6.90368 10.8342C6.60924 11.0921 6.3704 11.2119 6.001 11.2119C5.64422 11.2119 5.39464 11.0988 5.05157 10.8492L4.95377 10.7778C4.91831 10.7517 4.89091 10.7321 4.86512 10.7146C4.73079 10.623 4.64267 10.5876 4.55509 10.5894C4.46965 10.5911 4.37939 10.6338 4.23915 10.7399C4.19939 10.77 4.15936 10.8017 4.07097 10.8729C3.71231 11.1585 3.46058 11.2831 3.09198 11.2732C2.73198 11.2632 2.4773 11.1187 2.15249 10.8226L2.02139 10.7015C1.97571 10.6596 1.94079 10.6292 1.90855 10.6037C1.82366 10.5365 1.76885 10.5115 1.72694 10.5123C1.537 10.5164 1.21998 10.7488 0.816998 11.2296C0.771183 11.2843 0.705549 11.3184 0.634534 11.3247C0.563519 11.3309 0.492942 11.3086 0.438327 11.2628C0.383712 11.217 0.349534 11.1514 0.343312 11.0804C0.337089 11.0093 0.359332 10.9388 0.405148 10.8842C0.900282 10.2931 1.32342 9.98308 1.71539 9.97475L1.71512 9.97502ZM8.53013 7.10362C8.16127 6.01556 7.80127 5.19508 7.45362 4.6446C7.07133 4.03959 6.39942 3.2895 5.43951 2.39998C5.38724 2.35153 5.35637 2.2843 5.35367 2.21308C5.35098 2.14186 5.37668 2.07249 5.42513 2.02023C5.47358 1.96797 5.54081 1.93709 5.61203 1.9344C5.68324 1.9317 5.75261 1.95741 5.80488 2.00586C6.79595 2.92413 7.49634 3.70646 7.90792 4.35768C8.29774 4.97478 8.68971 5.88016 9.08813 7.07756C9.29903 7.06762 9.48789 7.0695 9.655 7.08374L9.73694 7.0918C9.97443 7.1192 10.2409 7.17831 10.5367 7.26911C10.5709 7.27905 10.6028 7.29568 10.6305 7.31805C10.6582 7.34042 10.6812 7.36807 10.6981 7.3994C10.7151 7.43073 10.7256 7.46512 10.7291 7.50056C10.7326 7.53599 10.7291 7.57178 10.7186 7.60583C10.7082 7.63988 10.6911 7.67151 10.6683 7.69889C10.6456 7.72627 10.6176 7.74885 10.586 7.76532C10.5544 7.78178 10.5199 7.79181 10.4844 7.7948C10.4489 7.7978 10.4132 7.79372 10.3793 7.78278C10.1128 7.70111 9.87825 7.64899 9.67595 7.62589C9.52013 7.60789 9.33261 7.60413 9.11419 7.61434C8.99706 7.61997 8.88129 7.58712 8.78457 7.52081C8.68785 7.4545 8.61547 7.35837 8.57849 7.24708L8.53013 7.10362Z"
            fill="white"
        />
        <path
            d="M5.38576 2.0755C5.40252 2.04445 5.42523 2.01701 5.45259 1.99474C5.47996 1.97247 5.51144 1.9558 5.54524 1.9457C5.57905 1.9356 5.61451 1.93225 5.64961 1.93585C5.6847 1.93945 5.71875 1.94993 5.74979 1.96669C7.2086 2.75332 8.28054 3.53753 8.96534 4.32496C9.64854 5.11051 10.2294 6.14645 10.7097 7.43197C10.7221 7.46503 10.7278 7.5002 10.7266 7.53547C10.7253 7.57073 10.7171 7.60541 10.7025 7.63752C10.6878 7.66962 10.667 7.69853 10.6412 7.72259C10.6154 7.74665 10.5851 7.76539 10.552 7.77774C10.519 7.79008 10.4838 7.7958 10.4485 7.79456C10.4133 7.79332 10.3786 7.78514 10.3465 7.77049C10.3144 7.75585 10.2855 7.73503 10.2614 7.70921C10.2374 7.68339 10.2186 7.65309 10.2063 7.62003C9.74714 6.3912 9.19746 5.4106 8.55994 4.67771C7.92349 3.94615 6.90152 3.19821 5.49457 2.4398C5.46349 2.42304 5.43601 2.40032 5.41372 2.37293C5.39143 2.34555 5.37475 2.31404 5.36464 2.2802C5.35454 2.24637 5.3512 2.21087 5.35483 2.17575C5.35845 2.14062 5.36896 2.10656 5.38576 2.0755ZM4.48227 6.88714C5.33337 6.88714 6.26723 7.04753 7.28409 7.36696C7.31775 7.37754 7.34899 7.39465 7.37604 7.41731C7.40308 7.43997 7.4254 7.46774 7.44172 7.49902C7.45803 7.5303 7.46802 7.56449 7.47113 7.59964C7.47423 7.63479 7.47038 7.6702 7.45979 7.70386C7.44921 7.73751 7.4321 7.76876 7.40944 7.7958C7.38678 7.82285 7.35902 7.84516 7.32773 7.86148C7.29645 7.87779 7.26226 7.88779 7.22711 7.89089C7.19197 7.89399 7.15655 7.89014 7.1229 7.87956C6.15573 7.57597 5.27535 7.42445 4.482 7.42445C3.70612 7.42445 2.85932 7.6598 1.94078 8.13478C1.90938 8.15174 1.87493 8.16227 1.83941 8.16577C1.8039 8.16927 1.76805 8.16566 1.73395 8.15514C1.69985 8.14463 1.66819 8.12744 1.64081 8.10455C1.61343 8.08167 1.59088 8.05357 1.57449 8.02187C1.55809 7.99018 1.54817 7.95554 1.5453 7.91998C1.54244 7.88441 1.54669 7.84863 1.5578 7.81472C1.56892 7.78082 1.58667 7.74946 1.61004 7.72249C1.6334 7.69552 1.66191 7.67348 1.69388 7.65765C2.68415 7.14559 3.61343 6.88714 4.482 6.88714H4.48227Z"
            fill="white"
        />
        <path
            d="M1.631 0.871022C1.66189 0.853959 1.69583 0.843148 1.7309 0.839206C1.76596 0.835264 1.80146 0.838269 1.83537 0.848048C1.86927 0.857828 1.90092 0.874191 1.9285 0.896203C1.95608 0.918215 1.97905 0.945444 1.9961 0.976335C2.73222 2.31102 3.10324 3.54389 3.10324 4.6752C3.10324 5.81054 2.74861 6.93353 2.04419 8.0404C2.00552 8.09959 1.94508 8.14115 1.87596 8.15607C1.80685 8.17098 1.73464 8.15806 1.675 8.12008C1.61536 8.08211 1.57309 8.02216 1.55736 7.95323C1.54163 7.8843 1.5537 7.81194 1.59097 7.75186C2.24246 6.72828 2.56619 5.70389 2.56619 4.6752C2.56619 3.64302 2.22097 2.49639 1.52568 1.23613C1.50862 1.20524 1.49781 1.17129 1.49387 1.13623C1.48993 1.10116 1.49293 1.06566 1.50271 1.03176C1.51249 0.997854 1.52885 0.966209 1.55087 0.938629C1.57288 0.91105 1.60011 0.888077 1.631 0.871022Z"
            fill="white"
        />
        <path
            d="M1.51175 1.00569C1.53842 0.939654 1.59022 0.886914 1.65576 0.859055C1.7213 0.831197 1.79522 0.830501 1.86128 0.857119C3.25372 1.41888 4.47772 2.30169 5.53086 3.50312C6.2205 4.28975 6.76963 5.34637 7.16295 6.46694C7.29566 6.8444 7.39802 7.20037 7.44665 7.43061C7.45739 7.48112 7.46492 7.52303 7.46895 7.55607C7.47163 7.58052 7.47325 7.60175 7.47217 7.62485C7.4711 7.65252 7.4711 7.65252 7.45605 7.71028C7.41495 7.81667 7.41495 7.81667 7.1874 7.89163C7.02459 7.8387 7.02459 7.8387 6.98993 7.79169C6.96683 7.76025 6.96683 7.76025 6.95608 7.74064C6.94599 7.72152 6.9371 7.70178 6.92948 7.68154C6.91605 7.64688 6.90074 7.60067 6.88328 7.5421C6.86854 7.49328 6.86807 7.44127 6.88193 7.39219L6.88381 7.38548L6.88274 7.37983C6.82489 7.15981 6.75875 6.94204 6.68447 6.727L6.65599 6.64479C6.28337 5.5836 5.76405 4.58419 5.1268 3.85721C4.1282 2.7181 2.97351 1.88527 1.66032 1.35548C1.62759 1.34227 1.59779 1.32275 1.57261 1.29802C1.54743 1.27329 1.52736 1.24385 1.51357 1.21136C1.49977 1.17888 1.49251 1.144 1.4922 1.1087C1.49189 1.07341 1.49853 1.03841 1.51175 1.00569ZM10.5287 8.2124C10.5551 8.188 10.5862 8.16916 10.62 8.15699C10.6539 8.14482 10.6899 8.13958 10.7258 8.14157C10.7617 8.14356 10.7969 8.15275 10.8292 8.16858C10.8615 8.18442 10.8903 8.20658 10.9138 8.23376C10.9374 8.26093 10.9553 8.29257 10.9664 8.32678C10.9775 8.361 10.9817 8.3971 10.9786 8.43295C10.9755 8.46879 10.9652 8.50365 10.9484 8.53545C10.9315 8.56725 10.9085 8.59535 10.8806 8.61807C10.2778 9.14088 9.8111 9.50518 9.47501 9.71419C9.36701 9.78109 9.23644 9.86088 9.08277 9.9533L8.94602 10.0352C8.59507 10.2449 8.24312 10.453 7.8902 10.6593C7.82871 10.6953 7.75543 10.7055 7.68648 10.6874C7.61753 10.6694 7.55856 10.6248 7.52254 10.5633C7.48653 10.5018 7.47641 10.4285 7.49442 10.3596C7.51243 10.2906 7.5571 10.2316 7.61859 10.1956C8.34799 9.76846 8.87241 9.45575 9.19131 9.25748C9.49811 9.067 9.94542 8.71775 10.5287 8.2124Z"
            fill="white"
        />
    </g>
    <defs>
        <clipPath id="clip0_10756_157535">
            <rect width="12" height="12" fill="white" />
        </clipPath>
    </defs>
</svg>