<svg width="61" height="60" viewBox="0 0 61 60" fill="none" xmlns="http://www.w3.org/2000/svg">
<g clip-path="url(#clip0_5387_92657)">
<path d="M0.5 30C0.5 37.9565 3.66071 45.5871 9.2868 51.2132C14.9129 56.8393 22.5435 60 30.5 60C38.4565 60 46.0871 56.8393 51.7132 51.2132C57.3393 45.5871 60.5 37.9565 60.5 30C60.5 22.0435 57.3393 14.4129 51.7132 8.7868C46.0871 3.16071 38.4565 0 30.5 0C22.5435 0 14.9129 3.16071 9.2868 8.7868C3.66071 14.4129 0.5 22.0435 0.5 30Z" fill="#EEF3FD"/>
<path d="M49.7604 46.9571V32.3999H38.9004V58.8143C42.5004 57.7199 45.5748 56.1983 48.126 54.2459C50.6772 52.2935 52.434 50.6591 53.394 49.3415L49.7604 46.9559V46.9571Z" fill="#DADDE2"/>
<path d="M11.3008 15.6001H41.3008V18.0001H11.3008V15.6001ZM37.7008 30.0001H50.9008V32.4001H37.7008V30.0001ZM53.0512 49.8001L49.7008 47.4973V45.1381L54.2728 48.2797L53.842 48.8221L53.05 49.7977L53.0512 49.8001Z" fill="#4A80FB"/>
<path d="M13.6992 18H38.8992V58.8144C34.8576 60 30.6576 60.2964 26.2992 59.7036C21.9384 59.112 17.7384 57.4956 13.6992 54.8556V18Z" fill="#80A6FC"/>
<path d="M16.0996 45.6001H36.4996V48.0001H16.0996V45.6001Z" fill="#4A80FB"/>
<path d="M18.5 48H34.1V59.7924C31.4829 60.0822 28.8402 60.052 26.2304 59.7024C23.6624 59.3532 21.086 58.6176 18.5 57.4968V48Z" fill="#173C92"/>
<path d="M18.4961 21.6001H23.2997V26.4001H18.4961V21.6001ZM18.4961 30.0001H23.2997V34.8001H18.4961V30.0001ZM29.2961 21.6001H34.0997V26.4001H29.2961V21.6001ZM29.2961 30.0001H34.0997V34.8001H29.2961V30.0001ZM18.4961 38.4001H23.2997V43.2001H18.4961V38.4001ZM29.2961 38.4001H34.0997V43.2001H29.2961V38.4001Z" fill="white"/>
<path d="M41.3008 36H46.1008V40.8H41.3008V36ZM41.3008 44.4H46.1008V49.2H41.3008V44.4ZM41.3008 52.8H46.1008V55.6296C45.88 55.8072 45.3496 56.112 44.506 56.5464C43.7759 56.9271 43.0309 57.2786 42.2728 57.6H41.3008V52.8Z" fill="#173C92"/>
</g>
<defs>
<clipPath id="clip0_5387_92657">
<rect x="0.5" width="60" height="60" rx="30" fill="white"/>
</clipPath>
</defs>
</svg>
