<svg width="86" height="20" viewBox="0 0 86 20" fill="none" xmlns="http://www.w3.org/2000/svg">
    <rect x="0.5" y="0.5" width="85" height="19" rx="3.5" stroke="url(#paint0_linear_6237_59809)" />
    <path
        d="M10.75 6.5L12.5 8.25M5.5 15.25L14.25 6.5L12.5 4.75L3.75 13.5L5.5 15.25ZM7.25 4.75C7.25 5.05942 7.37292 5.35617 7.59171 5.57496C7.8105 5.79375 8.10725 5.91667 8.41667 5.91667C8.10725 5.91667 7.8105 6.03958 7.59171 6.25838C7.37292 6.47717 7.25 6.77391 7.25 7.08333C7.25 6.77391 7.12708 6.47717 6.90829 6.25838C6.6895 6.03958 6.39275 5.91667 6.08333 5.91667C6.39275 5.91667 6.6895 5.79375 6.90829 5.57496C7.12708 5.35617 7.25 5.05942 7.25 4.75ZM13.0833 10.5833C13.0833 10.8928 13.2062 11.1895 13.425 11.4083C13.6438 11.6271 13.9406 11.75 14.25 11.75C13.9406 11.75 13.6438 11.8729 13.425 12.0917C13.2062 12.3105 13.0833 12.6072 13.0833 12.9167C13.0833 12.6072 12.9604 12.3105 12.7416 12.0917C12.5228 11.8729 12.2261 11.75 11.9167 11.75C12.2261 11.75 12.5228 11.6271 12.7416 11.4083C12.9604 11.1895 13.0833 10.8928 13.0833 10.5833Z"
        stroke="url(#paint1_linear_6237_59809)" stroke-linecap="round" stroke-linejoin="round" />
    <path
        d="M29.5219 5.564V7.928H28.6939V6.344H23.9059V7.976H23.0899V5.564H25.8499C25.6939 5.084 25.5139 4.652 25.3219 4.244L26.1979 4.1C26.3779 4.532 26.5459 5.012 26.7139 5.564H29.5219ZM25.3219 7.1L26.1619 7.172C25.9939 7.856 25.8139 8.48 25.6459 9.032H29.9059V9.86H28.4659C28.2739 11.06 27.8539 12.068 27.2179 12.86C28.3459 13.484 29.2459 14.048 29.9419 14.528L29.3539 15.212C28.6339 14.684 27.7339 14.108 26.6539 13.472C25.8139 14.216 24.4699 14.804 22.5979 15.248L22.2499 14.432C23.8339 14.072 25.0219 13.592 25.8379 12.992C25.1419 12.596 24.3979 12.188 23.6059 11.768C23.9299 11.168 24.2179 10.532 24.4819 9.86H22.8019V9.032H24.7699C24.9739 8.408 25.1539 7.772 25.3219 7.1ZM27.6379 9.86H25.3579C25.1179 10.484 24.8779 11.036 24.6259 11.492C25.2739 11.828 25.8859 12.14 26.4499 12.44C27.0379 11.768 27.4339 10.916 27.6379 9.86ZM20.3299 15.092H19.3099L19.1299 14.252C19.4419 14.276 19.7419 14.3 20.0299 14.3C20.3179 14.3 20.4739 14.144 20.4739 13.832V10.94C19.9939 11.12 19.5139 11.288 19.0459 11.432L18.8299 10.568C19.3939 10.436 19.9459 10.268 20.4739 10.076V7.328H19.0699V6.5H20.4739V4.232H21.3619V6.5H22.4899V7.328H21.3619V9.728C21.7339 9.56 22.1059 9.38 22.4779 9.188V10.064C22.1059 10.244 21.7339 10.412 21.3619 10.58V14.048C21.3619 14.744 21.0139 15.092 20.3299 15.092ZM34.622 5.432H41.642V6.284H38.618V14H37.646V6.284H34.622V5.432ZM45.2917 7.628C46.1797 7.628 46.8277 7.856 47.2597 8.324C47.6197 8.732 47.8117 9.296 47.8117 10.016V14H46.9117V12.956C46.6717 13.292 46.3477 13.568 45.9637 13.784C45.5077 14.036 44.9917 14.168 44.4157 14.168C43.7917 14.168 43.2997 14.012 42.9277 13.7C42.5437 13.376 42.3517 12.956 42.3517 12.452C42.3517 11.744 42.6277 11.216 43.2037 10.856C43.7077 10.52 44.4277 10.34 45.3637 10.328L46.8517 10.304V9.98C46.8517 8.936 46.3117 8.42 45.2317 8.42C44.7757 8.42 44.4037 8.504 44.1157 8.696C43.7917 8.888 43.5877 9.188 43.4917 9.584L42.5437 9.512C42.6757 8.864 42.9997 8.372 43.5037 8.06C43.9597 7.772 44.5477 7.628 45.2917 7.628ZM46.8517 11.024L45.4237 11.048C44.0317 11.072 43.3357 11.528 43.3357 12.428C43.3357 12.716 43.4437 12.944 43.6837 13.136C43.9237 13.316 44.2357 13.412 44.6197 13.412C45.2077 13.412 45.7237 13.22 46.1797 12.836C46.6237 12.464 46.8517 12.032 46.8517 11.552V11.024ZM49.2948 5.264H50.2548V8.936C50.7348 8.06 51.4188 7.628 52.3068 7.628C53.1828 7.628 53.8788 7.952 54.3828 8.624C54.8388 9.224 55.0788 9.968 55.0788 10.88C55.0788 11.816 54.8388 12.584 54.3828 13.184C53.8668 13.832 53.1588 14.168 52.2588 14.168C51.2988 14.168 50.6148 13.772 50.1948 12.98V14H49.2948V5.264ZM52.1028 8.42C51.5388 8.42 51.0828 8.636 50.7468 9.092C50.3868 9.536 50.2188 10.124 50.2188 10.844V10.964C50.2188 11.66 50.3748 12.224 50.6868 12.656C51.0228 13.136 51.5148 13.376 52.1388 13.376C52.8108 13.376 53.3148 13.124 53.6508 12.644C53.9388 12.212 54.0948 11.624 54.0948 10.88C54.0948 10.136 53.9388 9.56 53.6268 9.14C53.2788 8.66 52.7748 8.42 52.1028 8.42ZM69.2861 5.816L70.0781 6.2C69.5501 7.232 68.9381 8.12 68.2421 8.864L67.5581 8.372C68.2301 7.652 68.8061 6.8 69.2861 5.816ZM65.5061 6.032C65.8661 6.656 66.2021 7.364 66.4901 8.156L65.6501 8.36C65.4101 7.64 65.0861 6.956 64.7021 6.296L65.5061 6.032ZM62.2301 6.308C62.6621 6.968 63.0461 7.676 63.3821 8.444L62.5901 8.792C62.2301 7.952 61.8341 7.22 61.4021 6.572L62.2301 6.308ZM69.8021 4.256L70.2221 4.988C67.9181 5.468 64.8701 5.72 61.0541 5.72L60.7901 4.904C64.4141 4.904 67.4141 4.688 69.8021 4.256ZM60.7781 9.788H65.1461V8.636H66.0101V9.788H70.3901V10.628H66.8741C67.6901 11.852 69.0701 12.944 71.0141 13.904L70.4021 14.672C68.3861 13.472 66.9821 12.116 66.1661 10.628H66.0101V15.14H65.1461V10.628H65.0261C64.1501 12.296 62.6981 13.676 60.6581 14.756L60.1781 13.952C62.0741 13.088 63.4421 11.972 64.2941 10.628H60.7781V9.788ZM81.5981 15.164H80.5421L80.3261 14.348L81.3221 14.396C81.6341 14.396 81.8021 14.216 81.8021 13.88V6.992H79.9781C79.9301 7.496 79.8821 7.952 79.8101 8.372C80.5541 9.668 81.1301 10.808 81.5381 11.792L80.8661 12.272C80.5301 11.384 80.1101 10.436 79.6061 9.416C79.3061 10.58 78.8021 11.564 78.0941 12.38L77.5421 11.708C78.2621 10.844 78.7421 9.752 78.9821 8.432C79.0541 7.988 79.1021 7.508 79.1501 6.992H77.3141V15.236H76.4981V6.152H79.1981C79.2221 5.528 79.2461 4.88 79.2461 4.184H80.0861C80.0861 4.892 80.0621 5.552 80.0381 6.152H82.6181V14.06C82.6181 14.792 82.2701 15.164 81.5981 15.164ZM75.9941 12.8V13.616C74.9021 14.048 73.6661 14.408 72.2861 14.684L72.1781 13.856C73.6301 13.592 74.9021 13.244 75.9941 12.8ZM74.0981 4.22L74.9021 4.532C74.3261 6.068 73.7501 7.292 73.1741 8.216C73.6781 8.156 74.1821 8.084 74.6861 7.988L75.3701 6.584L76.1501 6.872C75.0941 8.96 74.2301 10.46 73.5461 11.348C74.3381 11.168 75.1181 10.928 75.9101 10.628V11.372C74.7341 11.828 73.6061 12.128 72.5261 12.296L72.2861 11.528C72.4421 11.468 72.5741 11.384 72.6821 11.276C73.1261 10.784 73.6661 9.944 74.2901 8.768L72.3941 9.056L72.1781 8.264C72.3101 8.204 72.4301 8.096 72.5501 7.94C73.1501 6.86 73.6661 5.612 74.0981 4.22Z"
        fill="url(#paint2_linear_6237_59809)" />
    <defs>
        <linearGradient id="paint0_linear_6237_59809" x1="0" y1="0" x2="81.5294" y2="31.5519"
            gradientUnits="userSpaceOnUse">
            <stop stop-color="#33D6C0" />
            <stop offset="0.25" stop-color="#5083FB" />
            <stop offset="0.5" stop-color="#336DF4" />
            <stop offset="0.75" stop-color="#4752E6" />
            <stop offset="1" stop-color="#8D55ED" />
        </linearGradient>
        <linearGradient id="paint1_linear_6237_59809" x1="3.75" y1="4.75" x2="15.103" y2="5.77177"
            gradientUnits="userSpaceOnUse">
            <stop stop-color="#33D6C0" />
            <stop offset="0.25" stop-color="#5083FB" />
            <stop offset="0.5" stop-color="#336DF4" />
            <stop offset="0.75" stop-color="#4752E6" />
            <stop offset="1" stop-color="#8D55ED" />
        </linearGradient>
        <linearGradient id="paint2_linear_6237_59809" x1="18" y1="2" x2="81.2258" y2="25.4726"
            gradientUnits="userSpaceOnUse">
            <stop stop-color="#33D6C0" />
            <stop offset="0.25" stop-color="#5083FB" />
            <stop offset="0.5" stop-color="#336DF4" />
            <stop offset="0.75" stop-color="#4752E6" />
            <stop offset="1" stop-color="#8D55ED" />
        </linearGradient>
    </defs>
</svg>