<svg width="1100" height="554" viewBox="0 0 1100 554" fill="none" xmlns="http://www.w3.org/2000/svg">
<path d="M-199.784 0.648438L-4321 664.025H5421.43L1300.21 0.648438H-199.784ZM-199.784 0.648438L1300.22 0.648538M-161.323 0.648438L-3596.36 664.025M-122.861 0.648438L-3044.12 664.025M-84.3999 0.648438L-2603.75 664.025M-45.938 0.648438L-2240 664.025M-7.47705 0.648438L-1930.94 664.025M30.9849 0.648438L-1662.17 664.024M69.4463 0.648438L-1423.86 664.025M107.908 0.648438L-1209.04 664.025M146.37 0.648438L-1012.64 664.025M184.831 0.648438L-830.843 664.025M223.292 0.648438L-660.727 664.025M261.754 0.648438L-500 664.025M300.216 0.648438L-346.821 664.025M338.677 0.648438L-199.689 664.025M377.139 0.648438L-57.3418 664.025M415.6 0.648438L81.2969 664.025M454.062 0.648438L217.173 664.025M492.523 0.648438L351.137 664.025M530.984 0.648438L483.979 664.025M569.447 0.648438L616.452 664.025M607.908 0.648438L749.293 664.025M646.369 0.648438L883.257 664.025M684.831 0.648438L1019.13 664.025M723.293 0.648438L1157.77 664.025M761.754 0.648438L1300.12 664.025M800.215 0.648438L1447.25 664.025M838.677 0.648438L1600.43 664.025M877.139 0.648438L1761.16 664.025M915.601 0.648438L1931.27 664.025M954.062 0.648438L2113.07 664.025M992.523 0.648438L2309.47 664.025M1030.98 0.648438L2524.29 664.025M1069.45 0.648438L2762.6 664.024M1107.91 0.648438L3031.37 664.025M1146.37 0.648438L3340.43 664.025M1184.83 0.648438L3704.18 664.025M1223.29 0.648438L4144.55 664.025M1261.75 0.648438L4696.79 664.025M-199.786 0.648638H1300.22M-199.789 0.649151H1300.22M-199.797 0.650567H1300.23M-199.818 0.6538H1300.25M-199.861 0.66089H1300.29M-199.95 0.675059H1300.38M-200.115 0.70178H1300.55M-200.412 0.74956H1300.84M-200.921 0.831353H1301.35M-201.758 0.966176H1302.19M-203.092 1.18087H1303.52M-205.156 1.51308H1305.59M-208.27 2.01435H1308.7M-212.862 2.75358H1313.29M-219.497 3.82158H1319.93M-228.909 5.33659H1329.34M-242.041 7.45023H1342.47M-260.087 10.355H1360.52M-284.546 14.2922H1384.98M-317.282 19.5616H1417.71M-360.588 26.5324H1461.02M-417.265 35.6554H1517.69M-490.704 47.4767H1591.13M-584.99 62.6535H1685.42M-705.002 81.9715H1805.43M-856.537 106.363H1956.97M-1046.44 136.932H2146.87M-1282.76 174.971H2383.19M-1574.9 221.996H2675.33M-1933.8 279.766H3034.23M-2372.13 350.322H3472.56M-2904.5 436.017H4004.93M-3547.72 539.553H4648.15" stroke="#E6E7EA"/>
</svg>
