<svg width="140" height="46" viewBox="0 0 140 46" fill="none" xmlns="http://www.w3.org/2000/svg">
<mask id="path-1-inside-1_13119_270523" fill="white">
<path d="M-39 -74H461V46H-39V-74Z"/>
</mask>
<path d="M-39 -74H461V46H-39V-74Z" fill="#F9F9F9"/>
<path d="M-39 -73.4H461V-74.6H-39V-73.4Z" fill="#1C1D23" fill-opacity="0.08" mask="url(#path-1-inside-1_13119_270523)"/>
<rect x="-30.5996" y="17.1992" width="79.6" height="16.8" rx="8.4" fill="white"/>
<rect x="-30.2996" y="17.4992" width="79" height="16.2" rx="8.1" stroke="#1C1D23" stroke-opacity="0.08" stroke-width="0.6"/>
<path d="M-5.68002 23.1984L-5.16762 23.4C-5.57082 24.1812 -6.10842 24.7776 -6.76362 25.1892L-7.20882 24.8112C-6.52842 24.408 -6.01602 23.8704 -5.68002 23.1984ZM-4.21842 23.148C-3.55482 23.778 -3.04242 24.3324 -2.68962 24.8028L-3.17682 25.1388C-3.53802 24.618 -4.03362 24.0552 -4.67202 23.4336L-4.21842 23.148ZM-9.14922 21.8712C-8.53602 22.2912 -8.01522 22.7196 -7.58682 23.1396L-7.99842 23.5512C-8.37642 23.148 -8.89722 22.7196 -9.56082 22.266L-9.14922 21.8712ZM-9.35082 23.8368C-8.76282 24.2652 -8.27562 24.6936 -7.87242 25.122L-8.27562 25.5252C-8.62842 25.122 -9.12402 24.6936 -9.75402 24.24L-9.35082 23.8368ZM-8.14962 26.1804L-7.65402 26.382C-8.06562 27.432 -8.52762 28.4232 -9.03162 29.3472L-9.59442 29.1036C-9.04002 28.1544 -8.56122 27.18 -8.14962 26.1804ZM-5.76402 26.3232H-7.34322V25.7772H-5.15922V24.8364H-4.57122V25.7772H-2.37042V26.3232H-3.97482C-3.60522 27.096 -2.97522 27.7848 -2.08482 28.398L-2.47122 28.8768C-3.39522 28.1124 -4.04202 27.264 -4.41162 26.3232H-4.57122V29.406H-5.15922V26.3232H-5.31042C-5.75562 27.39 -6.49482 28.2636 -7.52802 28.9524L-7.83882 28.44C-6.88962 27.8856 -6.20082 27.18 -5.76402 26.3232ZM-2.53002 22.0812V23.652H-3.10122V22.6356H-6.62082V23.6856H-7.19202V22.0812H-2.53002ZM0.393182 26.3568H5.31558V26.802C4.84518 27.3732 4.27398 27.8688 3.59358 28.272C4.34958 28.5912 5.22318 28.818 6.22278 28.9524L5.96238 29.4732C4.80318 29.28 3.82038 28.986 3.02238 28.5828C2.17398 28.986 1.19118 29.2884 0.082382 29.4732L-0.178018 28.944C0.796382 28.8012 1.66998 28.5744 2.42598 28.2552C1.80438 27.8688 1.29198 27.4068 0.905582 26.8776H0.393182V26.3568ZM1.54398 26.8776C1.93038 27.3144 2.40918 27.684 2.98878 27.9864C3.57678 27.6756 4.08918 27.306 4.52598 26.8776H1.54398ZM-0.094018 24.4752V25.1304C-0.127618 26.9112 -0.430018 28.3392 -1.00122 29.4144L-1.45482 29.0112C-0.967618 28.0788 -0.715618 26.7852 -0.698818 25.1304V22.392H2.53518C2.43438 22.1736 2.33358 21.9804 2.21598 21.7956L2.85438 21.6948C2.95518 21.9048 3.05598 22.14 3.14838 22.392H6.02958V22.9632H-0.094018V23.9208H1.31718V23.2404H1.90518V23.9208H4.13118V23.232H4.71918V23.9208H6.01278V24.4752H4.71918V25.7856H1.31718V24.4752H-0.094018ZM1.90518 24.4752V25.2732H4.13118V24.4752H1.90518ZM10.406 24.0888V24.9204H11.7752V21.7704H12.338V24.9204H13.6988V24.0888H12.8168V23.5848H13.6988V22.6692H12.7748V22.1484H14.2448V25.4412H12.338V26.1804H14.2196V26.6928C13.9172 27.306 13.4132 27.8268 12.7244 28.2636C13.2788 28.5156 13.9256 28.7172 14.6648 28.8684L14.4464 29.4312C13.5308 29.238 12.7496 28.9608 12.1028 28.608C11.3972 28.944 10.5572 29.2296 9.57438 29.448L9.27198 28.9104C10.1456 28.7424 10.9016 28.524 11.5316 28.2552C10.9268 27.8268 10.4732 27.3144 10.154 26.7264H9.80118V26.1804H11.7752V25.4412H9.85158V22.4088C10.2884 22.2912 10.7084 22.1148 11.1032 21.8796L11.4476 22.3248C11.162 22.476 10.8092 22.6272 10.406 22.7784V23.5848H11.3216V24.0888H10.406ZM10.7756 26.7264C11.1032 27.2052 11.5568 27.6168 12.1364 27.9612C12.7664 27.6084 13.2452 27.1968 13.5644 26.7264H10.7756ZM7.98678 29.364H7.19718L7.07118 28.7928C7.32318 28.818 7.55838 28.8348 7.77678 28.8348C7.97838 28.8348 8.08758 28.7172 8.08758 28.4904V26.4492C7.76838 26.5668 7.45758 26.676 7.13838 26.7768L7.00398 26.2056C7.37358 26.1048 7.73478 25.9956 8.08758 25.8612V23.9292H7.15518V23.3496H8.08758V21.7788H8.67558V23.3496H9.45678V23.9292H8.67558V25.626C8.96118 25.5 9.24678 25.3572 9.52398 25.206V25.794C9.24678 25.9368 8.96118 26.0712 8.67558 26.2056V28.6416C8.67558 29.1204 8.44038 29.364 7.98678 29.364ZM16.0592 22.4004H18.89V21.7368H19.5116V22.4004H22.3424V22.9548H19.5116V23.6856H22.6868V25.2228H22.0988V24.2148H18.89L19.352 24.4416C18.848 24.8448 18.3272 25.1892 17.7812 25.4832C18.554 25.4664 19.184 25.4496 19.6544 25.416C19.9484 25.2144 20.2508 25.0044 20.5532 24.786L21.0404 25.1136C20.0492 25.8528 18.9908 26.4156 17.8484 26.8188C18.9404 26.7852 20.024 26.7264 21.116 26.6508C20.9312 26.4492 20.738 26.256 20.5364 26.0544L20.9732 25.7772C21.5864 26.3736 22.0568 26.8944 22.3844 27.348L21.9308 27.6756C21.7964 27.474 21.6452 27.2724 21.4772 27.0708C20.7968 27.1128 20.1584 27.1548 19.5536 27.1884V28.7928C19.5536 29.2128 19.3184 29.4312 18.8648 29.4312H18.1004L17.9744 28.8684C18.2096 28.8936 18.4448 28.9104 18.6632 28.9104C18.848 28.9104 18.9488 28.818 18.9488 28.65V27.2136C18.0248 27.2556 17.1764 27.2892 16.4036 27.306L16.286 26.76C16.4624 26.7684 16.6388 26.7768 16.8068 26.7768C17.4956 26.5836 18.2012 26.2812 18.9404 25.8612C18.3692 25.878 17.7224 25.9032 16.9916 25.92L16.874 25.458C17 25.4328 17.126 25.3824 17.252 25.3152C17.798 25.0044 18.3188 24.6348 18.806 24.2148H16.3028V25.2144H15.7148V23.6856H18.89V22.9548H16.0592V22.4004ZM20.444 27.6336C21.3176 27.9528 22.1072 28.3392 22.8212 28.7928L22.5104 29.28C21.7376 28.776 20.948 28.3728 20.1416 28.0788L20.444 27.6336ZM17.798 27.6168L18.1508 28.0116C17.5208 28.5156 16.7312 28.9272 15.782 29.2548L15.53 28.7172C16.4456 28.44 17.2016 28.0704 17.798 27.6168Z" fill="#1C1D23" fill-opacity="0.8"/>
<path d="M26.2012 25.5988C26.2012 22.9479 28.3502 20.7988 31.0012 20.7988H37.0012C39.6521 20.7988 41.8012 22.9479 41.8012 25.5988C41.8012 28.2498 39.6521 30.3988 37.0012 30.3988H31.0012C28.3502 30.3988 26.2012 28.2498 26.2012 25.5988Z" fill="#2E2F38" fill-opacity="0.05"/>
<g filter="url(#filter0_dd_13119_270523)">
<path d="M27.4004 25.598C27.4004 23.6098 29.0122 21.998 31.0004 21.998C32.9886 21.998 34.6004 23.6098 34.6004 25.598C34.6004 27.5863 32.9886 29.198 31.0004 29.198C29.0122 29.198 27.4004 27.5863 27.4004 25.598Z" fill="white"/>
</g>
<rect x="53.8008" y="17.1992" width="44.6" height="16.8" rx="8.4" fill="#EEF3FD"/>
<rect x="54.1008" y="17.4992" width="44" height="16.2" rx="8.1" stroke="#1C1D23" stroke-opacity="0.08" stroke-width="0.6"/>
<path d="M67.7496 22.9008L69.0996 24.2508M63.6996 29.6508L70.4496 22.9008L69.0996 21.5508L62.3496 28.3008L63.6996 29.6508ZM65.0496 21.5508C65.0496 21.7895 65.1444 22.0184 65.3132 22.1872C65.482 22.356 65.7109 22.4508 65.9496 22.4508C65.7109 22.4508 65.482 22.5456 65.3132 22.7144C65.1444 22.8832 65.0496 23.1121 65.0496 23.3508C65.0496 23.1121 64.9548 22.8832 64.786 22.7144C64.6172 22.5456 64.3883 22.4508 64.1496 22.4508C64.3883 22.4508 64.6172 22.356 64.786 22.1872C64.9548 22.0184 65.0496 21.7895 65.0496 21.5508ZM69.5496 26.0508C69.5496 26.2895 69.6444 26.5184 69.8132 26.6872C69.982 26.856 70.2109 26.9508 70.4496 26.9508C70.2109 26.9508 69.982 27.0456 69.8132 27.2144C69.6444 27.3832 69.5496 27.6121 69.5496 27.8508C69.5496 27.6121 69.4548 27.3832 69.286 27.2144C69.1172 27.0456 68.8883 26.9508 68.6496 26.9508C68.8883 26.9508 69.1172 26.856 69.286 26.6872C69.4548 26.5184 69.5496 26.2895 69.5496 26.0508Z" stroke="url(#paint0_linear_13119_270523)" stroke-width="0.6" stroke-linecap="round" stroke-linejoin="round"/>
<path d="M79.2496 25.0716V28.2552C79.2496 28.4988 79.3672 28.6248 79.6192 28.6248H80.8792C81.0388 28.6248 81.1732 28.5744 81.274 28.4736C81.4084 28.3308 81.5008 27.8352 81.5344 26.9784L82.114 27.1632C82.0384 28.1376 81.9124 28.734 81.736 28.9356C81.568 29.1036 81.3328 29.196 81.0304 29.2044H79.4428C78.9052 29.2044 78.6364 28.9188 78.6364 28.3644V21.8376H79.2496V24.5004C80.0728 24.2652 80.8708 23.9376 81.652 23.5092L82.0132 24.0048C81.0472 24.4836 80.1232 24.8364 79.2496 25.0716ZM75.226 29.3136L75.0412 28.7508C75.1756 28.6668 75.2428 28.5492 75.2428 28.3896V21.8796H75.8476V24.2232H78.0064V24.8112H75.8476V28.5744C76.5868 28.4064 77.3176 28.1964 78.0484 27.9528L78.208 28.524C77.284 28.818 76.2844 29.0784 75.226 29.3136ZM85.2472 22.224H88.0108V22.8036H86.482C86.44 23.2236 86.3812 23.6184 86.3056 23.9964H87.8512V24.5172C87.5488 26.844 86.7004 28.4736 85.3228 29.4144L85.0204 28.8768C85.6924 28.4148 86.2216 27.768 86.608 26.9448C86.2552 26.6004 85.9024 26.3232 85.558 26.1048C85.39 26.3988 85.2136 26.6676 85.0204 26.9112L84.718 26.3232C85.3732 25.4664 85.768 24.2904 85.9024 22.8036H85.2472V22.224ZM85.8016 25.6092C86.1712 25.8276 86.5156 26.088 86.8432 26.3736C87.0448 25.8192 87.1876 25.206 87.2884 24.5508H86.1712C86.0704 24.9288 85.9444 25.2816 85.8016 25.6092ZM89.5396 29.3808H88.6156L88.4812 28.8012C88.7836 28.8264 89.0608 28.8432 89.3296 28.8432C89.5732 28.8432 89.6992 28.7172 89.6992 28.4652V21.762H90.304V28.6164C90.304 29.1204 90.0436 29.3808 89.5396 29.3808ZM83.752 24.8868C83.542 25.206 83.3236 25.5084 83.0884 25.794L82.8868 25.1556C83.626 24.1476 84.1636 22.9968 84.4996 21.6948L85.0708 21.9552C84.886 22.6188 84.6424 23.2404 84.3568 23.8284V29.4564H83.752V24.8868ZM88.372 22.5348H88.9264V27.7428H88.372V22.5348Z" fill="#315CEC"/>
<rect x="103.201" y="17.1992" width="44.6" height="16.8" rx="8.4" fill="white"/>
<rect x="103.501" y="17.4992" width="44" height="16.2" rx="8.1" stroke="#1C1D23" stroke-opacity="0.08" stroke-width="0.6"/>
<path d="M117.15 22.9008L118.5 24.2508M113.1 29.6508L119.85 22.9008L118.5 21.5508L111.75 28.3008L113.1 29.6508ZM114.45 21.5508C114.45 21.7895 114.545 22.0184 114.714 22.1872C114.882 22.356 115.111 22.4508 115.35 22.4508C115.111 22.4508 114.882 22.5456 114.714 22.7144C114.545 22.8832 114.45 23.1121 114.45 23.3508C114.45 23.1121 114.355 22.8832 114.186 22.7144C114.018 22.5456 113.789 22.4508 113.55 22.4508C113.789 22.4508 114.018 22.356 114.186 22.1872C114.355 22.0184 114.45 21.7895 114.45 21.5508ZM118.95 26.0508C118.95 26.2895 119.045 26.5184 119.214 26.6872C119.382 26.856 119.611 26.9508 119.85 26.9508C119.611 26.9508 119.382 27.0456 119.214 27.2144C119.045 27.3832 118.95 27.6121 118.95 27.8508C118.95 27.6121 118.855 27.3832 118.686 27.2144C118.518 27.0456 118.289 26.9508 118.05 26.9508C118.289 26.9508 118.518 26.856 118.686 26.6872C118.855 26.5184 118.95 26.2895 118.95 26.0508Z" stroke="#1C1D23" stroke-opacity="0.8" stroke-width="0.6" stroke-linecap="round" stroke-linejoin="round"/>
<path d="M126.432 23.6604C126.92 24.2652 127.373 24.8448 127.785 25.3992C128.121 24.7692 128.39 24.0888 128.591 23.3664L129.188 23.4672C128.936 24.3744 128.6 25.1976 128.18 25.9368C128.692 26.6592 129.129 27.3312 129.49 27.9444L128.944 28.314C128.608 27.7344 128.238 27.1296 127.818 26.508C127.298 27.264 126.684 27.9108 125.962 28.4568L125.559 27.9444C126.306 27.3732 126.936 26.718 127.44 25.962C126.987 25.3152 126.483 24.6516 125.937 23.9628L126.432 23.6604ZM124.937 22.0728H130.372V25.4328C130.372 26.8104 130.414 27.6924 130.515 28.0788C130.607 28.4568 130.716 28.65 130.851 28.65C130.96 28.65 131.052 28.2636 131.128 27.4992L131.666 27.7596C131.565 28.3896 131.456 28.818 131.338 29.0532C131.212 29.2548 131.069 29.3556 130.918 29.3556C130.515 29.3556 130.229 29.0868 130.044 28.566C129.843 28.0536 129.75 27.012 129.75 25.4328V22.6608H125.542V25.332C125.525 26.9616 125.181 28.3308 124.517 29.4396L124.013 29.028C124.601 28.0452 124.912 26.8104 124.937 25.332V22.0728ZM134.186 25.0968V29.406H133.589V25.1892C133.329 25.9872 132.984 26.718 132.564 27.3732L132.304 26.718C132.892 25.9116 133.32 24.996 133.581 23.9628H132.472V23.3832H133.589V21.7452H134.186V23.3832H135.101V23.9628H134.186V24.4164C134.538 24.8196 134.9 25.2648 135.261 25.7604L135.252 25.7688C135.992 25.4664 136.638 25.122 137.176 24.7272C136.815 24.3828 136.512 24.03 136.277 23.6604C136.059 23.946 135.824 24.2148 135.58 24.4584L135.194 23.9964C135.807 23.4168 136.302 22.6608 136.689 21.7284L137.268 21.8544C137.184 22.0728 137.092 22.2828 136.991 22.4844H139.36V22.9548C139.058 23.6268 138.612 24.2232 138.041 24.7524C138.604 25.1472 139.284 25.4916 140.074 25.7856L139.805 26.3484C138.932 25.9788 138.209 25.5672 137.621 25.1052C136.983 25.6008 136.202 26.0208 135.286 26.3736L135.059 26.0712L134.933 26.2644C134.639 25.7772 134.387 25.3908 134.186 25.0968ZM139.343 26.2896V29.4228H138.755V29.0532H136.378V29.4228H135.79V26.2896H139.343ZM136.378 28.4904H138.755V26.8524H136.378V28.4904ZM137.588 24.3996C138.05 23.9964 138.419 23.5512 138.696 23.064H136.672C136.638 23.1144 136.613 23.1732 136.58 23.2236C136.84 23.652 137.176 24.0468 137.588 24.3996Z" fill="#1C1D23" fill-opacity="0.8"/>
<defs>
<filter id="filter0_dd_13119_270523" x="23.8004" y="20.798" width="14.3992" height="14.3992" filterUnits="userSpaceOnUse" color-interpolation-filters="sRGB">
<feFlood flood-opacity="0" result="BackgroundImageFix"/>
<feColorMatrix in="SourceAlpha" type="matrix" values="0 0 0 0 0 0 0 0 0 0 0 0 0 0 0 0 0 0 127 0" result="hardAlpha"/>
<feOffset dy="2.4"/>
<feGaussianBlur stdDeviation="1.8"/>
<feColorMatrix type="matrix" values="0 0 0 0 0 0 0 0 0 0 0 0 0 0 0 0 0 0 0.1 0"/>
<feBlend mode="normal" in2="BackgroundImageFix" result="effect1_dropShadow_13119_270523"/>
<feColorMatrix in="SourceAlpha" type="matrix" values="0 0 0 0 0 0 0 0 0 0 0 0 0 0 0 0 0 0 127 0" result="hardAlpha"/>
<feOffset/>
<feGaussianBlur stdDeviation="0.3"/>
<feColorMatrix type="matrix" values="0 0 0 0 0 0 0 0 0 0 0 0 0 0 0 0 0 0 0.3 0"/>
<feBlend mode="normal" in2="effect1_dropShadow_13119_270523" result="effect2_dropShadow_13119_270523"/>
<feBlend mode="normal" in="SourceGraphic" in2="effect2_dropShadow_13119_270523" result="shape"/>
</filter>
<linearGradient id="paint0_linear_13119_270523" x1="62.3496" y1="21.5508" x2="71.1077" y2="22.339" gradientUnits="userSpaceOnUse">
<stop stop-color="#33D6C0"/>
<stop offset="0.25" stop-color="#5083FB"/>
<stop offset="0.5" stop-color="#336DF4"/>
<stop offset="0.75" stop-color="#4752E6"/>
<stop offset="1" stop-color="#8D55ED"/>
</linearGradient>
</defs>
</svg>
