<svg width="140" height="36" viewBox="0 0 140 36" fill="none" xmlns="http://www.w3.org/2000/svg">
<mask id="path-1-inside-1_13119_270208" fill="white">
<path d="M-125.455 0.636719H534.545V120.637H-125.455V0.636719Z"/>
</mask>
<path d="M-125.455 0.636719H534.545V120.637H-125.455V0.636719Z" fill="#F9F9F9"/>
<path d="M-125.455 1.23672H534.545V0.0367187H-125.455V1.23672Z" fill="#1C1D23" fill-opacity="0.08" mask="url(#path-1-inside-1_13119_270208)"/>
<g clip-path="url(#clip0_13119_270208)">
<g clip-path="url(#clip1_13119_270208)">
<path d="M12.9468 11.3354V13.8354L13.9468 14.8354M13.4555 18.3072C12.5144 18.4141 11.5636 18.2214 10.7384 17.7565C9.91323 17.2916 9.25578 16.5782 8.85969 15.7179C8.46359 14.8576 8.34905 13.8942 8.53236 12.965C8.71567 12.0358 9.1875 11.1881 9.88065 10.5426C10.5738 9.89721 11.4529 9.48692 12.3928 9.37023C13.3327 9.25353 14.2855 9.43638 15.1154 9.89271C15.9454 10.3491 16.6102 11.0556 17.0152 11.9118C17.4201 12.768 17.5446 13.7301 17.371 14.6612M15.4468 18.8355L17.9468 17.3355L15.4468 15.8354V18.8355Z" stroke="#1C1D23" stroke-opacity="0.8" stroke-width="0.9" stroke-linecap="round" stroke-linejoin="round"/>
</g>
<path d="M21.6369 12.0919H25.8705V12.5815H24.0417V13.8487H26.1873V14.3383H24.0417V15.8287C24.5457 15.9007 25.1505 15.9439 25.8705 15.9511C26.2377 15.9511 26.6121 15.9367 27.0009 15.9079L26.9073 16.4263H26.1009C24.6465 16.4263 23.6097 16.2895 22.9761 16.0231C22.5009 15.7999 22.1121 15.4543 21.8169 14.9863C21.5361 15.6055 21.1905 16.1239 20.7801 16.5415L20.4489 16.1311C21.1401 15.3967 21.6009 14.4103 21.8457 13.1719L22.3497 13.2583C22.2633 13.7047 22.1481 14.1151 22.0185 14.4895C22.3641 15.1087 22.7961 15.4975 23.3145 15.6631C23.3793 15.6847 23.4513 15.7063 23.5233 15.7207V12.5815H21.6369V12.0919ZM26.6913 10.6879V12.2215H26.1873V11.1631H21.3057V12.2575H20.8017V10.6879H23.5521C23.4441 10.4287 23.3217 10.1911 23.1921 9.97514L23.7465 9.88874C23.8617 10.1263 23.9769 10.3927 24.0777 10.6879H26.6913ZM30.0105 10.4935V15.7999H29.5065V15.3175H28.4409V15.9727H27.9369V10.4935H30.0105ZM28.4409 14.8351H29.5065V13.0999H28.4409V14.8351ZM28.4409 12.6175H29.5065V10.9687H28.4409V12.6175ZM31.0473 12.6391C31.4937 13.3159 31.8393 13.9063 32.0769 14.4103L31.6449 14.7127C31.3929 14.1727 31.0545 13.5679 30.6225 12.9055L31.0473 12.6391ZM32.6889 16.4839H31.4289L31.3209 15.9799C31.7385 15.9943 32.1345 16.0087 32.5161 16.0087C32.7249 16.0087 32.8329 15.8935 32.8329 15.6703V11.7751H30.3417V11.2783H32.8329V10.0111H33.3585V11.2783H34.2441V11.7751H33.3585V15.7999C33.3585 16.2535 33.1353 16.4839 32.6889 16.4839ZM40.8681 10.1911L41.1201 10.6303C40.6017 10.8031 39.9969 10.9327 39.3057 11.0119V13.0351H41.4153V13.5391H39.3057V15.7999H41.0553V16.3111H37.0521V15.7999H38.7873V13.5391H36.6921V13.0351H38.7873V11.0623C38.2977 11.0983 37.7793 11.1199 37.2321 11.1199L37.0665 10.6303C38.5929 10.6303 39.8601 10.4791 40.8681 10.1911ZM36.4905 9.96794L36.9729 10.1911C36.7857 10.7455 36.5409 11.2711 36.2529 11.7607V16.5703H35.7345V12.5311C35.5041 12.8335 35.2449 13.1287 34.9641 13.4095L34.7985 12.8551C35.5761 12.0199 36.1377 11.0551 36.4905 9.96794ZM44.2233 9.93194L44.7489 10.0039C44.6697 10.1983 44.5761 10.3783 44.4753 10.5511H47.6145V10.9687C47.1537 11.5015 46.5921 11.9551 45.9297 12.3295C46.7433 12.6751 47.6505 12.8983 48.6513 12.9991L48.4137 13.4815C47.2761 13.3519 46.2609 13.0639 45.3681 12.6175C44.4897 13.0207 43.4601 13.3159 42.2937 13.4959L42.0561 13.0063C43.1001 12.8623 44.0145 12.6319 44.8065 12.3151C44.4033 12.0775 44.0289 11.8039 43.6833 11.5015C43.4097 11.7463 43.1145 11.9695 42.7833 12.1711L42.4665 11.7535C43.3305 11.2567 43.9209 10.6519 44.2233 9.93194ZM45.3609 12.0631C45.9441 11.7751 46.4481 11.4295 46.8729 11.0407H44.1225L44.0289 11.1559C44.4321 11.5087 44.8785 11.8111 45.3609 12.0631ZM44.9217 13.1359H45.4329C45.4329 13.4239 45.4041 13.6975 45.3609 13.9567H47.8953C47.8809 15.1735 47.7729 15.9007 47.5641 16.1383C47.3553 16.3759 46.9953 16.4983 46.4841 16.4983C46.2537 16.4983 45.9729 16.4839 45.6417 16.4695L45.5121 16.0015L46.3617 16.0375C46.7937 16.0303 47.0601 15.9367 47.1753 15.7639C47.2833 15.5911 47.3481 15.1447 47.3697 14.4247H45.2385C45.1809 14.6119 45.1017 14.7919 45.0081 14.9647C44.6409 15.6127 43.7985 16.1527 42.4737 16.5703L42.1281 16.1455C43.3089 15.7999 44.0937 15.3607 44.4681 14.8351C44.5545 14.7055 44.6337 14.5687 44.6913 14.4247H42.5457V13.9567H44.8353C44.8929 13.6975 44.9217 13.4239 44.9217 13.1359Z" fill="#1C1D23" fill-opacity="0.8"/>
<line x1="55.4445" y1="7.83594" x2="55.4445" y2="19.8359" stroke="#1C1D23" stroke-opacity="0.08" stroke-width="0.6"/>
<path d="M67.8961 11.1371L69.2461 12.4871M63.8461 17.8871L70.5961 11.1371L69.2461 9.78711L62.4961 16.5371L63.8461 17.8871ZM65.1961 9.78711C65.1961 10.0258 65.2909 10.2547 65.4597 10.4235C65.6285 10.5923 65.8574 10.6871 66.0961 10.6871C65.8574 10.6871 65.6285 10.7819 65.4597 10.9507C65.2909 11.1195 65.1961 11.3484 65.1961 11.5871C65.1961 11.3484 65.1013 11.1195 64.9325 10.9507C64.7637 10.7819 64.5348 10.6871 64.2961 10.6871C64.5348 10.6871 64.7637 10.5923 64.9325 10.4235C65.1013 10.2547 65.1961 10.0258 65.1961 9.78711ZM69.6961 14.2871C69.6961 14.5258 69.7909 14.7547 69.9597 14.9235C70.1285 15.0923 70.3574 15.1871 70.5961 15.1871C70.3574 15.1871 70.1285 15.2819 69.9597 15.4507C69.7909 15.6195 69.6961 15.8484 69.6961 16.0871C69.6961 15.8484 69.6013 15.6195 69.4325 15.4507C69.2637 15.2819 69.0348 15.1871 68.7961 15.1871C69.0348 15.1871 69.2637 15.0923 69.4325 14.9235C69.6013 14.7547 69.6961 14.5258 69.6961 14.2871Z" stroke="url(#paint0_linear_13119_270208)" stroke-width="0.6" stroke-linecap="round" stroke-linejoin="round"/>
<path d="M76.5213 11.2583H78.0165V9.98994H78.6045V11.2583H80.3937V13.7951H81.0489V14.3831H78.7557C79.2765 15.5255 80.1081 16.4495 81.2421 17.1551L80.8305 17.6255C79.6881 16.8443 78.8481 15.8615 78.3189 14.6687C77.9409 16.0127 77.1933 16.9955 76.0761 17.6339L75.7065 17.1383C76.7817 16.5671 77.4873 15.6515 77.8065 14.3831H76.1769V13.7951H77.9241C77.9829 13.4087 78.0165 12.9887 78.0165 12.5519V11.8211H76.5213V11.2583ZM78.6045 11.8211V12.4259C78.6045 12.9131 78.5709 13.3667 78.5037 13.7951H79.8057V11.8211H78.6045ZM73.7829 11.5943L74.2617 11.6279C74.2365 12.4679 74.1357 13.2743 73.9593 14.0303L73.4637 13.8875C73.6485 13.1651 73.7577 12.4007 73.7829 11.5943ZM75.8997 11.4095C76.1349 11.9471 76.3365 12.5603 76.5213 13.2575L76.0257 13.3751C75.8745 12.7451 75.6813 12.1403 75.4461 11.5523L75.8997 11.4095ZM74.6817 9.99834H75.2781V17.6423H74.6817V9.99834ZM88.9029 14.6855H87.2481V15.4415H89.0961V15.9707H87.2481V16.9115C87.5337 16.9451 87.8697 16.9619 88.2477 16.9619C88.7769 16.9619 89.2221 16.9451 89.5917 16.9199L89.4153 17.5331C88.9953 17.5331 88.6257 17.5247 88.2897 17.5163C87.2481 17.5079 86.5425 17.4071 86.1729 17.2223C85.8789 17.0711 85.6101 16.7771 85.3749 16.3487C85.1817 16.9031 84.9297 17.3399 84.6273 17.6759L84.1401 17.3399C84.6441 16.7855 84.9633 16.0127 85.0977 15.0299L85.6605 15.1139C85.6269 15.3491 85.5849 15.5591 85.5429 15.7523C85.7949 16.2563 86.0805 16.5755 86.3997 16.7183C86.4837 16.7519 86.5677 16.7771 86.6685 16.8107V14.6855H85.0473V14.1647H86.6685V13.4591H84.7701V12.9383H86.6685V12.2411H85.1061V11.7203H86.6685V11.0987H84.7197V10.5695H86.6685V9.98154H87.2481V10.5695H89.3733V11.0987H87.2481V11.7203H88.9029V12.9383H89.4489V13.4591H88.9029V14.6855ZM87.2481 12.2411V12.9383H88.3569V12.2411H87.2481ZM88.3569 13.4591H87.2481V14.1647H88.3569V13.4591ZM82.9557 17.5835H82.2165L82.0905 17.0039C82.3173 17.0291 82.5357 17.0459 82.7457 17.0459C82.9473 17.0459 83.0565 16.9367 83.0565 16.7267V14.6267C82.7205 14.7611 82.3929 14.8871 82.0569 15.0047L81.9057 14.3999C82.2921 14.2991 82.6785 14.1731 83.0565 14.0219V12.0983H82.0233V11.5187H83.0565V9.98994H83.6613V11.5187H84.5601V12.0983H83.6613V13.7531C83.9469 13.6187 84.2157 13.4675 84.4845 13.3163V13.9211C84.2073 14.0723 83.9301 14.2151 83.6613 14.3495V16.8779C83.6613 17.3483 83.4261 17.5835 82.9557 17.5835ZM94.2117 11.7119V12.2327C94.2117 12.4343 94.3209 12.5351 94.5393 12.5351H96.6645C96.8493 12.5351 96.9837 12.4931 97.0677 12.4091C97.1685 12.2999 97.2441 11.9807 97.2777 11.4431L97.8321 11.6195C97.7733 12.3251 97.6557 12.7451 97.4877 12.8963C97.3365 13.0307 97.0929 13.0979 96.7737 13.0979H94.3629C93.8757 13.0979 93.6321 12.8459 93.6321 12.3587V10.0235H94.2117V11.1743C95.2281 10.9727 96.2193 10.6703 97.1937 10.2671L97.5297 10.7459C96.3705 11.1827 95.2617 11.5019 94.2117 11.7119ZM91.4649 17.6003H90.5745L90.4485 17.0207C90.7341 17.0459 91.0029 17.0627 91.2549 17.0627C91.4733 17.0627 91.5825 16.9367 91.5825 16.7015V14.6939C91.2129 14.8199 90.8349 14.9375 90.4569 15.0383L90.3141 14.4335C90.7425 14.3411 91.1625 14.2235 91.5825 14.0891V12.1655H90.4485V11.5859H91.5825V10.0067H92.1621V11.5859H93.0945V12.1655H92.1621V13.8875C92.5149 13.7447 92.8509 13.5935 93.1869 13.4339V14.0471C92.8509 14.1983 92.5065 14.3495 92.1621 14.4839V16.8527C92.1621 17.3483 91.9269 17.6003 91.4649 17.6003ZM97.5297 13.7447V17.6759H96.9249V17.2475H94.2957V17.6759H93.6993V13.7447H97.5297ZM94.2957 16.7099H96.9249V15.7523H94.2957V16.7099ZM94.2957 15.2147H96.9249V14.2739H94.2957V15.2147ZM101.873 11.9891C102.486 12.2579 103.049 12.5771 103.553 12.9551L103.25 13.4255C102.704 13.0055 102.141 12.6779 101.562 12.4427L101.873 11.9891ZM101.049 15.3407C101.637 15.5591 102.192 15.8111 102.721 16.0799C103.326 15.6179 103.914 15.0635 104.493 14.4083H99.6969V13.8371H105.241V14.3495C104.67 15.0971 104.015 15.7691 103.267 16.3655C103.695 16.6007 104.107 16.8443 104.493 17.0963L104.157 17.6171C103.04 16.8611 101.889 16.2731 100.713 15.8363L101.049 15.3407ZM102.343 10.0739H102.746C103.805 11.2415 105.023 12.1571 106.4 12.8291L106.098 13.3667C104.712 12.6695 103.527 11.7623 102.545 10.6367C101.654 11.7287 100.47 12.6779 98.9997 13.4759L98.7057 12.9383C100.159 12.1739 101.369 11.2163 102.343 10.0739Z" fill="url(#paint1_linear_13119_270208)"/>
<path d="M123.494 11.1371L124.844 12.4871M119.444 17.8871L126.194 11.1371L124.844 9.78711L118.094 16.5371L119.444 17.8871ZM120.794 9.78711C120.794 10.0258 120.889 10.2547 121.057 10.4235C121.226 10.5923 121.455 10.6871 121.694 10.6871C121.455 10.6871 121.226 10.7819 121.057 10.9507C120.889 11.1195 120.794 11.3484 120.794 11.5871C120.794 11.3484 120.699 11.1195 120.53 10.9507C120.361 10.7819 120.132 10.6871 119.894 10.6871C120.132 10.6871 120.361 10.5923 120.53 10.4235C120.699 10.2547 120.794 10.0258 120.794 9.78711ZM125.294 14.2871C125.294 14.5258 125.389 14.7547 125.557 14.9235C125.726 15.0923 125.955 15.1871 126.194 15.1871C125.955 15.1871 125.726 15.2819 125.557 15.4507C125.389 15.6195 125.294 15.8484 125.294 16.0871C125.294 15.8484 125.199 15.6195 125.03 15.4507C124.861 15.2819 124.632 15.1871 124.394 15.1871C124.632 15.1871 124.861 15.0923 125.03 14.9235C125.199 14.7547 125.294 14.5258 125.294 14.2871Z" stroke="url(#paint2_linear_13119_270208)" stroke-width="0.6" stroke-linecap="round" stroke-linejoin="round"/>
<path d="M133.793 13.3079V16.4915C133.793 16.7351 133.91 16.8611 134.162 16.8611H135.422C135.582 16.8611 135.716 16.8107 135.817 16.7099C135.951 16.5671 136.044 16.0715 136.077 15.2147L136.657 15.3995C136.581 16.3739 136.455 16.9703 136.279 17.1719C136.111 17.3399 135.876 17.4323 135.573 17.4407H133.986C133.448 17.4407 133.179 17.1551 133.179 16.6007V10.0739H133.793V12.7367C134.616 12.5015 135.414 12.1739 136.195 11.7455L136.556 12.2411C135.59 12.7199 134.666 13.0727 133.793 13.3079ZM129.769 17.5499L129.584 16.9871C129.719 16.9031 129.786 16.7855 129.786 16.6259V10.1159H130.391V12.4595H132.549V13.0475H130.391V16.8107C131.13 16.6427 131.861 16.4327 132.591 16.1891L132.751 16.7603C131.827 17.0543 130.827 17.3147 129.769 17.5499ZM139.79 10.4603H142.554V11.0399H141.025C140.983 11.4599 140.924 11.8547 140.849 12.2327H142.394V12.7535C142.092 15.0803 141.243 16.7099 139.866 17.6507L139.563 17.1131C140.235 16.6511 140.765 16.0043 141.151 15.1811C140.798 14.8367 140.445 14.5595 140.101 14.3411C139.933 14.6351 139.757 14.9039 139.563 15.1475L139.261 14.5595C139.916 13.7027 140.311 12.5267 140.445 11.0399H139.79V10.4603ZM140.345 13.8455C140.714 14.0639 141.059 14.3243 141.386 14.6099C141.588 14.0555 141.731 13.4423 141.831 12.7871H140.714C140.613 13.1651 140.487 13.5179 140.345 13.8455ZM144.083 17.6171H143.159L143.024 17.0375C143.327 17.0627 143.604 17.0795 143.873 17.0795C144.116 17.0795 144.242 16.9535 144.242 16.7015V9.99834H144.847V16.8527C144.847 17.3567 144.587 17.6171 144.083 17.6171ZM138.295 13.1231C138.085 13.4423 137.867 13.7447 137.631 14.0303L137.43 13.3919C138.169 12.3839 138.707 11.2331 139.043 9.93114L139.614 10.1915C139.429 10.8551 139.185 11.4767 138.9 12.0647V17.6927H138.295V13.1231ZM142.915 10.7711H143.469V15.9791H142.915V10.7711Z" fill="url(#paint3_linear_13119_270208)"/>
</g>
<defs>
<linearGradient id="paint0_linear_13119_270208" x1="62.4961" y1="9.78711" x2="71.2542" y2="10.5753" gradientUnits="userSpaceOnUse">
<stop stop-color="#33D6C0"/>
<stop offset="0.25" stop-color="#5083FB"/>
<stop offset="0.5" stop-color="#336DF4"/>
<stop offset="0.75" stop-color="#4752E6"/>
<stop offset="1" stop-color="#8D55ED"/>
</linearGradient>
<linearGradient id="paint1_linear_13119_270208" x1="73.1445" y1="7.83594" x2="107.942" y2="16.7093" gradientUnits="userSpaceOnUse">
<stop stop-color="#33D6C0"/>
<stop offset="0.25" stop-color="#5083FB"/>
<stop offset="0.5" stop-color="#336DF4"/>
<stop offset="0.75" stop-color="#4752E6"/>
<stop offset="1" stop-color="#8D55ED"/>
</linearGradient>
<linearGradient id="paint2_linear_13119_270208" x1="118.094" y1="9.78711" x2="126.852" y2="10.5753" gradientUnits="userSpaceOnUse">
<stop stop-color="#33D6C0"/>
<stop offset="0.25" stop-color="#5083FB"/>
<stop offset="0.5" stop-color="#336DF4"/>
<stop offset="0.75" stop-color="#4752E6"/>
<stop offset="1" stop-color="#8D55ED"/>
</linearGradient>
<linearGradient id="paint3_linear_13119_270208" x1="128.744" y1="7.83594" x2="146.978" y2="10.1607" gradientUnits="userSpaceOnUse">
<stop stop-color="#33D6C0"/>
<stop offset="0.25" stop-color="#5083FB"/>
<stop offset="0.5" stop-color="#336DF4"/>
<stop offset="0.75" stop-color="#4752E6"/>
<stop offset="1" stop-color="#8D55ED"/>
</linearGradient>
<clipPath id="clip0_13119_270208">
<rect width="643.2" height="19.2" fill="white" transform="translate(-117.055 4.23633)"/>
</clipPath>
<clipPath id="clip1_13119_270208">
<rect width="12" height="12" fill="white" transform="translate(6.94531 7.83594)"/>
</clipPath>
</defs>
</svg>
