<svg width="29" height="12" viewBox="0 0 29 12" fill="none" xmlns="http://www.w3.org/2000/svg">
<rect x="0.807167" width="28" height="12" rx="6" fill="#A7A9B0"/>
<path d="M5.51171 9V3.18182H7.5458C7.95111 3.18182 8.28539 3.25189 8.54864 3.39205C8.8119 3.5303 9.00792 3.71686 9.13671 3.9517C9.2655 4.18466 9.32989 4.44318 9.32989 4.72727C9.32989 4.97727 9.28539 5.18371 9.19637 5.34659C9.10925 5.50947 8.99372 5.63826 8.84978 5.73295C8.70774 5.82765 8.55338 5.89773 8.38671 5.94318V6C8.56474 6.01136 8.74372 6.07386 8.92364 6.1875C9.10357 6.30114 9.25414 6.46402 9.37535 6.67614C9.49656 6.88826 9.55717 7.14773 9.55717 7.45455C9.55717 7.74621 9.49088 8.00852 9.3583 8.24148C9.22573 8.47443 9.01645 8.65909 8.73046 8.79545C8.44448 8.93182 8.07232 9 7.61399 9H5.51171ZM6.21626 8.375H7.61399C8.07421 8.375 8.40092 8.28598 8.5941 8.10795C8.78917 7.92803 8.88671 7.71023 8.88671 7.45455C8.88671 7.25758 8.83652 7.07576 8.73614 6.90909C8.63577 6.74053 8.49277 6.60606 8.30717 6.50568C8.12156 6.40341 7.90186 6.35227 7.64808 6.35227H6.21626V8.375ZM6.21626 5.73864H7.52308C7.7352 5.73864 7.92649 5.69697 8.09694 5.61364C8.26929 5.5303 8.40565 5.41288 8.50603 5.26136C8.6083 5.10985 8.65944 4.93182 8.65944 4.72727C8.65944 4.47159 8.57042 4.25473 8.39239 4.0767C8.21436 3.89678 7.93217 3.80682 7.5458 3.80682H6.21626V5.73864ZM10.7148 9V3.18182H14.2262V3.80682H11.4194V5.77273H14.0444V6.39773H11.4194V8.375H14.2717V9H10.7148ZM15.1779 3.80682V3.18182H19.5415V3.80682H17.712V9H17.0075V3.80682H15.1779ZM20.1878 9H19.4492L21.5856 3.18182H22.3128L24.4492 9H23.7106L21.9719 4.10227H21.9265L20.1878 9ZM20.4606 6.72727H23.4378V7.35227H20.4606V6.72727Z" fill="white"/>
</svg>
