<svg width="76" height="45" viewBox="0 0 76 45" fill="none" xmlns="http://www.w3.org/2000/svg">
  <path fill-rule="evenodd" clip-rule="evenodd"
    d="M55.3204 3.30768C54.6018 4.13676 54.2147 5.05323 54.0427 5.96876C53.9192 6.25615 53.8574 6.56896 53.8574 6.90719V6.95797C53.8574 7.14938 53.7617 7.24508 53.5703 7.24508H40.8145C40.1582 7.24508 39.584 7.49117 39.0918 7.98336C38.627 8.4482 38.3945 9.00875 38.3945 9.665V10.5263C38.3945 11.2099 38.627 11.7841 39.0918 12.249C39.584 12.7138 40.1582 12.9462 40.8145 12.9462H53.5703C53.7617 12.9462 53.8574 13.0556 53.8574 13.2744V18.3505C53.8574 18.5693 53.7617 18.6787 53.5703 18.6787H43.6445C42.9609 18.6787 42.3867 18.9111 41.9219 19.3759C41.457 19.8408 41.2246 20.415 41.2246 21.0986V22.042C41.2246 22.6982 41.457 23.2724 41.9219 23.7646C42.3867 24.2295 42.9609 24.4619 43.6445 24.4619H70.7559C71.4395 24.4619 72.0137 24.2295 72.4785 23.7646C72.9434 23.2724 73.1758 22.6982 73.1758 22.042V21.0986C73.1758 20.415 72.9434 19.8408 72.4785 19.3759C72.0137 18.9111 71.4395 18.6787 70.7559 18.6787H60.625C60.4336 18.6787 60.3379 18.5693 60.3379 18.3505V13.2744C60.3379 13.0556 60.4336 12.9462 60.625 12.9462H73.4629C74.1191 12.9462 74.6797 12.7138 75.1445 12.249C75.6367 11.7841 75.8828 11.2099 75.8828 10.5263V9.665C75.8828 9.00875 75.6367 8.4482 75.1445 7.98336C74.6797 7.49117 74.1191 7.24508 73.4629 7.24508H61.2741C61.753 6.98163 62.199 6.72247 62.5519 6.47468C64.5182 5.09378 63.4138 2.74391 62.5843 1.78158C61.2756 0.263399 58.3416 -0.178098 55.3204 3.30768ZM65.5469 32.8701C65.5469 32.6787 65.4375 32.583 65.2188 32.583H49.0586C48.8399 32.583 48.7305 32.6787 48.7305 32.8701V37.2177C48.7305 37.4091 48.8399 37.5048 49.0586 37.5048H65.2188C65.4375 37.5048 65.5469 37.4091 65.5469 37.2177V32.8701ZM44.834 44.3545C44.1504 44.3545 43.5762 44.122 43.1113 43.6572C42.6465 43.1923 42.4141 42.6181 42.4141 41.9345V29.5478C42.4141 28.8916 42.6465 28.331 43.1113 27.8662C43.5762 27.374 44.1504 27.1279 44.834 27.1279H69.8535C70.5098 27.1279 71.0703 27.374 71.5352 27.8662C72.0274 28.331 72.2734 28.8916 72.2734 29.5478V41.9345C72.2734 42.6181 72.0274 43.1923 71.5352 43.6572C71.0703 44.122 70.5098 44.3545 69.8535 44.3545H66.6543C66.3535 44.3545 66.0938 44.2451 65.875 44.0263C65.6563 43.8076 65.5469 43.5478 65.5469 43.247C65.5469 43.165 65.4922 43.124 65.3828 43.124H48.8945C48.7852 43.124 48.7305 43.165 48.7305 43.247C48.7305 43.5478 48.6211 43.8076 48.4024 44.0263C48.1836 44.2451 47.9238 44.3545 47.6231 44.3545H44.834ZM21.0302 3.30765C22.0691 4.50638 22.4149 5.88798 22.4196 7.18537C22.4474 7.19129 22.4781 7.19426 22.5117 7.19426H34.0781C34.7344 7.19426 35.2949 7.44035 35.7598 7.93254C36.252 8.39738 36.4981 8.95793 36.4981 9.61418V9.73722C36.4981 10.3935 36.252 10.9677 35.7598 11.4599C35.2949 11.9247 34.7344 12.1571 34.0781 12.1571H22.5117C22.3203 12.1571 22.2246 12.2528 22.2246 12.4443V13.1825C22.2246 13.4013 22.3203 13.5107 22.5117 13.5107H31.6992C32.3281 13.5107 32.8613 13.7431 33.2988 14.2079C33.7637 14.6454 33.9961 15.1786 33.9961 15.8075C33.9961 16.4364 33.7637 16.9833 33.2988 17.4482C32.8613 17.8857 32.3281 18.1044 31.6992 18.1044H22.5117C22.3203 18.1044 22.2246 18.2001 22.2246 18.3915V19.2118C22.2246 19.4306 22.3203 19.54 22.5117 19.54H36.293C36.9492 19.54 37.5098 19.7861 37.9746 20.2782C38.4668 20.7431 38.7129 21.3036 38.7129 21.9599V22.0829C38.7129 22.7392 38.4668 23.3134 37.9746 23.8056C37.5098 24.2704 36.9492 24.5028 36.293 24.5028H19.2305C19.0117 24.5028 18.834 24.5849 18.6973 24.7489C18.4512 25.0771 18.0547 25.5419 17.5078 26.1435C17.4805 26.1982 17.4668 26.2528 17.4668 26.3075C17.4941 26.3622 17.5352 26.3896 17.5898 26.3896H28.2539C28.3359 26.3896 28.418 26.3759 28.5 26.3486C28.6914 26.3212 28.8828 26.3075 29.0742 26.3075C29.5117 26.3075 29.9219 26.4169 30.3047 26.6357L31.4941 27.2919C32.0684 27.62 32.4375 28.0849 32.6016 28.6864C32.6563 28.9052 32.6836 29.1103 32.6836 29.3017C32.6836 29.7118 32.5606 30.0946 32.3145 30.4501C30.7285 32.829 28.7324 34.8798 26.3262 36.6025C26.2715 36.6298 26.2441 36.6708 26.2441 36.7255C26.2715 36.7802 26.3125 36.8212 26.3672 36.8485C29.4844 37.6962 33.0938 38.2978 37.1953 38.6532C37.6875 38.6806 38.0293 38.9267 38.2207 39.3915C38.3027 39.5829 38.3438 39.7607 38.3438 39.9247C38.3438 40.1982 38.2617 40.4579 38.0977 40.704C37.7695 41.1689 37.4551 41.6747 37.1543 42.2216C36.7715 42.8778 36.2656 43.3837 35.6367 43.7392C35.1445 44.0126 34.625 44.1493 34.0781 44.1493C33.9414 44.1493 33.791 44.1357 33.627 44.1083C28.2402 43.4247 23.6191 42.2353 19.7637 40.54C19.5723 40.4579 19.3809 40.4579 19.1895 40.54C15.334 42.1259 10.7402 43.3427 5.4082 44.1903H4.95703C4.46484 44.1903 3.97266 44.0536 3.48047 43.7802C2.87891 43.4247 2.42773 42.9189 2.12695 42.2626C2.07227 42.0985 1.99023 41.9208 1.88086 41.7294C1.79883 41.5653 1.73047 41.4013 1.67578 41.2372C1.53906 40.9911 1.4707 40.745 1.4707 40.4989C1.4707 40.2528 1.52539 40.0068 1.63477 39.7607C1.88086 39.2685 2.27734 38.995 2.82422 38.9403C6.65234 38.4755 10.1113 37.7782 13.2012 36.8485C13.2559 36.8485 13.2832 36.8212 13.2832 36.7665C13.3105 36.6845 13.2969 36.6161 13.2422 36.5614C11.8477 35.413 10.6445 34.2509 9.63281 33.0751C9.49609 32.911 9.3457 32.8837 9.18164 32.9931C8.33399 33.4853 7.41797 33.9775 6.43359 34.4696C6.02344 34.661 5.61328 34.7568 5.20313 34.7568C4.95703 34.7568 4.71094 34.7157 4.46484 34.6337C3.80859 34.4696 3.23438 34.1142 2.74219 33.5673L2.25 33.0751C2.11328 32.911 1.97656 32.7607 1.83984 32.6239C1.53906 32.3232 1.38867 31.9814 1.38867 31.5986V31.3114C1.49805 30.7919 1.78516 30.4228 2.25 30.204C5.83203 28.7548 8.73047 26.9228 10.9453 24.7079C10.9727 24.6806 10.9727 24.6396 10.9453 24.5849C10.9453 24.5302 10.918 24.5028 10.8633 24.5028H2.53711C1.88086 24.5028 1.30664 24.2704 0.814453 23.8056C0.349609 23.3134 0.117188 22.7392 0.117188 22.0829V21.9599C0.117188 21.3036 0.349609 20.7431 0.814453 20.2782C1.30664 19.7861 1.88086 19.54 2.53711 19.54H15.8672C16.0586 19.54 16.1543 19.4306 16.1543 19.2118V18.3915C16.1543 18.2001 16.0586 18.1044 15.8672 18.1044H7.00781C6.37891 18.1044 5.83203 17.8857 5.36719 17.4482C4.92969 16.9833 4.71094 16.4364 4.71094 15.8075C4.71094 15.1786 4.92969 14.6454 5.36719 14.2079C5.83203 13.7431 6.37891 13.5107 7.00781 13.5107H15.8672C16.0586 13.5107 16.1543 13.4013 16.1543 13.1825V12.4443C16.1543 12.2528 16.0586 12.1571 15.8672 12.1571H4.46484C3.80859 12.1571 3.23438 11.9247 2.74219 11.4599C2.27734 10.9677 2.04492 10.3935 2.04492 9.73722V9.61418C2.04492 8.95793 2.27734 8.39738 2.74219 7.93254C3.23438 7.44035 3.80859 7.19426 4.46484 7.19426H14.9781C14.5357 6.94912 14.1255 6.70812 13.7964 6.477C11.8299 5.09624 12.9351 2.74558 13.765 1.78285C15.0743 0.264025 18.009 -0.178235 21.0302 3.30765ZM23.7012 31.4755C23.7559 31.4482 23.7695 31.4071 23.7422 31.3525C23.7148 31.2978 23.6875 31.2704 23.6602 31.2704H15.5391C15.4844 31.2704 15.4434 31.2978 15.416 31.3525C15.416 31.4071 15.4434 31.4482 15.498 31.4755C16.5918 32.4872 17.8496 33.3622 19.2715 34.1005C19.4629 34.1825 19.6543 34.1825 19.8457 34.1005C21.2949 33.3349 22.5801 32.4599 23.7012 31.4755Z"
    fill="url(#paint0_linear_46_2298)" />
  <defs>
    <linearGradient id="paint0_linear_46_2298" x1="0.117188" y1="0.64563" x2="33.4205" y2="73.4083"
      gradientUnits="userSpaceOnUse">
      <stop stop-color="#FFF73F" />
      <stop offset="1" stop-color="#FF0000" />
    </linearGradient>
  </defs>
</svg>