<svg xmlns="http://www.w3.org/2000/svg" width="151" height="63" viewBox="0 0 151 63" fill="none">
  <path fill-rule="evenodd" clip-rule="evenodd" d="M116.872 10.3069C115.395 10.3069 114.159 9.82809 113.161 8.87058C112.164 7.91306 111.665 6.73611 111.665 5.33974C111.665 3.86356 112.164 2.64672 113.161 1.6892C114.159 0.731688 115.395 0.25293 116.872 0.25293C118.388 0.25293 119.624 0.731688 120.582 1.6892C121.579 2.64672 122.078 3.86356 122.078 5.33974C122.078 6.73611 121.579 7.91306 120.582 8.87058C119.624 9.82809 118.388 10.3069 116.872 10.3069ZM79.4724 52.5009C79.4724 55.9365 81.0687 58.5031 84.2611 60.2007C87.4536 61.8983 92.0228 62.7471 97.9688 62.7471C101.042 62.7471 103.296 62.3429 104.733 61.5345C106.129 60.7666 106.828 59.554 106.828 57.8968C106.828 56.7247 106.509 55.9365 105.87 55.5323C105.232 55.1686 104.374 54.9867 103.296 54.9867C102.498 54.9867 101.82 55.0271 101.261 55.1079C100.702 55.2292 100.104 55.3302 99.4652 55.4111C98.7868 55.5323 97.9488 55.593 96.9512 55.593C93.7986 55.593 91.5439 55.3504 90.1871 54.8654C88.7904 54.3804 88.0921 53.3901 88.0921 51.8946C88.0921 50.6416 88.5909 49.6312 89.5885 48.8632C90.5862 48.0953 91.8432 47.7113 93.3596 47.7113C102.538 47.7113 107.127 42.76 107.127 32.8573C107.127 27.805 105.97 19.3909 103.655 16.9657C101.341 14.5406 97.8889 13.328 93.2998 13.328C90.2669 13.328 87.7529 13.8535 85.7576 14.9044C84.7998 11.2667 82.7646 9.44783 79.652 9.44783C78.1356 9.44783 76.9783 9.85202 76.1802 10.6604C75.3422 11.4284 74.9232 12.5601 74.9232 14.0556C74.9232 15.4298 75.3222 16.4201 76.1203 17.0264C76.9185 17.6326 78.1954 17.9358 79.9513 17.9358C80.7095 17.9358 81.4079 17.9964 82.0463 18.1177C80.3304 20.5428 79.4724 28.5932 79.4724 32.918C79.4724 35.626 79.8715 37.8693 80.6696 39.6477C81.4278 41.4261 82.8445 42.9014 84.9196 44.0736C82.9243 44.8011 81.5276 45.9328 80.7295 47.4688C79.8914 48.9643 79.4724 50.6416 79.4724 52.5009ZM98.5075 32.8573C98.5075 37.9097 96.7716 40.4359 93.2998 40.4359C89.828 40.4359 88.0921 37.9097 88.0921 32.8573C88.0921 30.2301 88.531 23.6348 89.409 22.4223C90.247 21.2097 91.5439 20.6034 93.2998 20.6034C95.0157 20.6034 96.3127 21.2097 97.1906 22.4223C98.0685 23.6348 98.5075 30.2301 98.5075 32.8573ZM116.991 44.1657C119.784 44.1657 121.18 42.8292 121.18 40.1561V17.3553C121.18 16.0786 120.841 15.0812 120.163 14.363C119.525 13.6449 118.428 13.2858 116.872 13.2858C115.316 13.2858 114.199 13.6449 113.52 14.363C112.882 15.0812 112.563 16.0786 112.563 17.3553V40.1561C112.563 41.5126 112.962 42.53 113.76 43.2082C114.558 43.8466 115.635 44.1657 116.991 44.1657ZM130.428 39.9766C132.782 42.7694 136.393 44.1657 141.26 44.1657C144.332 44.1657 146.566 43.7867 147.963 43.0287C149.399 42.2308 150.117 41.0139 150.117 39.3782C150.117 38.2212 149.798 37.4631 149.16 37.104C148.521 36.7051 147.664 36.5056 146.586 36.5056C145.908 36.5056 145.21 36.6253 144.492 36.8647C143.774 37.0642 142.657 37.1639 141.14 37.1639C139.505 37.1639 138.288 36.7649 137.49 35.967C136.692 35.1292 136.153 34.0719 135.874 32.7952C135.635 31.4786 135.515 30.1421 135.515 28.7856C135.515 27.3892 135.675 26.0527 135.994 24.776C136.353 23.4594 136.931 22.3822 137.729 21.5444C138.567 20.7066 139.684 20.2877 141.081 20.2877C142.118 20.2877 142.876 20.3475 143.355 20.4672C143.873 20.547 144.352 20.6467 144.791 20.7664C145.23 20.8861 145.828 20.946 146.586 20.946C147.664 20.946 148.521 20.6866 149.16 20.168C149.798 19.6493 150.117 18.8115 150.117 17.6545C150.117 16.0187 149.399 14.8817 147.963 14.2433C146.566 13.605 144.332 13.2858 141.26 13.2858C136.393 13.2858 132.782 14.7221 130.428 17.5947C128.074 20.4273 126.897 24.1576 126.897 28.7856C126.897 33.4136 128.074 37.144 130.428 39.9766ZM60.0961 44.1657C56.1064 44.1657 52.9945 43.2481 50.7603 41.4129C48.5261 39.5377 47.409 37.124 47.409 34.1717C47.409 30.7007 48.8652 28.1872 51.7777 26.6312C54.73 25.0753 59.0388 24.5366 64.7041 25.0154C64.4249 23.1802 63.8464 21.9434 62.9686 21.305C62.0909 20.6268 61.0337 20.2877 59.7969 20.2877C58.7995 20.2877 57.9616 20.3475 57.2834 20.4672C56.645 20.547 56.0466 20.6467 55.488 20.7664C54.9295 20.8861 54.2513 20.946 53.4533 20.946C52.3761 20.946 51.5183 20.7664 50.88 20.4074C50.2416 20.0084 49.9225 19.2304 49.9225 18.0734C49.9225 16.4377 50.6207 15.2408 52.017 14.4827C53.4533 13.6848 55.7075 13.2858 58.7795 13.2858C63.6469 13.2858 67.2575 14.6822 69.6114 17.475C71.9653 20.2278 73.1423 23.9183 73.1423 28.5462C73.1423 33.8924 72.1648 37.8421 70.2099 40.3955C68.2948 42.909 64.9236 44.1657 60.0961 44.1657ZM56.0266 34.1717C56.0266 36.4458 57.5627 37.5828 60.6347 37.5828C61.6321 37.5828 62.4101 37.4033 62.9686 37.0442C63.5272 36.6851 63.9262 35.967 64.1655 34.8898C64.4448 33.8126 64.6443 32.1968 64.764 30.0424C64.5645 30.2418 64.3052 30.3815 63.986 30.4613C63.6668 30.5411 63.3477 30.581 63.0285 30.581C60.3953 30.581 58.5601 30.8403 57.5228 31.359C56.5254 31.8377 56.0266 32.7753 56.0266 34.1717ZM0.117188 40.0963C0.117188 42.8093 1.55346 44.1657 4.42601 44.1657C7.29856 44.1657 8.73484 42.8093 8.73484 40.0963V26.2123C8.73484 22.3822 10.1312 20.4672 12.924 20.4672C15.7965 20.4672 17.2328 22.3822 17.2328 26.2123V39.8569C17.2328 42.5699 18.6292 43.9264 21.4219 43.9264C24.2147 43.9264 25.6111 42.5699 25.6111 39.8569V26.2123C25.6111 22.3822 27.0473 20.4672 29.9199 20.4672C31.3562 20.4672 32.4134 20.926 33.0917 21.8436C33.7699 22.7214 34.109 24.1776 34.109 26.2123V40.0963C34.109 42.8093 35.5453 44.1657 38.4179 44.1657C41.2904 44.1657 42.7267 42.8093 42.7267 40.0963V25.7335C42.7267 21.6641 41.7492 18.5721 39.7943 16.4576C37.8792 14.3431 35.1064 13.2858 31.4759 13.2858C26.5287 13.2858 23.1774 15.0612 21.4219 18.612C19.6665 15.0612 16.3152 13.2858 11.368 13.2858C7.73742 13.2858 4.94467 14.3431 2.98974 16.4576C1.0747 18.5721 0.117188 21.6641 0.117188 25.7335V40.0963Z" fill="url(#paint0_linear_32_231)"/>
  <defs>
    <linearGradient id="paint0_linear_32_231" x1="63.1172" y1="9.67828" x2="82.9416" y2="62.1281" gradientUnits="userSpaceOnUse">
      <stop stop-color="#315CEC"/>
      <stop offset="1" stop-color="#EA08D3"/>
    </linearGradient>
  </defs>
</svg>