<svg width="24" height="24" viewBox="0 0 24 24" fill="none" xmlns="http://www.w3.org/2000/svg">
<g clip-path="url(#clip0_171_243948)">
<path fill-rule="evenodd" clip-rule="evenodd" d="M15.763 0L23 7.237V22C23 22.5304 22.7893 23.0391 22.4142 23.4142C22.0391 23.7893 21.5304 24 21 24H3C2.46957 24 1.96086 23.7893 1.58579 23.4142C1.21071 23.0391 1 22.5304 1 22V2C1 1.46957 1.21071 0.960859 1.58579 0.585786C1.96086 0.210714 2.46957 0 3 0L15.763 0Z" fill="#00C084"/>
<path fill-rule="evenodd" clip-rule="evenodd" d="M17.763 7.237C17.2326 7.237 16.7239 7.02629 16.3488 6.65121C15.9737 6.27614 15.763 5.76743 15.763 5.237V0L23 7.237H17.763Z" fill="white" fill-opacity="0.401"/>
<path opacity="0.602" d="M16.937 9.603H7.06299C6.5107 9.603 6.06299 10.0507 6.06299 10.603V17.508C6.06299 18.0603 6.5107 18.508 7.06299 18.508H16.937C17.4893 18.508 17.937 18.0603 17.937 17.508V10.603C17.937 10.0507 17.4893 9.603 16.937 9.603Z" fill="white"/>
<path opacity="0.703" fill-rule="evenodd" clip-rule="evenodd" d="M7.06299 9.603H16.937C17.2022 9.603 17.4566 9.70836 17.6441 9.89589C17.8316 10.0834 17.937 10.3378 17.937 10.603V11.582H6.06299V10.602C6.06299 10.3368 6.16834 10.0824 6.35588 9.89489C6.54342 9.70736 6.79777 9.603 7.06299 9.603Z" fill="white"/>
<path fill-rule="evenodd" clip-rule="evenodd" d="M6.06299 17.508V10.603C6.06299 10.3378 6.16834 10.0834 6.35588 9.89589C6.54342 9.70836 6.79777 9.603 7.06299 9.603H8.04299V18.508H7.06299C6.79777 18.508 6.54342 18.4026 6.35588 18.2151C6.16834 18.0276 6.06299 17.7732 6.06299 17.508Z" fill="white"/>
</g>
<defs>
<clipPath id="clip0_171_243948">
<rect width="24" height="24" fill="white"/>
</clipPath>
</defs>
</svg>
