<svg width="24" height="24" viewBox="0 0 24 24" fill="none" xmlns="http://www.w3.org/2000/svg">
<g clip-path="url(#clip0_1764_869)">
<path fill-rule="evenodd" clip-rule="evenodd" d="M15.763 0L23 7.237V22C23 22.5304 22.7893 23.0391 22.4142 23.4142C22.0391 23.7893 21.5304 24 21 24H3C2.46957 24 1.96086 23.7893 1.58579 23.4142C1.21071 23.0391 1 22.5304 1 22V2C1 1.46957 1.21071 0.960859 1.58579 0.585786C1.96086 0.210714 2.46957 0 3 0L15.763 0Z" fill="#0AAD2D"/>
<path fill-rule="evenodd" clip-rule="evenodd" d="M17.763 7.237C17.2326 7.237 16.7239 7.02629 16.3488 6.65121C15.9737 6.27614 15.763 5.76743 15.763 5.237V0L23 7.237H17.763Z" fill="white" fill-opacity="0.401"/>
<path d="M9.31656 18.08H8.10056L6.93256 15.912L5.75656 18.08H4.53256L6.31656 15.184L4.62056 12.32H5.86856L6.98856 14.456L8.15656 12.32H9.30056L7.58856 15.168L9.31656 18.08ZM15.439 18.08H14.359V13.808L13.103 16.64H12.335L11.055 13.784V18.08H10.055V12.32H11.391L12.735 15.296L14.103 12.32H15.439V18.08ZM20.3252 18.08H16.7972V12.32H17.8132V17.112H20.3252V18.08Z" fill="white"/>
</g>
<defs>
<clipPath id="clip0_1764_869">
<rect width="24" height="24" fill="white"/>
</clipPath>
</defs>
</svg>
