<svg width="24" height="24" viewBox="0 0 24 24" fill="none" xmlns="http://www.w3.org/2000/svg">
<g clip-path="url(#clip0_1764_871)">
<path fill-rule="evenodd" clip-rule="evenodd" d="M15.763 0L23 7.237V22C23 22.5304 22.7893 23.0391 22.4142 23.4142C22.0391 23.7893 21.5304 24 21 24H3C2.46957 24 1.96086 23.7893 1.58579 23.4142C1.21071 23.0391 1 22.5304 1 22V2C1 1.46957 1.21071 0.960859 1.58579 0.585786C1.96086 0.210714 2.46957 0 3 0L15.763 0Z" fill="#38A7C0"/>
<path fill-rule="evenodd" clip-rule="evenodd" d="M17.763 7.237C17.2326 7.237 16.7239 7.02629 16.3488 6.65121C15.9737 6.27614 15.763 5.76743 15.763 5.237V0L23 7.237H17.763Z" fill="white" fill-opacity="0.401"/>
<path d="M7.45079 13.03V16.628C7.45079 17.769 6.92579 18.154 5.88979 18.154C5.65879 18.154 5.42079 18.154 5.13379 18L5.35079 17.223C5.51879 17.307 5.70079 17.321 5.83379 17.321C6.35179 17.321 6.55479 17.174 6.55479 16.614V13.03H7.45079ZM11.1414 18.07H10.3854L10.3364 17.587C10.1334 17.986 9.83938 18.154 9.37038 18.154C8.67038 18.154 8.20138 17.685 8.20138 17.048C8.20138 16.341 8.67738 15.837 9.47538 15.837H10.3294V15.648C10.3294 15.242 10.0844 15.018 9.65038 15.018C9.33538 15.018 9.07638 15.13 8.85938 15.326L8.46038 14.759C8.85938 14.465 9.26538 14.346 9.70638 14.346C10.6374 14.346 11.1414 14.787 11.1414 15.788V18.07ZM10.3294 16.46H9.56638C9.18838 16.46 8.99938 16.642 8.99938 16.985C8.99938 17.279 9.18838 17.461 9.57338 17.461C10.0564 17.461 10.3294 17.181 10.3294 16.586V16.46ZM15.2116 14.43L13.8886 18.07H12.9086L11.6416 14.43H12.5726L13.4336 17.174L14.3086 14.43H15.2116ZM18.408 18.07H17.652L17.603 17.587C17.4 17.986 17.106 18.154 16.637 18.154C15.937 18.154 15.468 17.685 15.468 17.048C15.468 16.341 15.944 15.837 16.742 15.837H17.596V15.648C17.596 15.242 17.351 15.018 16.917 15.018C16.602 15.018 16.343 15.13 16.126 15.326L15.727 14.759C16.126 14.465 16.532 14.346 16.973 14.346C17.904 14.346 18.408 14.787 18.408 15.788V18.07ZM17.596 16.46H16.833C16.455 16.46 16.266 16.642 16.266 16.985C16.266 17.279 16.455 17.461 16.84 17.461C17.323 17.461 17.596 17.181 17.596 16.586V16.46Z" fill="white"/>
</g>
<defs>
<clipPath id="clip0_1764_871">
<rect width="24" height="24" fill="white"/>
</clipPath>
</defs>
</svg>
