<svg width="25" height="24" viewBox="0 0 25 24" fill="none" xmlns="http://www.w3.org/2000/svg">
<g id="Group">
<path id="Vector" fill-rule="evenodd" clip-rule="evenodd" d="M16.263 0L23.5 7.237V22C23.5 22.5304 23.2893 23.0391 22.9142 23.4142C22.5391 23.7893 22.0304 24 21.5 24H3.5C2.96957 24 2.46086 23.7893 2.08579 23.4142C1.71071 23.0391 1.5 22.5304 1.5 22V2C1.5 1.46957 1.71071 0.960859 2.08579 0.585786C2.46086 0.210714 2.96957 0 3.5 0L16.263 0Z" fill="#2996F7"/>
<path id="Vector_2" fill-rule="evenodd" clip-rule="evenodd" d="M18.263 7.237C17.7326 7.237 17.2239 7.02629 16.8488 6.65121C16.4737 6.27614 16.263 5.76743 16.263 5.237V0L23.5 7.237H18.263Z" fill="white" fill-opacity="0.401"/>
<path id="Vector_3" d="M13.853 13.427C14.4069 13.9808 14.7283 14.7254 14.7513 15.5084C14.7744 16.2914 14.4974 17.0535 13.977 17.639L13.853 17.77L12.195 19.43C11.6324 20.0059 10.8662 20.3379 10.0612 20.3544C9.25633 20.3709 8.47711 20.0707 7.89136 19.5184C7.30561 18.9661 6.96017 18.2058 6.92943 17.4013C6.89868 16.5968 7.18508 15.8124 7.72697 15.217L7.85097 15.086L8.53897 14.398C8.67323 14.2628 8.85391 14.1838 9.04432 14.1769C9.23474 14.1701 9.42061 14.236 9.5642 14.3613C9.70778 14.4865 9.79831 14.6617 9.8174 14.8513C9.83649 15.0409 9.7827 15.2306 9.66697 15.382L9.59997 15.459L8.91197 16.146C8.62409 16.4314 8.45769 16.8171 8.44755 17.2223C8.4374 17.6276 8.58431 18.0211 8.85756 18.3205C9.1308 18.62 9.50923 18.8022 9.91372 18.8292C10.3182 18.8561 10.7174 18.7256 11.028 18.465L11.134 18.368L12.793 16.71C12.9389 16.5641 13.0546 16.3909 13.1336 16.2003C13.2126 16.0097 13.2532 15.8053 13.2532 15.599C13.2532 15.3927 13.2126 15.1883 13.1336 14.9977C13.0546 14.8071 12.9389 14.6339 12.793 14.488C12.6605 14.3458 12.5884 14.1578 12.5918 13.9635C12.5952 13.7692 12.6739 13.5838 12.8114 13.4464C12.9488 13.309 13.1341 13.2303 13.3284 13.2268C13.5228 13.2234 13.7108 13.2955 13.853 13.428V13.427ZM17.149 10.132C17.7029 10.6858 18.0243 11.4304 18.0473 12.2134C18.0704 12.9964 17.7934 13.7585 17.273 14.344L17.149 14.474L16.461 15.163C16.3267 15.2982 16.146 15.3772 15.9556 15.3841C15.7652 15.3909 15.5793 15.325 15.4357 15.1997C15.2922 15.0745 15.2016 14.8993 15.1825 14.7097C15.1635 14.5201 15.2172 14.3304 15.333 14.179L15.4 14.102L16.088 13.414C16.3732 13.128 16.5374 12.7431 16.5463 12.3393C16.5553 11.9355 16.4083 11.5437 16.136 11.2454C15.8637 10.947 15.4869 10.7651 15.0839 10.7373C14.6809 10.7094 14.2827 10.8379 13.972 11.096L13.866 11.192L12.207 12.851C11.9297 13.1281 11.7661 13.4988 11.7484 13.8904C11.7306 14.2819 11.86 14.666 12.111 14.967L12.207 15.073C12.2807 15.1417 12.3398 15.2245 12.3808 15.3165C12.4217 15.4085 12.4438 15.5078 12.4456 15.6085C12.4473 15.7092 12.4288 15.8092 12.3911 15.9026C12.3534 15.996 12.2972 16.0808 12.226 16.152C12.1548 16.2233 12.07 16.2794 11.9766 16.3171C11.8832 16.3548 11.7832 16.3734 11.6824 16.3716C11.5817 16.3698 11.4824 16.3478 11.3904 16.3068C11.2984 16.2658 11.2156 16.2067 11.147 16.133C10.593 15.5792 10.2717 14.8346 10.2486 14.0516C10.2256 13.2686 10.5026 12.5065 11.023 11.921L11.147 11.791L12.805 10.131C13.3812 9.55527 14.1624 9.23188 14.977 9.23188C15.7915 9.23188 16.5727 9.55527 17.149 10.131V10.132Z" fill="white"/>
</g>
</svg>
