<svg width="25" height="24" viewBox="0 0 25 24" fill="none" xmlns="http://www.w3.org/2000/svg">
<g id="Group">
<path id="Vector" d="M16.263 0L23.5 7.237V22C23.5 22.5304 23.2893 23.0391 22.9142 23.4142C22.5391 23.7893 22.0304 24 21.5 24H3.5C2.96957 24 2.46086 23.7893 2.08579 23.4142C1.71071 23.0391 1.5 22.5304 1.5 22V2C1.5 1.46957 1.71071 0.960859 2.08579 0.585786C2.46086 0.210714 2.96957 0 3.5 0L16.263 0Z" fill="#4B4B4B"/>
<path id="Vector_2" d="M18.263 7.237C17.7326 7.237 17.2239 7.02629 16.8488 6.65121C16.4737 6.27614 16.263 5.76743 16.263 5.237V0L23.5 7.237H18.263Z" fill="white" fill-opacity="0.401"/>
<path id="Vector_3" d="M18.894 18.54H6.10602C5.6918 18.54 5.35602 18.8758 5.35602 19.29C5.35602 19.7042 5.6918 20.04 6.10602 20.04H18.894C19.3082 20.04 19.644 19.7042 19.644 19.29C19.644 18.8758 19.3082 18.54 18.894 18.54Z" fill="white"/>
<path id="Vector_4" d="M11.75 13.499H6.10602C5.6918 13.499 5.35602 13.8348 5.35602 14.249C5.35602 14.6632 5.6918 14.999 6.10602 14.999H11.75C12.1642 14.999 12.5 14.6632 12.5 14.249C12.5 13.8348 12.1642 13.499 11.75 13.499Z" fill="white"/>
</g>
</svg>
