<svg width="25" height="24" viewBox="0 0 25 24" fill="none" xmlns="http://www.w3.org/2000/svg">
<g id="Group">
<path id="Vector" fill-rule="evenodd" clip-rule="evenodd" d="M16.263 0L23.5 7.237V22C23.5 22.5304 23.2893 23.0391 22.9142 23.4142C22.5391 23.7893 22.0304 24 21.5 24H3.5C2.96957 24 2.46086 23.7893 2.08579 23.4142C1.71071 23.0391 1.5 22.5304 1.5 22V2C1.5 1.46957 1.71071 0.960859 2.08579 0.585786C2.46086 0.210714 2.96957 0 3.5 0L16.263 0Z" fill="#FF414C"/>
<path id="Vector_2" d="M11.948 9.184C12.521 9.207 12.976 9.583 13.091 10.225C13.152 10.523 13.171 10.845 13.154 11.193C13.13 11.654 13.05 12.112 12.901 12.739C12.8868 12.799 12.8725 12.859 12.858 12.919L12.821 13.069C13.223 14.116 13.789 14.829 14.629 15.346C15.1981 15.2674 15.7725 15.2333 16.347 15.244C17.085 15.268 17.63 15.407 17.926 15.698C18.212 15.983 18.318 16.5 18.184 16.946C18.032 17.453 17.612 17.776 16.991 17.776C16.237 17.776 15.119 17.436 14.151 16.918C13.594 17.012 12.981 17.178 12.172 17.442C11.986 17.502 11.797 17.566 11.537 17.654L11.125 17.793L10.986 17.84L10.744 17.92C9.60999 19.866 8.58399 20.727 7.74899 20.662C7.58966 20.6489 7.4355 20.5992 7.29849 20.5168C7.16148 20.4344 7.0453 20.3216 6.95899 20.187C6.79699 19.947 6.72599 19.653 6.77299 19.429C6.86999 18.944 7.22199 18.483 7.78599 18.035C8.21299 17.695 8.72199 17.389 9.37599 17.052C9.86499 16.192 10.594 14.649 11.146 13.332C10.713 11.654 10.593 10.67 10.797 9.922C10.923 9.46 11.414 9.162 11.948 9.184ZM9.71799 17.504L9.33199 17.864L9.01399 18.148C8.84899 18.298 8.70799 18.431 8.57199 18.568C8.34715 18.7876 8.14481 19.0292 7.96799 19.289C7.88299 19.419 7.81799 19.543 7.77399 19.661L7.76999 19.673V19.686C7.76999 19.714 7.78699 19.74 7.81399 19.752C7.82602 19.7569 7.8391 19.7586 7.85199 19.757C7.86574 19.7556 7.87921 19.7523 7.89199 19.747C7.92344 19.7331 7.95356 19.7164 7.98199 19.697C8.06799 19.642 8.17499 19.555 8.29599 19.437C8.62599 19.119 9.01199 18.63 9.43799 17.951L9.71799 17.504ZM11.978 14.018L11.924 14.158C11.499 15.281 11.104 16.174 10.677 16.918L10.581 17.086L10.762 17.016C10.97 16.936 11.793 16.6 11.718 16.63C12.438 16.34 12.964 16.164 13.528 16.048L13.68 16.016L13.556 15.924C12.979 15.497 12.454 14.884 12.05 14.15L11.978 14.018ZM17.22 16.342C16.888 16.22 16.317 16.175 15.51 16.235L15.227 16.256L15.489 16.368C16.519 16.808 17.104 16.903 17.376 16.796C17.4035 16.7862 17.429 16.7713 17.451 16.752C17.4857 16.7289 17.51 16.6932 17.5187 16.6525C17.5275 16.6118 17.5201 16.5693 17.498 16.534C17.456 16.459 17.362 16.394 17.22 16.342ZM11.974 9.968C11.808 9.968 11.766 10.284 11.791 10.809C11.813 11.271 11.891 11.783 11.999 12.123L12.047 12.275L12.125 12.136C12.252 11.911 12.33 11.397 12.322 10.904C12.314 10.342 12.207 9.968 11.974 9.968Z" fill="white"/>
<path id="Vector_3" fill-rule="evenodd" clip-rule="evenodd" d="M18.263 7.237C17.7326 7.237 17.2239 7.02629 16.8488 6.65121C16.4737 6.27614 16.263 5.76743 16.263 5.237V0L23.5 7.237H18.263Z" fill="white" fill-opacity="0.401"/>
</g>
</svg>
