<svg width="25" height="22" viewBox="0 0 25 22" fill="none" xmlns="http://www.w3.org/2000/svg">
<g id="Group 1">
<path id="Rectangle 1" d="M0.5 1.83333C0.5 0.820811 1.47683 0 2.68182 0H22.3182C23.5232 0 24.5 0.820811 24.5 1.83333V20.1667C24.5 21.1792 23.5232 22 22.3182 22H2.68182C1.47683 22 0.5 21.1792 0.5 20.1667V1.83333Z" fill="#00BF9A"/>
<path id="Rectangle 4" d="M0.5 2C0.5 0.895431 1.47683 0 2.68182 0H22.3182C23.5232 0 24.5 0.895431 24.5 2C24.5 3.10457 23.5232 4 22.3182 4H2.68182C1.47683 4 0.5 3.10457 0.5 2Z" fill="#009F83"/>
<path id="Rectangle 3" d="M3.5 18C3.5 17.4477 4.00368 17 4.625 17H20.375C20.9963 17 21.5 17.4477 21.5 18C21.5 18.5523 20.9963 19 20.375 19H4.625C4.00368 19 3.5 18.5523 3.5 18Z" fill="#8AE5CF"/>
<path id="Rectangle 5" d="M3.5 14C3.5 13.4477 3.94772 13 4.5 13H10.5C11.0523 13 11.5 13.4477 11.5 14C11.5 14.5523 11.0523 15 10.5 15H4.5C3.94772 15 3.5 14.5523 3.5 14Z" fill="#8AE5CF"/>
<path id="Rectangle 2" d="M14.5 3C14.5 2.44772 14.9477 2 15.5 2H19.5C20.0523 2 20.5 2.44772 20.5 3V9.29674C20.5 10.2251 19.3449 10.6524 18.7407 9.94753L17.5 8.5L16.2593 9.94753C15.6551 10.6524 14.5 10.2251 14.5 9.29674V3Z" fill="white"/>
</g>
</svg>
