<svg width="25" height="24" viewBox="0 0 25 24" fill="none" xmlns="http://www.w3.org/2000/svg">
<g id="Group">
<path id="Vector" fill-rule="evenodd" clip-rule="evenodd" d="M16.263 0L23.5 7.237V22C23.5 22.5304 23.2893 23.0391 22.9142 23.4142C22.5391 23.7893 22.0304 24 21.5 24H3.5C2.96957 24 2.46086 23.7893 2.08579 23.4142C1.71071 23.0391 1.5 22.5304 1.5 22V2C1.5 1.46957 1.71071 0.960859 2.08579 0.585786C2.46086 0.210714 2.96957 0 3.5 0L16.263 0Z" fill="#FFA200"/>
<path id="Vector_2" fill-rule="evenodd" clip-rule="evenodd" d="M18.263 7.237C17.7326 7.237 17.2239 7.02629 16.8488 6.65121C16.4737 6.27614 16.263 5.76743 16.263 5.237V0L23.5 7.237H18.263Z" fill="white" fill-opacity="0.401"/>
<path id="Vector_3" d="M10.567 7.555H9.04901C8.77287 7.555 8.54901 7.77886 8.54901 8.055V9.573C8.54901 9.84914 8.77287 10.073 9.04901 10.073H10.567C10.8432 10.073 11.067 9.84914 11.067 9.573V8.055C11.067 7.77886 10.8432 7.555 10.567 7.555Z" fill="white"/>
<path id="Vector_4" fill-rule="evenodd" clip-rule="evenodd" d="M10.567 10.829C10.6996 10.829 10.8268 10.8817 10.9206 10.9754C11.0144 11.0692 11.067 11.1964 11.067 11.329V15.221C11.067 15.3536 11.0144 15.4808 10.9206 15.5746C10.8268 15.6683 10.6996 15.721 10.567 15.721H6.53003C6.39742 15.721 6.27024 15.6683 6.17648 15.5746C6.08271 15.4808 6.03003 15.3536 6.03003 15.221V11.329C6.03003 11.1964 6.08271 11.0692 6.17648 10.9754C6.27024 10.8817 6.39742 10.829 6.53003 10.829H10.567ZM10.114 13.275H6.98303C6.85042 13.275 6.72324 13.3277 6.62948 13.4214C6.53571 13.5152 6.48303 13.6424 6.48303 13.775V14.625C6.48303 14.7576 6.53571 14.8848 6.62948 14.9786C6.72324 15.0723 6.85042 15.125 6.98303 15.125H10.114C10.2466 15.125 10.3738 15.0723 10.4676 14.9786C10.5614 14.8848 10.614 14.7576 10.614 14.625V13.775C10.614 13.6424 10.5614 13.5152 10.4676 13.4214C10.3738 13.3277 10.2466 13.275 10.114 13.275ZM6.03003 0H8.55003V2.018C8.55003 2.15061 8.49735 2.27779 8.40358 2.37155C8.30981 2.46532 8.18264 2.518 8.05003 2.518H6.53003C6.39742 2.518 6.27024 2.46532 6.17648 2.37155C6.08271 2.27779 6.03003 2.15061 6.03003 2.018V0Z" fill="white"/>
<path id="Vector_5" d="M10.567 2.518H9.04901C8.77287 2.518 8.54901 2.74186 8.54901 3.018V4.536C8.54901 4.81214 8.77287 5.036 9.04901 5.036H10.567C10.8432 5.036 11.067 4.81214 11.067 4.536V3.018C11.067 2.74186 10.8432 2.518 10.567 2.518Z" fill="white"/>
<path id="Vector_6" d="M8.04803 5.037H6.53003C6.25389 5.037 6.03003 5.26086 6.03003 5.537V7.055C6.03003 7.33114 6.25389 7.555 6.53003 7.555H8.04803C8.32417 7.555 8.54803 7.33114 8.54803 7.055V5.537C8.54803 5.26086 8.32417 5.037 8.04803 5.037Z" fill="white"/>
</g>
</svg>
