<svg width="20" height="20" viewBox="0 0 20 20" fill="none" xmlns="http://www.w3.org/2000/svg">
<g id="tabler-icon-edit">
<path id="Vector" d="M5.83331 5.83325H4.99998C4.55795 5.83325 4.13403 6.00885 3.82147 6.32141C3.50891 6.63397 3.33331 7.05789 3.33331 7.49992V14.9999C3.33331 15.4419 3.50891 15.8659 3.82147 16.1784C4.13403 16.491 4.55795 16.6666 4.99998 16.6666H12.5C12.942 16.6666 13.3659 16.491 13.6785 16.1784C13.9911 15.8659 14.1666 15.4419 14.1666 14.9999V14.1666" stroke="white" stroke-width="2" stroke-linecap="round" stroke-linejoin="round"/>
<path id="Vector_2" d="M16.9875 5.48759C17.3157 5.15938 17.5001 4.71424 17.5001 4.25009C17.5001 3.78594 17.3157 3.34079 16.9875 3.01259C16.6593 2.68438 16.2142 2.5 15.75 2.5C15.2858 2.5 14.8407 2.68438 14.5125 3.01259L7.5 10.0001V12.5001H10L16.9875 5.48759Z" stroke="white" stroke-width="2" stroke-linecap="round" stroke-linejoin="round"/>
<path id="Vector_3" d="M13.3333 4.16675L15.8333 6.66675" stroke="white" stroke-width="2" stroke-linecap="round" stroke-linejoin="round"/>
</g>
</svg>
