<svg width="24" height="24" viewBox="0 0 24 24" fill="none" xmlns="http://www.w3.org/2000/svg">
<rect width="24" height="24" rx="4" fill="#FF9E36"/>
<path d="M14.592 10.584H9.40801C8.77121 10.584 8.25601 10.0688 8.25601 9.43199V6.55199C8.25601 5.91519 8.77121 5.39999 9.40801 5.39999H14.592C15.2288 5.39999 15.744 5.91519 15.744 6.55199V9.43199C15.744 10.0688 15.2288 10.584 14.592 10.584ZM9.40801 6.55199V9.43199H14.5888L14.592 6.55199H9.40801Z" fill="#FFDCC0"/>
<path d="M18.048 18.648H5.952C5.3152 18.648 4.8 18.1328 4.8 17.496V8.85598C4.8 8.21918 5.3152 7.70398 5.952 7.70398H18.048C18.6848 7.70398 19.2 8.21918 19.2 8.85598V17.496C19.2 18.1328 18.6848 18.648 18.048 18.648Z" fill="#FFDCC0"/>
<path d="M18.048 12.888H5.952C5.3152 12.888 4.8 12.3728 4.8 11.736V8.85598C4.8 8.21918 5.3152 7.70398 5.952 7.70398H18.048C18.6848 7.70398 19.2 8.21918 19.2 8.85598V11.736C19.2 12.3728 18.6848 12.888 18.048 12.888Z" fill="#FFF6F0"/>
<path d="M8.54401 11.736H10.272V14.04H8.54401V11.736ZM13.728 11.736H15.456V14.04H13.728V11.736Z" fill="white"/>
</svg>
