<svg width="20" height="20" viewBox="0 0 20 20" fill="none" xmlns="http://www.w3.org/2000/svg">
<g clip-path="url(#clip0_22914_39083)">
<path d="M4.37957 0H15.6204C18.5401 0 20 1.45986 20 4.37957V15.6204C20 18.5401 18.5401 20 15.6204 20H4.37957C1.45986 20 0 18.5401 0 15.6204V4.37957C0 1.45986 1.45986 0 4.37957 0Z" fill="#D4E4E9"/>
<path d="M4.61418 1H15.3858C17.7953 1 19 2.20473 19 4.61418V15.3858C19 17.7953 17.7953 19 15.3858 19H4.61418C2.20473 19 1 17.7953 1 15.3858V4.61418C1 2.20473 2.20473 1 4.61418 1Z" fill="black"/>
<path d="M4.26416 2H15.7358C17.2453 2 18 2.75472 18 4.26416V15.7358C18 17.2453 17.2453 18 15.7358 18H4.26416C2.75472 18 2 17.2453 2 15.7358V4.26416C2 2.75472 2.75472 2 4.26416 2Z" fill="#222B2D"/>
<path d="M4.30072 3.13965H4.67912V3.68623C4.78424 3.69674 4.89285 3.71775 5.00496 3.7493C5.12164 3.78268 5.2344 3.82849 5.34131 3.88594L5.18891 4.29063C4.95066 4.16447 4.71766 4.10141 4.48992 4.10141C4.33227 4.10141 4.20262 4.13645 4.10102 4.20652C4.00291 4.2766 3.95387 4.38172 3.95387 4.52186C3.95387 4.65148 3.99766 4.74783 4.08525 4.81092C4.17635 4.87047 4.30248 4.92652 4.46365 4.97908L4.70541 5.05791C4.97518 5.14551 5.1784 5.26287 5.31504 5.41002C5.45518 5.55717 5.52525 5.74463 5.52525 5.97236C5.52525 6.0985 5.50248 6.2141 5.45693 6.31924C5.41049 6.4221 5.34444 6.51491 5.26248 6.5925C5.18189 6.66959 5.08555 6.73266 4.97342 6.7817C4.86131 6.83076 4.73693 6.86229 4.60029 6.87631V7.44389H4.22187V6.87631C4.06422 6.86928 3.92406 6.84652 3.80144 6.80799C3.67881 6.76943 3.55094 6.71338 3.41779 6.6398L3.60699 6.23512C3.74713 6.31922 3.88377 6.37703 4.01691 6.40855C4.15355 6.4401 4.27793 6.45586 4.39006 6.45586C4.56525 6.45586 4.70713 6.41908 4.81574 6.34551C4.92436 6.27191 4.97867 6.16156 4.97867 6.01439C4.97867 5.88477 4.93312 5.7849 4.84203 5.71484C4.75094 5.64127 4.61078 5.57469 4.42158 5.51514L4.16932 5.43105C4.06247 5.39817 3.95872 5.35596 3.85926 5.30492C3.77131 5.25813 3.69 5.1998 3.6175 5.13148C3.55074 5.06111 3.49732 4.9792 3.45984 4.88973C3.42129 4.79863 3.40203 4.69527 3.40203 4.57967C3.40203 4.31689 3.48436 4.10842 3.64902 3.95426C3.81371 3.7966 4.03094 3.70725 4.3007 3.68623V3.13965H4.30072Z" fill="#6BE34D"/>
<path d="M6.49635 3.13867H8.68613V7.37227H6.49635V3.13867Z" fill="#35712C"/>
</g>
<defs>
<clipPath id="clip0_22914_39083">
<rect width="20" height="20" fill="white"/>
</clipPath>
</defs>
</svg>
