<svg width="18" height="18" viewBox="0 0 18 18" fill="none" xmlns="http://www.w3.org/2000/svg">
<path fill-rule="evenodd" clip-rule="evenodd" d="M7.84374 6.42377C6.86886 5.17342 4.53821 2.74261 3.01467 3.0222C1.7904 4.5133 1.90376 9.84865 4.32963 10.9903C4.07571 12.2018 3.90643 12.5202 3.85352 12.528C4.41276 13.3823 6.22498 15.0722 9 14.9976C11.775 15.0722 13.5872 13.3823 14.1465 12.528C14.0936 12.5202 13.9243 12.2018 13.6704 10.9903C16.0962 9.84865 16.2096 4.5133 14.9853 3.0222C13.4618 2.74261 11.1311 5.17342 10.1563 6.42377C9.84792 6.21875 9.25695 6.18302 9 6.19079C8.74305 6.18302 8.15208 6.21875 7.84374 6.42377Z" stroke="currentColor" stroke-width="1" stroke-linecap="round"/>
<path fill-rule="evenodd" clip-rule="evenodd" d="M4.50326 8.9907C4.50326 8.39442 4.65532 7.5 6.13251 7.5H11.8675C13.3447 7.5 13.4967 8.39442 13.4967 8.9907C13.4967 9.07054 13.4974 9.16052 13.4982 9.25787C13.5039 10.0087 13.513 10.4478 13.2361 10.7997C12.845 11.2966 10.5424 11.4954 10.0427 10.7997C9.64301 10.2432 9.18103 10.1538 9 10.1786C8.81897 10.1538 8.35699 10.2432 7.95728 10.7997C7.45764 11.4954 5.15496 11.2966 4.76394 10.7997C4.48702 10.4478 4.4961 10.0087 4.50183 9.25787C4.50257 9.16052 4.50326 9.07054 4.50326 8.9907Z" stroke="currentColor" stroke-width="1" stroke-linecap="round"/>
</svg>
