<svg width="512" height="512" viewBox="0 0 512 512" fill="none" xmlns="http://www.w3.org/2000/svg">
<rect width="512" height="512" fill="#D3DFFB"/>
<path d="M95.0091 100.677L93.2099 101.006L92.0482 102.419C83.0226 113.396 76.8573 130.832 73.4831 150.663C70.0835 170.644 69.4128 193.676 71.8537 216.376C74.2929 239.061 79.8635 261.639 89.1054 280.615C97.7046 298.272 109.646 313.129 125.499 321.783C122.473 335.739 119.961 344.656 118.06 350.114C117.122 352.808 116.372 354.545 115.834 355.588L109.94 356.452L114.236 363.004C129.934 386.949 179.98 433.425 256.5 431.428C333.02 433.425 383.066 386.949 398.764 363.004L403.06 356.452L397.166 355.588C396.629 354.545 395.878 352.808 394.94 350.114C393.04 344.656 390.527 335.739 387.501 321.783C403.354 313.129 415.296 298.272 423.895 280.615C433.137 261.639 438.707 239.061 441.146 216.376C443.587 193.676 442.917 170.644 439.517 150.663C436.143 130.832 429.978 113.396 420.952 102.419L419.79 101.006L417.991 100.677C406.327 98.5392 393.639 101.645 381.174 107.428C368.642 113.241 355.817 121.999 343.631 131.911C320.797 150.484 299.671 173.552 286.204 190.338C281.834 188.38 276.8 187.223 272.253 186.525C266.146 185.587 260.23 185.38 256.5 185.482C252.77 185.38 246.854 185.587 240.747 186.525C236.2 187.223 231.166 188.38 226.796 190.338C213.329 173.552 192.203 150.484 169.369 131.911C157.183 121.999 144.358 113.241 131.826 107.428C119.361 101.645 106.674 98.5392 95.0091 100.677Z" fill="url(#paint0_linear_1746_506)" stroke="white" stroke-width="10"/>
<defs>
<linearGradient id="paint0_linear_1746_506" x1="256.5" y1="234" x2="256.5" y2="388" gradientUnits="userSpaceOnUse">
<stop stop-color="white" stop-opacity="0.7"/>
<stop offset="1" stop-color="white"/>
</linearGradient>
</defs>
</svg>
