<svg width="24" height="24" viewBox="0 0 24 24" fill="none" xmlns="http://www.w3.org/2000/svg">
<rect width="24" height="24" rx="4" fill="#7E57EA"/>
<path d="M10.5385 15.8H13.8615V18.5693H10.5385V15.8Z" fill="#DBD3FA"/>
<path d="M14.9692 19.1231H9.43077C9.12615 19.1231 8.87692 18.8738 8.87692 18.5692C8.87692 18.2646 9.12615 18.0154 9.43077 18.0154H14.9692C15.2738 18.0154 15.5231 18.2646 15.5231 18.5692C15.5231 18.8738 15.2738 19.1231 14.9692 19.1231ZM18.2923 16.0769H6.10769C5.49538 16.0769 5 15.5815 5 14.9692V6.10769C5 5.49538 5.49538 5 6.10769 5H18.2923C18.9046 5 19.4 5.49538 19.4 6.10769V14.9692C19.4 15.5815 18.9046 16.0769 18.2923 16.0769Z" fill="white"/>
<path d="M17.7384 14.9692H6.66151C6.3569 14.9692 6.10767 14.72 6.10767 14.4154V6.66151C6.10767 6.3569 6.3569 6.10767 6.66151 6.10767H17.7384C18.0431 6.10767 18.2923 6.3569 18.2923 6.66151V14.4154C18.2923 14.72 18.0431 14.9692 17.7384 14.9692Z" fill="#BAA8F5"/>
</svg>
