<svg width="20" height="20" viewBox="0 0 20 20" fill="none" xmlns="http://www.w3.org/2000/svg">
<rect width="20" height="20" rx="10" fill="url(#paint0_linear_22819_37291)"/>
<g clip-path="url(#clip0_22819_37291)">
<path d="M10.7208 6.14583V13.9784H11.5411L11.8856 14.9546L13.3403 13.9784H15.1381V6.14583H10.7208ZM14.1073 12.9408H13.2883L12.2616 13.6298L12.0182 12.9408H11.7721V7.21497H14.1059V12.9408H14.1073ZM10.193 9.65677H8.37739C8.4061 9.0429 8.43618 8.23079 8.46763 7.2929H10.2573L10.2559 7.18216C10.2559 7.17396 10.2532 6.98118 10.2245 6.78431C10.1958 6.57923 10.1342 6.30716 9.93735 6.30716H6.93501C6.99517 6.02552 7.14966 5.35423 7.33696 5.02474L7.42446 4.87161L7.2481 4.86204C7.23716 4.86204 6.98013 4.84974 6.68208 5.00696C6.19399 5.26673 5.97524 5.77806 5.87954 6.16087C5.62798 7.16028 5.26977 7.85482 5.11802 8.15149C5.0729 8.23899 5.04556 8.29095 5.03325 8.32649C5.00864 8.39349 5.02231 8.46048 5.07153 8.50423C5.21509 8.63411 5.5938 8.46458 5.5979 8.46321C5.6061 8.45911 5.61567 8.45501 5.62798 8.44954C5.81802 8.36341 6.3813 8.10774 6.58227 7.29427H7.35747C7.36704 7.7345 7.39985 9.18646 7.39712 9.65814H5.46938L5.44067 9.67864C5.12485 9.9097 5.02368 10.5427 5.01958 10.57L5.00044 10.6958H7.28364C7.11548 11.7663 6.92134 12.2462 6.8188 12.4376C6.76821 12.5333 6.71899 12.629 6.67251 12.722C6.3813 13.299 6.07915 13.895 4.94575 14.822C4.89653 14.8603 4.85005 14.9314 4.88013 15.0093C4.91294 15.0954 5.00727 15.1337 5.21645 15.1337C5.29028 15.1337 5.37778 15.1296 5.48169 15.12C6.16392 15.0599 6.85981 14.874 7.32876 13.9224C7.56118 13.4425 7.76216 12.9421 7.92895 12.4335L9.79517 14.621L9.86352 14.457C9.87446 14.431 10.1233 13.824 9.93325 13.1458L9.92642 13.1212L8.44849 11.4396L8.1477 11.6665C8.2352 11.3097 8.29263 10.9843 8.3186 10.6945H10.4883V10.5851C10.4883 10.0368 10.2354 9.71146 10.2258 9.69778L10.193 9.65677Z" fill="white"/>
</g>
<defs>
<linearGradient id="paint0_linear_22819_37291" x1="0" y1="10" x2="20" y2="10" gradientUnits="userSpaceOnUse">
<stop stop-color="#396AFC"/>
<stop offset="1" stop-color="#2948FF"/>
</linearGradient>
<clipPath id="clip0_22819_37291">
<rect width="14" height="14" fill="white" transform="translate(3 3)"/>
</clipPath>
</defs>
</svg>
