<svg width="31" height="24" viewBox="0 0 31 24" fill="none" xmlns="http://www.w3.org/2000/svg">
<path fill-rule="evenodd" clip-rule="evenodd" d="M7.33839 5.83697C7.14336 6.21879 6.96237 6.77425 6.84084 7.48991C6.67668 8.45659 6.6414 9.59627 6.76286 10.7281C6.88467 11.8631 7.15903 12.9431 7.5806 13.8104C7.67514 14.0048 7.77509 14.1848 7.88001 14.3502C7.88032 14.2495 7.88114 14.1482 7.88197 14.0467C7.88224 14.0139 7.88251 13.9811 7.88276 13.9483C7.88386 13.8042 7.88483 13.6763 7.88483 13.5639C7.88483 13.0717 7.93797 12.2306 8.47782 11.5074C9.06357 10.7228 10.0297 10.3161 11.3347 10.3161H12.9137C12.2228 9.44773 11.1149 8.23183 9.93625 7.27125C9.31715 6.7667 8.71077 6.35926 8.16129 6.10388C7.83161 5.95066 7.55877 5.86903 7.33839 5.83697ZM18.1774 10.3161H19.7565C21.0615 10.3161 22.0276 10.7228 22.6134 11.5074C23.1532 12.2306 23.2063 13.0717 23.2063 13.5639C23.2063 13.6763 23.2073 13.8042 23.2084 13.9483C23.2087 13.9811 23.2089 14.0139 23.2092 14.0467C23.21 14.1482 23.2109 14.2495 23.2112 14.3502C23.3161 14.1848 23.416 14.0048 23.5106 13.8104C23.9321 12.9431 24.2065 11.8631 24.3283 10.7281C24.4498 9.59627 24.4145 8.45659 24.2503 7.48991C24.1288 6.77425 23.9478 6.21879 23.7528 5.83697C23.5324 5.86903 23.2596 5.95066 22.9299 6.10388C22.3804 6.35926 21.774 6.7667 21.1549 7.27125C19.9762 8.23183 18.8684 9.44773 18.1774 10.3161ZM21.5603 17.5685C21.4348 17.6156 21.3063 17.6566 21.1782 17.6923C20.6765 17.8321 20.093 17.915 19.5195 17.9357C18.9486 17.9564 18.337 17.9174 17.7873 17.783C17.277 17.6582 16.6238 17.4038 16.218 16.8387C16.0244 16.5689 15.8457 16.4518 15.7393 16.4016C15.6927 16.3795 15.6572 16.369 15.6365 16.3643L15.5456 16.3768L15.4547 16.3643C15.4339 16.369 15.3985 16.3795 15.3519 16.4016C15.2455 16.4518 15.0668 16.5689 14.8731 16.8387C14.4674 17.4038 13.8142 17.6582 13.3039 17.783C12.7542 17.9174 12.1425 17.9564 11.5716 17.9357C10.9981 17.915 10.4147 17.8321 9.91297 17.6923C9.78485 17.6566 9.65637 17.6156 9.53083 17.5685C9.41811 18.0316 9.31617 18.381 9.22556 18.6417L9.22538 18.6422C10.1874 19.7547 12.373 21.416 15.5172 21.3315L15.5456 21.3307L15.574 21.3315C18.7182 21.416 20.9038 19.7547 21.8658 18.6422L21.8656 18.6417C21.775 18.381 21.6731 18.0316 21.5603 17.5685ZM7.4895 17.013C6.69737 16.4317 6.10704 15.6163 5.6789 14.7355C5.12352 13.593 4.80068 12.2619 4.66031 10.9539C4.51959 9.64261 4.55713 8.30712 4.75608 7.13557C4.94964 5.99574 5.31774 4.88108 5.93899 4.12409L6.18461 3.82481L6.56532 3.75491C7.4307 3.59604 8.30006 3.83568 9.0522 4.18524C9.81844 4.54135 10.5767 5.06451 11.2718 5.63103C12.3915 6.5435 13.4312 7.63771 14.1858 8.53224C14.322 8.4997 14.4507 8.47631 14.5642 8.45885C14.9384 8.40128 15.2992 8.38687 15.5456 8.3923C15.7919 8.38687 16.1528 8.40128 16.527 8.45885C16.6404 8.47631 16.7691 8.4997 16.9054 8.53224C17.66 7.63771 18.6997 6.5435 19.8194 5.63103C20.5145 5.06451 21.2727 4.54135 22.039 4.18524C22.7911 3.83568 23.6605 3.59604 24.5259 3.75491L24.9066 3.82481L25.1522 4.12409C25.7734 4.88108 26.1415 5.99574 26.3351 7.13557C26.534 8.30712 26.5716 9.64261 26.4309 10.9539C26.2905 12.2619 25.9676 13.593 25.4123 14.7355C24.9841 15.6163 24.3938 16.4317 23.6017 17.013C23.6837 17.3542 23.7546 17.6093 23.8132 17.7958L24.8943 17.9546L23.9878 19.34C23.0203 20.8186 20.058 23.5565 15.5456 23.447C11.0332 23.5565 8.0709 20.8186 7.10339 19.34L6.19686 17.9546L7.27799 17.7958C7.33656 17.6093 7.40752 17.3542 7.4895 17.013ZM10.1721 12.7733C10.058 12.9262 9.99946 13.1801 9.99946 13.5639C9.99946 13.6852 9.99843 13.8208 9.99735 13.9617L9.99733 13.9645C9.99289 14.5468 9.9904 14.8988 10.0256 15.1748C10.0496 15.3621 10.0852 15.458 10.1237 15.5214C10.1288 15.5242 10.1346 15.5273 10.1411 15.5306C10.21 15.5657 10.322 15.6102 10.4805 15.6543C10.7972 15.7426 11.2127 15.8058 11.6481 15.8215C12.086 15.8374 12.4931 15.8034 12.8018 15.7279C13.0816 15.6595 13.1653 15.5864 13.1672 15.5885C13.8951 14.5846 14.8474 14.2134 15.5456 14.2479C16.2438 14.2134 17.1961 14.5846 17.924 15.5885C17.9259 15.5864 18.0096 15.6595 18.2894 15.7279C18.598 15.8034 19.0052 15.8374 19.4431 15.8215C19.8785 15.8058 20.294 15.7426 20.6107 15.6543C20.7692 15.6102 20.8811 15.5657 20.9501 15.5306C20.9566 15.5273 20.9624 15.5242 20.9674 15.5214C21.006 15.458 21.0416 15.3621 21.0655 15.1748C21.1008 14.8988 21.0983 14.5468 21.0938 13.9645L21.0938 13.9615C21.0927 13.8206 21.0917 13.6852 21.0917 13.5639C21.0917 13.1801 21.0332 12.9262 20.9191 12.7733C20.8509 12.682 20.6207 12.4316 19.7565 12.4316H11.3347C10.4705 12.4316 10.2403 12.682 10.1721 12.7733Z" fill="url(#paint0_linear_22953_22183)"/>
<path d="M2.81189 4.90694C2.92098 5.09535 3.20908 5.01816 3.20934 4.80045L3.21087 3.54141C3.21096 3.46548 3.25146 3.39533 3.31717 3.35729L4.40676 2.72645C4.59517 2.61737 4.51798 2.32927 4.30027 2.329L3.04124 2.32748C2.9653 2.32739 2.89515 2.28689 2.85711 2.22117L2.22627 1.13158C2.11719 0.943172 1.82909 1.02037 1.82882 1.23808L1.8273 2.49711C1.82721 2.57304 1.78671 2.64319 1.72099 2.68124L0.631402 3.31207C0.442993 3.42116 0.520188 3.70926 0.737897 3.70952L1.99693 3.71104C2.07286 3.71114 2.14301 3.75164 2.18106 3.81735L2.81189 4.90694Z" fill="url(#paint1_linear_22953_22183)"/>
<path d="M27.9748 18.879C27.975 19.0241 28.1671 19.0756 28.2398 18.95L28.6603 18.2236C28.6857 18.1798 28.7325 18.1528 28.7831 18.1527L29.6225 18.1517C29.7676 18.1515 29.8191 17.9595 29.6934 17.8868L28.9671 17.4662C28.9232 17.4408 28.8962 17.3941 28.8962 17.3434L28.8952 16.5041C28.895 16.3589 28.7029 16.3075 28.6302 16.4331L28.2096 17.1595C28.1843 17.2033 28.1375 17.2303 28.0869 17.2304L27.2475 17.2314C27.1024 17.2315 27.0509 17.4236 27.1765 17.4963L27.9029 17.9169C27.9467 17.9423 27.9737 17.989 27.9738 18.0396L27.9748 18.879Z" fill="url(#paint2_linear_22953_22183)"/>
<defs>
<linearGradient id="paint0_linear_22953_22183" x1="5.76541" y1="4.85087" x2="25.5977" y2="22.2956" gradientUnits="userSpaceOnUse">
<stop stop-color="#3F8FFF"/>
<stop offset="1" stop-color="#EF2FDF"/>
</linearGradient>
<linearGradient id="paint1_linear_22953_22183" x1="1.08586" y1="5.51136" x2="4.54317" y2="0.917804" gradientUnits="userSpaceOnUse">
<stop stop-color="#3F8FFF"/>
<stop offset="1" stop-color="#EF2FDF"/>
</linearGradient>
<linearGradient id="paint2_linear_22953_22183" x1="26.7768" y1="18.6526" x2="30.3041" y2="17.153" gradientUnits="userSpaceOnUse">
<stop stop-color="#3F8FFF"/>
<stop offset="1" stop-color="#EF2FDF"/>
</linearGradient>
</defs>
</svg>
