<svg width="188" height="63" viewBox="0 0 188 63" fill="none" xmlns="http://www.w3.org/2000/svg">
<path d="M50.561 49.1275C53.8752 49.8171 57.8826 50.2547 62.583 50.4403L60.9482 54.5775C53.9417 54.2593 48.3753 53.3045 44.2492 51.7133C39.6482 53.1189 33.8117 54.1002 26.7398 54.6571L25.9663 50.5994C30.8559 50.2547 35.1186 49.658 38.7545 48.8093C37.0132 47.6159 35.3918 46.1705 33.8902 44.4732C32.0187 45.534 29.8847 46.555 27.4883 47.5363L26.704 43.2002C31.3007 41.5824 34.9762 39.3414 37.7306 36.4772H27.8906L27.892 32.6583H43.412L43.5918 30.9477H31.6318L31.6248 27.2083H43.9848L44.1813 25.3386H30.4613L30.4544 21.5992H44.5744L44.8921 18.5758H49.6121L49.2944 21.5992H62.9344L62.5413 25.3386H48.9013L48.7048 27.2083H61.1448L60.7518 30.9477H48.3118L48.132 32.6583H63.412L63.0106 36.4772H43.3306C42.8371 37.1137 42.2446 37.8033 41.5532 38.5458H56.4332C57.6865 38.5458 58.5192 38.9967 58.931 39.8984C59.3429 40.8001 59.1184 41.7946 58.2575 42.8819C56.2593 45.4014 53.6938 47.4833 50.561 49.1275ZM44.3217 47.2181C47.7299 45.9981 50.6747 44.3671 53.156 42.325H37.236C36.5458 42.8024 36.0149 43.1604 35.6431 43.3991H38.4431C40.2225 44.9903 42.1821 46.2633 44.3217 47.2181ZM96.0016 38.4663C96.9616 38.4663 97.7042 38.758 98.2296 39.3414C98.7549 39.9249 98.9674 40.694 98.8671 41.6487L97.9389 50.4801C97.8385 51.4348 97.4643 52.2039 96.8164 52.7874C96.1684 53.3708 95.3644 53.6626 94.4044 53.6626H72.4844C71.5244 53.6626 70.7817 53.3708 70.2564 52.7874C69.731 52.2039 69.5185 51.4348 69.6189 50.4801L70.5471 41.6487C70.6474 40.694 71.0216 39.9249 71.6696 39.3414C72.3176 38.758 73.1216 38.4663 74.0816 38.4663H96.0016ZM92.7108 49.6049C93.1108 49.6049 93.3318 49.406 93.3736 49.0082L93.9924 43.1206C94.0342 42.7228 93.8551 42.5239 93.4551 42.5239H75.7751C75.3751 42.5239 75.1542 42.7228 75.1124 43.1206L74.4936 49.0082C74.4518 49.406 74.6308 49.6049 75.0308 49.6049H92.7108ZM88.2425 31.2261H100.803L100.376 35.2838H70.7761L70.8425 31.2261H83.3625L83.8308 26.7707H69.0308L69.1057 22.6335H84.2657L84.6838 18.6554H89.5638L89.1457 22.6335H104.346L103.911 26.7707H88.7108L88.2425 31.2261ZM140.907 49.6447C140.77 50.9442 140.257 52.0183 139.368 52.8669C138.479 53.7156 137.335 54.193 135.937 54.2991C134.03 54.4317 131.955 54.2593 129.712 53.7819L129.062 49.6845C130.962 50.1353 132.585 50.2944 133.932 50.1618C135.303 50.0558 136.055 49.3795 136.186 48.133L139.284 18.6554H144.164L140.907 49.6447ZM133.499 44.3936H128.779L131.095 22.355H135.815L133.499 44.3936ZM121.756 22.1561L128.861 27.2481L128.296 32.6185L119.251 25.816C117.658 27.7785 115.644 29.688 113.209 31.5444C113.345 31.5179 113.547 31.5046 113.813 31.5046H122.853C125.04 31.5046 126.142 32.5654 126.159 34.6871C126.179 36.7822 125.957 38.8906 125.494 41.0122C125.279 42.0465 124.775 42.9085 123.982 43.598C123.19 44.2875 122.257 44.6588 121.185 44.7119C119.441 44.8179 117.84 44.6986 116.383 44.3538L115.717 40.4155C117.12 40.7603 118.427 40.8929 119.635 40.8133C120.331 40.7868 120.762 40.3625 120.929 39.5404C121.185 38.3734 121.306 37.2198 121.292 36.0794C121.308 35.6816 121.102 35.4827 120.675 35.4827H115.515C115.115 35.4827 114.894 35.6816 114.852 36.0794L113.581 48.1728C113.475 49.1806 114.016 49.7508 115.202 49.8834C116.812 50.0425 118.425 50.0425 120.042 49.8834C121.282 49.7508 121.955 49.1806 122.061 48.1728L122.392 45.0301L126.965 45.6666L126.542 49.6845C126.423 50.8249 125.896 51.7796 124.961 52.5487C124.057 53.2913 122.971 53.7289 121.703 53.8615C118.63 54.1797 115.617 54.1797 112.663 53.8615C111.451 53.7289 110.47 53.2913 109.721 52.5487C108.925 51.7531 108.585 50.7983 108.702 49.6845L110.279 34.6871C110.335 34.1567 110.432 33.7323 110.573 33.4141C109.511 34.1302 108.51 34.7666 107.572 35.3236L106.735 30.351C112.39 27.0359 116.371 23.1506 118.68 18.6952H123.44C122.909 19.9416 122.347 21.0953 121.756 22.1561ZM157.988 25.6568L149.832 22.9517L150.275 18.735L158.431 21.4401L157.988 25.6568ZM178.183 35.602C180.263 35.602 181.194 36.6363 180.976 38.705L180.387 44.3141C180.278 45.3484 179.903 46.1307 179.26 46.6611C178.674 47.165 177.901 47.417 176.941 47.417H161.541C159.461 47.417 158.53 46.3827 158.747 44.3141L159.336 38.705C159.437 37.7502 159.796 36.9944 160.415 36.4374C161.033 35.8805 161.823 35.602 162.783 35.602H178.183ZM164.541 39.421C164.168 39.421 163.962 39.6067 163.923 39.9779L163.601 43.0411C163.562 43.4124 163.729 43.598 164.102 43.598H175.222C175.569 43.598 175.762 43.4124 175.801 43.0411L176.131 39.8984C176.135 39.6067 175.978 39.4475 175.661 39.421H164.541ZM174.241 29.7145H183.881L183.476 33.5732H158.196L158.321 29.7145H169.441L169.784 26.4524H164.384C164.063 27.2215 163.726 27.8978 163.371 28.4813H158.971C160.454 25.5375 161.59 22.5937 162.379 19.6499H166.779C166.586 20.4721 166.294 21.4798 165.901 22.6733H170.181L170.604 18.6554H175.404L174.981 22.6733H182.821L182.424 26.4524H174.584L174.241 29.7145ZM155.346 42.8024C155.294 45.3218 155.945 47.1252 157.297 48.2126C158.453 49.1408 160.218 49.6049 162.591 49.6049H182.431L180.952 53.7819H162.072C157.085 53.7819 153.995 52.0978 152.803 48.7297C151.839 50.7983 149.631 52.7741 146.18 54.6571L145.242 50.6392C146.745 49.7906 147.995 48.6767 148.993 47.2976C149.994 45.892 150.585 44.4599 150.765 43.0013L151.785 33.2948C151.803 32.8704 151.6 32.645 151.176 32.6185H148.216L148.234 28.6404H153.674C155.781 28.6404 156.726 29.6747 156.508 31.7433L155.346 42.8024Z" fill="url(#paint0_linear_15227_132683)"/>
<path d="M8.37886 11.8279C8.93573 10.323 11.0643 10.323 11.6211 11.8279L13.3035 16.3744C13.4786 16.8476 13.8516 17.2206 14.3248 17.3957L18.8713 19.0781C20.3762 19.6349 20.3762 21.7635 18.8713 22.3204L14.3248 24.0027C13.8516 24.1778 13.4786 24.5509 13.3035 25.024L11.6211 29.5705C11.0643 31.0755 8.93573 31.0755 8.37886 29.5705L6.69649 25.024C6.52141 24.5509 6.14837 24.1778 5.67522 24.0027L1.12869 22.3204C-0.376231 21.7635 -0.376231 19.6349 1.12869 19.0781L5.67522 17.3957C6.14837 17.2206 6.52141 16.8476 6.69649 16.3744L8.37886 11.8279Z" fill="url(#paint1_linear_15227_132683)"/>
<path d="M24.0839 1.33707C24.3986 0.486601 25.6014 0.486602 25.9161 1.33707L26.691 3.43108C26.7899 3.69846 27.0008 3.90928 27.2681 4.00822L29.3621 4.78307C30.2126 5.09777 30.2126 6.30066 29.3621 6.61537L27.2681 7.39022C27.0008 7.48916 26.7899 7.69997 26.691 7.96736L25.9161 10.0614C25.6014 10.9118 24.3986 10.9118 24.0839 10.0614L23.309 7.96736C23.2101 7.69997 22.9992 7.48916 22.7319 7.39022L20.6379 6.61536C19.7874 6.30066 19.7874 5.09777 20.6379 4.78307L22.7319 4.00822C22.9992 3.90928 23.2101 3.69846 23.309 3.43108L24.0839 1.33707Z" fill="url(#paint2_linear_15227_132683)"/>
<defs>
<linearGradient id="paint0_linear_15227_132683" x1="28" y1="10.6992" x2="180.034" y2="69.0122" gradientUnits="userSpaceOnUse">
<stop stop-color="#33D6C0"/>
<stop offset="0.25" stop-color="#5083FB"/>
<stop offset="0.5" stop-color="#336DF4"/>
<stop offset="0.75" stop-color="#4752E6"/>
<stop offset="1" stop-color="#8D55ED"/>
</linearGradient>
<linearGradient id="paint1_linear_15227_132683" x1="15.5301" y1="26.4326" x2="5.43817" y2="7.30235" gradientUnits="userSpaceOnUse">
<stop stop-color="#00D8FF"/>
<stop offset="1" stop-color="#0046FF"/>
</linearGradient>
<linearGradient id="paint2_linear_15227_132683" x1="31.838" y1="5.69922" x2="18.162" y2="5.69922" gradientUnits="userSpaceOnUse">
<stop stop-color="#FFF73F"/>
<stop offset="1" stop-color="#FF5F5F"/>
</linearGradient>
</defs>
</svg>
