<svg width="25" height="24" viewBox="0 0 25 24" fill="none" xmlns="http://www.w3.org/2000/svg">
<g id="Group">
<path id="Vector" fill-rule="evenodd" clip-rule="evenodd" d="M16.263 0L23.5 7.237V22C23.5 22.5304 23.2893 23.0391 22.9142 23.4142C22.5391 23.7893 22.0304 24 21.5 24H3.5C2.96957 24 2.46086 23.7893 2.08579 23.4142C1.71071 23.0391 1.5 22.5304 1.5 22V2C1.5 1.46957 1.71071 0.960859 2.08579 0.585786C2.46086 0.210714 2.96957 0 3.5 0L16.263 0Z" fill="#FF7800"/>
<path id="Vector_2" fill-rule="evenodd" clip-rule="evenodd" d="M18.263 7.237C17.7326 7.237 17.2239 7.02629 16.8488 6.65121C16.4737 6.27614 16.263 5.76743 16.263 5.237V0L23.5 7.237H18.263Z" fill="white" fill-opacity="0.401"/>
<path id="Vector_3" fill-rule="evenodd" clip-rule="evenodd" d="M17.13 9.893C17.1299 9.78824 17.1067 9.68479 17.0621 9.59001C17.0175 9.49522 16.9525 9.41144 16.8718 9.3446C16.7912 9.27777 16.6968 9.22954 16.5953 9.20334C16.4939 9.17714 16.3879 9.17361 16.285 9.193L9.57699 10.45C9.4136 10.4805 9.26601 10.5672 9.15974 10.695C9.05346 10.8228 8.99519 10.9838 8.99499 11.15L8.99999 17.565C8.66848 17.4428 8.30665 17.4296 7.96711 17.5273C7.62758 17.625 7.32806 17.8284 7.11213 18.108C6.89619 18.3877 6.77511 18.7289 6.76649 19.0821C6.75786 19.4353 6.86215 19.782 7.06418 20.0719C7.26621 20.3617 7.55544 20.5795 7.8898 20.6936C8.22417 20.8077 8.58622 20.8122 8.92329 20.7064C9.26037 20.6005 9.55488 20.3899 9.76399 20.1051C9.9731 19.8204 10.0859 19.4763 10.086 19.123V13.073L16.043 11.955V16.307C15.7115 16.1848 15.3496 16.1716 15.0101 16.2693C14.6706 16.367 14.3711 16.5704 14.1551 16.85C13.9392 17.1297 13.8181 17.4709 13.8095 17.8241C13.8009 18.1773 13.9052 18.524 14.1072 18.8138C14.3092 19.1037 14.5984 19.3215 14.9328 19.4356C15.2672 19.5497 15.6292 19.5542 15.9663 19.4484C16.3034 19.3425 16.5979 19.1319 16.807 18.8471C17.0161 18.5624 17.1289 18.2183 17.129 17.865V9.894L17.13 9.893Z" fill="white"/>
</g>
</svg>
