<svg width="25" height="24" viewBox="0 0 25 24" fill="none" xmlns="http://www.w3.org/2000/svg">
<g id="Group">
<path id="Vector" fill-rule="evenodd" clip-rule="evenodd" d="M2.5 1H7.187C7.62225 0.999851 8.04567 1.14169 8.393 1.404L10.15 2.732C10.4969 2.99446 10.92 3.13664 11.355 3.137H22.5C23.0304 3.137 23.5391 3.34771 23.9142 3.72279C24.2893 4.09786 24.5 4.60657 24.5 5.137V21C24.5 21.5304 24.2893 22.0391 23.9142 22.4142C23.5391 22.7893 23.0304 23 22.5 23H2.5C1.96957 23 1.46086 22.7893 1.08579 22.4142C0.710714 22.0391 0.5 21.5304 0.5 21V3C0.5 2.46957 0.710714 1.96086 1.08579 1.58579C1.46086 1.21071 1.96957 1 2.5 1Z" fill="#FFA200"/>
<path id="Vector_2" fill-rule="evenodd" clip-rule="evenodd" d="M0.5 7.1H24.5V21C24.5 21.5304 24.2893 22.0391 23.9142 22.4142C23.5391 22.7893 23.0304 23 22.5 23H2.5C1.96957 23 1.46086 22.7893 1.08579 22.4142C0.710714 22.0391 0.5 21.5304 0.5 21V7.1Z" fill="#FFC154"/>
<path id="Vector_3" d="M13.471 20H11.53C9.68699 20 8.23199 20 8.23199 19.053V18.864C8.23199 17.09 9.71199 15.647 11.53 15.647H13.472C15.29 15.647 16.77 17.09 16.77 18.864V19.054C16.77 20 15.241 20 13.472 20H13.471ZM12.333 15.48C11.645 15.4792 10.9854 15.2056 10.4989 14.7191C10.0124 14.2326 9.73879 13.573 9.73799 12.885C9.73879 12.197 10.0124 11.5374 10.4989 11.0509C10.9854 10.5645 11.645 10.2908 12.333 10.29C13.021 10.2908 13.6806 10.5645 14.1671 11.0509C14.6535 11.5374 14.9272 12.197 14.928 12.885C14.9272 13.573 14.6535 14.2326 14.1671 14.7191C13.6806 15.2056 13.021 15.4792 12.333 15.48Z" fill="white"/>
</g>
</svg>
